
<svg width="80" height="80" xmlns="http://www.w3.org/2000/svg">
<path d="m0 80v-80h80v80" fill="#002569"/>
<path d="m67.9 45.9c2.1 0.1 4 0.7 5.8 1.8 1.7 1.1 2.6 2.9 2.6 5.2 0 2.2-0.8 4-2.3 5.2-1.5 1.3-3.3 1.9-5.4 1.9h-13.4v-1.2c1-0 2.3-0.2 3-0.5 0.6-0.3 1-1.2 1-2.6v-17.4c0-1.4-0.3-2.3-1-2.6-0.7-0.3-2-0.5-3-0.5v-1.2h12.6c1.8 0 3.4 0.5 4.8 1.4s2.2 2.4 2.2 4.3c0 2.1-0.7 3.6-2.1 4.5-1.4 0.8-3 1.4-4.8 1.7zm-4.8 0.8v9c0 1.3 0.4 2.1 1.1 2.4 0.7 0.4 1.6 0.5 2.7 0.5 1.9 0 3.2-0.6 3.9-1.9 0.7-1.2 1.1-2.7 1.1-4.4 0-2.9-0.9-4.5-2.7-5-1.9-0.4-3.9-0.6-6.1-0.6zm0-1.3c2 0 3.8-0.2 5.3-0.7s2.2-1.9 2.2-4.4c0-1.6-0.3-2.8-0.9-3.7s-1.8-1.4-3.5-1.4h-3.1zm-10.2-5.9c-1.5-2.2-3.6-3.9-6.4-4.8-1.5-0.5-3.1-0.7-4.5-0.7h-13.2v1.2c1.1 0 2.3 0.2 3 0.5 0.7 0.3 1 1.2 1 2.6v17.4c0 1.4-0.3 2.3-1 2.6-0.5 0.2-1.2 0.4-2 0.5-0.6-0.1-1.2-0.3-1.6-0.6-0.5-0.4-1-1.1-1.4-1.9l-9.8-22.8h-1.4l-9.4 22.7c-0.4 1-0.9 1.7-1.6 2.1-0.6 0.3-1.5 0.5-2.6 0.5v1.2h9v-1.2h-1.4c-1.3-0-2-1.2-1.7-2l2.2-5.6h10.4l2.1 5.1c0.6 1.4 0.4 2.5-1 2.5h-1.8v1.2h22.5c3.9 0 7-1.2 9.4-3.5 2.4-2.4 3.6-5.5 3.6-9.3-0.1-2.9-0.9-5.4-2.4-7.7zm-42.3 10 4.6-11.5 4.5 11.5zm37.9 5.7c-1.3 2.3-3.7 
3.5-7.2 3.5-1.8 0-3.1-0.2-3.7-0.7s-0.9-1.7-0.9-3.6v-19.1c0.9-0.1 1.8-0.1 2.8-0.1 
3.8 0 6.6 1.1 8.4 3.2s2.6 5 2.6 8.8c.1 2.9-.6 5.6-2 8z" fill="#fff"/>
</svg>
