<svg xmlns="http://www.w3.org/2000/svg" width="548" height="163" viewBox="0 0 548 163" fill="none"><g clip-path="url(#clip0_7518_1363)"><path d="M156 132.9C156 130.5 156.6 128.6 157.8 127.3C159.1 126 160.8 125.3 163.1 125.3C165.4 125.3 164 125.3 164.6 125.5C165.2 125.6 165.7 125.8 166.1 126V128.9C165.4 128.5 164.5 128.3 163.4 128.3C160.7 128.3 159.4 129.8 159.4 132.8V135.5H165.9V138.6H159.4V161.7H155.9V133L156 132.9ZM170.4 135.5H173.9V140.4C174.8 138.8 176 137.5 177.6 136.5C179.2 135.4 181 135 182.9 135.1V138.6C182.3 138.5 181.9 138.4 181.6 138.4C180.2 138.4 179 138.8 177.8 139.7C176.6 140.5 175.7 141.6 175 143C174.3 144.3 173.9 145.7 173.9 147.1V161.6H170.4V135.4V135.5ZM197.2 162.2C194.8 162.2 192.6 161.6 190.7 160.4C188.8 159.2 187.2 157.5 186.1 155.5C185 153.4 184.4 151.1 184.4 148.6C184.4 146.1 185 143.7 186.1 141.6C187.3 139.5 188.8 137.9 190.7 136.8C192.7 135.6 194.8 135 197.2 135C199.6 135 201.7 135.6 203.7 136.8C205.7 138 207.2 139.6 208.3 141.6C209.5 143.7 210 146 210 148.6C210 151.2 209.4 153.4 208.3 155.5C207.2 157.6 205.6 159.2 203.7 160.4C201.8 161.6 199.6 162.2 197.2 162.2ZM197.2 159.1C199 159.1 200.6 158.6 202 157.7C203.4 156.8 204.5 155.5 205.3 153.9C206.1 152.3 206.5 150.5 206.5 148.5C206.5 146.5 206.1 144.7 205.3 143.1C204.5 141.5 203.4 140.2 202 139.3C200.6 138.4 199 137.9 197.2 137.9C195.4 137.9 193.8 138.4 192.4 139.3C191 140.2 189.9 141.5 189.1 143.1C188.3 144.7 187.9 146.5 187.9 148.5C187.9 150.5 188.3 152.3 189.1 153.9C189.9 155.5 191 156.8 192.4 157.7C193.8 158.6 195.4 159.1 197.2 159.1ZM215.9 135.5H219.4V140.2C220.3 138.7 221.6 137.5 223 136.5C224.5 135.5 226.2 135 228.2 135C230.2 135 231.9 135.6 233.3 136.7C234.7 137.8 235.5 139.3 235.9 141.1C236.7 139.5 237.9 138 239.7 136.8C241.5 135.6 243.4 135 245.4 135C247.4 135 249.9 135.8 251.4 137.4C252.9 139 253.7 141.6 253.7 145.2V161.7H250.2V145.9C250.2 143 249.7 141 248.7 139.8C247.7 138.6 246.3 138 244.5 138C242.7 138 241.8 138.4 240.6 139.3C239.4 140.1 238.4 141.2 237.7 142.5C237 143.8 236.6 145.1 236.6 146.4V161.8H233.1V146C233.1 143.2 232.6 141.2 231.5 140C230.4 138.8 229 138.2 227.3 138.2C225.6 138.2 224.5 138.6 223.3 139.5C222.1 140.3 221.1 141.4 220.4 142.8C219.7 144.1 219.3 145.6 219.3 147.1V162H215.8V135.8L215.9 135.5ZM285.9 162.2C283.5 162.2 281.3 161.8 279.3 160.9C277.3 160 275.6 158.8 274.2 157.4C272.8 155.9 271.9 154.4 271.3 152.8L274.7 151.1C275.5 153.5 276.9 155.3 279 156.8C281.1 158.2 283.4 159 285.9 159C288.4 159 290.5 158.4 292.2 157.1C293.8 155.8 294.7 154.2 294.7 152.2C294.7 150.2 294.1 149 292.9 148.2C291.7 147.4 290.1 146.7 288.1 146.3L282.9 145.1C280.1 144.5 277.7 143.3 275.7 141.6C273.8 139.9 272.8 137.7 272.8 135.1C272.8 132.5 273.3 131.6 274.3 130.2C275.4 128.7 276.8 127.6 278.6 126.7C280.4 125.9 282.4 125.4 284.5 125.4C286.6 125.4 288.7 125.8 290.6 126.6C292.5 127.4 294.1 128.3 295.3 129.5C296.6 130.6 297.4 131.7 297.8 132.7L294.5 134.6C293.8 133.1 292.4 131.7 290.6 130.5C288.7 129.3 286.6 128.7 284.3 128.7C282 128.7 281.8 129 280.6 129.5C279.4 130 278.4 130.7 277.7 131.7C277 132.6 276.6 133.8 276.6 135.1C276.6 136.4 277.2 138.3 278.5 139.4C279.8 140.4 281.7 141.2 284 141.7L289.4 143C295.4 144.4 298.3 147.4 298.3 152.1C298.3 156.8 297.7 155.9 296.6 157.5C295.5 159 294 160.3 292.1 161.1C290.2 162 288 162.4 285.7 162.4L285.9 162.2ZM316.4 162.2C314 162.2 311.7 161.6 309.7 160.5C307.6 159.3 306 157.7 304.8 155.6C303.6 153.5 303 151.1 303 148.5C303 145.9 303.6 143.6 304.7 141.5C305.8 139.4 307.3 137.8 309.2 136.7C311.1 135.5 313.3 135 315.6 135C317.9 135 320.2 135.5 322.1 136.6C324 137.7 325.4 139.1 326.4 140.9C327.4 142.7 328 144.7 328.2 147C328.2 147.5 328.2 148.3 328.2 149.6H306.6C306.7 151.6 307.3 153.3 308.2 154.7C309.1 156.1 310.3 157.2 311.8 158C313.3 158.7 314.9 159.1 316.6 159.1C318.3 159.1 320 158.7 321.3 157.8C322.7 156.9 323.7 155.7 324.4 154.3L327.3 156C326.4 157.8 324.9 159.3 323 160.5C321.1 161.7 318.9 162.2 316.5 162.2H316.4ZM324.4 146.5C324.4 144.1 323.5 142.1 322 140.4C320.5 138.7 318.3 137.9 315.4 137.9C312.5 137.9 311.2 138.6 309.5 140.1C307.9 141.6 306.9 143.7 306.5 146.5H324.3H324.4ZM333.9 135.5H337.4V140.4C338.3 138.8 339.5 137.5 341.1 136.5C342.7 135.4 344.5 135 346.4 135.1V138.6C345.8 138.5 345.4 138.4 345.1 138.4C343.7 138.4 342.5 138.8 341.3 139.7C340.1 140.5 339.2 141.6 338.5 143C337.8 144.3 337.4 145.7 337.4 147.1V161.6H333.9V135.4V135.5ZM347.8 135.5H351.6L360.1 158L368.5 135.5H372.3L362.1 161.7H358.1L347.7 135.5H347.8ZM380.6 135.5V161.7H377.1V135.5H380.6ZM378.9 130.8C378.2 130.8 377.5 130.5 377 130C376.5 129.5 376.2 128.8 376.2 128.1C376.2 127.4 376.5 126.7 377 126.2C377.5 125.6 378.2 125.4 378.9 125.4C379.6 125.4 380.3 125.7 380.8 126.2C381.3 126.7 381.6 127.4 381.6 128.1C381.6 128.8 381.3 129.5 380.8 130C380.3 130.5 379.6 130.8 378.9 130.8ZM399.6 162.2C397.1 162.2 394.8 161.6 392.8 160.4C390.8 159.2 389.2 157.5 388.1 155.4C387 153.3 386.4 151 386.4 148.4C386.4 145.8 386.9 143.6 388 141.6C389.1 139.5 390.7 137.9 392.6 136.8C394.6 135.6 396.9 135 399.4 135C401.9 135 403.9 135.5 405.7 136.6C407.6 137.7 409 139 410 140.7L407 142.4C406.3 141.2 405.3 140.1 403.9 139.3C402.5 138.5 401 138 399.4 138C397.8 138 395.9 138.5 394.5 139.4C393.1 140.3 392 141.6 391.2 143.2C390.4 144.8 390 146.6 390 148.5C390 150.4 390.4 152.3 391.2 153.9C392 155.5 393.2 156.8 394.6 157.7C396.1 158.6 397.7 159.1 399.5 159.1C401.3 159.1 402.9 158.6 404.2 157.7C405.6 156.8 406.6 155.6 407.3 154.1L410.2 155.8C409.2 157.7 407.8 159.2 405.9 160.4C404 161.6 401.9 162.2 399.5 162.2H399.6ZM427 162.2C424.6 162.2 422.3 161.6 420.3 160.5C418.2 159.3 416.6 157.7 415.4 155.6C414.2 153.5 413.6 151.1 413.6 148.5C413.6 145.9 414.2 143.6 415.3 141.5C416.4 139.4 417.9 137.8 419.8 136.7C421.7 135.5 423.9 135 426.2 135C428.5 135 430.8 135.5 432.7 136.6C434.6 137.7 436 139.1 437 140.9C438 142.7 438.6 144.7 438.8 147C438.8 147.5 438.8 148.3 438.8 149.6H417.2C417.3 151.6 417.9 153.3 418.8 154.7C419.7 156.1 420.9 157.2 422.4 158C423.9 158.7 425.5 159.1 427.2 159.1C428.9 159.1 430.6 158.7 431.9 157.8C433.3 156.9 434.3 155.7 435 154.3L437.9 156C437 157.8 435.5 159.3 433.6 160.5C431.7 161.7 429.5 162.2 427.1 162.2H427ZM435 146.5C435 144.1 434.1 142.1 432.6 140.4C431.1 138.7 428.9 137.9 426 137.9C423.1 137.9 421.8 138.6 420.1 140.1C418.5 141.6 417.5 143.7 417.1 146.5H434.9H435ZM445 125.9H450.2L467.4 157.2V125.9H471V161.7H466.1L448.7 130.2V161.7H445.1V125.9H445ZM490.1 162.2C487.7 162.2 485.5 161.6 483.6 160.4C481.7 159.2 480.1 157.5 479 155.5C477.9 153.4 477.3 151.1 477.3 148.6C477.3 146.1 477.9 143.7 479 141.6C480.2 139.5 481.7 137.9 483.6 136.8C485.6 135.6 487.7 135 490.1 135C492.5 135 494.6 135.6 496.6 136.8C498.6 138 500.1 139.6 501.2 141.6C502.4 143.7 502.9 146 502.9 148.6C502.9 151.2 502.3 153.4 501.2 155.5C500.1 157.6 498.5 159.2 496.6 160.4C494.7 161.6 492.5 162.2 490.1 162.2ZM490.1 159.1C491.9 159.1 493.5 158.6 494.9 157.7C496.3 156.8 497.4 155.5 498.2 153.9C499 152.3 499.4 150.5 499.4 148.5C499.4 146.5 499 144.7 498.2 143.1C497.4 141.5 496.3 140.2 494.9 139.3C493.5 138.4 491.9 137.9 490.1 137.9C488.3 137.9 486.7 138.4 485.3 139.3C483.9 140.2 482.8 141.5 482 143.1C481.2 144.7 480.8 146.5 480.8 148.5C480.8 150.5 481.2 152.3 482 153.9C482.8 155.5 483.9 156.8 485.3 157.7C486.7 158.6 488.3 159.1 490.1 159.1ZM505.7 135.5H509.4L515.3 158L521.2 135.5H525.8L532 158.1L538 135.5H541.6L534.2 161.7H529.7L523.4 139.2L517.3 161.7H512.9L505.6 135.5H505.7Z" fill="white"/><path d="M152.6 74.8C152.6 58.1 163 51.5 171.6 51.5C180.2 51.5 181.3 53.7 184.3 57.2V44.7H178.6V37.5H194.6C196.1 37.5 196.7 38.5 196.7 40.3V87C196.7 87.9 197.7 89.2 198.8 89.2H201.8V96.2H186.9C185.7 96.2 184.8 94.4 184.7 91.3C181.9 94.6 177.4 97 171.3 97C162.3 97 152.8 91.8 152.8 74.8H152.6ZM184.2 86.1V61.8C182 60.8 179 59.9 176 59.9C170.2 59.9 165 63.3 165 74.5C165 85.7 169.9 89.6 175 89.6C180.1 89.6 181.9 88.3 184.3 86.2L184.2 86.1Z" fill="white"/><path d="M203.3 83.6C203.3 74.3 210.5 70.2 220.8 70.2C231.1 70.2 227.1 70.5 229.8 71.2V66.6C229.8 62.1 227.4 60 222.2 60C217 60 214.1 62.1 212.1 63.9H206.4V54.9C210.6 53.1 216.1 51.5 224.6 51.5C233.1 51.5 242.1 55.2 242.1 65.2V87.1C242.1 88.1 243.1 89.2 244.2 89.2H246.6V95C245 96 242.4 96.6 239.1 96.6C234 96.6 231.3 94.5 230.3 91.1C227 95.1 222.8 96.6 217.5 96.6C209.4 96.7 203.5 92.3 203.5 83.5L203.3 83.6ZM229.7 86.6V77.2C227.8 76.9 225.5 76.8 223.3 76.8C218.4 76.8 215.2 78.9 215.2 83.2C215.2 87.5 217.7 89.8 221.9 89.8C225 89.7 227.6 88.6 229.7 86.7V86.6Z" fill="white"/><path d="M244 52.3H249.2V40.5H261.4V52.3H270.4V59.8H261.4V84C261.4 88.8 263 89.5 267.7 89.5H270.7V96.1C268.9 96.7 266.2 97.1 262.8 97.1C254.3 97.1 249.2 94.4 249.2 85.3V59.6H244V52.3Z" fill="white"/><path d="M272.5 83.6C272.5 74.3 279.7 70.2 290 70.2C300.3 70.2 296.3 70.5 299 71.2V66.6C299 62.1 296.6 60 291.4 60C286.2 60 283.3 62.1 281.3 63.9H275.6V54.9C279.8 53.1 285.3 51.5 293.8 51.5C302.3 51.5 311.3 55.2 311.3 65.2V87.1C311.3 88.1 312.3 89.2 313.4 89.2H315.8V95C314.2 96 311.6 96.6 308.3 96.6C303.2 96.6 300.5 94.5 299.5 91.1C296.2 95.1 292 96.6 286.7 96.6C278.6 96.7 272.7 92.3 272.7 83.5L272.5 83.6ZM299 86.6V77.2C297.1 76.9 294.8 76.8 292.6 76.8C287.7 76.8 284.5 78.9 284.5 83.2C284.5 87.5 287 89.8 291.2 89.8C294.3 89.7 296.9 88.6 299 86.7V86.6Z" fill="white"/><path d="M320.4 90.2C320.4 86.5 323.4 83.3 327.3 83.3C331.2 83.3 334.2 86.3 334.2 90.2C334.2 94.1 331.1 96.9 327.3 96.9C323.5 96.9 320.4 93.9 320.4 90.2Z" fill="white"/><path d="M362.7 67.6L353.9 96.3H343.5L333.5 61.8C333.1 60.5 332 59.4 330.8 59.4H329.2V51.9H348.7V59.4H345L350.8 81.5H350.9L359.4 52.1H368.8L377.3 81.5H377.4L381.9 65.1C382.9 61.2 382.6 59.6 379.1 59.6H377.9V52.1H396.3V59.6H394.8C393.5 59.6 392.1 60.3 391.7 62.1L381.7 96.3H371.3L362.9 67.6H362.8H362.7Z" fill="white"/><path d="M395.4 74.5C395.4 60.3 405.7 51.5 418.7 51.5C431.7 51.5 442 60.3 442 74.5C442 88.7 431.7 97 418.7 97C405.7 97 395.4 88.6 395.4 74.5ZM429.2 74.6C429.2 64.6 424.6 59.7 418.5 59.7C412.4 59.7 407.8 64.6 407.8 74.6C407.8 84.6 412.4 89.2 418.5 89.2C424.6 89.2 429.2 84.4 429.2 74.6Z" fill="white"/><path d="M441.9 89.4H444.9C445.9 89.4 447 88.2 447 87.3V61.9C447 61 446 59.7 444.9 59.7H441.6V52.2H456.7C458.2 52.2 459.1 53.3999 459.2 58.5999C462.2 54.9999 465.6 51.7 471.4 51.7C477.2 51.7 473.2 51.7999 474.1 52.0999V61.2H472C465.6 61.2 461.7 62.5 459.3 63.9V89.3H465.4V96.3H441.8V89.3L441.9 89.4Z" fill="white"/><path d="M474.9 89.4H478.2C479.2 89.4 480.3 88.2 480.3 87.3V47C480.3 46.1 479.3 44.8 478.2 44.8H474.8V37.6H490.6C492.1 37.6 492.7 38.6 492.7 40.4V87.4C492.7 88.4 493.9 89.5 494.8 89.5H498.2V96.5H474.9V89.3V89.4Z" fill="white"/><path d="M498.9 74.8C498.9 58.1 509.3 51.5 517.9 51.5C526.5 51.5 527.6 53.7 530.6 57.2V44.7H524.9V37.5H540.9C542.4 37.5 543 38.5 543 40.3V87C543 87.9 544 89.2 545.1 89.2H548.1V96.2H533.2C532 96.2 531.1 94.4 531 91.3C528.2 94.6 523.7 97 517.6 97C508.6 97 499.1 91.8 499.1 74.8H498.9ZM530.6 86.1V61.8C528.4 60.8 525.4 59.9 522.4 59.9C516.6 59.9 511.4 63.3 511.4 74.5C511.4 85.7 516.3 89.6 521.4 89.6C526.5 89.6 528.3 88.3 530.7 86.2L530.6 86.1Z" fill="white"/><path d="M65.1 130.2C101.054 130.2 130.2 101.054 130.2 65.1C130.2 29.1463 101.054 0 65.1 0C29.1463 0 0 29.1463 0 65.1C0 101.054 29.1463 130.2 65.1 130.2Z" fill="#AED8F3"/><path d="M64.6 110.6C64.8 111.7 61.7 113.4 61 113.8C60.2 114.2 59.2 114.8 58.6 115.7C58.6 114.9 58.4 113.7 58.4 113.6C58.4 113.3 58 113.3 57.8 113.4H57.6V113.6C57.3 113.8 57.1 114 56.9 114.2C56.7 114.4 56.6 114.5 56.4 114.6C56.4 114.4 56.3 114.2 56.2 114C56.1 113.3 56.1 112.4 56.1 111.6C56.2 108.9 59.1 107.6 61.5 108.8C61.6 108.9 62.1 108.8 62.1 108.5V98.2C62.4 98.2 62.8 98.2 63.1 98.2V109.4C63.1 109.533 63.1666 109.633 63.3 109.7C63.7 109.9 64.2 110.1 64.6 110.6Z" fill="#F4D3AA"/><path d="M74.3999 112C74.3999 112.8 74.3999 113.6 74.1999 114.4C74.1999 114.4 74.1999 114.6 74.1999 114.7C73.8999 114.3 73.4999 114 72.8999 113.6C72.6999 113.5 72.1999 113.6 72.1999 113.8C72.1999 114.4 71.9999 115.1 71.8999 115.7C70.2999 114.2 65.0999 111.5 66.0999 110.4C66.3999 110.1 66.8999 109.8 67.2999 109.6C67.3999 109.6 67.5999 109.5 67.5999 109.3V98.1C67.8999 98.1 68.1999 98.1 68.4999 98.1V108.7C68.4999 108.8 69.0999 108.7 69.0999 108.7C71.4999 107.5 74.1999 109.3 74.4999 111.8L74.3999 112Z" fill="#F4D3AA"/><path d="M49.2001 50.0999C49.1001 50.0999 48.9 49.9999 48.8 49.8999C48.9 49.8999 49.1001 49.9999 49.2001 50.0999Z" fill="#78A6D1"/><path d="M27.8 88.8C27.8 88.8 27.8 88.8 27.8 88.9C27.8 88.8 27.7 88.7 27.6 88.5C27.7 88.5 27.8 88.6 27.9 88.7L27.8 88.8Z" fill="#78A6D1"/><path d="M50.6 28.5C49.4 28.3 48.2 28.3 47.1 28.5C48.3 28.3 49.5 28.3 50.6 28.5Z" fill="#78A6D1"/><path d="M66.6 60.2999L65.6 59.2999C65.4 59.1999 65.1 59.1999 64.9 59.2999L64.6 59.5999C65 58.4999 65.4 57.3999 65.6 56.2999C65.8 57.6999 66.2 58.9999 66.7 60.2999H66.6Z" fill="#78A6D1"/><path d="M66.1 50.7C66.1 51.3 66.1 51.8 66.1 52.4C66.1 53.7 65.9 54.9999 65.6 56.2999C65.1 53.0999 65.2 49.8 65.8 46.7C66 48 66.1 49.4 66.1 50.7Z" fill="#78A6D1"/><path d="M57.8 17.9999C57.5 17.7999 57.2 17.5999 56.9 17.3999L56.3 16.8999C56.1 16.7999 56 16.6999 55.9 16.5999L55.6 16.2999C56.1 16.6999 56.6 17.0999 57.2 17.4999C57.4 17.6999 57.6 17.7999 57.8 17.9999Z" fill="#78A6D1"/><path d="M62.6 22.3C62.6 22.3 62.4 22.3 62.3 22.2L56.5 17.1C56.7 17.2 56.8 17.3 57 17.5L59.6 19.7C60.5 20.5 61.2 21.2 62.1 21.9C62.3 22 62.5 22.2 62.7 22.3H62.6Z" fill="#78A6D1"/><path d="M95.5 34.5C93.2 32.5 90.5 30.9 87.6 29.9C82.8 28.3 77.3 28.9 73.3 32C70.3 34.5 68.5 38 67.2 41.4C66.6 43.1 66.1 44.9 65.8 46.7C65.5 44.6 64.9 42.6 64.2 40.7C64.2 40.7 64.1 40.7 64 40.7C62.8 37.6 61.3 34.6 59 32.3C55.9 29.3 51.7 28.1 47.4 28.6C42.5 29 38.1 31.6 34.6 35C34.6 34.7 34.6 34.4 34.7 34.1C35 32.3 35.8 30.5 36.9 29C37.7 28.1 38.5 27.7 39.3 26.9C40.1 26.1 40.2 24.4 40.2 23.3C40.2 22.2 40.2 21.4 40.4 20.5C40.5 19.4 40.8 19.4 41.7 19.6C43.5 19.8 45.3 20.1 46.9 20.6C47.3 20.7 47.6 20.8 48 20.9C48.1 20.9 48.2 20.9 48.3 20.9C48.4 20.9 48.5 21 48.7 21.1C48.7 21.1 48.8 21.1 48.9 21.1C48.9 21.1 49.1 21.2 49.2 21.3C49.8 21.6 50.4 22 50.9 22.3C50.9 22.3 50.9 22.3 51 22.3C51.1 22.3 51.2 22.5 51.4 22.6C51.8 22.9 52.2 23.2 52.5 23.5C52.5 23.5 52.6 23.6 52.7 23.7C52.7 23.7 52.7 23.7 52.8 23.7C52.8 23.7 52.9 23.7 53 23.7C53.5 23.7 54 23.6 54.5 23.5C54.7 23.7 54.9 23.9 55.1 24.1C56.8 25.6 58.6 27.6 60.2 30.2C62.9 34.5 64.8 40 65.3 41.7C65 39.2 64.3 34.2 61.1 29.2C59.7 27.1 58.1 25.4 56.7 24.1C57.9 24.1 59.5 23.9 59.5 23.9C59.5 23.8 59.1 23.4 59.1 23.4C58.2 22.7 57.3 21.8 56.3 21C55.1 19.9 53.8 18.8 52.5 17.6C53.8 18.5 55.2 19.4 56.9 20.2C57.1 20.2 57.2 20.4 57.4 20.4C58.6 21 59.8 21.6 61 22.1C61.3 22.2 63.8 22.9 64.1 23.1C64.1 23.1 63.9 23 63.8 23C63.5 22.7 63.1 22.4 62.8 22.1H62.7C62.4 21.5 61.8 21.2 61.5 20.9C60.3 19.9 59.2 18.9 58 17.8C62.5 20.9 67.7 23.6 73 23.8C73.2 23.8 73.4 23.8 73.6 23.8C73.7 23.6 73.9 23.5 74 23.4C74.6 23.4 75.1 23.4 75.7 23.5C75.6 23.6 75.4 23.8 75.3 23.9C75.6 23.9 76 23.9 76.3 23.9C77.3 23.9 78.5 24.4 79.4 24.2C80 24 80.7 23.3 81.3 22.8L83.5 21.5C85.7 20.6 88.2 20 90.7 19.8C90.8 20.6 90.7 21.3 90.7 22.1C90.7 23.3 90.8 24.9 91.5 26C91.9 26.7 92.8 27.2 93.4 27.9C93.8 28.5 94.3 29.1 94.6 29.8C95.2 31.1 95.5 32.6 95.5 34.1V34.5Z" fill="#78A6D1"/><path d="M102 88.8C102 88.8 102 88.9 101.9 89C101.9 88.8 101.7 88.7 101.7 88.5C101.8 88.5 101.9 88.7 102.1 88.8H102Z" fill="#78A6D1"/><path d="M59.3999 72.3999C57.1999 73.4999 55.2999 75.1999 53.5999 77.0999C50.1999 80.9999 47.2999 85.7999 46.0999 90.7999C45.6999 92.4999 45.4999 94.2999 45.7999 95.9999C43.8999 95.8999 41.7999 95.7999 39.9999 95.2999C38.4999 94.7999 37.4999 94.0999 36.5999 92.7999C35.6999 91.5999 35.0999 90.0999 34.7999 88.5999C34.4999 86.7999 34.4999 84.6999 34.2999 82.8999C34.1999 81.0999 34.0999 79.2999 33.8999 77.6999C33.8999 77.4999 34.0999 77.1999 34.0999 76.9999C33.9999 76.9999 33.8999 76.7999 33.6999 76.6999C33.6999 76.6999 33.4999 76.5999 33.3999 76.4999C33.0999 76.2999 32.7999 76.0999 32.4999 75.7999C32.4999 75.7999 32.4999 75.7999 32.4999 75.8999C32.2999 75.7999 32.1999 75.6999 32.1999 75.5999C30.9999 79.5999 29.2999 83.5999 27.3999 87.3999C23.7999 80.7999 22.4999 72.9999 23.6999 65.5999C24.1999 62.7999 24.7999 59.5999 27.0999 57.7999C28.5999 62.3999 32.1999 66.2999 36.4999 68.6999C42.4999 71.7999 50.3999 71.8999 56.4999 68.6999C57.3999 69.8999 58.3999 71.1999 59.2999 72.4999L59.3999 72.3999Z" fill="#78A6D1"/><path d="M59.7 93.3C57.6 94.2 55.4 94.2 53.4 93.3C53.1 93.1 52.5 92.1 52.8 92.3C54.7 93 56.8 93 58.8 92.3C59.2 92.1 59.8 93.3 59.7 93.3Z" fill="#78A6D1"/><path d="M61.9 83.1999C59.8 84.0999 57.6 84.0999 55.6 83.1999C55.3 83.0999 54.7 81.9999 55 82.1999C56.9 83.0999 59 83.0999 61 82.1999C61.4 81.9999 62 83.0999 61.9 83.1999Z" fill="#78A6D1"/><path d="M68.4999 88.4C66.5999 89.4 64.1999 89.4 62.1999 88.4C61.9999 88.2 61.3999 87.4 61.5999 87.4C63.4999 88.4 65.5999 88.4 67.5999 87.4C67.8999 87.2 68.5999 88.3 68.4999 88.4Z" fill="#78A6D1"/><path d="M74.4 83.1999C72.3 84.2999 70.1 84.0999 68.1 83.1999C67.8 83.0999 67.2 81.9999 67.5 82.1999C69.4 83.0999 71.5 83.0999 73.5 82.1999C73.8 81.9999 74.5 83.0999 74.4 83.1999Z" fill="#78A6D1"/><path d="M76.5 92.9999C74.4 93.8999 72.1999 93.8999 70.1999 92.9999C69.8999 92.9999 69.3 91.9999 69.6 91.9999C71.5 92.8999 73.6 92.8999 75.6 91.9999C76.1 91.8999 76.6 92.8999 76.5 92.9999Z" fill="#78A6D1"/><path d="M101.9 87.2999C100.4 84.2999 99.2 81.1999 98.2 77.8999C98.2 77.6999 98.2 77.3999 98.2 77.1999C98.1 77.1999 97.9 76.9999 97.8 76.8999C97.8 76.8999 97.6 76.7999 97.5 76.6999C97.2 76.4999 96.9 76.2999 96.6 75.9999V76.1999C96.4 76.0999 96.2 75.8999 96.2 75.7999C96.1 79.1999 95.9 82.4999 95.8 85.9999C95.7 88.0999 95 90.1999 93.7 91.7999C91.9 93.9999 89.2 95.4999 86.4 95.6999C85.8 95.6999 85.1 95.6999 84.5 95.7999C84.9 93.7999 84.5 91.6999 84 89.6999C83.1 86.5999 81.8 83.5999 80 80.9999C77.9 77.5999 74.9 74.0999 71.2 72.1999C72.1 71.0999 72.9 69.8999 73.8 68.7999C79.1 71.9999 86.1 72.5999 91.9 70.5999C96.2 69.0999 100 66.0999 102.3 62.1999C103.1 60.9999 103.6 59.6999 104 58.2999C104.1 58.4999 104.2 58.6999 104.3 58.8999C104.4 58.9999 104.6 59.0999 104.7 59.1999C107.9 68.4999 106.7 78.7999 101.7 87.1999L101.9 87.2999Z" fill="#78A6D1"/><path d="M52.5 23.6999C52.2 23.4999 52 23.2999 51.8 23.0999L51.5 22.7999C51.9 23.0999 52.3 23.3999 52.6 23.6999H52.5Z" fill="#6290C3"/><path d="M59.5 23.9C59.5 23.9 57.9 24 56.7 24.1C56.5 23.9 56.3 23.7 56.1 23.6C55.9 23.5 55.7 23.3 55.5 23.1C56 23.1 56.4 23.1 56.9 23.1C57.2 23 57.8 23.1 57.9 23H57.7C57.7 22.9 57.5 22.7 57.5 22.7L54.9 20.5L50.1 16.3C50.3 16.4 50.4 16.5 50.6 16.7C50.2 16.4 49.9 16.1 49.5 15.7C49.7 15.8 49.8 15.9 50 16C50 16 49.9 16 49.8 15.8C49.9 15.8 50 16 50.2 16.1C50.2 16.1 50.3 16.1 50.4 16.3C50.4 16.3 50.5 16.3 50.6 16.4C50.6 16.4 50.8 16.5 50.9 16.6C50.9 16.6 50.9 16.6 51 16.7C51 16.7 51.1 16.8 51.2 16.8C51.2 16.8 51.2 16.8 51.1 16.8C51.1 16.8 51.1 16.8 51.2 16.8C51.5 17.1 51.9 17.4 52.2 17.7C53.5 18.8 54.8 19.9 56 21.1C57 21.9 57.9 22.7 58.8 23.5C58.8 23.5 59.2 23.8 59.2 24L59.5 23.9Z" fill="#6290C3"/><path d="M55.1 24.3C54.5 24.4 54 24.5 53.5 24.3C53.3 24.3 53.2 24.2 53 24C53 24 52.8 23.9 52.8 23.8C52.8 23.8 52.8001 23.8 52.9001 23.8C52.9001 23.8 53 23.8 53.1 23.8C53.6 23.8 54.1 23.7 54.6 23.6C54.8 23.8 55.0001 24 55.2001 24.2L55.1 24.3Z" fill="#6290C3"/><path d="M51.3 16.7C52 17.2 52.8 17.7 53.5 18.2C52.8 17.8 52.1001 17.3 51.4001 16.7H51.3Z" fill="#6290C3"/><path d="M56.9 17.4C56.7 17.3 56.6 17.2 56.4 17L55.9 16.6C56 16.6 56.2 16.8 56.3 16.9L56.9 17.4Z" fill="#6290C3"/><path d="M56.5 17C55.9 16.6 55.3 16.1 54.8 15.7C55.3 16 55.6 16.3 56 16.6L56.5 17Z" fill="#6290C3"/><path d="M64 23.3C63.7 23.1 61.2 22.4 60.9 22.3C59.7 21.8 58.5 21.2 57.3 20.6C57.1 20.6 57 20.4 56.8 20.4C56.4 20.2 55.9 19.9 55.5 19.7C54.8 19.3 54.2 18.8 53.5 18.4C55.6 19.7 57.9 20.8 60.3 21.6C60.4 21.6 61.7 22 62.3 22.2C62.5 22.2 62.6 22.2 62.6 22.3C62.4 22.1 62.2 22 62 21.9C61.1 21.1 60.4 20.4 59.5 19.7L56.9 17.5C57.2 17.7 57.5 17.9 57.8 18.1C58.9 19.1 60.1 20.1 61.3 21.2C61.6 21.5 62.2 21.8 62.5 22.2H62.6C63 22.7 63.4 23 63.6 23.2C63.7 23.2 63.8 23.2 63.9 23.3H64Z" fill="#6290C3"/><path d="M74.4 23.1C74.2 23.3 74.1 23.4 73.9 23.6C73.8 23.7 73.6 23.9 73.5 24C73.2999 24 73.1 24 72.9 24C67.6 23.8 62.4 21.1 57.9 18C57.7 17.8 57.4999 17.7 57.2999 17.5C56.5999 16.9 55.9 16.3 55.2 15.7C55.8 16.1 56.3999 16.5 56.7999 16.9C59.2999 18.8 62.5 20.3 65.4 21.5C66.8 22 68.1999 22.6 69.6999 22.8C71.1999 23.1 72.7999 23 74.1999 23.1H74.4Z" fill="#6290C3"/><path d="M76.1 23.2C75.9 23.4 75.7 23.5 75.6 23.7C75.5 23.8 75.3 24 75.2 24.1C74.6 24.1 74.1 24.1 73.5 24.1C73.6 23.9 73.8 23.8 73.9 23.7C74.1 23.5 74.2 23.3 74.4 23.2C74.6 23.2 74.7 23.2 74.9 23.2C75.3 23.2 75.7 23.2 76.1 23.2Z" fill="#6290C3"/><path d="M101.7 88.5C101.6 88.5 101.5 88.3 101.4 88.2C101.4 88.2 101.4 88.1 101.5 88C101.5 88.1 101.6 88.2 101.7 88.4C101.7 88.4 101.7 88.4 101.7 88.5Z" fill="#6290C3"/><path d="M62.4 40.6C61.2 37.5 59.7 34.5 57.3 31.9C55.5 30.3 53.1 28.9 50.7 28.5C49.5 28.3 48.3 28.3 47.2 28.5C47.2 28.5 47.1 28.5 47 28.5C45.2 28.8 43.4 29.5 41.9 30.4C39.1 31.9 36.5 33.9 34.4 36.3C34.1 36.7 33.7 37 33.4 37.4C33.2 37.7 33 37.9 32.8 38.2C30.7 41 29.2 44.1 28.4 47.4C27.7 50.1 27.6 52.9 28.1 55.6C28.1 55.8 28.1 56 28.3 56.3C28.3 56.5 28.4 56.8 28.5 57C28.9 58.5 29.5 60 30.4 61.4C32.6 65.1 36.1 68 40.1 69.4C46 71.7 52.7 70.5 57.5 66.8L60.5 63.8C61.3 62.8 62 61.7 62.5 60.4C65.3 54.3 64.7 46.8 62.5 40.6H62.4ZM48.8 55.8C47.3 56.9 45.5 56.3 44.6 54.8C43.3 52.7 43.1 49.6 44.2 47.3C45 45.7 46.4 44.3 48.4 44.9C48.4 44.9 48.5 44.9 48.5 45C47.9 46.2 47.6 49.6 49.7 49.8C49.9 49.8 50 49.7 50.3 49.4C50.4 49.4 51.1 49.1 51.1 49.4C51.1 49.7 51.1 49.4 51.1 49.6C51.2 51.8 50.9 54.5 48.9 55.9L48.8 55.8Z" fill="white"/><path d="M49.2001 50.0999C49.1001 50.0999 48.9 49.9999 48.8 49.8999C48.9 49.8999 49.1001 49.9999 49.2001 50.0999Z" fill="white"/><path d="M51 22.5999L51.3 22.7999C51.2 22.7999 51.1 22.5999 50.9 22.4999L51 22.5999ZM49.3 21.4999C49.5 21.5999 50.4 22.1999 50.7 22.3999C50.2 21.9999 49.7 21.6999 49 21.3999C49 21.3999 49.2 21.3999 49.2 21.4999H49.3ZM48.3 20.8999C48.2 20.8999 48.1 20.8999 48 20.8999C48.1 20.8999 48.2 20.8999 48.4 20.9999C48.6 20.9999 48.8 21.1999 48.9 21.1999C48.9 21.1999 48.8 21.1999 48.7 21.1999C48.6 21.1999 48.5 21.0999 48.3 20.9999V20.8999Z" fill="#6290C3"/><path d="M106.4 60.2C106.4 60.2 106.4 60 106.3 60C105.8 59.2 105.1 58.4 104.3 57.7C105.2 54.2 105 50.4 103.9 46.9C102.6 43.1 100.4 39.4 97.5 36.4C97.5 34.6 97.2 32.8 96.4 31.1C95.9 30.1 95.2 29.2 94.3 28.3C93.3 27.3 93 26.2 92.8 24.7C92.7 22.9 93.1 21 91.6 19.8C91.1 19.5 90.8 19.2 90.4 19C90.4 19 90.4 19 90.3 19C90.3 19 90.2 19 90.1 18.9C90.1 18.9 90.1 18.9 90.1 19C89.4 19 88.5 19.2 87.8 19.3C85.7 19.6 83.5 20.1 81.7 21.1C80.7 21.5 79.8 22.3 78.9 23C78.3 23.4 78 23.4 77.3 23.3C76.9 23.3 76.5 23.3 76.1 23.3C75.9 23.5 75.7 23.6 75.6 23.8C75.5 23.9 75.3 24.1 75.2 24.2C75.5 24.2 75.9 24.2 76.2 24.2C77.2 24.2 78.4 24.7 79.3 24.5C79.9 24.3 80.6 23.6 81.2 23.1L83.4 21.8C85.6 20.9 88.1 20.3 90.6 20.1C90.7 20.9 90.6 21.6 90.6 22.4C90.6 23.6 90.7 25.2 91.4 26.3C91.8 27 92.7 27.5 93.3 28.2C93.7 28.8 94.2 29.4 94.5 30.1C95.1 31.4 95.4 32.9 95.4 34.4C93.1 32.4 90.4 30.8 87.5 29.8C82.7 28.2 77.2 28.8 73.2 31.9C70.2 34.4 68.4 37.9 67.1 41.3C66.5 43 66 44.8 65.7 46.6C65.4 44.5 64.8 42.5 64.1 40.6C64.1 40.6 64 40.6 63.9 40.6C62.7 37.5 61.2 34.5 58.9 32.2C55.8 29.2 51.6 28 47.3 28.5C42.4 28.9 38 31.5 34.5 34.9C34.5 34.6 34.5 34.3 34.6 34C34.9 32.2 35.7 30.4 36.8 28.9C37.6 28 38.4 27.6 39.2 26.8C40 26 40.1 24.3 40.1 23.2C40.1 22.1 40.1 21.3 40.3 20.4C40.4 19.3 40.7 19.3 41.6 19.5C43.4 19.7 45.2 20 46.8 20.5C47.2 20.6 47.5 20.7 47.9 20.8C48 20.8 48.1 20.8 48.2 20.8C48.3 20.8 48.4 20.9 48.6 21C48.6 21 48.7 21 48.8 21C48.8 21 49 21.1 49.1 21.2C49.7 21.5 50.3 21.9 50.8 22.2C50.8 22.2 50.8 22.2 50.8 22.3C50.8 22.3 50.8 22.3 50.9 22.3C51 22.3 51.1 22.5 51.3 22.6C51.7 22.9 52.1 23.2 52.4 23.5C52.4 23.5 52.6 23.6 52.6 23.7C52.6 23.7 52.6 23.7 52.7 23.7C52.7 23.7 52.8 23.7 52.9 23.7C53.4 23.7 53.9 23.6 54.4 23.5C54.2 23.3 54 23.1 53.8 23C53.3 23 52.8 23 52.3 23C50.9 21.8 49.4 20.8 47.8 20C46.5 19.4 45.1 19.1 43.6 18.8C42.4 18.5 40.8 18.1 39.6 18.2C39 18.4 38.8 18.6 38.8 19.2C38.7 20 38.7 20.7 38.7 21.3C38.7 21.9 38.7 22.8 38.5 23.5C38.3 24 38.3 24.5 38 25C37.7 25.6 37.3 25.8 36.8 26.1C34.6 27.9 33.2 30.6 32.9 33.6C32.9 34.5 32.8 35.3 32.7 36.2C31.1 38 29.8 40 28.7 42.1C26.6 46.4 25.4 51.2 26.4 55.8C25.1 56.4 24 57.6 23.4 58.9C22.3 61.4 21.9 64.3 21.8 67C21.2 74.3 22.9 81.7 26.8 87.7C26.8 87.7 26.8 87.8 26.8 87.9C27 88 27.2 88.2 27.3 88.3C27.4 88.3 27.5 88.4 27.6 88.5C27.9 88.7 28.1 88.9 28.4 89.1C28.4 89.1 28.4 88.9 28.3 88.9C28.5 89.1 28.7 89.2 28.7 89.3C30.1 86.5 31.4 83.7 32.5 80.8C32.6 82.9 32.8 85 33 87C33.3 89.5 34.6 91.7 36.4 93.3C37.2 94.1 38 94.7 38.9 95.1C40.1 95.9 41.3 96.4 42.9 96.7C45.3 97.2 48 97.2 50.4 97.5C53.9 97.8 57.5 98 61 98V107.5C58.8 106.8 56 107.6 55.3 110C55 111 55 112.4 55.2 113.4C55.2 113.9 55.3 115.1 55.8 115.2C56.1 115.3 56.3 115.2 56.4 115C56.7 114.5 57 114.1 57.5 113.7C57.5 114.6 57.6 115.9 58.1 116.2C58.4 116.2 58.7 116.2 58.7 115.9C59.1 114.7 64.2 112.6 65 110.7C65 110.6 65 110.4 65 110.3C65 110.3 65 110.3 65 110.2C65 110.2 64.9 110.2 65 110C65 110 65 109.8 64.8 109.7C64.8 109.7 64.8 109.6 64.7 109.5C64.3 109.2 63.6 109 63.5 108.7C63.3 108.4 63.5 107.8 63.5 107.5V97.9C64.5 97.9 65.5 97.9 66.5 97.9V109.3C66 109.5 65.7 109.8 65.2 110C65.2 110 65.2 110.1 65.2 110.2C65.2 110.2 65.2 110.2 65.2 110.3C65.2 110.4 65.2 110.6 65.2 110.7C65.2 112.5 71.3 114.9 71.6 116.5C71.6 116.6 71.9 116.6 72.1 116.5C72.9 116.3 73 115 73 114.1C73.4 114.5 73.8 114.9 74 115.4C74.2 115.5 74.5 115.4 74.6 115.4C75 115.2 75.2 114.4 75.2 113.9C75.4 112.7 75.5 111.4 75.2 110.2C74.7 108.4 72.8 107.7 71 107.7C70.9 107.7 70.8 107.7 70.6 107.7C70.4 107.7 70.2 107.7 70 107.7C70 107.7 69.9 107.7 69.8 107.7C69.7 107.7 69.6 107.7 69.5 107.7V97.5C70.7 97.5 71.9 97.5 73.1 97.4C76.7 97.2 80.3 97.1 83.9 96.8C87.2 96.5 90.6 96.7 93.4 94.7C95.9 93.1 97.6 90.4 97.9 87.4C98.2 84.9 98.2 82.4 98.3 79.8C99.2 82.2 100.3 84.6 101.5 87C101.5 87.1 101.5 87.2 101.7 87.3C101.7 87.4 101.8 87.5 101.9 87.7C101.9 87.7 101.9 87.7 101.9 87.8C102 87.8 102.1 88 102.3 88.1C102.6 88.3 102.9 88.5 103.2 88.8C103.4 88.9 103.5 89 103.5 89C108.7 80.3 110.1 69.4 106.6 59.6L106.4 60.2ZM68.6 41.6C68.6 41.6 68.8 41.6 68.8 41.4C69.8 38.7 71.2 36 73.1 33.8C76.5 30.1 81.3 28.4 86.1 30.1C89.7 31.2 92.9 33.4 95.6 36.2C96 36.7 96.5 37.1 96.9 37.6C97.2 37.9 97.4 38.2 97.6 38.5C99.3 40.6 100.6 42.9 101.6 45.2C103.1 48.8 103.8 52.9 103 56.8C103 56.9 103 57 103 57.2C102.9 57.8 102.7 58.4 102.5 59.1C101 63.4 97.7 67 93.7 69.2C87.7 72.4 80.1 72 74.5 68.2C74.5 68 74.5 67.9 74.3 67.8L70 63.6C65.9 57.3 66.3 48.5 68.7 41.7L68.6 41.6ZM73.5 68.2C73.5 68.2 73.3 68.4 73.3 68.5C72.4 69.6 71.6 70.8 70.7 72C70.7 72 70.6 72.2 70.5 72.3C70.5 72.3 70.5 72.4 70.4 72.5C68.8 74.6 67.2 76.8 65.5 78.9C63.9 76.8 62.2 74.6 60.5 72.4C60.5 72.4 60.5 72.3 60.4 72.2C60.4 72.2 60.4 72.2 60.4 72.1C60 71.5 59.5 70.9 59.1 70.3C58.6 69.7 58.2 69 57.6 68.4C57.6 68.4 57.6 68.3 57.5 68.2C57.9 67.9 58.3 67.4 58.7 67C58.9 66.8 59 66.7 59.1 66.5L61.3 64.3L63.8 61.8L65.4 60.3L69.3 64.2L73.6 68.5L73.5 68.2ZM65.7 46.7C65.9 48 66 49.4 66 50.7C66 51.3 66 51.8 66 52.4C66 53.7 65.8 55 65.5 56.3C65.7 57.7 66.1 59 66.6 60.3L65.6 59.3C65.4 59.2 65.1 59.2 64.9 59.3L64.6 59.6C65 58.5 65.4 57.4 65.6 56.3C65.1 53.1 65.2 49.8 65.8 46.7H65.7ZM28.3 47.5C29.1 44.2 30.7 41 32.7 38.3C32.9 38 33.1 37.8 33.3 37.5C33.6 37.1 33.9 36.7 34.3 36.4C36.4 34 39 32 41.8 30.5C43.4 29.6 45.1 28.9 46.9 28.6C46.9 28.6 47 28.6 47.1 28.6C48.3 28.4 49.5 28.4 50.6 28.6C53 29 55.4 30.4 57.2 32C59.6 34.5 61.1 37.5 62.3 40.7C64.5 47 65.1 54.4 62.3 60.5C61.8 61.7 61.1 62.8 60.3 63.9L57.3 66.9C52.5 70.6 45.8 71.8 39.9 69.5C35.9 68 32.4 65.2 30.2 61.5C29.4 60.1 28.7 58.6 28.3 57.1C28.3 56.9 28.2 56.6 28.1 56.4C28.1 56.2 28 56 27.9 55.7C27.4 53 27.5 50.3 28.2 47.5H28.3ZM45.8 96C43.9 95.9 41.8 95.8 40 95.3C38.5 94.8 37.5 94.1 36.6 92.8C35.7 91.6 35.1 90.1 34.8 88.6C34.5 86.8 34.5 84.7 34.3 82.9C34.2 81.1 34.1 79.3 33.9 77.7C33.9 77.5 34.1 77.2 34.1 77C34 77 33.9 76.8 33.7 76.7C33.7 76.7 33.5 76.6 33.4 76.5C33.1 76.3 32.8 76.1 32.5 75.8C32.5 75.8 32.5 75.8 32.5 75.9C32.3 75.8 32.2 75.7 32.2 75.6C31 79.6 29.3 83.6 27.4 87.4C23.8 80.8 22.5 73 23.7 65.6C24.2 62.8 24.8 59.6 27.1 57.8C28.6 62.4 32.2 66.3 36.5 68.7C42.5 71.8 50.4 71.9 56.5 68.7C57.4 69.9 58.4 71.2 59.3 72.5C57.1 73.6 55.2 75.3 53.5 77.2C50.1 81.1 47.2 85.9 46 90.9C45.6 92.6 45.4 94.4 45.7 96.1L45.8 96ZM64.6 110.6C64.8 111.7 61.7 113.4 61 113.8C60.2 114.2 59.2 114.8 58.6 115.7C58.6 114.9 58.4 113.7 58.4 113.6C58.4 113.3 58 113.3 57.8 113.4H57.6V113.6C57.3 113.8 57.1 114 56.9 114.2C56.8 114.4 56.6 114.5 56.5 114.7C56.5 114.5 56.4 114.3 56.3 114.1C56.2 113.4 56.2 112.5 56.2 111.7C56.3 109 59.2 107.7 61.6 108.9C61.7 109 62.2 108.9 62.2 108.6V98.3C62.5 98.3 62.9 98.3 63.2 98.3V109.5C63.2 109.633 63.2667 109.733 63.4 109.8C63.8 110 64.3 110.2 64.7 110.7L64.6 110.6ZM74.4 112C74.4 112.8 74.4 113.6 74.2 114.4C74.2 114.4 74.2 114.6 74.2 114.7C73.9 114.3 73.5 114 72.9 113.6C72.7 113.5 72.2 113.6 72.2 113.8C72.2 114.4 72 115.1 71.9 115.7C70.3 114.2 65.1 111.5 66.1 110.4C66.4 110.1 66.9 109.8 67.3 109.6C67.4 109.6 67.6 109.5 67.6 109.3V98.1C67.9 98.1 68.2 98.1 68.5 98.1V108.7C68.5 108.8 69.1 108.7 69.1 108.7C71.5 107.5 74.2 109.3 74.5 111.8L74.4 112ZM83.9 95.9C83.9 96.2 83.8 96.5 83.7 96.7C79 97.2 74.3 97.4 69.5 97.5C69.3 97.5 69.2 97.5 69 97.5C68.8 97.5 68.7 97.5 68.5 97.5H67.6C67.5 97.5 67.4 97.5 67.3 97.5C67.1 97.5 66.9 97.5 66.7 97.5H66.1C65.3 97.5 64.5 97.5 63.7 97.5C63.5 97.5 63.4 97.5 63.2 97.5C63.2 97.5 63.2 97.5 63 97.5C62.7 97.5 62.3 97.5 62 97.5C61.8 97.5 61.6 97.5 61.4 97.5H61.1C59.6 97.5 58.2 97.5 56.8 97.4C55.4 97.4 54.1 97.3 52.6 97.3C51 97.1 49.3 97.3 47.8 97C47.5 97 47.2 96.9 47.1 96.7C46.9 96.5 46.8 96.3 46.7 96C46.7 95.8 46.7 95.7 46.7 95.5C46.5 94.7 46.5 94 46.7 93.3C46.9 91.7 47.3 90 47.7 88.4C48.9 84.7 51 81.2 53.4 78.2C55.1 76.1 57.2 74 59.6 72.7C61.3 75 63.1 77.3 64.9 79.6C65 79.7 65.5 79.7 65.6 79.6C67.3 77.3 69 75 70.8 72.7C74.5 74.7 77.5 78.2 79.6 81.7C81.2 84.2 82.4 86.9 83.3 89.9C83.8 91.8 84.2 93.9 83.8 95.9H83.9ZM101.9 87.3C100.4 84.3 99.2 81.2 98.2 77.9C98.2 77.7 98.2 77.4 98.2 77.2C98.1 77.2 97.9 77 97.8 76.9C97.8 76.9 97.6 76.8 97.5 76.7C97.2 76.5 96.9 76.3 96.6 76V76.2C96.4 76.1 96.2 75.9 96.2 75.8C96.1 79.2 95.9 82.5 95.8 86C95.7 88.1 95 90.2 93.7 91.8C91.9 94 89.2 95.5 86.4 95.7C85.8 95.7 85.1 95.7 84.5 95.8C84.9 93.8 84.5 91.7 84 89.7C83.1 86.6 81.8 83.6 80 81C77.9 77.6 74.9 74.1 71.2 72.2C72.1 71.1 72.9 69.9 73.8 68.8C79.1 72 86.1 72.6 91.9 70.6C96.2 69.1 100 66.1 102.3 62.2C103.1 61 103.6 59.7 104 58.3C104.1 58.5 104.2 58.7 104.3 58.9C104.4 59 104.6 59.1 104.7 59.2C107.9 68.5 106.7 78.8 101.7 87.2L101.9 87.3Z" fill="#6290C3"/><path d="M65.6999 46.7C65.0999 49.9 64.9999 53.1999 65.4999 56.2999C65.7999 54.9999 65.8999 53.7 65.9999 52.4C65.9999 51.8 65.9999 51.3 65.9999 50.7C65.9999 49.3 65.8999 48 65.6999 46.7Z" fill="#6290C3"/><path d="M65.6999 46.7C65.0999 49.9 64.9999 53.1999 65.4999 56.2999C65.7999 54.9999 65.8999 53.7 65.9999 52.4C65.9999 51.8 65.9999 51.3 65.9999 50.7C65.9999 49.3 65.8999 48 65.6999 46.7Z" fill="#6290C3"/><path d="M101.6 45.1C100.6 42.8 99.2 40.5 97.6 38.4C97.4 38.1 97.1 37.8 96.9 37.5C96.5 37 96.1 36.5 95.6 36.1C92.9 33.3 89.7 31.2 86.1 30C81.3 28.4 76.5 30 73.1 33.7C71.2 35.9 69.8 38.6 68.8 41.3C68.8 41.3 68.7 41.4 68.6 41.5C66.2 48.3 65.7 57.1 69.9 63.4L74.2 67.7C74.4 67.7 74.5 67.8 74.4 68.1C80 71.9 87.6 72.4 93.6 69.1C97.6 66.9 100.9 63.3 102.4 59C102.6 58.4 102.8 57.8 102.9 57.1C102.9 57 102.9 56.9 102.9 56.7C103.7 52.8 103 48.7 101.5 45.1H101.6ZM84.6 56.3C83.1 57.3 81.3 56.8 80.4 55.3C78.5 52.5 78.9 43.7 84.1 45.3C84.2 45.3 84.2 45.4 84.2 45.6C83.6 46.8 83.5 49.9 85.3 50.2L86.2 49.8C86.3 49.8 86.8 49.7 86.8 49.9C86.9 52 86.6 55 84.6 56.3Z" fill="white"/><path d="M83.4 89.9C82.5 86.9 81.3 84.2 79.7 81.7C77.6 78.3 74.6 74.7 70.9 72.7C69.1 75 67.4 77.3 65.7 79.6C65.5 79.7 65.1 79.7 65 79.6C63.2 77.3 61.4 75 59.7 72.7C57.3 74 55.2 76.1 53.5 78.2C51.1 81.2 49 84.6 47.8 88.4C47.4 90 46.9 91.7 46.8 93.3C46.6 94.1 46.6 94.8 46.8 95.5C46.8 95.7 46.8 95.9 46.8 96C46.8 96.3 46.9 96.6 47.2 96.7C47.4 96.8 47.6 96.9 47.9 97C49.4 97.3 51 97.2 52.7 97.3C54.2 97.3 55.5 97.4 56.9 97.4C58.3 97.4 59.8 97.5 61.2 97.5H61.5C61.7 97.5 61.9 97.5 62.1 97.5C62.4 97.5 62.8 97.5 63.1 97.5C63.1 97.5 63.2 97.5 63.3 97.5C63.5 97.5 63.6 97.5 63.8 97.5C64.6 97.5 65.4 97.5 66.2 97.5H66.8C67 97.5 67.2 97.5 67.4 97.5C67.4 97.5 67.6 97.5 67.7 97.5H68.6C68.8 97.5 68.9 97.5 69.1 97.5C69.3 97.5 69.4 97.5 69.6 97.5C74.4 97.5 79.1 97.1 83.8 96.7C83.8 96.4 84 96.2 84 95.9C84.4 93.9 84 91.8 83.5 89.9H83.4ZM59.7 93.3C57.6 94.2 55.4 94.2 53.4 93.3C53.1 93.1 52.5 92.1 52.8 92.3C54.7 93 56.8 93 58.8 92.3C59.2 92.1 59.8 93.3 59.7 93.3ZM55.6 83.2C55.3 83.1 54.7 82 55 82.2C56.9 83.1 59 83.1 61 82.2C61.4 82 62 83.1 61.9 83.2C59.8 84.1 57.6 84.1 55.6 83.2ZM68.5 88.4C66.6 89.4 64.2 89.4 62.2 88.4C62 88.2 61.4 87.4 61.6 87.4C63.5 88.4 65.6 88.4 67.6 87.4C67.9 87.2 68.6 88.3 68.5 88.4ZM68.2 83.2C67.9 83.1 67.3 82 67.6 82.2C69.5 83.1 71.6 83.1 73.6 82.2C73.9 82 74.6 83.1 74.5 83.2C72.4 84.3 70.2 84.1 68.2 83.2ZM76.5 93C74.4 93.9 72.2 93.9 70.2 93C69.9 93 69.3 92 69.6 92C71.5 92.9 73.6 92.9 75.6 92C76.1 91.9 76.6 92.9 76.5 93Z" fill="white"/><path d="M59.7 93.3C57.6 94.2 55.4 94.2 53.4 93.3C53.1 93.1 52.5 92.1 52.8 92.3C54.7 93 56.8 93 58.8 92.3C59.2 92.1 59.8 93.3 59.7 93.3Z" fill="white"/><path d="M61.9 83.1999C59.8 84.0999 57.6 84.0999 55.6 83.1999C55.3 83.0999 54.7 81.9999 55 82.1999C56.9 83.0999 59 83.0999 61 82.1999C61.4 81.9999 62 83.0999 61.9 83.1999Z" fill="white"/><path d="M68.4999 88.4C66.5999 89.4 64.1999 89.4 62.1999 88.4C61.9999 88.2 61.3999 87.4 61.5999 87.4C63.4999 88.4 65.5999 88.4 67.5999 87.4C67.8999 87.2 68.5999 88.3 68.4999 88.4Z" fill="white"/><path d="M74.4 83.1999C72.3 84.2999 70.1 84.0999 68.1 83.1999C67.8 83.0999 67.2 81.9999 67.5 82.1999C69.4 83.0999 71.5 83.0999 73.5 82.1999C73.8 81.9999 74.5 83.0999 74.4 83.1999Z" fill="white"/><path d="M76.5 92.9999C74.4 93.8999 72.1999 93.8999 70.1999 92.9999C69.8999 92.9999 69.3 91.9999 69.6 91.9999C71.5 92.8999 73.6 92.8999 75.6 91.9999C76.1 91.8999 76.6 92.8999 76.5 92.9999Z" fill="white"/><path d="M51 49.6C51 49.6 51 49.5 51 49.4C51 49.1 50.4 49.4 50.2 49.4C49.9 49.7 49.7 49.8 49.6 49.8C47.5 49.7 47.8 46.2 48.4 45C48.4 44.9 48.3 44.9 48.3 44.9C46.4 44.3 44.9 45.7 44.1 47.3C43.1 49.5 43.2 52.7 44.5 54.8C45.4 56.3 47.2 56.9 48.7 55.8C50.7 54.5 51.1 51.8 50.9 49.5L51 49.6ZM49.2 50.1C49.1 50.1 48.9 50 48.8 49.9C48.9 49.9 49.1 50 49.2 50.1Z" fill="#4E5057"/><path d="M84.6 56.2999C83.1 57.2999 81.3 56.7999 80.4 55.2999C78.5 52.4999 78.9 43.6999 84.1 45.2999C84.2 45.2999 84.2 45.3999 84.2 45.5999C83.6 46.7999 83.5 49.8999 85.3 50.1999L86.2 49.7999C86.3 49.7999 86.8 49.6999 86.8 49.8999C86.9 51.9999 86.6 54.9999 84.6 56.2999Z" fill="#4E5057"/><path d="M65.3999 70.8V78.8C63.7999 76.7 62.0999 74.5 60.3999 72.3C60.3999 72.3 60.3999 72.1999 60.2999 72.0999C60.2999 72.0999 60.2999 72.1 60.2999 72C59.8999 71.4 59.3999 70.7999 58.9999 70.1999C58.4999 69.5999 58.0999 68.9 57.4999 68.3C57.4999 68.3 57.4999 68.1999 57.3999 68.0999C57.7999 67.7999 58.1999 67.3 58.5999 66.9C58.7999 66.7 58.8999 66.6 58.9999 66.4L61.1999 64.1999L63.6999 61.7L65.2999 60.2V71L65.3999 70.8Z" fill="#F4D3AA"/><path d="M73.5 68.2C73.5 68.3 73.3 68.4 73.3 68.5C72.4 69.6 71.6 70.8 70.7 72C70.7 72 70.6 72.2 70.5 72.3C70.5 72.3 70.5 72.4 70.4 72.5C68.8 74.6 67.2 76.8 65.5 78.9V71.2V70.9V60.1V60L69.4 63.9L73.7 68.2H73.5Z" fill="#DABD9D"/><path d="M65.3 41.8C64.9 40.1 62.9 34.6 60.2 30.3C58.6 27.7 56.7 25.7 55.1 24.2C54.9 24 54.7 23.8 54.5 23.6C54.3 23.4 54.1 23.2 53.9 23.1C52.9 22.2 51.9 21.6 51.2 21.1C49.1 20.2 49.7 19.2 51.9 20.2C52.8 20.8 54.1 21.7 55.6 23C55.8 23.2 56 23.3 56.2 23.5C56.4 23.7 56.6 23.9 56.8 24C58.3 25.4 59.8 27.1 61.2 29.1C64.3 34.2 65.1 39.1 65.4 41.6L65.3 41.8Z" fill="#336390"/><path d="M80.3 20C79.3 20.7 77.8 21.7 76.1 23.2C75.9 23.4 75.7 23.5 75.6 23.7C75.5 23.8 75.3 24 75.2 24.1C73.9 25.4 72.5 27.1 71.2 29.1C68.5 33.4 66.6 38.9 66.1 40.6C66.4 38.1 67.1 33.1 70.3 28.1C71.3 26.6 72.4 25.2 73.5 24.1C73.6 23.9 73.8 23.8 73.9 23.7C74.1 23.5 74.2 23.3 74.4 23.2C76.4 21.3 78.2 20 79.6 19.2C81.8 18.2 82.4 19.2 80.4 20.1L80.3 20Z" fill="#336390"/><path d="M75.6 91.9999C73.7 92.8999 71.6 92.8999 69.6 91.9999C69.3 91.9999 69.9 92.9999 70.2 92.9999C72.1 93.8999 74.4 93.8999 76.5 92.9999C76.6 92.7999 76.1 91.7999 75.6 91.9999ZM58.8 92.2999C56.9 92.9999 54.8 92.9999 52.8 92.2999C52.5 92.0999 53.1 93.1999 53.4 93.2999C55.3 94.1999 57.6 94.1999 59.7 93.2999C59.9 93.2999 59.3 92.0999 58.8 92.2999ZM67.6 87.2999C65.7 88.2999 63.6 88.2999 61.6 87.2999C61.5 87.2999 62.1 88.1999 62.2 88.2999C64.1 89.2999 66.5 89.2999 68.5 88.2999C68.7 88.0999 67.9 87.0999 67.6 87.2999ZM73.5 82.0999C71.6 82.9999 69.5 82.9999 67.5 82.0999C67.2 81.8999 67.8 82.9999 68.1 83.0999C70 83.9999 72.3 84.1999 74.4 83.0999C74.5 82.9999 73.8 81.8999 73.5 82.0999ZM61 82.0999C59.1 82.9999 57 82.9999 55 82.0999C54.7 81.8999 55.3 82.9999 55.6 83.0999C57.5 83.9999 59.8 83.9999 61.9 83.0999C62.1 82.9999 61.5 81.8999 61 82.0999Z" fill="#6290C3"/></g><defs><clipPath id="clip0_7518_1363"><rect width="548" height="162.2" fill="white"/></clipPath></defs></svg>