<svg class="c-header__logo-svg" xmlns="http://www.w3.org/2000/svg" viewBox="0 0 409.3 173.8">
  <path d="M158.5 127.9h2.6v14.5h-2.6zm15 9v5.6H171V137c0-1.8-.9-2.8-2.5-2.8-.9 0-1.8.5-2.6 1.5v6.7h-2.5v-10.1h2.5v.8c.9-.7 1.9-1.2 3.1-1.2 2.7.1 4.5 2.1 4.5 5m9.7 5.4c-1.1.3-1.6.4-2.5.4-2.4 0-3.9-1.6-3.9-4.2v-4.1h-2.3v-2.1h2.3v-3.7h2.5v3.7h3.7v2.1h-3.7v4.1c0 1.3.7 1.9 1.9 1.9.6 0 1.2-.1 1.7-.3l.3 2.2zm3.4-5.8h5.3c-.2-1.4-1.1-2.3-2.6-2.3s-2.4 1-2.7 2.3m7.8 1.9h-7.7c.3 1.3 1.2 2.2 2.9 2.2 1 0 1.7-.3 2-.9h2.6c-.6 1.9-2.4 3-4.7 3-3.2 0-5.4-2.3-5.4-5.3s2.1-5.3 5.4-5.3c2.8 0 4.9 2.1 4.9 5.1v1.2m4.4-4.8c.9-.9 2.1-1.5 3.7-1.5v2.3c-1.6.1-2.8.6-3.7 1.7v6.3h-2.5v-10.1h2.5v1.3zm15.2 3.3v5.6h-2.5V137c0-1.8-.9-2.8-2.5-2.8-.9 0-1.8.5-2.6 1.5v6.7H204v-10.1h2.5v.8c.9-.7 1.9-1.2 3.1-1.2 2.7.1 4.4 2.1 4.4 5m9.9 2.2v-3.4c-.7-1-1.7-1.4-2.7-1.4-1.7 0-3 1.5-3 3.2 0 1.7 1.3 3.1 3 3.1 1 0 2-.4 2.7-1.5m2.4 3.3h-2.5v-.7c-.8.6-1.9.9-3.1.9-2.8 0-5.1-2.3-5.1-5.3 0-2.9 2.3-5.3 5.1-5.3 1.2 0 2.3.3 3.1.9v-.7h2.5v10.2zm10.1-.1c-1.1.3-1.6.4-2.5.4-2.4 0-3.9-1.6-3.9-4.2v-4.1h-2.3v-2.1h2.3v-3.7h2.5v3.7h3.7v2.1h-3.7v4.1c0 1.3.7 1.9 1.9 1.9.6 0 1.2-.1 1.7-.3l.3 2.2zm4.3.1h-2.5v-10.1h2.5v10.1zm-2.7-13.7c0-.9.7-1.5 1.5-1.5.9 0 1.5.6 1.5 1.5 0 .8-.7 1.5-1.5 1.5s-1.5-.7-1.5-1.5m13 8.7c0-1.7-1.2-3-2.9-3s-2.9 1.3-2.9 3 1.2 3.1 2.9 3.1c1.8 0 2.9-1.4 2.9-3.1m2.5 0c0 3.1-2.3 5.4-5.4 5.4-3.1 0-5.4-2.3-5.4-5.4 0-3 2.3-5.3 5.4-5.3 3.1 0 5.4 2.3 5.4 5.3m11.9-.5v5.6h-2.5V137c0-1.8-.9-2.8-2.5-2.8-.9 0-1.8.5-2.6 1.5v6.7h-2.5v-10.1h2.5v.8c.9-.7 1.9-1.2 3.1-1.2 2.7.1 4.5 2.1 4.5 5m9.9 2.2v-3.4c-.7-1-1.7-1.4-2.7-1.4-1.7 0-3 1.5-3 3.2 0 1.7 1.3 3.1 3 3.1 1.1 0 2-.4 2.7-1.5m2.5 3.3h-2.5v-.7c-.8.6-1.9.9-3.1.9-2.8 0-5.1-2.3-5.1-5.3 0-2.9 2.3-5.3 5.1-5.3 1.2 0 2.3.3 3.1.9v-.7h2.5v10.2zm2.4-15.1h2.5v15.1h-2.5zm11 .6h2.6v14.5h-2.6zm15.3 9v5.6H304V137c0-1.8-.9-2.8-2.5-2.8-.9 0-1.8.5-2.6 1.5v6.7h-2.5v-10.1h2.5v.8c.9-.7 1.9-1.2 3.1-1.2 2.7.1 4.5 2.1 4.5 5m3.8 2.2c.2 1.2 1.1 1.7 2.5 1.7 1.2 0 2-.4 2-1.1 0-.5-.4-.9-1.2-1.1l-2.2-.4c-1.5-.3-3-1.1-3-2.9 0-2 1.7-3.2 4.2-3.2 1.7 0 4.2.6 4.5 3.3h-2.3c-.1-1-1-1.5-2.2-1.5-1.2 0-1.8.5-1.8 1.1 0 .5.3 1 1.4 1.2l1.9.3c1.5.3 3 1 3 2.9 0 2.2-1.9 3.3-4.4 3.3-2.3 0-4.4-1-4.7-3.7l2.3.1zm16.5 3.2c-1.1.3-1.6.4-2.5.4-2.4 0-3.9-1.6-3.9-4.2v-4.1h-2.3v-2.1h2.3v-3.7h2.5v3.7h3.7v2.1h-3.7v4.1c0 1.3.7 1.9 1.9 1.9.6 0 1.2-.1 1.7-.3l.3 2.2zm4.3.1h-2.5v-10.1h2.5v10.1zm-2.7-13.7c0-.9.7-1.5 1.5-1.5.9 0 1.5.6 1.5 1.5 0 .8-.7 1.5-1.5 1.5s-1.5-.7-1.5-1.5m13 13.6c-1.1.3-1.6.4-2.5.4-2.4 0-3.9-1.6-3.9-4.2v-4.1h-2.3v-2.1h2.3v-3.7h2.5v3.7h3.7v2.1h-3.7v4.1c0 1.3.7 1.9 1.9 1.9.6 0 1.2-.1 1.7-.3l.3 2.2zm11.5.1h-2.5v-.9c-.9.7-1.9 1.2-3.1 1.2-2.6 0-4.4-1.9-4.4-4.8v-5.6h2.5v5.4c0 1.8.9 2.8 2.5 2.8.9 0 1.9-.5 2.6-1.5v-6.7h2.5v10.1zm10-.1c-1.1.3-1.6.4-2.5.4-2.4 0-3.9-1.6-3.9-4.2v-4.1h-2.3v-2.1h2.3v-3.7h2.5v3.7h3.7v2.1H359v4.1c0 1.3.7 1.9 1.9 1.9.6 0 1.2-.1 1.7-.3l.3 2.2zm3.4-5.8h5.3c-.2-1.4-1.1-2.3-2.6-2.3s-2.5 1-2.7 2.3m7.7 1.9h-7.7c.3 1.3 1.2 2.2 2.9 2.2 1 0 1.7-.3 2-.9h2.6c-.6 1.9-2.4 3-4.7 3-3.2 0-5.4-2.3-5.4-5.3s2.1-5.3 5.4-5.3c2.8 0 4.9 2.1 4.9 5.1.1.4.1.8 0 1.2m16.1-6v2.1h-3.9v8h-2.5v-8h-2.8v-2.1h2.8v-1.8c0-2.6 1.6-4.3 4.1-4.3.7 0 1.6.1 2.3.3l-.4 2.1c-.5-.1-1.1-.2-1.5-.2-1.3 0-2.1.8-2.1 2v1.8h4zm8.8 5c0-1.7-1.2-3-2.9-3s-2.9 1.3-2.9 3 1.2 3.1 2.9 3.1 2.9-1.4 2.9-3.1m2.5 0c0 3.1-2.3 5.4-5.4 5.4-3.1 0-5.4-2.3-5.4-5.4 0-3 2.3-5.3 5.4-5.3 3.1 0 5.4 2.3 5.4 5.3m4.2-3.8c.9-.9 2.1-1.5 3.7-1.5v2.3c-1.6.1-2.8.6-3.7 1.7v6.3h-2.5v-10.1h2.5v1.3zM168 158.5h-2.5c-.2-1.5-1.2-2.4-3.2-2.4-1.7 0-2.9.8-2.9 2.1 0 1.1.8 1.6 2.3 1.9l1.8.4c2.8.6 4.3 1.7 4.3 4 0 2.7-2.2 4.5-5.6 4.5-3.6 0-6-1.9-6.2-5h2.5c.3 1.7 1.7 2.8 3.8 2.8 1.8 0 2.8-.7 2.8-2 0-.8-.5-1.5-2.1-1.8l-2.4-.5c-2.8-.5-4.1-2-4.1-4.1 0-2.7 2.2-4.5 5.4-4.5 2.7 0 5.7 1.1 6.1 4.6m11.9 10.3h-2.5v-.9c-.9.7-1.9 1.2-3.1 1.2-2.6 0-4.4-1.9-4.4-4.8v-5.6h2.5v5.4c0 1.8.9 2.8 2.5 2.8.9 0 1.9-.5 2.6-1.5v-6.7h2.5v10.1zm4.1-3.4c.2 1.2 1.1 1.7 2.5 1.7 1.2 0 2-.4 2-1.1 0-.5-.4-.9-1.2-1.1l-2.2-.4c-1.5-.3-3-1.1-3-2.9 0-2 1.7-3.2 4.2-3.2 1.7 0 4.2.6 4.5 3.3h-2.3c-.1-1-1-1.5-2.2-1.5-1.2 0-1.8.5-1.8 1.1 0 .5.3 1 1.4 1.2l1.9.3c1.5.3 3 1 3 2.9 0 2.2-1.9 3.3-4.4 3.3-2.3 0-4.4-1-4.7-3.7l2.3.1zm16.6 3.3c-1.1.3-1.6.4-2.5.4-2.4 0-3.9-1.6-3.9-4.2v-4.1h-2.3v-2.1h2.3V155h2.5v3.7h3.7v2.1h-3.7v4.1c0 1.3.7 1.9 1.9 1.9.6 0 1.2-.1 1.7-.3l.3 2.2zm9-3.3V162c-.7-1-1.7-1.4-2.7-1.4-1.7 0-3 1.5-3 3.2 0 1.7 1.3 3.1 3 3.1 1 0 2-.4 2.7-1.5m2.4 3.4h-2.5v-.7c-.8.6-1.9.9-3.1.9-2.8 0-5.1-2.3-5.1-5.3 0-2.9 2.3-5.3 5.1-5.3 1.2 0 2.3.3 3.1.9v-.7h2.5v10.2zm5.1 0h-2.5v-10.1h2.5v10.1zm-2.8-13.8c0-.9.7-1.5 1.5-1.5.9 0 1.5.6 1.5 1.5 0 .8-.7 1.5-1.5 1.5s-1.5-.6-1.5-1.5m15.4 8.2v5.6h-2.5v-5.4c0-1.8-.9-2.8-2.5-2.8-.9 0-1.8.5-2.6 1.5v6.7h-2.5v-10.1h2.5v.8c.9-.7 1.9-1.2 3.1-1.2 2.7.1 4.5 2 4.5 4.9m9.7 2.2V162c-.7-1-1.7-1.4-2.7-1.4-1.7 0-3 1.5-3 3.2 0 1.7 1.3 3.1 3 3.1 1 0 2-.4 2.7-1.5m2.5 3.4h-2.5v-.7c-.8.6-1.9.9-3.1.9-2.8 0-5.1-2.3-5.1-5.3 0-2.9 2.3-5.3 5.1-5.3 1.2 0 2.3.3 3.1.9v-.7h2.5v10.2zm10.3-5.1c0-1.7-1.2-3.1-3-3.1-1 0-2 .4-2.7 1.4v3.5c.7 1 1.7 1.4 2.7 1.4 1.8 0 3-1.5 3-3.2m2.5 0c0 2.9-2.3 5.3-5.1 5.3-1.2 0-2.3-.3-3.1-.9v.7H244v-15.1h2.5v5.8c.8-.6 1.9-.9 3.1-.9 2.8-.2 5.1 2.2 5.1 5.1m1.8-10.1h2.5v15.1h-2.5zm6.7 9.3h5.3c-.2-1.4-1.1-2.3-2.6-2.3-1.5-.1-2.4 1-2.7 2.3m7.8 1.8h-7.7c.3 1.3 1.2 2.2 2.9 2.2 1 0 1.7-.3 2-.9h2.6c-.6 1.9-2.4 3-4.7 3-3.2 0-5.4-2.3-5.4-5.3s2.1-5.3 5.4-5.3c2.8 0 4.9 2.1 4.9 5.1v1.2m13 1.7c2.9 0 5.1-2.2 5.1-4.9s-2.2-4.8-5.1-4.8h-2.9v9.8h2.9zm0-12.1c4.5 0 7.7 3 7.7 7.2s-3.3 7.3-7.7 7.3h-5.4v-14.5h5.4zm11.5 8.6h5.3c-.2-1.4-1.1-2.3-2.6-2.3-1.5-.1-2.4 1-2.7 2.3m7.8 1.8h-7.7c.3 1.3 1.2 2.2 2.9 2.2 1 0 1.7-.3 2-.9h2.6c-.6 1.9-2.4 3-4.7 3-3.2 0-5.4-2.3-5.4-5.3s2.1-5.3 5.4-5.3c2.8 0 4.9 2.1 4.9 5.1v1.2m7.1 4.1h-2.2l-4.6-10.1h2.6l3.1 6.9 3.1-6.9h2.6zm7.1-5.9h5.3c-.2-1.4-1.1-2.3-2.6-2.3-1.5-.1-2.4 1-2.7 2.3m7.8 1.8h-7.7c.3 1.3 1.2 2.2 2.9 2.2 1 0 1.7-.3 2-.9h2.6c-.6 1.9-2.4 3-4.7 3-3.2 0-5.4-2.3-5.4-5.3s2.1-5.3 5.4-5.3c2.8 0 4.9 2.1 4.9 5.1v1.2m2-11.1h2.5v15.1h-2.5zm12.3 10.1c0-1.7-1.2-3-2.9-3s-2.9 1.3-2.9 3 1.2 3.1 2.9 3.1 2.9-1.3 2.9-3.1m2.4 0c0 3.1-2.3 5.4-5.4 5.4-3.1 0-5.4-2.3-5.4-5.4 0-3 2.3-5.3 5.4-5.3 3.1 0 5.4 2.3 5.4 5.3m9.7 0c0-1.7-1.2-3.2-3-3.2-1 0-2 .4-2.7 1.4v3.5c.7 1 1.7 1.4 2.7 1.4 1.8.1 3-1.4 3-3.1m2.5 0c0 2.9-2.3 5.3-5.1 5.3-1.2 0-2.3-.3-3.1-.9v5.8h-2.5v-15.1h2.5v.7c.8-.6 1.9-.9 3.1-.9 2.8-.2 5.1 2.2 5.1 5.1m18.5-.5v5.6h-2.5v-5.4c0-1.8-.9-2.8-2.4-2.8-.8 0-1.6.4-2.3 1.4.1.4.1.8.1 1.2v5.6h-2.5v-5.4c0-1.8-.9-2.8-2.4-2.8-.7 0-1.5.4-2.2 1.3v6.8H356v-10.1h2.5v.7c.7-.6 1.4-1 2.7-1 1.3 0 2.5.6 3.3 1.5 1.1-1 2.1-1.5 3.8-1.5 2.5.1 4.4 2 4.4 4.9m4.1-.3h5.3c-.2-1.4-1.1-2.3-2.6-2.3-1.5-.1-2.4 1-2.7 2.3m7.8 1.8h-7.7c.3 1.3 1.2 2.2 2.9 2.2 1 0 1.7-.3 2-.9h2.6c-.6 1.9-2.4 3-4.7 3-3.2 0-5.4-2.3-5.4-5.3s2.1-5.3 5.4-5.3c2.8 0 4.9 2.1 4.9 5.1.1.4.1.8 0 1.2m12-1.5v5.6h-2.5v-5.4c0-1.8-.9-2.8-2.5-2.8-.9 0-1.8.5-2.6 1.5v6.7h-2.5v-10.1h2.5v.8c.9-.7 1.9-1.2 3.1-1.2 2.7.1 4.5 2 4.5 4.9m9.8 5.5c-1.1.3-1.6.4-2.5.4-2.4 0-3.9-1.6-3.9-4.2v-4.1h-2.3v-2.1h2.3V155h2.5v3.7h3.7v2.1h-3.7v4.1c0 1.3.7 1.9 1.9 1.9.6 0 1.2-.1 1.7-.3l.3 2.2z" class="c-header__logo-strapline" fill="#093266"/>
  <path d="M241.5 54.9c-7.2-1.3-10.1-3-10.1-8.4 0-5.2 4.7-9.1 12.5-9.1 7.5 0 13 2.5 19.9 7.7l5.3-12.2c-7.8-6-15.2-9-26.4-9-17 0-28.4 9.5-28.4 23.1 0 13.3 7.6 19.6 21.2 22.2l12 2.3c7.3 1.3 8.9 4.9 8.8 8-.1 4.4-3.5 8-11.7 8-8.6-.2-17.8-4.1-24.5-9.7l-5.4 12.5c6.6 6.6 21.3 11 29.1 11 17.8 0 29.5-9.4 29.5-23.6 0-12.4-8.2-18-22.4-21.1l-9.4-1.7zm-83.7-29.3h15.8v74.2h-15.8zm28.8 0h15.8v74.2h-15.8zm126.7 59.8c13.2 0 23.7-10 23.7-22.9 0-12.4-10.5-22.4-23.7-22.4h-13.1v45.3h13.1zm0-59.8c22.8 0 39.7 15.6 39.7 36.8 0 21.6-16.9 37.5-39.7 37.5h-28.9V25.6h28.9z" class="c-header__logo-acronym" fill="#093266"/>
  <g class="c-header__logo-symbol">
    <path d="M37.3 103.1C17.9 90.7 9.8 65.7 19.2 43.9 28.7 22.1 52.5 11 74.8 16.8L81 2.6c-30.1-9-63 5.7-75.8 35.2-12.8 29.5-1.2 63.6 26 79.5l6.1-14.2z" fill="#093266"/>
    <path d="M95 8.8 88.8 23c19.2 12.4 27.3 37.4 17.9 59-9.4 21.7-33.1 32.8-55.4 27.2l-6.2 14.2c30 8.9 62.8-5.8 75.6-35.3C133.6 58.6 122 24.7 95 8.8" fill="#29c3ec"/>
  </g>
</svg>
