<?xml version="1.0" encoding="utf-8"?>
<!-- Generator: Adobe Illustrator 21.0.0, SVG Export Plug-In . SVG Version: 6.00 Build 0)  -->
<svg version="1.1" id="IMF-Seal" xmlns="http://www.w3.org/2000/svg" xmlns:xlink="http://www.w3.org/1999/xlink" x="0px" y="0px"
	 viewBox="0 0 587.5 587.5" style="enable-background:new 0 0 587.5 587.5;" xml:space="preserve">
<style type="text/css">
	.st0{fill:#004C97;}
</style>
<g>
	<path class="st0" d="M107.4,372.4l1.8-0.5l-5-19c-7.9-0.5-14.9-1.3-22.4-2l0-0.1c5.6-4.8,12.4-10.4,17.9-14.9l-4.7-18l-1.8,0.5
		c0.9,3.8,0.6,4.2-2.3,4.9l-12.3,3.2c-4.9,1.3-12.8,3.1-14.9,3.4c-2.4,0.3-2.8-0.3-3.5-1.9l-1-2.2l-1.8,0.5l3.9,14.9l1.8-0.5
		l-0.4-2.9c-0.3-1.8,0-2.9,2.2-3.9c1.8-0.9,9.6-3.2,14.5-4.5l8.7-2.3l0.1,0.5l-25.6,18.8l1.7,6.6l31,1.8l0.1,0.5l-23.5,6.2
		c-2.8,0.7-3.2,0.5-4.3-3.2l-1.8,0.5l6,22.9l1.8-0.5c-0.9-3.8-0.6-4.2,2.2-4.9l27.1-7.1C105.9,368.5,106.3,368.7,107.4,372.4z"/>
	<path class="st0" d="M113.8,421.2c11-6.1,14.2-16.1,6.1-30.4c-7.9-14.1-18.2-16.7-29.1-10.6c-10.8,6.1-14.1,16.2-6.2,30.4
		C92.6,424.8,102.9,427.3,113.8,421.2z M86.6,409.4c-2.3-4,0.4-8.3,12.2-15c12.9-7.2,17.3-6,19.2-2.6c3.2,5.7-4.8,10.9-12.2,15.1
		C94.6,413.2,89.1,413.9,86.6,409.4z"/>
	<path class="st0" d="M207.6,509.6l12.4-28.1l1.9,0.8c3.7,1.6,4,2.3,3.3,11.6l2.7,1.2l4.8-10.8l-37.4-16.5l-4.8,10.8l2.8,1.2
		c6.5-6.8,7.2-7,10.7-5.4l1.9,0.8l-12.4,28.1c-1.2,2.7-2.3,2.5-6.7,0.7l-0.8,1.7l24.9,11l0.8-1.7
		C207.3,513.1,206.4,512.3,207.6,509.6z"/>
	<path class="st0" d="M263.4,525.7c-2-5.6-6.5-28.9-7.5-36.4l-13.6-3.1c-4.6,7-18.7,25.7-22.7,29.7c-1.8,1.7-2.3,1.9-6.4,1.2
		l-0.4,1.9l16.7,3.9l0.4-1.9l-4.3-1.3c-1.8-0.5-2-1.2-1.1-2.6c1-1.8,2.9-4.7,4.9-7.7l13.4,3.1c0.4,2.5,1.1,6.6,1.3,8.8
		c0.1,1.8,0,2.4-1.9,2.1l-3.7-0.4l-0.4,1.8l30,6.9l0.4-1.8C264.4,528.6,264.3,528.3,263.4,525.7z M231,507.1
		c2.3-3.5,6.3-9.2,8.5-12.4l0.4,0.1c0.7,4.6,1.9,11,2.4,14.9L231,507.1z"/>
	<path class="st0" d="M366.2,485.3c0.8-2.4,2.1-2.9,4.9-3.8l-0.5-1.8l-15.4,4l0.5,1.8l3.9-0.6c1.4-0.2,1.7,0.5,1.4,2
		c-0.4,2.2-1.7,10-3.1,16.3l-0.2,0c-3.9-3.7-10.4-10.1-12.8-12.5c-0.9-0.9-0.9-1.6,0.1-2l3.5-1.3l-0.5-1.8l-28.8,7.5l0.5,1.8
		c2.8-0.6,3.6-0.5,5.4,0.9c3.4,2.6,12.2,10.5,16.6,14.7c0.7,0.7,1.1,1.4,1.4,2.5l2,7.9c0.7,2.8,0.4,3-5.5,4.8l0.5,1.8l29.8-7.8
		l-0.5-1.8c-6.1,1.3-6.5,1.3-7.2-1.5l-2.2-8.3c-0.3-1.3-0.3-2-0.1-2.8C361.8,499.1,364.9,489.2,366.2,485.3z"/>
	<path class="st0" d="M426,485.2l-6.8-9.9l2.7-1.8c2.8-1.9,3.9-1.5,8.7,1.6l2.2-1.5l-8.3-12.2l-2.2,1.5c1.2,6.2,1.1,6.5-1.8,8.4
		l-2.7,1.8l-8.2-12c-0.9-1.3-0.8-1.6,0.8-2.7l1.7-1.1c4.7-3.2,7.4-1.3,13.5,2l2.2-1.5l-6.6-9.7l-30.2,20.6l1,1.5
		c3.3-2.1,3.8-1.9,5.4,0.5l15.8,23.1c1.6,2.4,1.6,2.9-1.6,5.2l1.1,1.6l20.5-14l-1.1-1.6C428,487.8,427.6,487.6,426,485.2z"/>
	<path class="st0" d="M470.8,432.4l-14.2-13.2c-2.1-2-2.2-2.5,0-5.1l-1.4-1.2L441,428.2l1.4,1.2c2.4-2.4,2.9-2.4,5.1-0.4l16.1,14.9
		c5.1,4.8,6.5,7.8,4.1,10.4c-2.4,2.6-5.6,1.6-10.7-3.2l-16.1-14.9c-2.1-2-2.2-2.5,0-5.1l-1.4-1.2L425,445.5l1.4,1.2
		c2.5-2.5,3-2.4,5.1-0.5l14.5,13.4c6.9,6.4,13.1,7.2,23.3-3.7C479.3,445,477.9,439,470.8,432.4z"/>
	<path class="st0" d="M510.3,328.1c-6.4-1.7-11.3-1.3-15.3,1.5c-4.4,3-6.6,8-8.7,15.8l-6.5,24.1l1.8,0.5c1.1-3.7,1.6-3.9,4.4-3.2
		l27.1,7.3c2.8,0.8,3.1,1.2,2.2,4.9l1.8,0.5l5.5-20.6c1.9-7.2,2.5-11.6,1.4-17.3C522.9,335.9,518.7,330.3,510.3,328.1z M520.8,357
		c-0.6,2.3-1.4,2.7-3.1,2.2l-29.1-7.8c-1.3-0.3-1.3-1.1-0.8-3c1.5-5.7,7.3-7.6,18.7-4.5C520.9,347.8,521.7,353.3,520.8,357z"/>
	<path class="st0" d="M67.6,244.1l27.1,7c2.8,0.7,3.1,1.1,2.2,4.9l1.8,0.5l5.9-23.2l-1.8-0.5c-1.1,3.8-1.5,4-4.3,3.2l-27.1-7
		c-2.8-0.7-3.2-1.1-2.3-4.9l-1.8-0.5l-5.9,23.2l1.8,0.5C64.3,243.6,64.8,243.4,67.6,244.1z"/>
	<path class="st0" d="M106,168.9c-5-8-5-8.6-2.6-11.7l1.3-1.6l24.2,19c2.3,1.8,1.9,2.9-1,6.7l1.5,1.2l10-12.7v-6.6
		c-0.3-0.2-0.7-0.4-1-0.7l-24.2-19l1.3-1.6c2.5-3.1,3.2-3.3,12.1-0.4l1.8-2.3l-9.3-7.3L94.9,164l9.3,7.3L106,168.9z"/>
	<path class="st0" d="M290.9,93.4l-4.1-0.4c-1.7-0.2-2-0.8-1.5-2.4c0.6-1.9,1.8-5.2,3.1-8.5l12.6,0.4c0.8,2.4,2.1,6.2,2.7,8.4
		c0.4,1.7,0.4,2.3-1.3,2.4l-3.4,0.3l-0.1,1.9l28.3,1l0.1-1.9c-4-0.5-4.1-0.8-5.4-3.1c-2.8-5.1-10.9-27-13-34.2l-12.8-0.4
		c-2.9,7.8-12.4,28.8-15.3,33.6c-1.3,2-1.8,2.3-5.6,2.4l-0.1,1.9l15.8,0.5L290.9,93.4z M295,65.9l0.4,0c1.5,4.4,3.6,10.5,4.8,14.1
		l-10.7-0.4C290.9,75.7,293.5,69.4,295,65.9z"/>
	<path class="st0" d="M343.5,64.5l2,0.5l-7.7,29.8c-0.7,2.8-1.9,2.9-6.5,1.8l-0.5,1.8l26.4,6.8l0.5-1.8c-4.6-1.3-5.7-2-5-4.8
		l7.7-29.8l2,0.5c3.9,1,4.3,1.6,5.2,10.9l2.9,0.7l2.9-11.4l-39.6-10.2l-2.9,11.4l2.9,0.8C339,63.8,339.7,63.5,343.5,64.5z"/>
	<path class="st0" d="M385.8,111.8l11.6-25.5c1.2-2.6,1.6-2.9,5.3-1.4l0.8-1.7l-21.8-9.9l-0.8,1.7c3.5,1.7,3.6,2.2,2.4,4.9
		l-11.6,25.5c-1.2,2.6-1.7,2.8-5.2,1.3l-0.8,1.7l21.8,9.9l0.8-1.7C384.7,114.9,384.6,114.4,385.8,111.8z"/>
	<path class="st0" d="M399.7,101.8c-7.2,10.1-5.3,21,8.9,31.2c14.4,10.2,25.2,8.4,32.4-1.8c7.3-10.3,5.5-20.9-9-31.2
		C417.8,89.8,406.9,91.5,399.7,101.8z M414.1,112c8.6-12,13.3-12.7,16.7-10.3c5.8,4.1,0.8,12.2-4.1,19.2
		c-7.4,10.5-12.2,13.4-16.7,10.2C405.9,128.2,406.2,123.1,414.1,112z"/>
	<path class="st0" d="M465.6,183.2c-2.4-0.1-2.9-0.4-4.9-3.6l-1.7,0.9l7.3,14l1.7-0.9l-1.6-3.8c-0.7-1.6-0.2-2.1,1.3-2.4
		c2-0.4,5.4-1,8.9-1.5l5.8,11.2c-1.7,1.9-4.4,4.9-6,6.5c-1.3,1.2-1.8,1.5-2.8,0.1l-1.9-2.8l-1.7,0.9l13.1,25.1l1.7-0.9
		c-1.5-3.7-1.4-4,0-6.2c3.1-4.9,18.1-22.8,23.3-28.3l-6-11.4C494.1,181.3,471.1,183.4,465.6,183.2z M494,183.4l0.2,0.3
		c-3.1,3.4-7.3,8.3-9.9,11.1l-4.9-9.4C483.4,184.8,490.3,183.9,494,183.4z"/>
	<path class="st0" d="M521.2,222.5l-1.8,0.4c0.8,3.8,0.4,4.2-2.4,4.9l-27.3,6.3c-2.8,0.7-3.3,0.4-4.2-3.3l-1.9,0.4l8.2,35.5
		l12.4-1.6l-0.7-2.9c-9.3-2.2-11.1-3.5-12-7.6c-0.9-3.7-0.7-4.8,2.1-5.4l26.8-6.2c2.8-0.7,3.4-0.1,4.5,4.1l1.8-0.4L521.2,222.5z"/>
	<path class="st0" d="M187.2,474.6l5.9-7.9l-29.6-21.9l-1.1,1.5c3,2.4,3.1,2.9,1.3,5.3L147,474c-1.7,2.3-2.2,2.4-5.4,0.2l-1.1,1.5
		l30.7,22.7l6-7.9l-2.1-1.5c-7.7,2.9-9.1,2.4-13.2-0.6c-3.8-2.8-4-3-2.1-5.6l7.5-10.1l0.1,0.1c3.3,2.5,4.2,3.1,3.1,7.1l2.1,1.6
		l5.8-7.8l-2.1-1.6c-3.1,1.9-4,1.1-7.3-1.3l-0.1-0.1l7.8-10.5c1.1-1.4,1.3-1.5,2.9-0.4l1.9,1.4c4.4,3.3,4.5,3.6,3.7,11.9
		L187.2,474.6z"/>
	<path class="st0" d="M180.6,130.1l-6.3-7.6l-2,1.6c1,8.2,0.2,9.4-3.6,12.7c-3.6,3-3.9,3.2-6,0.8l-8.1-9.6l0.1-0.1
		c3.2-2.7,4-3.4,7.6-1.4l2-1.7l-6.3-7.4l-2,1.7c1.1,3.4,0.2,4.2-3,6.8L153,126l-8.5-10c-1.1-1.4-1.2-1.6,0.3-2.9l1.8-1.5
		c4.2-3.6,4.6-3.6,12.4-0.8l2.1-1.7l-6.4-7.5l-28.1,23.8l1.2,1.4c3-2.4,3.6-2.3,5.4-0.1l16.6,19.7h11.7L180.6,130.1z"/>
	<path class="st0" d="M173,95.6l12.8,24.9c1.3,2.6,1.2,3.1-2.5,5.1l0.9,1.7l23-11.8l-0.9-1.7c-3.9,1.9-4.3,1.7-5.6-0.9l-5.5-10.7
		l1.1-0.6c1.7-0.9,5.8-3.1,7.3-1.1c1,1.2,4,8.3,6.1,10c3.1,2.7,4.5,1.3,11.1-2.1l8.4-4.3l-0.9-1.7c-3.4,1.1-4.2,1-8.8-4.3
		c-3-3.4-5.6-6.6-15.2-3.4l-0.2-0.3c9.2-5.1,9.1-9.6,6.8-14c-3.8-7.4-10.4-5-18.5-0.8L166.5,93l0.8,1.6
		C171.1,92.8,171.7,93,173,95.6z M188.8,84c4.8-2.5,8.3-1.1,10.6,3.5c1.8,3.5,1.4,7.1-4.9,10.3l-1.3,0.7l-5.8-11.3
		C186.7,85.6,186.7,85.1,188.8,84z"/>
	<path class="st0" d="M316.7,521.7c-1.1-4.5-2-8.4-11.9-10l0-0.4c10.5-0.3,12.5-4.4,12.5-9.3c0-8.3-6.9-9.2-16-9.2l-29.3-0.1l0,1.8
		c4.2,0.1,4.6,0.6,4.6,3.5l-0.1,28c0,2.9-0.4,3.3-4.6,3.4l0,1.9l25.9,0.1l0-1.9c-4.3-0.1-4.6-0.5-4.6-3.4l0-12l1.3,0
		c2,0,6.6,0,7,2.3c0.3,1.5-0.3,9.2,0.8,11.7c1.5,3.8,3.4,3.3,10.8,3.3l9.5,0l0-1.9C319,529,318.3,528.5,316.7,521.7z M294.6,509.9
		l-1.4,0l0-12.7c0-1.7,0.3-2.2,2.6-2.2c5.4,0,7.9,2.9,7.9,8C303.7,506.9,301.7,509.9,294.6,509.9z"/>
	<path class="st0" d="M231.8,69.6l2.7,13.6c1,4.9,2.2,12.1,2.3,14.2c0.1,3-2.4,3.2-4,3.8l-1.7,0.6l0.4,1.9l18-3.6l-0.4-1.9l-4.1,0.4
		c-1.6,0.1-2.6-0.3-3.3-2.2c-0.7-1.9-2.3-9-3.3-13.9l-1.9-9.7l0.2,0c8.8,8.3,15.7,16.7,24.7,25l11.9-2.4L269,74
		c-1-4.9-1.9-9.9-1.8-12c0-2.9,2.3-3.1,3.8-3.6l1.8-0.5l-0.4-1.8l-17.8,3.6l0.4,1.8l3.9-0.4c1.6-0.2,2.6,0.1,3.3,2.1
		c0.7,1.9,2,6.7,3,11.6l1.2,6.1l-0.2,0c-7-6-15-13.6-21.3-19.3l-18.1,3.6l0.4,1.8C230.8,66.4,231.2,66.8,231.8,69.6z"/>
	<path class="st0" d="M431.9,144.9l-1.3-1.2l-1.4,1.3l1.1,1.2h3.1C432.8,145.8,432.3,145.3,431.9,144.9z"/>
	<path class="st0" d="M458.7,128.1l-10.4,9.2c-3.6,3.2-8.7,7.5-10.8,8.9h7c2-1.9,4.4-4.1,6.4-5.9l7.4-6.6l0.1,0.2
		c-2.7,11.8-6.5,22-9.1,33.9l8,9l16.2-14.4c3.8-3.4,7.6-6.6,9.5-7.7c2.5-1.4,3.8,0.4,5,1.5l1.3,1.3l1.4-1.2l-12.1-13.6l-1.4,1.2
		l2.3,3.1c1,1.3,1.2,2.3-0.1,3.9c-1.3,1.6-4.8,5.1-8.5,8.4l-4.7,4.1l-0.1-0.2c1.7-9,4.2-19.8,5.9-28.2l-12.3-13.8l-1.4,1.2
		C460.9,125.6,460.8,126.2,458.7,128.1z"/>
	<path class="st0" d="M480.3,378.1c-2.2-1.9-0.9-3.8-0.2-5.2l0.8-1.7l-1.6-0.9l-8.8,15.9l1.6,0.9l2.2-3.2c0.9-1.3,1.7-1.9,3.7-1.2
		c1.9,0.7,6.4,2.8,10.8,5.3l5.5,3l-0.1,0.2c-9.1,1.4-20.1,2.7-28.5,3.8l-9,16.2l1.6,0.9c2-3.3,2.5-3.4,5.1-2l12.1,6.7
		c4.4,2.4,10.6,6.2,12.3,7.4c2.3,1.8,0.9,3.9,0.3,5.5l-0.7,1.6l1.7,0.9l8.9-16.1l-1.7-0.9l-2.3,3.4c-0.9,1.3-1.9,1.8-3.8,1.1
		c-1.9-0.7-8.3-4.1-12.7-6.5l-8.7-4.8l0.1-0.2c12-1.4,22.9-1.2,35-2.7l5.9-10.6l-19-10.5C486.3,382,481.9,379.5,480.3,378.1z"/>
	<path class="st0" d="M154.4,442.3c2.5-1.5,3.9,0.3,5,1.4l1.3,1.3l1.3-1.3l-12.4-13.3l-1.3,1.3l2.4,3.1c1,1.2,1.3,2.2,0,3.9
		c-1.2,1.6-4.6,5.2-8.3,8.6l-4.6,4.3l-0.1-0.2c1.4-9.1,3.7-19.9,5.2-28.3l-12.6-13.5l-1.3,1.3c2.6,2.9,2.5,3.4,0.4,5.4l-10.1,9.5
		c-3.7,3.4-9.1,8.2-10.9,9.4c-2.4,1.7-4-0.3-5.3-1.4l-1.4-1.1l-1.4,1.3l12.6,13.4l1.4-1.3l-2.5-3.3c-1-1.3-1.1-2.3,0.1-4
		c1.2-1.6,6.4-6.7,10.1-10.1l7.2-6.8l0.1,0.2c-2.4,11.9-5.9,22.2-8.2,34.1l8.3,8.8l15.9-14.8C148.8,446.8,152.6,443.4,154.4,442.3z"
		/>
	<path class="st0" d="M79.4,209.3l12.7,5.7c4.6,2.1,11.1,5.2,12.9,6.4c2.5,1.6,1.3,3.8,0.8,5.5l-0.5,1.7l1.7,0.8l7.5-16.8l-1.7-0.8
		l-2,3.5c-0.8,1.4-1.7,2-3.7,1.4c-2-0.5-8.7-3.3-13.3-5.4l-9-4l0.1-0.2c11.9-2.4,22.7-3.2,34.7-5.7l4.9-11l-19.8-8.9
		c-4.6-2.1-9.1-4.2-10.9-5.5c-2.3-1.7-1.2-3.7-0.7-5.2l0.7-1.7l-1.7-0.7l-7.4,16.6l1.7,0.7l1.9-3.4c0.8-1.4,1.6-2,3.6-1.5
		c2,0.5,6.6,2.3,11.2,4.3l5.7,2.5l-0.1,0.2c-8.9,2.2-19.8,4.4-28.1,6.2L72.8,211l1.7,0.7C76.2,208.3,76.7,208.1,79.4,209.3z"/>
</g>
<g>
	<g>
		<polygon class="st0" points="73.2,287.6 77.4,275.6 81,287.6 93,287.6 83.1,295.1 87,306.8 77.1,299.3 66.3,307.1 70.8,294.8 
			61.2,287.6 		"/>
	</g>
</g>
<g>
	<g>
		<polygon class="st0" points="507.2,287.6 511.4,275.6 515,287.6 527,287.6 517.1,295.1 521,306.8 511.1,299.3 500.3,307.1 
			504.8,294.8 495.2,287.6 		"/>
	</g>
</g>
<g>
	<path class="st0" d="M447.4,200.7c0-13-0.1-25.8-0.1-35.1c0-6,0-11.8,0-17.7c-5.9,0-10.8,0-16.7,0c-10.9,0-21.7,0-32.6,0
		c-29.4-20.9-65.3-33.2-104-33.2s-74.6,12.3-104,33.2c-11.9,0-23.8,0-35.6,0c-4.4,0-8.8,0-13.3,0c0,10.3,0,20.7,0,31
		c0,7.1,0,14.1,0,21.2c-17,27.4-26.8,59.7-26.8,94.3c0,99.1,80.6,179.7,179.7,179.7s179.7-80.6,179.7-179.7
		C473.8,260.1,464.2,228,447.4,200.7z M443.6,266.6c3.5,30.3-9,60.9-32.6,80.1c-16,13-36.2,20.2-56.8,20.2
		c-18.2,0-36.1-5.6-51.1-15.9c-1.7-1.2-3.4-2.5-5.1-3.8c-0.8-0.6-1.6-1.3-2.3-1.9c19.6-17.3,30.9-42.2,30.9-68.4
		c0-26.2-11.3-51.1-30.9-68.4c0.4-0.3,0.7-0.6,1.1-0.9c0.9-0.8,1.9-1.6,2.9-2.3c27.1-20.6,64.6-24.1,95-8.8
		C421.5,210.1,440.2,236.8,443.6,266.6z M341,410.1c-0.6,0.2-1.3,0-1.9,0c-0.8,0.1-1.5,0.3-2.3,0.3c-0.9,0-1.7-0.8-2.5-0.5
		c-0.7,0.2-1.4,0.4-2.2,0.5c-1.9,0.4-3.9,0.8-5.8,1.2c-2.7,0.6-5.6,0.2-8.3,0.3c-1.5,0.1-3.1,0.3-4.6,0.2c-1.4-0.1-3.5,0.3-4.7-0.5
		c1.7-0.7,3-1.1,4.8-1.4c1.7-0.3,3.5-0.4,5.1-0.9c3.6-1.1,7.3-2.1,10.7-3.5c3.4-1.4,7-3.1,10.6-3.7c1.5-0.3,3.2-0.1,4.7-0.1
		c2.5,0,5-0.1,7.5-0.1c3.9-0.1,7.3-1.9,11-2.9c2.2-0.7,4.3-1.3,6.6-1.4c1.1,0,2.2,0.1,3.2,0.1c0.6,0,0.8,0.1,1.4,0.4
		c0.4,0.3,1.7,1.6,1.1,2.2c-0.5,0.5-0.7,1.1-1.4,1.1c-0.6,0-1.2,0-1.7,0c-0.5,0-1.2,0.9-1.6,1.2c-1.8,1.5-3.5,3-5.3,4.5
		c-2.4,2.1-4.8,4.4-7.4,6.3c-1.4,1-2.9,2-4.4,2.9c-1.6,0.9-3.3,2.2-5,2.8c-3.8,1.3-7.3,2-11.3,2.4c-3.5,0.4-7,0.2-10.5-0.1
		c-2.8-0.2-5.3-1.2-8.1-2c-2.9-0.8-5.7-1.6-8.5-2.6c-2.8-1-5.5-2.5-8.2-3.5c3.5,0.4,6.8,0.9,10.3,0.9c4.1,0,8.2-0.1,12.3-0.2
		c1.7,0,3.3-0.2,5-0.3c1.9-0.1,3.5-0.6,5.3-1.1c3.6-1,7.5-1.3,10.5-3.5C343.7,409.2,342.6,409.6,341,410.1z M294,343.6
		c-16.2,14.2-37,22.1-58.6,22.1c-49,0-88.8-39.8-88.8-88.8s39.8-88.8,88.8-88.8c21.6,0,42.4,7.8,58.6,22.1
		c19.2,16.9,30.2,41.2,30.2,66.7C324.2,302.4,313.2,326.8,294,343.6z M294.1,119.5c35.2,0,68,10.5,95.5,28.4c-1.4,0-2.9,0-4.3,0
		c-20.6,0-41.2,0-61.8,0c-22.2,0-44.4,0-66.7,0c-19.4,0-38.8,0-58.2,0C226.1,130,258.9,119.5,294.1,119.5z M119.2,294.4
		c0-30.7,8-59.6,22-84.8c0,11.6,0,23.3,0,34.9c0,19.6,0,39.3,0,58.9c0,4.7,0,9.4,0,14.1c0,12,1.5,24,4.7,35.6
		c6.3,22.4,19.1,42.3,35.6,58.6c15,14.8,32.7,26.8,51.4,36.4c14.1,7.3,28.9,13.4,44.1,18.2c3.2,1,6.4,1.9,9.6,2.8
		C193.7,465.2,119.2,388.3,119.2,294.4z M284.4,428.2c-1.9-1.2-3.4-2.8-4.6-4.6c-0.7-1-1.4-2.1-2.4-2.9c-1-0.8-2.1-2.2-3.5-2.3
		c-1.5-0.1-3-0.1-4.5-0.1c-0.5,0-1-0.9-1.3-1.3c-0.5-0.6-1-0.9-1.7-1.3c-0.5-0.3-1.1-0.7-1.6-1.1c-0.9-0.6-0.8-1-1.6-0.2
		c1.3,1.3,2.5,2.7,3.5,4.2c0.4,0.6,0,1.8,1.1,1.8c1.1,0,2.5-0.4,3.6-0.2c4.1,0.6,6.4,4.8,7.9,8.2c0.8,1.7,1.1,4.3,1.1,6.2
		c0,0.9,0.2,2,0,2.9c-0.2,0.9-0.8,1.8-1.1,2.7c-0.1,0.3-0.6,2-0.9,2.1c-1.1,0.3-2.2,0.6-3.2,0.9c-1.8,0.5-3.6-0.3-5.4-0.7
		c-2.2-0.5-3.6-1.7-5.4-3c-0.5-0.4-2-1.1-2.3-1.7c-0.6-1.2-1.1-2.4-1.7-3.6c-0.4-0.8-0.3-1.6-0.4-2.6c0-0.9-0.4-2.4-0.1-3.3
		c0.8-2.2,1.3-4.2,3.2-5.8c0.5,1.1,0.7,2.1,1.2,3.2c0.6,1.5,1.5,1.5,2.5,0.5c0.9-0.9-0.8-1.9-1.3-2.6c-0.4-0.5-0.4-0.7-0.4-1.4
		c0-0.9-0.1-1-0.6-1.6c-0.8-1-1.6-1.8-2.5-2.7c-0.6-0.6-2.2-1.5-2.3-2.3c-0.1-0.7-0.5-3.1-1.6-1.6c-0.9,1.2-0.2,1.9,0.4,3.1
		c-1.9,0-3.8-0.8-5.7-1.3c-1.7-0.5-3.5-1.1-5.2-1.6c-3.4-1.1-6.6-2.6-9.8-4.1c-3.6-1.7-7.4-2.6-11.2-3.7c-0.8-0.2-1.3-0.3-2.1-0.3
		c-0.9,0-2.5-0.5-3.3-0.2c-0.8,0.3-1.6,0.8-2.4,0.7c-1.2-0.2-1.8-0.2-2.7-0.9c-2.8-2.2-3-6.3-5.2-9c-2.2-2.8-4.6-6-7.8-7.7
		c-1.2-0.7-3.5-2-3.9-3.3c-0.2-0.8-0.6-1.9,0.6-1.9c1.5,0,1.6,0.1,2.7,1.2c0.9,0.9,3.3,0.6,4.4,1.3c1.6,1,3.3,2,4.9,3.1
		c3.2,2,6.2,4.5,9.3,6.7c2.9,2.1,6.2,3.6,9.5,5c3.2,1.3,6.2,4.1,9.8,4.4c1.9,0.2,3.7,0.8,5.4,1.7c0.9,0.5,1.4,0.5,2.1-0.1
		c0.7-0.7,1.1-1.4,1.4-2.3c0.1-0.4,0.5-0.7,0.8-1c0.1-0.2-0.5-0.8-0.7-1c-0.3-0.4-0.7-2-0.7-2.5c0.1-0.8,1-1.8,1.4-2.5
		c0.4-0.8,1.2-1.4,1.8-2.1c1.1-1.2,2.4-2.4,3.9-2.9c1.7-0.6,3.4-0.8,5.2-1c1.5-0.2,3.9-0.6,5.3,0c0.9,0.4,1.7,1,2.6,1.1
		c0.4,0.1,2.3-0.2,2.4-0.1c1.1,1.5,2,2.9,1.3,4.8c-0.7,2.1-1.3,3.7-2.5,5.4c-0.5,0.7-0.7,1.8-1.5,2.3c-1,0.7-2,1.3-3.1,1.9
		c-2.1,1-4.1,1.6-6.4,1.7c-1.1,0-2.1,0-3.2-0.3c-0.7-0.2-2.6-0.3-2.7-0.9c-0.2-1.1,0.9-1.9,1.7-2.6c0.7-0.7-0.4-2.2-0.8-2.8
		c-0.2,0.2-0.6,0.4-0.6,0.7c0,0.3,0,1-0.2,1.2c-0.7,0.7-1.3,1.3-2,2c-0.1,0.1-0.6,0.5-0.6,0.7c0.1,0.3,0.3,0.9,0.1,1.2
		c-0.4,0.8-1,1.2-1.5,1.9c1.6,0.8,3.3,0,5,0.4c0.7,0.2,1.5,0.8,2.3,0.8c1.3,0,2.6,0.2,3.9,0.2c0.9,0,1.9,0,2.8,0
		c0.7,0,1.4-0.8,2.2-0.9c1.9-0.2,3.1-1,4.8-1.8c0.7-0.3,1.7-0.6,2.2-1.2c0.6-0.7,1.3-1.4,1.9-2.1c1.1-1.4,2.2-2.8,3.6-4
		c2.8-2.3,5.6-4.5,8.6-6.5c3.3-2.2,6.8-3.7,10.4-5.3c1.4-0.7,3.6-0.5,5.2-0.7c1.9-0.2,3.9-0.3,5.8-0.4c3.4-0.2,6.8-0.6,10.3,0
		c2.1,0.4,4.3,0.3,6.4,0.8c1.9,0.5,3.6,0.8,5.6,0.7c1.8-0.1,3.6,0.1,5.5,0.1c1.8,0,3.6-0.4,5.4-0.6c1.6-0.1,3.4,0.1,4.9,0.6
		c1,0.3,5.2,1.6,3,2.8c-1.7,0.9-3.5,1.3-5.3,1.7c-1.7,0.3-3.3,1.4-4.7,2.3c-1.6,0.9-2.8,2.1-4.6,2.8c-1.7,0.7-3.4,1.4-5.1,2
		c-3.4,1.2-6.8,2.5-10.3,3.3c-1.9,0.4-3.5,1.2-5.4,1.7c-0.8,0.2-1.9,0-2.8,0c-1.1,0-1.6,0.2-2.7,0.7c-0.8,0.3-1.8,0.3-2.6,0.4
		c-0.9,0.1-1.8,0.4-2.7,0.6c-1.8,0.5-3.7,0.7-5.5,1c-3.6,0.6-7.2,0.8-10.8,1.2c-1.8,0.2-3.5,0.2-5.3,0.2c-0.8,0-1.6-0.2-2.4-0.2
		c-0.9,0-1.6,0.2-2.6,0c-2-0.4-3,0.8-4.8,1.3c-0.9,0.3-1.6,0.7-2.4,1.2c-0.8,0.5,1.6,1.4,1.7,1.4c1.8,0.4,3.9,0.3,5.8,0.3
		c0.9,0,1.3,0.1,2.1-0.4c0.9-0.6,1.5-0.7,2.6-0.9c3.4-0.6,7-0.3,10.4,0c2.1,0.2,3.8,0.3,5.7,1.1c1.7,0.7,3.5,1.3,5.2,2
		c3.3,1.2,6.4,2.6,9.6,3.9c1.9,0.8,3.6,1.1,5.6,1.5c1.5,0.2,2.8,1.2,4.3,1.6c3.4,0.9,7.1,1.9,10.7,1.9c1.3,0,2.6,0,3.9,0
		c1.3,0,2.5-0.8,3.9-0.6c1,0.2,2,0.1,3,0.2c0.8,0.1,1.5,0.7,2.2,1c1.5,0.6,2.1,0.4,1.7,2.2c-0.7,0.3-1.4,0.6-2.1,0.6
		c-0.9,0.1-2.1-0.1-2.9,0.2c-2.5,0.8-4.8,1.8-7.2,2.9c-1.7,0.8-3.5,2-5.3,2.5c-2.2,0.6-4.3,1.3-6.4,1.9c-3.5,1-7,1.9-10.7,1.9
		c-3.7-0.1-8.3-0.2-11.6-1.9c-1.7-0.8-3.5-1.7-5.2-2.5C292.2,432.4,288.1,430.5,284.4,428.2z M298.2,469.2c6.6-1.4,13.2-3.1,19.6-5
		c16.4-4.9,32.2-11.6,47.3-19.7c14.3-7.7,29.2-17.3,43.1-33.2c15-17.2,28.4-35.7,34.1-58c2.7-10.7,4.6-12.3,4.9-36.2
		c0.1-4.6,0.3-9.8,0.3-14.3c0-21.8,0.1-36.9,0.1-58.8c0-8.9,0-21.1,0-33.7c13.7,25,21.6,53.6,21.6,84
		C469,389.5,392.8,467.1,298.2,469.2z"/>
	<path class="st0" d="M308.9,431.8c1.8,0.3,3.7,0.5,5.5,0.6c2.2,0.1,5,0.7,7.1-0.1c1.8-0.7,3.7-0.6,5.6-1.1c0.2,0,0.2-0.7,0.3-0.8
		c-1.9-0.2-3.5-0.1-5.4,0c-2.4-0.3-4.6-0.7-7-1.2c-2.5-0.5-4.8-1.4-7.2-2c-4.4-1.1-8.5-3.3-12.7-5c-3.4-1.4-7.3-1.8-10.9-1.7
		c0.3,1.2,4.2,1.5,5.1,1.8c1.4,0.4,3,1.4,4.3,2.2c3.2,1.8,6.4,3.7,9.7,5.1C305.1,430.3,307,431.5,308.9,431.8z"/>
	<path class="st0" d="M214.2,394.1c-1-0.9-2.1-2.2-3.3-2.7c-0.6,0.9,1.9,2.4,2.5,2.9c0.8,0.8,3.4,3.5,2.9,4.9
		c-0.4-0.7-1-0.8-1.1,0.1c0,0.4,0.3,1.4,0.4,1.8c0.2,0.6,0.4,1.5,0.8,2c0.7,0.9,2.1,0.4,2.3-0.7c0.3-1.5-0.5-3.9-1.3-5.2
		C216.6,396.1,215.2,395.1,214.2,394.1z"/>
	<path class="st0" d="M279,407.1c3.4-1,6.8-2.2,10.2-3.2c3.5-0.9,7-1.5,10.5-2.2c3.7-0.8,7.3-1.4,11.1-1.6c1.9-0.1,3.7-0.4,5.5-0.7
		c1.6-0.3,2.9-1.2,4.3-1.9c1.9-0.9,3.6-1.2,5.7-1.6c1.5-0.2,3.6,0.2,4.9-0.4c0.2-0.1,1.1-0.3,1.1-0.6c-0.1-0.7,0-0.6-0.7-0.6
		c-1,0-2,0.1-2.9,0.1c-1.6,0.1-3.3,0.5-4.9,0.7c-3.8,0.5-7.6,0.1-11.4,0.7c-3.3,0.5-6.7,0.9-10,1.8c-4.1,1.1-8.5,2-12.5,3.7
		c-4,1.7-8,3.6-12,5.5C278.2,407.4,278.6,407.3,279,407.1z"/>
</g>
<g>
	<g>
		<g>
			<path class="st0" d="M193.1,215.1c1.2-1.2,1.7-1.7,3.2-2.1c0.4-0.1,1.2,0.3,1,0.7c-0.3,0.6-0.8,1-1,1.6c-0.4,1.5-0.8,2.7-1.8,3.9
				c-0.6,0.7,0.3,0.8-0.9,1.2c-0.7,0.2-1.1,0.4-1.7,0.8c-0.4,0.3-1,0.5-1.5,0.5c-0.7,0-1.2-0.8-1.8-0.8c-0.4,0-1.4,0.3-1.4-0.3
				c0-0.8,0.6-1.1,1.1-1.7c1.1-1.1,2.3-0.1,3.5-0.5C193,218.1,192.9,216.1,193.1,215.1"/>
		</g>
	</g>
	<g>
		<g>
			<path class="st0" d="M185.9,220.8c0.5-0.1,0.9,0.3,0.3,0.6C185.7,221.7,185.3,221.2,185.9,220.8"/>
		</g>
	</g>
	<g>
		<g>
			<path class="st0" d="M294.8,212.7c-1.4-1.1-2.8-2.1-4.4-3c-1.6-0.9-2.6-2.5-4.1-3.5c-0.7-0.5-1.3-1.2-1.9-1.8
				c-0.6-0.6-1.5-0.7-2.1-1.2c-1.6-1.3-2.8-2-4.8-2.2c-0.8-0.1-1.5-0.1-2.3-0.1c-1.3,0-1.6,0.1-2.6,0.9c-0.2,0.2-0.9,0-1.2,0
				c-0.2,0-0.4,0.9-0.5,1.1c-0.3,0.8-0.5,1.8-1,2.4c-0.5,0.6-1,1.3-1.8,1.3c-1,0-1.9,0-3,0.2c-0.9,0.2-1.8,0.2-2.8,0.3
				c-0.8,0.1-1.4,0.7-2.2,0.8c-0.9,0.1-2,0.5-2.9,0.4c-1-0.2-1.9-0.3-2.9-0.3c-1.3-0.1-1.4-0.2-2.3,0.7c-0.6,0.6-1.2,1.4-2,1.9
				c-1.8,1-3.3,2.1-5.2,2.7c-0.9,0.3-1.8,0.7-2.5,1.2c-1.2,0.9,0.1,1-0.1,2.1c-0.8-0.1-1.2-0.6-1.7-1.1c-0.2-0.2-0.6-1.6-0.9-1.5
				c-0.7,0.1-1.3,0.3-1.6,1c-0.5,1-0.6,0.8-1.8,0.6c-1.5-0.3-2.9,0.1-4.4,0.1c-0.8,0-2.8-0.7-3.4-0.2c-0.6,0.6-1.1,0.5-2,0.6
				c0-0.7,0.2-1.7-0.3-2.2c-0.7-0.7-1.1-1.2-1.5-2.1c-0.9-1.9-2.1-2.4-4.1-2.4c-1,0-1.4,0.1-2.1-0.6c-0.4-0.4-2-0.7-2.5-0.2
				c-0.6,0.6-1.1,1.1-1.9,1.5c-0.4,0.2-0.5,0.5-0.9,0.7c-0.4,0.2-0.9,0.1-1.3,0.3c-0.7,0.3-1.2,1-1.9,1c-1.1,0-1.9,0.2-3,0.4
				c-0.8,0.2-1.5,0.2-2.3,0.2c-1,0-1.4,0.8-2,1.5c-0.6,0.7-0.7,1.2-0.7,2.1c0,0.9,1.2,0.8,2,0.9c0.5,0,0.8-0.2,0.8,0.3
				c0,0.4,0,0.8,0,1.2c0,0.9-1,1.2-1,2.1c0,1.6,3.9,0.6,4.6,0c0.2-0.2,0.2-0.8,0.5-1.1c0.3-0.4,0.6-0.5,1-0.7c0.8-0.4,1-1.6,1.5-2.3
				c0.8-1.1,2.8-2.5,4.1-2.9c0.5-0.2,2.2-0.2,2.2,0.3c0,0.8-0.4,1.9-1.2,2.3c-0.6,0.3-1.9-0.4-2.4,0.1c-0.7,0.7-1.3,0.3-1.9,1.3
				c-0.3,0.5-0.5,0.7-0.1,1.1c0.1,0.1,0.5,0.9,0.4,0.9c0.8,0,1.8,0.1,2.6-0.1c0.9-0.3,1.7-0.6,2.6-0.6c1.1,0,1.8,0,1,1.1
				c-0.9,1.3-3.3,0.5-4.6,1c-0.9,0.3-1.8,0.6-2.8,0.8c-1,0.2-1.6-0.1-2.4,0.5c-0.7,0.6-1.3,1.2-2,1.8c-0.6,0.6-2-0.5-2.5-0.7
				c-1.8-1,0-3.4-1.1-4.5c-0.3-0.3-1.9,0-2.4,0c-1,0-1.7-0.1-2.5,0.4c-1.4,0.9-3,2-4.6,2.5c-0.8,0.2-1.5,0.6-2.3,0.9
				c-0.5,0.2-2.1-0.2-2.6-0.2c-0.7-0.1-1.5,0-2.2,0c-1.4,0-1.2,0.7-1.8,1.8c-0.4,0.6-0.9,1.3-1.4,1.8c-0.7,0.7-1,1.6-1.6,2.2
				c-0.6,0.6-1.4-0.9-1.8-1.1c-0.7-0.3-1.9,0.4-2.4-0.2c-0.6-0.7-1.3-1-2-0.3c-0.7,0.7-1.3,1.1-1.5,2.1c-0.2,0.9-0.4,1.2-1,1.8
				c-0.6,0.6-1.6,1.1-1.2,1.9c0.5,1,0.5,1.5,0.5,2.6c0,1.1,1.6,0.8,2.3,0.8c1.2,0,2.5,0.3,3.7,0.4c1.4,0.2,1.2-0.3,2-1.4
				c0.2-0.3,0.7-0.5,0.9-0.9c0.2-0.5-0.3-0.7,0.3-0.8c0.7-0.1,1.9-0.2,2.5,0.3c0.5,0.5,1.7,0.6,2.3,0.3c0.6-0.3,1.9-0.4,2.5,0.1
				c0.6,0.6,1,1.4,1.6,2.1c0.5,0.5-0.1,1.9,0,2.5c0.1,0.8,0.2,1,0.7,1.5c0.4,0.4,0.8,1,0.7,1.5c-0.2,0.9-0.2,1.2-0.9,1.7
				c-0.2,0.2-0.1,1-0.2,1.3c1.4-0.1,1.9-0.5,3-1.4c0.1,0.4,0.2,0.9,0.4,1.3c1.5-1.5,1.4-2.6,1.4-4.6c0-0.7-1-1-1-1.9
				c0-0.4,0-0.8,0-1.2c0-0.8-0.2-0.9,0.6-0.9c2,0,1.8,2.6,1.8,4c0,1.6,0,3.3-0.3,4.8c1,0,3.4-0.1,3.8-1.4c0.1-0.5-0.3-1.4-0.3-1.9
				c0-0.6,1-0.3,1.5-0.3c-0.4,1-0.4,1.6-0.4,2.6c0,0.4-0.5,0.4-0.4,0.8c0.1,0.3,0,1.1,0.3,1.4c0.4,0.5,1.7,0.6,2.2,1.1
				c0.4,0.4,0.5,0.6,0.5,1.1c0.1,0.7,0.4,0.2,1,0.4c0.4,0.2,1.5,1.3,1.3,1.7c-0.2,0.6-0.7,1.7-1.4,2c-0.5,0.2-1.9-0.2-2.4-0.4
				c-0.9-0.3-1.9-0.5-2.6-1.2c-0.9-0.7-1-1-2.1-1.4c-0.8-0.3-1.5-0.3-2.3-0.3c-0.3,0-2.3,0.1-2.4-0.1c-0.4-0.8-0.7-1.7-1.3-2.3
				c-0.9-0.9-3.7-0.6-3.7-2.6c0-0.4,0-0.8,0-1.2c0-0.2,0.6-0.2,0.7,0c0.4,0.7,0.8,1.6,1.4,2.2c0.8-0.5,0.5-1.3,0.1-2.1
				c-0.2-0.3-0.4-0.5-0.7-0.8c-0.6-0.5-0.4-0.4-1.1-0.4c-0.6,0,0,0.4-0.8,0c-0.3-0.2-0.6-0.6-0.7-0.9c-0.2-0.6-0.2-0.6-0.8-0.8
				c-0.5-0.2-0.7-0.7-1.1-0.9c-0.6-0.2-1.5-0.1-2.2-0.1c-1.1,0-2.3-0.1-3.4-0.1c-0.7,0-1.6,0.2-2.2-0.1c-1-0.5-1.9-0.9-2.9-1.5
				c-0.3-0.2-1.3-1-1.5-0.9c-0.5,0.3-1,0.7-1.5,1c-2,1.4-4.1,2.8-6.1,4.2c-2.8,1.9-5.8,3.6-8,6.1c-1.5,1.8-3.1,3.7-4.6,5.5
				c-0.8,1-0.7,3.1-0.9,4.3c-0.3,2-0.6,4-1,6c-0.1,0.9-0.5,1.8-0.8,2.6c-0.2,0.5,0.4,1.4,0.5,2c0.6,1.8,1.1,3.8,1.9,5.5
				c0.4,1,0.9,2,1.3,3c0.4,0.8,0.2,1.7,0.2,2.5c0,1.2,0.1,1.2,0.9,2c0.9,0.9,1.2,0.6,2.5,0.3c1.3-0.3,1.3-0.5,2.3,0.5
				c0.8,0.8,1.3,0.6,2.4,0.7c0.8,0,4.8-0.3,5.3,0.3c0.6,0.6,1.1,1.4,1.8,1.7c0.6,0.4,2.3,0.9,2.7,1.5c0.3,0.5,0,2.3,0,2.9
				c0,0.9,0,1.3,0.4,2.2c0.8,1.9,1.6,3.7,2.3,5.6c0.5,1.4,1.9,2.9,1.9,4.4c0,1,0,2,0,3.1c0,0.8-0.7,2-1,2.7c-0.3,0.7,0.1,1,0.5,1.7
				c0.6,1.1,1.3,2.2,1.9,3.3c0.7,1.2,1.1,2.6,1.7,3.9c1.5,3.7,3,7.4,4.8,11c0.9,1.7,1.7,3.4,2.6,5.1c0.2,0.4,1.5,0.9,1.9,0.9
				c0.7-0.1,1.4-1.1,2.1-1.4c1.8-0.9,3.7-1.8,5.5-2.7c1.6-0.8,1.5-3.1,1.9-4.6c0.2-0.9,0.4-0.9,1.2-1.3c1.5-0.7,2.4-1.8,1.8-3.6
				c-0.2-0.4-0.6-0.8-0.7-1.1c-0.2-0.6,0-1.7,0-2.3c0-1.8,1-2.2,2.1-3.3c1.4-1.4,1.5-2.4,1.5-4.2c0-2.2,0-4.5,0-6.7
				c0-0.8-2.6-3.2-1.8-4c1.1-1.1,2.3-2.3,3.4-3.4c2.9-2.9,5.7-5.7,8.2-8.8c1-1.2,1.7-3.1,2.1-4.6c0.2-0.9,0.3-1.7,0.8-2.5
				c0.2-0.4,1.7-2,0.9-2.3c-1.9-0.5-4.4,0.7-5.8,1.8c-0.6,0.1-2.2-0.1-2.7-0.3c-1.8-0.8-1.7-3-2.7-4.2c-0.5-0.5-1.1-1.8-1.8-2.1
				c-0.3-0.1-1,0.2-1.2,0c-0.2-0.1,0-1.4,0-1.6c0-1.6-1.2-3.4-1.6-5c-0.2-0.9-0.6-1.5-1.2-2.3c-0.5-0.7-0.3-1.7-0.3-2.5
				c0-0.8,0-1.6,0-2.4c0-0.6,1.3-1.7,1.8-1.2c0.9,0.9,1.1,3.7,1.4,4.9c0.5,1.8,1,3.6,1.8,5.3c0.5,0.9,1.1,1.2,2,1.7
				c0.7,0.4,0.5,1.4,0.7,2.1c0.2,1.3,0.5,2.6,0.9,3.9c0.4,1.1,1.1,1.1,2.2,1.4c0.7,0.2,1.9-0.5,2.6-0.7c0.9-0.3,1.7-0.6,2.6-0.8
				c1.6-0.5,3.1-1.9,4.6-2.7c0.9-0.5,1.4-0.6,2.4-0.7c0.6-0.1,1.4-1.5,1.7-2c0.4-0.6,1.2-1.1,1.4-1.7c0.1-0.4,0.9-2.3,0.1-2.3
				c-0.2,0-1.1,0.1-1.1-0.1c-0.1-0.6-0.4-1.3-0.8-1.8c-0.7-0.7-3-0.5-4-0.5c-1.3,0-1.3,0-2-1.1c-0.5-0.8-0.8-1.6-1.2-2.5
				c-0.2-0.6-0.3-0.9-0.3-1.6c0.5,0.3,1.5,0.5,1.7,1.1c0.2,0.8,0.3,1.4,0.3,2.3c0.8-0.1,1.5-0.2,2.3-0.2c1.2,0,1.2,0.1,2,0.9
				c0.4,0.3,1.2,1.3,1.7,1.4c0.9,0.1,1.9,0.3,2.8,0.4c1.5,0.2,2.8-0.4,4.2-0.2c1.1,0.2,1.4,0.2,2.1,1c0.6,0.6,0.9,1.3,1.3,2
				c0.7,1.1,0.6,1.3,1.9,1.4c1,0.1,0.8,0.1,1,1.1c0.2,1.7,0.2,3.6,1,5.1c0.9,1.6,1.9,2.9,3,4.3c1,1.3,1.6,2.6,2.7,3.8
				c0.8-1.2,2-2.5,2-4c0-0.7,0.4-1,0.8-1.5c0.6-0.6,0.5-1.1,0.5-1.9c0-1.9,0.4-2.7,1.8-4c1.1-1,2.3-1.8,3.4-2.8
				c1.1-1.1,2.2-1.7,3.8-1.6c0.9,0,1.4,0.1,1.8,0.9c0.3,0.6,0,1.5,0.4,2.1c0.2,0.2,0.4,0.7,0.6,0.8c0.3,0.1,0.8,0.2,1,0.4
				c0.4,0.4,0.5,1.6,0.8,2.2c0.9,1.9,1.9,2.1,3.1,0.4c0.3,1.3,0.6,3,1.4,4.2c0.9,1.3,0.8,3,1.3,4.5c0.5,1.5,1,3,1.9,4.4
				c0.8,1.3,1.6,3.1,3.3,3.5c0.7,0.2,1.2-0.1,0.9-0.9c-0.1-0.3-0.6-0.4-0.6-0.7c-0.1-0.5-0.2-1-0.3-1.5c-0.2-1.5-0.7-3.1-1.7-4.3
				c-0.5-0.7-1.2-1-1.9-1.5c-0.5-0.4-0.7-1.3-0.9-1.9c-0.4-1.6,0-2.7,1.2-3.9c1.1,1.1,2.6,3.6,4.1,3.8c1,0.2,1.4-1,2.1-1.7
				c0.2-0.2,0.7-0.2,1-0.5c0.6-0.5,0.7-0.7,0.9-1.4c0.7-2-0.5-4-1.1-5.8c-0.4-1.2-0.5-2-0.5-3.3c0-0.6,1.5-1.7,1.9-2.2
				c0.4,0.5,0.9,0.7,0.5,1.2c-0.5,0.5-0.3,1,0.1,1.5c0.4,0.4,1.2-0.3,1.5-0.6c0.3-0.3,0.1-1.4,0-1.7c-0.1-1.1,0.9-2.1,2-2.4
				c0.9-0.2,1.9-1.8,2.6-2.5c0.5-0.5,1-2.3,1-3c0.1-1.3,0.5-2.8,0.2-4c-0.5-2.5-0.7-5.1-2.6-6.9c0.4-0.4,1.2-1.2,0.6-1.8
				c-0.7-0.7-1.5,0.3-2,0.9c-0.2-0.4-1.1-1.8-0.5-2.2c0.4-0.3,0.8-0.5,1.1-0.8c0.6-0.6,0.5-0.5,1.1,0.1c0.5,0.6,1.1,1.1,1.7,1.6
				c0.7,0.6,0.6,1.6,0.8,2.6c0.1,0.4,0.4,0.6,0.7,0.9c0.4,0.4,0.5,0,0.8-0.3c0.5-0.5,1.4-1,1.4-1.8c0-0.6,0.3-2-0.2-2.5
				c-1-1-1.2-1.2-1.5-2.6c-0.2-1.5-0.1-3.6,1-4.7c0.9-0.9,0.9-0.8,0.4-2c-0.1-0.2-0.6-0.5-0.5-0.7c0.3-0.5,0.3-0.8,0.3-1.4
				c0-1.8,1-3,0.3-4.9c-0.5-1.5-1.4-3.6-2.5-4.8c-0.6-0.6-1.3-1.2-1.9-1.8c-0.5-0.5-1.7-1.1-2-1.7c-0.1-0.3,0.1-0.9,0-1.2
				c-0.1-0.3-0.7-0.7-0.9-0.9c-0.5-0.5-1.5,0.6-2.1,0.6c-0.4,0,0.2-2.3,0.2-2.5c0.1-0.7,1-1.4,1.7-1.5c1.1-0.2,1.7-0.1,2.5-0.9
				c0.6-0.6,0.5-1.4,1.2-2.1c0.9,1.1,1.4,2,2.1,3.2c0.2,0.4,0.4,0.8,0.6,1.2c0.1,0.2,0.6,0,0.8,0.1c1,0.4,0.6,0.9,1.8,0.9
				c1.4,0,2.5,1.2,3.8,1.2c1.1,0,1.4,0.3,1.4-0.8C295.5,213.8,295.1,213.3,294.8,212.7 M209.6,223.8c0.7-0.1,0.5,0.5,0.1,0.7
				C209.4,224.9,209,224,209.6,223.8 M213.7,244.1c-0.9,1.1-3.3-1-4.6-0.8c-0.6,0.1-1.8-0.1-1.6-0.9c0.2-0.6,0.5-1.8,1.1-2.1
				c0.5-0.3,1.5-1,2-0.7c0.4,0.4,0.5,0.4,0.6,1c0.1,0.5,0.5,0.3,1,0.3c1.2,0,1.3,0.1,1.7,1.2C214.2,243,214.3,243.2,213.7,244.1
				 M222.5,243.4c-0.6,0.8-0.8,1.2-0.5,2.2c0.3,1.1,0.4,1.3-0.2,2.4c-0.3,0.6-0.4,2.1-1.6,1.9c-0.9-0.2-1.3,0.5-1.9-0.6
				c-0.4-0.8,0.1-1.2,0.8-1.2c1,0,0.5-1.4,0.4-2.1c-0.1-0.8-0.3-1.5-0.2-2.4c0.2-1,0.6-1.3,1.5-1.6C221.7,242,223,242.1,222.5,243.4
				"/>
		</g>
	</g>
	<g>
		<g>
			<path class="st0" d="M188.1,214.2c0.3,0,0.8-0.5,1-0.4c0.4,0.1,0.8,0.2,1.3,0.4c0.9,0.3,1.1,0.4,1.3,1.4c0.1,0.6,0.2,1.3-0.4,1.7
				c-0.6,0.4-1.4,0.5-2.1,0.6c-0.6,0.1-1.6,0-2.1,0.3c-0.8,0.5-1.2,0.7-1.7-0.3c-0.7-1.4,0.5-1.3,1.3-1.9
				C187.2,215.5,187.7,214.7,188.1,214.2"/>
		</g>
	</g>
	<g>
		<g>
			<path class="st0" d="M211.9,305.8c0.2-1.1,0.1-1.3,1.2-1.6c0.6-0.2,1.4,0.9,1.6,1.4c0.8,1.8,0.7,3.3,0.5,5.3
				c-0.1,0.7-0.9,1.6-1.3,2.2c-0.5,0.7-0.7,1.2-0.9,2c-0.2,0.9-0.6,1.7-0.5,2.6c0.1,0.6,0.9,1.8,0.5,2.2c-0.2,0.2-1.3,1.5-1.7,1.2
				c-0.7-0.6-1.4-1.2-2-1.9c-1-1.1-0.6-3.3-0.6-4.7c0-0.9,0.1-1.8-0.1-2.6c-0.2-0.7-0.1-1.6,0.2-2.3c0.3-0.7,0.5-1.7,1.2-2.1
				C210.8,307,211.1,306.2,211.9,305.8"/>
		</g>
	</g>
	<g>
		<g>
			<path class="st0" d="M246.2,281.4c0.2-0.2,1.6-2,1.6-2c0.8,0.3,0.4,1.9,0.4,2.7c0,0.6-0.5,2.3-1.6,1.8
				C245.9,283.6,246.1,282,246.2,281.4"/>
		</g>
	</g>
	<g>
		<g>
			<path class="st0" d="M261.5,284.3c1.6,0,3-0.1,4.4,0.8c1.2,0.8,2.2,2,3.2,3.1c1,1,2.1,1.9,3.1,3c0.6,0.7,0,3.1-0.3,4
				c-0.4,1.2-2.3-2.2-2.4-2.6c-0.7-1.4-1.9-2.3-2.6-3.8c-0.3-0.6-2.2-2.7-2.9-2.7c-0.5-0.1-1.5,0.1-2-0.1
				C261.5,285.8,260.9,284.7,261.5,284.3"/>
		</g>
	</g>
	<g>
		<g>
			<path class="st0" d="M273.5,293.1c0.4,0.9,0.7,1.8,1,2.7c0.2,0.7,2.2,0.8,2.7,0.8c0.8,0.1,1.9,0.1,2.4,0.7
				c0.6,0.7,0.3,2.1-0.7,1.8c-0.8-0.3-1.1-1.1-2.2-1.1c-1,0-1.7-0.3-2.6-0.7c-0.9-0.4-1.9-0.7-1-1.7
				C273.6,295,272.7,293.8,273.5,293.1"/>
		</g>
	</g>
	<g>
		<g>
			<path class="st0" d="M281.1,299.1c0.9-0.1,1.1,0,1.9,0.5c0.4,0.2,1.4,0.1,1.9,0.2c0.8,0,1.4,0.1,2.1,0.3c1,0.4,1.1,0.6,0.3,1.3
				c-0.6,0.5-3.1-0.4-3.9-0.6c-0.7-0.2-1.1-0.4-1.9-0.4C280.9,300.3,280.1,299.5,281.1,299.1"/>
		</g>
	</g>
	<g>
		<g>
			<path class="st0" d="M290.3,301.4c0.4,0,1.3-0.2,1.6,0.2c0.4,0.7,0.5,1.3-0.5,1.4c-0.7,0.1-0.9-0.2-1.6-0.3
				c-0.8-0.1-0.9,0.3-1.5,0.5c-0.4,0.1-1.1,0-1.6,0c-0.5-0.1-1-1.1-0.2-1.1C287.6,302.1,289.3,302.1,290.3,301.4"/>
		</g>
	</g>
	<g>
		<g>
			<path class="st0" d="M275.6,285.3c1.5-0.2,2.6-0.5,3.8-1.5c0.6-0.5,1.3-1,1.9-1.6c0.6-0.6,1.1-1.7,2-1.3c0.3,0.1,2,0.9,1.9,1.2
				c-0.3,1.2-0.7,0.8-1.6,1.4c-0.7,0.5-0.4,1.3,0.1,1.8c0.9,1,0.5,1.3-0.2,2.3c-0.3,0.4-1.3,1.5-1.3,2c0,0.9-0.7,1.1-0.9,1.9
				c-0.2,0.9-0.8,1-1.4,0.4c-0.6-0.6-1.1-0.9-2-0.9c-0.5,0-1.8,0.6-2.2,0.3c-0.2-0.2-0.6-1.8-0.8-2.1c-0.3-0.7-0.6-1.4-0.5-2.1
				C274.6,286,274.6,285.6,275.6,285.3"/>
		</g>
	</g>
	<g>
		<g>
			<path class="st0" d="M290.8,288c-1.6-0.1-3.4-0.2-4.8,0.8c-1.3,1-1.8,2.2-1.8,3.8c0,0.7-0.1,1.6,0.2,2.2c0.2,0.4,1.4,1.5,1.9,1.4
				c1.5-0.4-1.3-2.5-0.5-3.7c0.6,0.3,0.6,0.7,0.8,1.3c0.3,0.8,0.5,0.9,1.3,1.1c0.3,0.1,1.5-0.3,1.2-0.6c-0.4-0.6-0.6-0.8-1.3-1.1
				c-1.6-0.8,1.2-0.7,1.7-1.1c1.4-1.2-1.5-0.9-2.2-1.1c0.2-0.9,1.1-1.3,1.9-1.4C290,289.4,291.7,288.8,290.8,288"/>
		</g>
	</g>
	<g>
		<g>
			<path class="st0" d="M291.9,284.3c0.5-0.3,1.6,0.1,1.6,0.7c0,0.5-0.2,0.9-0.2,1.4c0,0.7,0.7,0.2,1.1,0.6c0.4,0.4-0.4,1.4-0.7,1.7
				c-0.5,0.5-2.4-0.6-2.7-1.3C290.4,286.1,291.6,285.3,291.9,284.3"/>
		</g>
	</g>
	<g>
		<g>
			<path class="st0" d="M288.7,277.2c-0.2-0.7,0.8-1.8,1.5-1.6c0.6,0.2,0.7,1.5,0.4,2.1c-0.6,1,0.6,1.3,0.6,2.3
				c0,0.8,0.9,2.1-0.2,2.4c-1.2,0.3-1.2-0.5-2.1-1c-0.4-0.2-0.8-0.2-1.3-0.2c-0.2,0-0.4,0.4-0.8,0.4c-0.7,0-1-1.3-0.3-1.6
				c0.9-0.4,1.5-0.8,2.4-0.1c0.2-0.5,0.6-1,0.5-1.5C289.3,278,288.9,277.7,288.7,277.2"/>
		</g>
	</g>
	<g>
		<g>
			<path class="st0" d="M287,274.1c0.5,0.1,1.8,1.5,0.8,1.6C287.1,275.8,286,274.6,287,274.1"/>
		</g>
	</g>
	<g>
		<g>
			<path class="st0" d="M288.8,272.4c0.2,0.2,1,1.1,1,1.4c-0.1,0.8-0.9,0.5-1.4,0.5C287.4,274.2,287.7,271.3,288.8,272.4"/>
		</g>
	</g>
	<g>
		<g>
			<path class="st0" d="M285.7,265.8c0.8,0.1,1.3,0.5,1.8,1.1c0.6,0.8,0.1,1.1-0.6,1.6c-0.5,0.4,0.4,1.7,0.6,2.1
				c0.2,0.2,0.3,1.8-0.2,1.7c-0.8-0.1-1.6-0.3-2.2-0.9c-0.7-0.7-0.2-1.1-0.1-1.9C285.3,268.4,283.8,266.2,285.7,265.8"/>
		</g>
	</g>
	<g>
		<g>
			<path class="st0" d="M286.7,258c0.1-0.7,0.1-1.1,0.5-1.6c0.5-0.6,1.1,0.4,1.2,0.8c0.3,1,0.7,2.2,0.5,3.2
				c-0.3,1.4-1.5,1.6-2.5,0.7C286.1,260.8,286.5,258.4,286.7,258"/>
		</g>
	</g>
	<g>
		<g>
			<path class="st0" d="M296,287.6c-1.4-2.3,0.7-2.2,2.5-1.9c0.9,0.2,0.9,0.7,1.3,1.4c0.2,0.4-0.1,0.6-0.3,0.8
				c-0.5,0.7,0.1,1,0.6,1.3c1.4,0.9,3.1-1.6,4.4-0.5c1.4,1.1,2.3,2.9,3.8,3.8c0.7,0.4,1.5,0.8,2.2,1.4c0.3,0.2,0.4,0.7,0.8,0.9
				c0.5,0.3,0.7,0.1,1.1,0.6c0.9,1.6,1.8,3.3,2.6,4.9c0.4,0.8,2.3,4.3,0.8,4.8c-0.9,0.3-1.4-1.7-1.6-2.3c-0.3-0.9-1.6-0.1-2.3-0.4
				c-0.9-0.4-1.4-2.2-2.4-2.3c-1.3-0.2-1.5,1.9-3,1c-1.1-0.7-1.5-1.8-2.8-2.3c-1-0.4-2.7-1-2-2.3c0.3-0.6,0.4-1,0.3-1.6
				c-0.1-0.8-0.1-0.9-0.8-1.6c-0.8-0.9-2.1-1.3-3.2-1.5c-0.5-0.1-1.4-0.1-1.8-0.4c-0.4-0.3-0.7-1-1.1-1.4c-0.4-0.3-1-0.8-0.3-1.2
				c0.5-0.3,1.1-0.6,1.7-0.5C296.4,287.8,296.3,287.7,296,287.6"/>
		</g>
	</g>
	<g>
		<g>
			<path class="st0" d="M315.8,289.9c0-0.2,0-0.4,0-0.5c1.4-0.1,3.8,1.5,3.2,3c-0.2,0.4-0.7,0.9-1.2,0.7c-0.6-0.2-0.5-0.6-0.7-1
				c-0.2-0.3-0.2-1.1-0.5-1.2C316.2,290.7,315.8,290.5,315.8,289.9"/>
		</g>
	</g>
	<g>
		<g>
			<path class="st0" d="M315.5,293.3c0-0.2,0.1-0.5,0.1-0.8c0.9,0,1,0.8,0.9,1.5c0,0.4-0.1,0.6-0.3,1c-0.2,0.3-0.6,0.3-0.8,0.6
				c-0.5,0.8-1.6,0.5-1.2-0.6C314.5,294.3,315.7,294.5,315.5,293.3"/>
		</g>
	</g>
	<g>
		<g>
			<path class="st0" d="M319.2,293.4c1.5-0.5,1.4,2.9,0.4,3.4C318.2,297.7,318.2,294.1,319.2,293.4"/>
		</g>
	</g>
	<g>
		<g>
			<path class="st0" d="M319.7,298.1c0.3-0.5,0.7-0.7,1.3-0.8c0,0.7,0,1.3-0.1,2c-0.1,0.4-0.3,1.9-0.7,2.1c-1,0.5-0.7-1-0.9-1.4
				c-0.2-0.6-0.5-0.5-0.3-1.1C319.1,298.6,319.3,298.2,319.7,298.1"/>
		</g>
	</g>
	<g>
		<g>
			<path class="st0" d="M293.4,303.3c0.8,0.1,1.5,0.3,2.3,0.3c0.9,0.1,1.8-0.2,2.7-0.1c1,0.1,0.8,0.7,0.8,1.6c0,1.3-0.7,1.1-1.4,1.9
				c-1.2,1.5,0.7,3.1,1.6,4.1c0.7,0.8,1.1,1,1.7-0.1c0.5-0.9,1.1-1.4,1.4-2.5c0.2-0.7,0.7-1.3,0.9-2.1c0.2-0.8,0.4-2.1,1.2-2.6
				c2.2-1.4,1.5,3.3,1.6,4.6c0,1-0.1,1.5,0.5,2.3c0.6,0.9,0.6,1.9,0.3,3c-0.4,1.6,0,3.4,0.4,4.9c0.5,1.9,0.5,3.4,0.3,5.3
				c-0.1,0.9-0.3,1.6-0.6,2.5c-0.3,0.8-0.9,1.3-1.3,2.1c-0.4,0.8-0.9,1.7-1.3,2.5c-0.4,0.7-1.2,1.1-1.6,1.8
				c-0.4,0.8-0.8,1.6-1.3,2.3c-0.6,0.9-1,1.3-1.8,1.8c-1.5,0.9-2.5,2.3-4.1,3.1c-0.8,0.4-1.4,0.5-2.2,0.5c-0.9,0-1.8,0.2-2.8,0.3
				c-1.1,0.1-1.2,0-2.1-0.6c-0.5-0.4-0.6-1.7-0.7-2.4c-0.1-1.7-0.2-3.7,0.1-5.3c-0.8,0.1-1.3,1.2-2,0.8c-1-0.6-0.7-1.2-1.2-2.1
				c-1-1.7-1.4-3.3-3.6-3.6c-3.6-0.5-6.8,0.5-10.4,1c-0.3,0-1.6-0.9-1.8-1.1c-0.7-0.5-1-1.3-0.5-2.2c0.4-0.7,0.9-1.4,1.1-2.1
				c0.2-0.9,0.2-1.9,0.4-2.8c0.2-0.8,0.8-1.2,1.1-2c0.4-0.9,0.4-1.7,0.9-2.6c0.8-1.5,1.7-2.7,3.3-3.3c1.7-0.7,3.2-1.1,4.8-2
				c0.3-0.2,0.9-0.1,1.2-0.1c0.5,0,0.6-0.4,0.9-0.7c0.5-0.7,1.4-1.1,2-1.7c1.4-1.5,2.9-1.6,4.8-2
				C290.9,305.7,291.9,304.2,293.4,303.3"/>
		</g>
	</g>
	<g>
		<g>
			<path class="st0" d="M287.3,343.2c0.8-0.1,1-0.3,1.6,0.3c0.1,0.1,0.1,0.7,0.2,0.8c0.1,0.1,0.9-0.2,1.1-0.3
				c0.4-0.2,1.3-0.9,1.8-0.8c0.7,0.2,0.7,1,0.2,1.4c-0.5,0.5-1,0.9-1.4,1.5c-0.4,0.5-0.5,1.4-1,1.7c-1.1,0.8-2.5,0.4-2.4-1.2
				c-1.1,0.6-2-0.2-2.1-1.2c-0.1-0.7,1.2-1.9,1.8-2.1"/>
		</g>
	</g>
	<g>
		<g>
			<path class="st0" d="M199.1,200.3c0.8,0,1.3,0,2.1,0.3c0.9,0.3,1.1,0.1,1.9-0.6c0.7,0.6,0.3,1.6-0.3,2.1c-1,0.9-1.7,1.1-3.1,1.1
				c-1,0-2.1,0.1-2.1-1.1C197.6,201.3,198.5,200.8,199.1,200.3"/>
		</g>
	</g>
	<g>
		<g>
			<path class="st0" d="M283.8,215.8c2.1,1,3.9,2.9,5.7,4.4c0.7,0.6,0.8,0.7,0.9,1.6c0.1,0.7,0.3,1,0.9,1.4c0.5,0.4,3,1.9,1.7,2.7
				c-0.5,0.3-2.9-0.7-3.4-1c-0.8-0.6-0.7-2.5-1.3-3.4c-1.3-2.1-4-3.1-5.1-5.4C283.4,216,283.6,215.9,283.8,215.8"/>
		</g>
	</g>
	<g>
		<g>
			<path class="st0" d="M295.9,216.3c0.3,0.1,2.5,1.2,1.3,1.4c-0.9,0.2-1.9,0.5-2.6-0.2C295,217.1,295.4,216.7,295.9,216.3"/>
		</g>
	</g>
	<g>
		<g>
			<path class="st0" d="M296.9,219.1c0.6,0.2,0.6,0.6,0.2,0.9c-0.5,0.4-1.2,0.1-1.7,0c-0.5-0.1-0.4-0.9,0-1
				C295.9,218.9,296.4,218.9,296.9,219.1"/>
		</g>
	</g>
	<g>
		<g>
			<path class="st0" d="M292.9,226.6c0.4,0.2,1.2,0.9,1.6,1c0.5,0.1,2.4-0.8,2.7,0c0.3,0.7,1.4,0.8,0.1,1.5c-0.5,0.3-1.7,0.8-2,1.4
				c-0.1,0.4-0.4,1.9-0.9,1.7c-1-0.3-0.9-1.8-1.2-2.7C293.1,228.9,290.5,226.8,292.9,226.6"/>
		</g>
	</g>
	<g>
		<g>
			<path class="st0" d="M296.9,230.7c0.7,0.5,0,1.5,0.3,2.1c0.3,0.7,1.2,0.5,1.3,1.3c0.1,0.8-0.3,1.8-0.1,2.5
				c0.2,0.6,0.3,1.9,0.1,2.6c-0.1,0.3-0.4,0.6-0.4,0.8c0,0.3,0.2,0.7,0.1,1c-0.1,0.2-0.5,0.2-0.6,0.5c-0.1,0.4-0.3,0.8-0.4,1.3
				c-0.1,1-0.9,0.6-1.6,1c-1,0.6-2,1.2-3.2,1.4c0.3,0.6-0.3,2.1-1.2,1.6c-0.7-0.4-0.1-1.8,0.2-2.3c0.5-0.8,1.1-1.5,1.6-2.2
				c0.5-0.8,1.4-0.8,2.2-0.8c-0.3-0.8-1.6-1.4-1.6-2.1c0-0.7,1.6-1.6,1.8-2.4c0.2-0.9-0.6-2.5-0.1-3.2
				C295.9,232.8,295.8,230.8,296.9,230.7"/>
		</g>
	</g>
	<g>
		<g>
			<path class="st0" d="M295.3,245.5c-0.9-0.3-3.4,1.2-2.4,1.6C293.7,247.5,295.6,246.6,295.3,245.5"/>
		</g>
	</g>
	<g>
		<g>
			<path class="st0" d="M292.2,247.8c-0.1-0.2-0.3-0.5-0.4-0.8c-0.5,0.5-2,2.2-1.4,2.8c0.8,0.8,0.9-0.5,1.1-0.8
				C291.9,248.6,292.9,248.5,292.2,247.8"/>
		</g>
	</g>
	<g>
		<g>
			<path class="st0" d="M306.3,203.3c1.9,0,2.8-0.3,4.1-1.8c0.7-0.7,0.9-1.1,1.8-1.4c0.8-0.2,1.4-0.6,2.2-0.9
				c0.8-0.3,1.8-0.5,2.5-0.9c0.8-0.5,1.1-0.9,2.1-1.2c1.7-0.5,3.2,0.1,4.8,0.8c1.1,0.5,3.4,0.6,3.9,2c0.3,0.9-0.1,1.3,0.5,2.2
				c0.4,0.6,0.9,1.6,0.8,2.4c0,0.3-0.4,0.5-0.4,0.8c-0.1,0.5-0.2,1-0.3,1.5c-0.1,0.7-1.1,1.4-1.5,1.8c-0.6,0.6-1.1,1-2,1
				c-0.5,0-0.6-2.7-0.7-3.1c-0.4,0.2-0.9,0.2-1.1,0.7c-0.3-0.3-0.6-0.6-0.7-1c-0.8,0.4-1.5,0.9-2.3,1.2c-0.8,0.3-1.6,0-2.4-0.1
				c-1.8-0.1-3.7-0.1-5.5-0.1c-0.6,0-1.7-0.2-2.2-0.4c-0.3-0.1-0.9-0.5-1.1-0.2c-0.2,0.4-0.7,0.7-1,0.9c-0.4,0.3-2.8,0.2-3.4,0.2
				c-1,0-2.1,0.1-3-0.2C302.4,205.6,305.2,205.3,306.3,203.3"/>
		</g>
	</g>
	<g>
		<g>
			<path class="st0" d="M316.7,221.1c0.7,0.2,1.5,0.4,1.7,1.2c0.2,1-1.4,0.7-1.9,0.6c-0.5,0-1.9-0.6-1.7-1.2
				C315,221,316.1,221.1,316.7,221.1"/>
		</g>
	</g>
	<g>
		<g>
			<path class="st0" d="M313,222.9c0.7,0.1,1.1,0.1,1.6,0.6c0.6,0.6-0.4,1.1-1,1c-0.7,0-1.6,0.1-2-0.6
				C310.9,222.9,312.2,223.3,313,222.9"/>
		</g>
	</g>
	<g>
		<g>
			<path class="st0" d="M339,234.5c0.9,0.3,0.9,0.5,1.5,1.3c0.3,0.4,1.1,1.5,0.3,1.9c-0.9,0.6-1.2-1-1.5-1.5
				C338.8,235.6,338.2,235.2,339,234.5"/>
		</g>
	</g>
	<g>
		<g>
			<path class="st0" d="M348,207.2c0.3-0.6,0.2-0.8,1-0.7c0.7,0.1,0.8,0,1.2,0.6c0.6,0.9,1.1,1.8,0.5,2.8c-0.8,1.2-1.4,0.9-2.3,0.1
				C347.4,209.4,347.8,207.9,348,207.2"/>
		</g>
	</g>
	<g>
		<g>
			<path class="st0" d="M355.7,196.9c0.6-1.1,1.4-1.9,2.4-2.6c0.7-0.4,3.3-0.8,2.9,0.4c0,0.1-1.5,0.2-1.8,0.3
				c-0.5,0.2-0.9,0.8-1.2,1.2c-0.3,0.4-0.7,0.8-1.1,1.2C356.3,197.8,355.2,197.8,355.7,196.9"/>
		</g>
	</g>
	<g>
		<g>
			<path class="st0" d="M359.6,196.5c1.1-0.5,1.4-0.6,2.6-0.4c0.5,0.1,0.4-1.5,0.7-1.9c0.4-0.7,0.8-1.6,1.6-1.9
				c1.1-0.4,1.7-0.5,2.9-0.5c1.8,0,3.5-0.7,5,0.4c0.8,0.6,0.9,0.4,1.9,0.2c1.1-0.1,1.6-0.1,2.6,0.5c0.8,0.5,1.6,0.9,2.4,1.4
				c0.8,0.5,1.4,1.1,2.1,1.6c0.7,0.5,1.5,0.2,2.2,0.4c1,0.3,1.8,0.5,2.6,1.2c1,0.8,0.8,0.9,0.9,2.2c0.1,1.1,0.6,1.7,1.1,2.6
				c0.3,0.7-0.1,1.5,0.3,2.2c0.5,0.9,0.9,1.7,1.2,2.7c0.3,0.8,0.5,1.3,1.2,1.9c0.6,0.5,1.2,1.3,1.2,2c0,2.2-1.4,2.6-3.3,2.6
				c-1.7,0-3.3-0.4-4.9-1c-1.9-0.8-3.2-1.8-4.6-3.3c-0.5-0.6-1.1-1.2-1.8-1.7c-0.7-0.6-1.6-0.6-1.6-1.5c0-0.4,0.6-2-0.2-2.1
				c-1-0.2-2-0.3-3-0.5c-1.5-0.2-3.1-0.4-4.6-0.3c-0.8,0-2-0.2-2.5,0.4c-0.2,0.2,0.1,0.7-0.1,0.9c-0.2,0.2-1.1,0.1-1.3,0.1
				c0.3,2.6,3,1.3,4.6,1.9c1.7,0.7,3.4,0.9,5.1,1.4c1,0.3,1.2,0.4,1.8,1.3c0.5,0.8,1,1.4,2,1.7c0.8,0.3,1.7,0.6,2.5,0.9
				c1,0.3,1.2,1.2,0.1,1.6c-0.6,0.2-1.6,0-1.8,0.7c-0.2,0.9,0.3,1.7,0.3,2.6c0,0.8-0.2,1.7-1.1,1.5c-0.9-0.2-1.7-0.4-2.6-0.8
				c-1.2-0.5-5.1,1-5-1.4c0-0.8,0.8-1.3,1.1-2.1c0.4-1.1-0.7-1.1-1.4-1.6c-1-0.6-1.6-0.5-2.7-0.7c-1.1-0.2-1.8-0.9-2.6-1.6
				c-0.3-0.2-0.9-0.4-1-0.8c-0.2-0.5-0.4-1-0.7-1.5c-0.7-1.4-1.1-1.5-2.7-1.6c-1.2-0.1-1.3-1.4-1.6-2.3c-0.2-0.5-0.3-0.9-0.4-1.5
				c-0.1-0.9-0.2-0.5-0.9-0.6c-0.8-0.2-0.6-0.4-0.7-1.2c0-0.4-0.9-0.9-0.7-1.4c0.4-1.2,2-0.3,2,0.7c0.6-0.2,0.7-1.1,0.7-1.6
				C358.9,197.5,359.2,197.1,359.6,196.5"/>
		</g>
	</g>
	<g>
		<g>
			<path class="st0" d="M394.5,201.2c0.8-0.8,1.5-1,2.5-0.2c0.9,0.7,2.1,0.9,2.9,1.6c0.9,0.7,1.6,1.3,2.3,2.2c0.4,0.5,0.7,0.7,0,1.2
				c-0.3,0.2-1,0.3-1.4,0.3c-1.3-0.1-1.6-0.7-2.7-1.2c-0.7-0.4-0.5-0.8-1.1-1.1c-0.4-0.2-1.1-0.1-1.4,0.1c-1.1,0.4-1.9,0.4-2.5-0.6
				c-0.1-0.3-0.3-1.3,0-1.3C393.7,201.8,394.3,201.9,394.5,201.2"/>
		</g>
	</g>
	<g>
		<g>
			<path class="st0" d="M354.1,202c0.5-0.9,0.7-1.8,1.8-1.1c0.4,0.3-0.1,1.7-0.1,2.3C355,203.1,354.1,202.8,354.1,202"/>
		</g>
	</g>
	<g>
		<g>
			<path class="st0" d="M351.4,205.3c0.3-0.6,1-1.3,1.5-1.8c0.6-0.6,1.8-0.5,1.5,0.5c-0.2,0.6-0.8,1.5-1.2,2
				C352.5,207.1,351.7,206,351.4,205.3"/>
		</g>
	</g>
	<g>
		<g>
			<path class="st0" d="M355.8,204.7c1.1-0.7,1.8,0.3,1.9,1.3c0.2,1.2-0.4,1.9-0.5,3c-1-0.1-1.7-1-2.2-1.7c-0.4-0.4,0.4-0.9,0.6-1.1
				c0.3-0.2,0-1.2-0.1-1.5C355.6,204.7,355.7,204.7,355.8,204.7"/>
		</g>
	</g>
	<g>
		<g>
			<path class="st0" d="M352.5,207.6c0.8-0.6,1.5-0.7,2.2,0.3c0.5,0.6,0.6,0.6,0.4,1.4c-0.1,0.3,0,1.1,0.2,1.3
				c0.2,0.4,0.7,0.6,1.1,0.6c0.6-0.1,0.9,0.3,1.1,0.8c0.2,0.4,0.7,0.6,1,1c0.3,0.6-0.1,0.7-0.6,1.1c-0.8,0.7-1.8-0.1-2.8-0.2
				c-0.9-0.2-2-0.3-2.7-1c-0.2-0.2,0.3-2.1,0.2-2.6C352.4,209.3,351.6,208.2,352.5,207.6"/>
		</g>
	</g>
	<g>
		<g>
			<path class="st0" d="M433,299.9c-0.9-1.4-1.5-2.6-2.1-4.2c-0.2-0.4-1.5-1-1.9-1.2c-0.6-0.4-1.3-0.5-2-0.7
				c-1.4-0.4-2.8-0.9-4.2-1.3c-0.6-0.2-1.2-0.6-1.8-0.7c-0.8-0.1-1.6,0-2.4-0.1c0.4-1.3,0.3-2.4-0.4-3.6c-0.6-1-1.3-2.5-2.6-2.7
				c-1.5-0.3-2.6-0.4-3.7-1.4c-0.5-0.4-0.7-1-1.1-1.5c-0.4-0.6-1-0.9-1.6-1.2c-1.1-0.7-2.1-1.6-3.1-2.4c-0.9-0.7-2.2-2.1-3.2-2.4
				c-0.6-0.2-1.2-0.3-1.7-0.6c-0.8-0.4-1.2-1-1.9-0.4c-0.9,0.9-1.9,2.1-3.1,1.9c0.4-0.7,1.1-0.9,1.5-1.6c0.3-0.4,0.6-0.6,0.3-1
				c-0.2-0.3-0.6-0.8-0.9-0.6c-1.6,0.8-3.6,1-5.3,1.3c-0.8,0.1-1,1.2-1.6,1.6c-0.1,0.1-0.3-0.1-0.5,0c-0.2,0.1-0.3,0.2-0.5,0.3
				c-0.3,0.2-0.7,0.9-1.1,0.8c-0.7-0.1-1.5-0.6-2.2-0.3c-0.6,0.2-1.8,1.1-2.3,0.9c-0.7-0.2-1.7-0.4-2.1-1.1
				c-0.3-0.5-0.3-1.8-0.2-2.4c0.3-1.6,1-4-1.5-4c-1.5,0-3.6,2-4.6,0.1c-0.8-1.4,2.8-3.4,0.5-4.4c-1.6-0.7-3.4,0.9-4.7,1.4
				c-1,0.4-1.6,0.5-2.5-0.3c-0.6-0.5-1-1.5-1.5-2.1c-0.7-0.9-0.7-1.3-0.8-2.4c-0.1-1,0.3-1.3,0.6-2.2c0.3-0.8,0.5-1.9,1.1-2.5
				c0.8-0.8,1.4-0.4,2.5-0.2c0.5,0.1,1.6-0.6,2.1-0.8c1-0.4,1.8-0.4,2.8-0.7c1-0.3,1.3-0.6,2.4-0.4c0.9,0.2,1.6,1,2.1,1.7
				c0.5,0.7,0.1,1.5,0.2,2.3c0.1,0.5,0.8,2,1.5,1.2c1.4-1.4,1.8-3.1,0.7-4.8c-0.4-0.6-0.9-1.1-0.8-1.8c0.2-1,0.2-1.4,0.8-2.2
				c1-1.2,1.9-2.5,2.8-3.8c0.6-0.9,0.5-3.1,0.8-4.2c0.3-1.2,0.7-3.1,1.9-3.7c1.6-0.7,0.8-2.4,1.6-3.6c0.9-1.3,1.8-2.4,2.8-3.6
				c0.5-0.6,0.6-1,0.6-1.7c0-0.7-1.4-0.9-0.9-1.6c0.2-0.3,0.7-0.1,0.9-0.4c0.3-0.5,0-0.5-0.4-0.6c-0.6-0.2-1.6,0-2,0.5
				c0.4,0.5,0.9,0.5,0.6,1.2c-0.3,0.6-0.7,1.5-1.3,0.7c-0.7-0.8,0.1-0.9-1.2-1.2c-0.6-0.1-1.4,0-2,0.1c0.5-0.6,0.8-1.4,1.6-1.4
				c1-0.1,1.6-0.5,2.6-0.5c1.4,0,3.8-0.9,3.9-2.5c0.1-0.9-0.7-1.4-1.2-2.1c-0.2-0.2-0.5-0.8-0.7-0.9c-0.3-0.1-1.1,0.3-1.4,0.3
				c-1.4,0.2-3.4-1-4.8-1.3c-2-0.5-2.9-1.3-4.1-2.9c-0.4-0.6-0.8-1.4-1.6-0.8c-0.8,0.5-1.4,0.6-2.3,0.1c-1.6-0.9-3.2-1.1-5.1-0.9
				c-1.1,0.1-1.4,0.3-1.6,1.4c-0.2,1.2,0.3,1.2,1.1,1.9c0.8,0.6,0.3,1.3,0.8,1.8c0.4,0.4,1.2,1,1.3,1.6c0.3,1.6,0.7,3.1,0.3,4.7
				c-0.9-0.6-1.6-1.6-2.6-1.9c-1.1-0.3-2,0-3-0.6c-1-0.5-2-1.1-3-1.6c-0.4-0.2-1.2,0-1.4-0.2c-0.4-0.5-0.7-0.9-1.2-1.3
				c-1-0.9-0.8-1.4,0.1-2.2c0.9-0.8,1.9-1.4,2-2.6c0.1-0.5-0.9-2.4-0.5-2.7c0.9-0.6,2-0.8,3-1.2c-0.6-1.4-2.9-2.2-4.1-3.1
				c-0.6-0.4-1.6-0.9-2.1-1.4c-0.7-0.7-0.7-1.4-1.7-1.8c-0.9-0.4-1.6-0.5-1.7,0.6c-0.1,0.8,0.2,1.8,0.5,2.6c0.3,0.8,1.3,1.5,0.7,2.4
				c-0.6,0.9-1.4,0.7-2.4,0.8c-1.9,0.1-3.1,0.4-4.9-0.5c-0.8-0.4-1.6-0.9-2.4-1.3c-0.8-0.5-1.2-1.1-2.1-1.4c-1.7-0.5-3.4,0-5-0.6
				c-1.6-0.7-3.1-1.7-4.6-2.6c-0.5-0.3-1.1-0.6-1.6-0.9c-0.4-0.2-1-0.9-1.4-1c-1.2-0.3-2.8,0.8-4,1.2c-1.1,0.4-2.8,0.4-3.7,1.1
				c-0.6,0.4-0.6,1.2-0.7,1.8c-0.2,0.9-0.6,0.8-1.4,0.9c-1.2,0.1-0.7,0-1,0.9c-0.2,0.6-0.7,0.8-1.1,1.2c-0.8,0.8-0.8,2.6-0.4,3.7
				c0.3,0.9,0.7,1,0,1.7c-0.7,0.7-0.5,0.7-1.6,0.5c-1.1-0.2-2.7-0.4-3.5,0.5c0.2,0.2,0.7,0.9,0.8,1c0.3,0.1,0.7-0.2,1-0.1
				c0.9,0.3,1.9,0.8,2.8,0.4c0.9-0.3,1.1-1.1,2-0.3c0.5,0.4,1.8-0.2,2.4-0.3c1.9-0.3,3.6-0.2,5.5,0.2c1.8,0.3,2.7,2,3.5,3.5
				c1.6,3,2.5,6.4,4.1,9.5c0.2,0.4,0.6,0.3,0.8,0.8c0.2,0.4,0.3,0.7,0.3,1.1c0,1,0,2,0,2.9c-0.1,2-0.1,4-0.1,6
				c0,0.6-0.2,1.5,0.1,2.1c0.5,0.8,1.2,1.5,1.6,2.3c0.4,0.9,0.9,1.7,1.3,2.6c0.4,0.8,1.2,1.5,1.5,2.2c0.6,1.7,1.4,3.2,2.4,4.8
				c0.9,1.4,1.6,3.3,3.2,4.2c0.8,0.5,0-1.9,0-2.1c-0.3-0.7-1.1-1.2-0.9-2.1c0.2-1-0.2-1.3-0.9-2.1c-0.6-0.8-1.2-1.5-1.7-2.2
				c-0.6-0.9-0.3-1.5,0.6-1.2c1,0.3,1.1,1,1.4,1.8c0.3,0.8,0.7,1.5,1.2,2.1c0.5,0.8,0.7,1.6,1.3,2.4c0.4,0.6,1.1,0.9,1.5,1.5
				c0.4,0.7,0.7,2,1.3,2.5c0.6,0.4,1.7,0.1,2.1,0.9c0.4,0.8,0.7,1.7,1.1,2.5c1.5,3,4.1,6.1,7.8,6.1c0.8,0,1.7-0.3,2.5-0.1
				c0.9,0.2,1.7,0.9,2.4,1.4c1.3,0.9,2.9,2.1,4.4,2.4c0.9,0.2,1.6-0.4,2.3,0.2c0.7,0.6,0.7,1.5,1.6,2c0.7,0.4,1.5,0.9,2.3,1
				c0.3,0,0.8,0.1,1,0.2c0.4,0.3,0.3,1,0.6,1.2c0.9,0.5,1-0.6,1.3-1.2c0.7-1.2,1-1.3,2-0.5c1.4,1.1,2.2,2.8,1.6,4.5
				c-0.2,0.7-1,1.3-1.3,2c-0.5,0.9-0.9,1.8-1.4,2.7c-0.6,1.1-0.1,3.7,0.2,4.9c0.3,0.9,0.5,1.7,0.5,2.6c0,1.2,0.3,1.8,0.7,2.9
				c0.7,1.6,0.5,3.3,0.6,5c0,0.8-0.3,1.8-0.1,2.6c0.2,0.8,0.9,1.6,1.4,2.3c0.6,0.8,1.2,1.4,1.9,2.1c0.5,0.4,0.2,1.8,0.2,2.4
				c0,0.6-0.1,1.2-0.2,1.9c-0.1,0.6-0.5,1-0.6,1.6c-0.1,1.3-0.7,2.3-1.2,3.5c-0.2,0.5-0.4,1-0.6,1.6c-0.2,0.5-0.9,0.6-1,1
				c-0.2,0.6-0.4,1.3-0.7,1.8c-0.2,0.4-0.8,1-0.8,1.5c-0.1,0.6-0.2,1.2-0.2,1.7c0,0.9,0.1,0.7-0.4,1.4c-0.6,0.9-1.2,1.8-1.7,2.7
				c-0.7,1.1-1.3,2.2-1.8,3.5c-0.5,1.1-1.3,2-2,3c0.5,0.1,1.1,0.7,0.8,1.2c-0.2,0.5-1.2,0.7-1.6,1c-0.8,0.5-2.2,1.4-2.4,2.4
				c-0.2,1,0.6,2.8-0.2,3.6c-0.9,0.7-2,1.9-0.5,2.5c-0.9,1.3-1.7,2.3-0.5,3.7c0.3,0.4,1.3,1,1.5,1.4c0.1,0.4,0,1.4,0,1.9
				c0.6-0.1,1-0.6,1.5-0.3c0.3,0.2,0.7,0.4,1,0.6c0.2,0.1,0.8,0.1,1,0.1c0.7-0.3,0.4-0.4,0.2-1c-0.1-0.5-0.3-0.4-0.2-1
				c0-0.3,0.1-0.8,0-1.1c-0.6-1.6-1.1,0.5-1.8-0.4c0.3-0.3,0.5-0.6,0.8-0.9c0.5-0.5,0.4-0.3,1-0.5c1.1-0.3,1.3-0.7,1.8-1.7
				c0.8-1.5,1.6-3.1,2.5-4.6c1.2-1.9,2.2-3.1,3.9-4.5c1.2-1.1,2.3-2.3,3.8-2.8c1.5-0.6,3.7-1.1,5-2.1c1.4-1.1,2.5-2.4,3.8-3.7
				c1.3-1.3,3.2-1.4,4.6-2.6c0.7-0.6,1.7-0.8,2.5-1.1c0.9-0.3,1.6-0.9,2.4-1.4c1.3-0.8,2.6-1.7,3.9-2.6c1.2-0.9,2.3-2.5,3.7-3
				c1.5-0.6,2.3-1.3,3.6-2.4c1.2-1,2.8-2.1,3.3-3.7c0.3-0.9,0.6-1.4,1.2-2.2c0.5-0.6,0.3-1.4,0.6-2.1c0.5-1.6,1.8-2.8,2.8-4
				c1.1-1.4,1.9-2.4,2.6-4c0.3-0.7,0.7-1.3,1.1-2C433.8,301.1,433.4,300.8,433,299.9 M382.2,237.3c0.3-0.5,1-0.4,1.5-0.7
				c0.5-0.3,1.3,0,1.4,0.5c0.2,0.8-2.9,0.8-3.4,0.5C381.8,237.5,382,237.3,382.2,237.3 M376.9,236.5c0.9,0.1,1.2,0.4,2,0.7
				c0.5,0.2,2.5,0.8,1.3,1.3c-0.7,0.3-1.7-0.4-2.3-0.6C377.2,237.8,375.3,236.8,376.9,236.5 M375.6,237.1c-0.5,0.7-1.9,3.9-3.1,3.1
				c0.1-0.4,0.5-0.6,0.6-1c0.2-0.5,0.3-1.1,0.4-1.6C373.8,236.7,375.1,235.9,375.6,237.1 M370.2,234.4c0.9-0.2,1.9,0,2.6-0.5
				c0.9-0.6-1.6-1.1-0.8-2c0.5-0.5,2,0.8,2.4,1c0.8,0.6,1,1.8,1.1,2.7c-1,0-1.9-0.3-2.9-0.3C371.9,235.3,369.7,235.4,370.2,234.4"/>
		</g>
	</g>
	<g>
		<g>
			<path class="st0" d="M394.6,233.8c-0.3,0.5-0.8,1.5-1.4,1.7c-1.1,0.4-0.5-1.2-0.2-1.7c0.4-0.6,0.9-1.6,1.6-1.4
				C395.6,232.5,395.2,233.4,394.6,233.8"/>
		</g>
	</g>
	<g>
		<g>
			<path class="st0" d="M395.2,227.2c0.2-0.4,0.7-1.5,1.3-0.9c0.5,0.5-0.3,1.3-0.6,1.7c0.8,0.4,2.8,0.2,3.1,1.2
				c0.2,0.5-0.2,1.4-0.7,1.5c-0.7,0.2-1-0.4-1.2-0.9c-0.3-0.6-2.5,1.3-3.2,0.2C393.3,229,394.7,227.7,395.2,227.2"/>
		</g>
	</g>
	<g>
		<g>
			<path class="st0" d="M382.9,265c1.4,0.6,2.9,1.5,4.4,1.5c0.7,0,1.5,0.6,1.5,1.2c0,0.4-1.9,0.4-2.2,0.4c-1.6-0.2-3.1-0.9-4.4-1.8
				c-0.6-0.4-1-0.8-1-1.6C381.2,263.6,382.4,264.7,382.9,265"/>
		</g>
	</g>
	<g>
		<g>
			<path class="st0" d="M393.9,267.5c1.2,0.1,2.8-0.2,3.2,1.3c0.3,1.1-0.9,0.1-1,0c-0.5-0.2-1.5,0-2,0c-0.7,0-1.1-0.1-1.7-0.4
				c-0.3-0.1-0.6-0.9-1.1-1.2c-0.7-0.4,0.9-0.6,1.1-0.6C393.1,266.7,393.5,266.6,393.9,267.5"/>
		</g>
	</g>
	<g>
		<g>
			<path class="st0" d="M398.8,269.2c0.7-0.2,0.7-0.3,1.3,0c0.2,0.1,0.8,0.7,0.8,1c-0.2,0.7-1.9-0.3-2.3-0.6
				C398.6,269.4,398.7,269.3,398.8,269.2"/>
		</g>
	</g>
	<g>
		<g>
			<path class="st0" d="M368.3,216.9c0.8,0.2,1.6,0.3,1.9,1c0.4,0.8-0.1,1.6-1,1.2c-0.8-0.3-1.5-0.5-1.9-1.3c-0.1-0.3-0.3-0.8,0-1.1
				C367.3,216.8,368.1,217,368.3,216.9"/>
		</g>
	</g>
</g>
</svg>
