<svg width="40" height="40" viewBox="0 0 260 260" xmlns="http://www.w3.org/2000/svg" fill-rule="evenodd" clip-rule="evenodd" stroke-linejoin="round" stroke-miterlimit="2"><g transform="translate(-.167 -.677) scale(4.6535)"><clipPath id="a"><path d="M0 0h56v56H0z"/></clipPath><g clip-path="url(#a)" fill-rule="nonzero"><path fill="#e0112b" d="M.046.16h55.862v55.872H.046z"/><path d="M10.55 10.857h3.684V41.44h5.447v3.794H10.55V10.857zm25.654 0h9.291v3.749h-5.629v11.04h5.263v4h-5.263V41.44h5.629v3.794h-9.291V10.857zM22.885 45.234v-3.771h1.144c1.511 0 4.074-1.052 4.463-3.429.366-2.308.091-3.977-2.884-9.051l-.023-.069c-2.059-3.36-4.027-6.308-3.295-10.925a8.066 8.066 0 012.75-5.179 8.085 8.085 0 015.534-1.953h1.144v3.749h-1.144c-1.51 0-4.142 1.051-4.531 3.428-.366 2.286-.114 3.795 2.769 8.8l.092.115c2.151 3.451 4.073 6.514 3.341 11.108a8.018 8.018 0 01-2.693 5.211 8.04 8.04 0 01-5.523 1.989h-1.144" fill="#fff"/></g></g></svg>