<svg xmlns="http://www.w3.org/2000/svg" xmlns:xlink="http://www.w3.org/1999/xlink" width="118" height="25" viewBox="0 0 118 25">
    <defs>
        <path id="a" d="M16.018.268a2.26 2.26 0 0 0-.706.468 2.213 2.213 0 0 0-.475.694 2.073 2.073 0 0 0-.176.845c0 .303.058.587.176.85.118.264.276.494.475.69a2.254 2.254 0 0 0 2.446.467c.271-.116.509-.272.712-.468.203-.195.363-.425.48-.688.118-.264.177-.548.177-.851a2.164 2.164 0 0 0-.657-1.54 2.338 2.338 0 0 0-.712-.467 2.2 2.2 0 0 0-.87-.173c-.309 0-.599.058-.87.173zm5.068.39v15.81l.94 1.51 1.11.403 1.297-1.43 2.312-3.019 2.64 4.66h3.822l-4.32-7.463 4.32-5.344h-3.822l-4.952 6.182V.657h-3.347zm14.14 5.127l-2.524 3.259h2.525v3.81c0 .79.152 1.533.456 2.228a5.804 5.804 0 0 0 1.253 1.827c.532.523 1.15.935 1.856 1.234.706.3 1.46.45 2.264.45h2.519v-3.26h-2.52c-.348 0-.677-.065-.985-.197a2.574 2.574 0 0 1-.803-.533 2.467 2.467 0 0 1-.536-.785c-.13-.3-.194-.62-.194-.964v-3.81h5.038V5.785h-5.038V1.516l-3.31 4.27zm13.563 0a6.659 6.659 0 0 0-2.117 1.42 6.627 6.627 0 0 0-1.43 2.15 6.927 6.927 0 0 0-.524 2.708c0 .958.175 1.85.524 2.678a6.644 6.644 0 0 0 1.43 2.144 6.74 6.74 0 0 0 2.117 1.426c.807.347 1.67.521 2.586.521.925 0 1.79-.174 2.598-.521a6.67 6.67 0 0 0 2.112-1.426 6.694 6.694 0 0 0 1.423-2.144c.35-.827.524-1.72.524-2.678 0-1.022-.175-1.95-.524-2.785a6.522 6.522 0 0 0-1.423-2.145 6.29 6.29 0 0 0-2.112-1.378 6.923 6.923 0 0 0-2.598-.485c-.917 0-1.779.172-2.586.515zm1.302 9.495a3.275 3.275 0 0 1-1.046-.737 3.452 3.452 0 0 1-.7-1.102 3.658 3.658 0 0 1-.255-1.378c0-.527.085-1.004.255-1.432a3.37 3.37 0 0 1 .7-1.102 3.018 3.018 0 0 1 1.046-.707 3.37 3.37 0 0 1 1.284-.245c.454 0 .882.082 1.284.245.402.164.752.4 1.053.707.3.308.537.675.712 1.102.174.428.261.905.261 1.432 0 .519-.087.994-.261 1.426a3.316 3.316 0 0 1-.712 1.102c-.3.303-.651.539-1.053.707-.402.167-.83.251-1.284.251-.454 0-.882-.09-1.284-.27zM5.461 5.45a6.71 6.71 0 0 0-1.199.425c-.385.18-.756.394-1.113.641a8.86 8.86 0 0 0-.986.79L.837 5.762H.033v19.205l3.347-2.824V17.73c.251.143.513.283.785.419s.548.258.827.365c.28.108.564.194.852.258.288.064.578.096.87.096.917 0 1.779-.156 2.586-.467a6.211 6.211 0 0 0 2.117-1.348 6.31 6.31 0 0 0 1.43-2.145c.35-.842.524-1.79.524-2.845 0-1.014-.175-1.939-.523-2.773a6.403 6.403 0 0 0-1.43-2.139A6.397 6.397 0 0 0 9.3 5.779a6.888 6.888 0 0 0-2.586-.485c-.422 0-.84.052-1.253.156zm-.03 9.848a3.196 3.196 0 0 1-1.053-.707c-.3-.304-.538-.671-.712-1.102a3.768 3.768 0 0 1-.262-1.426c0-.543.087-1.03.262-1.462a3.24 3.24 0 0 1 .712-1.096c.3-.3.65-.529 1.052-.689.402-.16.83-.24 1.284-.24.455 0 .885.08 1.29.24.406.16.759.39 1.059.69.3.299.537.664.712 1.095.174.432.261.919.261 1.462 0 .519-.087.994-.261 1.426a3.31 3.31 0 0 1-.712 1.102c-.3.303-.653.539-1.059.707a3.342 3.342 0 0 1-1.29.251c-.454 0-.882-.084-1.284-.251zM59.868 5.76v12.831h3.322v-7.068c0-.344.065-.667.195-.97a2.45 2.45 0 0 1 .535-.791 2.55 2.55 0 0 1 1.79-.719h2.932V5.785H65.71c-.73 0-1.435.13-2.117.39-.681.26-1.29.629-1.825 1.108L60.672 5.76h-.803zm-42.987.523c-.381 0-.939-.133-1.674-.397v12.705h3.347V5.887c-.735.264-1.293.397-1.673.397z"/>
        <path id="b" d="M90.923 1.392v10.883c0 .945.175 1.811.524 2.6a6.26 6.26 0 0 0 1.433 2.04 6.588 6.588 0 0 0 2.122 1.338 6.98 6.98 0 0 0 2.592.48c.927 0 1.795-.156 2.604-.469a6.415 6.415 0 0 0 2.116-1.32 6.226 6.226 0 0 0 1.427-2.04c.35-.793.524-1.67.524-2.63 0-.937-.175-1.8-.524-2.589a6.436 6.436 0 0 0-1.427-2.052 6.503 6.503 0 0 0-2.116-1.354 6.938 6.938 0 0 0-2.604-.486c-.3 0-.61.029-.927.086-.317.057-.624.139-.92.246a3.941 3.941 0 0 0-.83.411 2.959 2.959 0 0 0-.652.572V1.392h-3.342zm5.384 13.952a3.352 3.352 0 0 1-1.055-.703 3.227 3.227 0 0 1-.707-1.052 3.34 3.34 0 0 1-.256-1.314c0-.427.085-.84.256-1.24.17-.4.406-.755.707-1.064.301-.308.653-.556 1.055-.743.403-.187.832-.28 1.287-.28a3.31 3.31 0 0 1 2.342.949 3.307 3.307 0 0 1 .976 2.378 3.3 3.3 0 0 1-2.03 3.069 3.247 3.247 0 0 1-1.288.257c-.455 0-.884-.086-1.287-.257zm-26.19 3.16h3.354V1.393h-3.354v17.113zm9.275-12.237A6.514 6.514 0 0 0 77.27 7.6a6.23 6.23 0 0 0-1.433 2.052c-.35.796-.525 1.67-.525 2.624 0 1.02.175 1.931.525 2.732.35.8.827 1.476 1.433 2.029a6.224 6.224 0 0 0 2.122 1.263c.809.29 1.672.434 2.591.434.423 0 .84-.05 1.25-.148.411-.1.812-.235 1.202-.406.39-.172.762-.374 1.116-.606.353-.232.689-.482 1.006-.749l1.293 1.68h.804V6.285h-.804l-1.293 1.452a9.121 9.121 0 0 0-.994-.766 7.634 7.634 0 0 0-1.116-.617 6.784 6.784 0 0 0-1.208-.411 5.373 5.373 0 0 0-1.256-.149c-.919 0-1.782.158-2.591.474zm1.305 9.117a2.956 2.956 0 0 1-1.05-.64 2.983 2.983 0 0 1-.7-1.046c-.171-.416-.257-.89-.257-1.423 0-.534.086-1.008.257-1.424.17-.415.404-.764.7-1.045a2.952 2.952 0 0 1 1.05-.64 3.77 3.77 0 0 1 1.286-.218c.456 0 .885.093 1.287.28a3.535 3.535 0 0 1 1.768 1.806 3.066 3.066 0 0 1 0 2.48 3.532 3.532 0 0 1-1.768 1.807 3.02 3.02 0 0 1-1.287.28 3.77 3.77 0 0 1-1.286-.217zm29.117-9.1c-.577 0-1.118.101-1.622.304a4.177 4.177 0 0 0-1.317.828 3.88 3.88 0 0 0-.884 1.235 3.62 3.62 0 0 0-.323 1.52c0 .541.107 1.048.323 1.52.215.473.51.886.884 1.24a4.252 4.252 0 0 0 2.94 1.149h3.463c.227 0 .423.035.585.103.163.07.244.214.244.435a.726.726 0 0 1-.244.549.826.826 0 0 1-.585.228h-7.61v3.11h7.61c.569 0 1.106-.101 1.61-.303a4.053 4.053 0 0 0 2.207-2.07c.22-.468.33-.973.33-1.514 0-.533-.11-1.025-.33-1.475a3.552 3.552 0 0 0-.89-1.154 4.13 4.13 0 0 0-1.317-.75 4.775 4.775 0 0 0-1.61-.268h-3.464a.816.816 0 0 1-.585-.234.757.757 0 0 1-.244-.566c0-.213.081-.396.244-.549a.828.828 0 0 1 .585-.228h6.745v-3.11h-6.745z"/>
    </defs>
    <g fill="none" fill-rule="evenodd">
        <use fill="#000" xlink:href="#a"/>
        <path fill="#568AC8" d="M28.953 6.25L21.25 16.353v2.397h1.934L32.5 6.25z"/>
        <use fill="#575757" xlink:href="#b"/>
    </g>
</svg>
