<svg xmlns="http://www.w3.org/2000/svg" viewBox="0 0 700 250"><title>logo</title><path fill="#0078ad" d="M0 0h250v250H0z"/><path d="m175.05 87.01 1.67-5c2.62 1.67 5.72 2.38 8.82 2.38 5.24 0 7.86-2.38 7.86-7.63V73.9c-2.15 2.86-4.29 5.25-8.58 5.25-5.96 0-11.2-4.77-11.2-13.83s5.24-13.58 11.2-13.58c4.29 0 6.67 2.38 8.58 5.01v-4.29h6.2v24.31c0 4.29-1.19 7.63-3.34 9.54-2.38 2.38-5.72 3.33-10.48 3.33-3.74 0-7.42-.89-10.73-2.62m18.35-21.68c0-5.25-3.1-8.34-6.67-8.34-3.81 0-6.67 3.1-6.67 8.34s2.86 8.35 6.67 8.35c3.57 0 6.67-3.34 6.67-8.35m-84.84 81.74 17.87 35.99h-15.25l-17.4-34.8H74v34.8H60.89V95.13H99.5c15.25 0 28.36 8.34 28.36 26.21.24 14.06-7.15 22.64-19.3 25.74m-8.82-39.56h-25.5v28.13h25.5c8.82 0 15.25-4.29 15.25-14.06 0-9.06-6.43-14.06-15.25-14.06m67.92 19.3c-5.72 0-11.2 2.38-14.54 5.96v-25.02h-12.63v75.31h12.63v-29.56c0-9.29 4.29-14.53 11.92-14.53 8.1 0 11.68 4.77 11.68 15.97v28.13h13.11v-28.6c0-17.87-7.86-27.65-22.16-27.65" fill="#fff" fill-rule="evenodd"/><path d="M321.14 89.29h13.21l12.49 25.04h14.74l-14.27-26.76c2.21-.86 4.11-2.03 5.7-3.52 3.34-3.14 5.02-7.63 5.02-13.49 0-3.67-.73-6.87-2.18-9.59-1.45-2.72-3.73-4.82-6.84-6.3-3.11-1.48-7.21-2.22-12.3-2.22h-28.27v61.88h12.7V89.29Zm0-25.48h14.25c1.72 0 3.33.15 4.84.44 1.51.3 2.72.93 3.64 1.91.92.98 1.38 2.5 1.38 4.57s-.46 3.54-1.38 4.57c-.92 1.04-2.13 1.73-3.64 2.09-1.51.36-3.12.53-4.84.53h-14.25V63.8Zm57.18 29.83c0-4.62.74-8.01 2.22-10.17 1.48-2.16 3.7-3.24 6.66-3.24 2.6 0 4.51.79 5.73 2.35 1.21 1.57 1.82 4.04 1.82 7.41v24.33H407V85.47c0-4.91-1.41-8.77-4.22-11.59-2.81-2.81-6.73-4.22-11.76-4.22-1.95 0-3.91.34-5.86 1.02-1.95.68-3.68 1.84-5.19 3.46-.61.66-1.15 1.45-1.64 2.3V52.43h-12.16v61.88h12.16V93.62Zm67.43-21.08c-3.34-1.92-7.15-2.89-11.41-2.89s-8.15.96-11.5 2.89c-3.34 1.92-5.98 4.6-7.9 8.03-1.92 3.43-2.88 7.37-2.88 11.81s.96 8.3 2.88 11.76c1.92 3.46 4.57 6.17 7.95 8.12 3.37 1.95 7.19 2.93 11.45 2.93s8.06-.98 11.41-2.93 5.98-4.66 7.9-8.12c1.92-3.46 2.88-7.38 2.88-11.76s-.96-8.37-2.88-11.81c-1.92-3.43-4.56-6.11-7.9-8.03Zm-2.62 26.41c-.77 1.84-1.9 3.23-3.37 4.17-1.48.95-3.28 1.42-5.42 1.42s-3.95-.47-5.46-1.42c-1.51-.95-2.66-2.34-3.46-4.17-.8-1.83-1.2-4.02-1.2-6.57s.4-4.79 1.2-6.57c.8-1.78 1.95-3.14 3.46-4.08 1.51-.95 3.33-1.42 5.46-1.42s3.94.47 5.42 1.42 2.6 2.31 3.37 4.08 1.15 3.97 1.15 6.57-.39 4.74-1.15 6.57Zm48.5-22.64c-.19-.31-.37-.64-.58-.93-1.45-1.98-3.17-3.43-5.15-4.35-1.98-.92-4.1-1.38-6.35-1.38-3.32 0-6.36.89-9.14 2.66-2.78 1.78-4.99 4.35-6.61 7.73-1.63 3.37-2.44 7.49-2.44 12.34 0 4.38.71 8.29 2.13 11.72 1.42 3.43 3.51 6.14 6.26 8.12 2.75 1.98 6.02 2.97 9.81 2.97 2.01 0 4-.39 5.95-1.15 1.95-.77 3.73-2.17 5.33-4.22.28-.36.54-.76.8-1.17v5.66h12.16V52.45h-12.16v23.88Zm-3.37 26.28c-1.42.95-3.11 1.42-5.06 1.42s-3.66-.46-5.11-1.38c-1.45-.92-2.57-2.25-3.37-4-.8-1.74-1.2-3.83-1.2-6.26s.4-4.5 1.2-6.22c.8-1.72 1.92-3.05 3.37-3.99 1.45-.95 3.15-1.42 5.11-1.42s3.64.49 5.06 1.47c1.42.98 2.51 2.32 3.28 4.04.77 1.72 1.15 3.76 1.15 6.13s-.39 4.43-1.15 6.17c-.77 1.75-1.86 3.09-3.28 4.04Zm34.24-50.16h-12.7v11.72h12.7V52.45zm-.35 61.88V70.56h-12.17v43.77h12.17zm34.42-27.88c0 3.49-.18 6.62-.53 9.37-.35 2.75-1.14 4.91-2.35 6.48-1.21 1.57-3.15 2.35-5.82 2.35-2.19 0-3.83-.44-4.93-1.33-1.09-.89-1.83-2.06-2.22-3.51-.39-1.45-.58-3.03-.58-4.75v-24.5h-12.16v27.17c0 3.49.56 6.56 1.69 9.19 1.12 2.63 2.89 4.68 5.28 6.13 2.4 1.45 5.46 2.18 9.19 2.18 2.96 0 5.67-.68 8.12-2.04 1.7-.94 3.13-2.39 4.31-4.33v5.48h12.25V70.57h-12.25v15.89Zm82.45-8.03c-1.12-2.57-2.87-4.67-5.24-6.3s-5.45-2.44-9.23-2.44c-2.31 0-4.6.5-6.88 1.51-2.1.93-4.01 2.53-5.73 4.74-.17-.26-.34-.51-.53-.75-1.6-2.07-3.45-3.51-5.55-4.31-2.1-.8-4.22-1.2-6.35-1.2-1.48 0-2.99.21-4.53.62-1.54.41-3.02 1.15-4.44 2.22-1.21.9-2.27 2.15-3.2 3.7v-5.65h-12.16v43.77h12.16V92.67c0-2.84.29-5.16.89-6.97.59-1.8 1.48-3.17 2.66-4.08 1.18-.92 2.66-1.38 4.44-1.38 2.07 0 3.67.75 4.79 2.26 1.12 1.51 1.69 3.77 1.69 6.79v25.04h12.16V92.67c0-2.84.28-5.18.84-7.01.56-1.83 1.4-3.2 2.53-4.08 1.12-.89 2.55-1.33 4.26-1.33 1.48 0 2.72.33 3.73.98 1.01.65 1.77 1.66 2.31 3.02.53 1.36.8 3.08.8 5.15v24.95h12.25V86.47c0-2.78-.56-5.46-1.69-8.03Zm-315.25 65.76c2.6-1.63 5.65-2.44 9.14-2.44 3.85 0 7.12.96 9.81 2.88 2.69 1.92 4.66 4.63 5.9 8.12l11.99-4.35c-2.13-5.86-5.61-10.46-10.43-13.81-4.83-3.34-10.58-5.02-17.27-5.02-5.92 0-11.13 1.36-15.63 4.08-4.5 2.72-8.01 6.5-10.52 11.32-2.52 4.82-3.77 10.49-3.77 17s1.24 12.19 3.73 17.05c2.49 4.85 5.92 8.64 10.3 11.36 4.38 2.72 9.41 4.08 15.09 4.08 2.66 0 5.13-.36 7.41-1.07 2.28-.71 4.29-1.75 6.04-3.11a17.22 17.22 0 0 0 2.83-2.83l1.04 5.49h11.19v-34h-26.28v11.36h14.45c-.24 1.14-.55 2.2-.95 3.15-1.01 2.34-2.32 4.13-3.95 5.37-1.63 1.24-3.4 2.13-5.33 2.66-1.92.53-3.8.8-5.64.8-3.49 0-6.54-.81-9.14-2.44-2.61-1.63-4.6-3.96-5.99-7.01-1.39-3.05-2.09-6.67-2.09-10.88s.69-7.81 2.09-10.83c1.39-3.02 3.39-5.34 5.99-6.97Zm70.26 4.75c-1.36-.41-2.78-.62-4.26-.62-2.07 0-4.08.55-6.04 1.64-1.95 1.1-3.57 2.62-4.84 4.57-.18.28-.33.58-.49.87v-6.19h-12.25v43.77h12.16v-18.2c0-2.49.07-4.36.22-5.64.15-1.27.37-2.32.67-3.15.47-1.3 1.09-2.35 1.86-3.15s1.66-1.41 2.66-1.82c1.01-.41 2.04-.62 3.11-.62s2.12.16 3.15.49c1.03.33 1.88.7 2.53 1.11l5.86-11.01c-1.54-.95-2.99-1.63-4.35-2.04Zm37.54 2.27c-3.34-1.92-7.15-2.89-11.41-2.89s-8.15.96-11.5 2.89c-3.34 1.92-5.98 4.6-7.9 8.03-1.92 3.43-2.88 7.37-2.88 11.81s.96 8.3 2.88 11.76c1.92 3.46 4.57 6.17 7.95 8.12s7.19 2.93 11.45 2.93 8.06-.98 11.41-2.93 5.98-4.66 7.9-8.12c1.92-3.46 2.88-7.38 2.88-11.76s-.96-8.37-2.88-11.81c-1.92-3.43-4.56-6.11-7.9-8.03Zm-2.62 26.41c-.77 1.84-1.9 3.23-3.37 4.17-1.48.95-3.28 1.42-5.42 1.42s-3.95-.47-5.46-1.42c-1.51-.95-2.66-2.34-3.46-4.17-.8-1.83-1.2-4.02-1.2-6.57s.4-4.79 1.2-6.57c.8-1.78 1.95-3.14 3.46-4.08 1.51-.95 3.33-1.42 5.46-1.42s3.94.47 5.42 1.42 2.6 2.31 3.37 4.08 1.15 3.97 1.15 6.57-.39 4.74-1.15 6.57ZM476 165.09c0 3.49-.18 6.62-.53 9.37-.35 2.75-1.14 4.91-2.35 6.48-1.21 1.57-3.15 2.35-5.82 2.35-2.19 0-3.83-.44-4.93-1.33-1.09-.89-1.83-2.06-2.22-3.51-.39-1.45-.58-3.03-.58-4.75v-24.5h-12.16v27.17c0 3.49.56 6.56 1.69 9.19 1.12 2.63 2.89 4.68 5.28 6.13 2.4 1.45 5.46 2.18 9.19 2.18 2.96 0 5.67-.68 8.12-2.04 1.7-.94 3.13-2.39 4.31-4.33v5.48h12.25v-43.77H476v15.89Zm52.63-13.81c-2.72-1.98-6.01-2.97-9.86-2.97-1.95 0-3.92.37-5.9 1.11-1.98.74-3.76 2.12-5.33 4.13-.3.38-.58.8-.84 1.25v-5.6h-12.08v61.88h12.08v-23.93c.2.35.4.71.62 1.03 1.42 2.01 3.14 3.46 5.15 4.35 2.01.89 4.11 1.33 6.3 1.33 3.37 0 6.44-.89 9.19-2.66 2.75-1.77 4.96-4.36 6.61-7.77 1.66-3.4 2.49-7.5 2.49-12.3 0-4.38-.72-8.29-2.18-11.72-1.45-3.43-3.54-6.14-6.26-8.12Zm-4.97 26.01c-.77 1.75-1.88 3.09-3.33 4.04-1.45.95-3.15 1.42-5.11 1.42s-3.66-.49-5.1-1.47c-1.45-.98-2.56-2.32-3.33-4.04-.77-1.72-1.15-3.76-1.15-6.13s.38-4.5 1.15-6.22c.77-1.72 1.88-3.05 3.33-3.99 1.45-.95 3.15-1.42 5.1-1.42s3.65.46 5.11 1.38c1.45.92 2.56 2.25 3.33 3.99.77 1.75 1.15 3.83 1.15 6.26s-.39 4.43-1.15 6.17Z" fill="#0078ad"/></svg>