<?xml version="1.0" encoding="utf-8"?>
<!-- Generator: Adobe Illustrator 22.1.0, SVG Export Plug-In . SVG Version: 6.00 Build 0)  -->
<svg version="1.1" id="Layer_1" xmlns="http://www.w3.org/2000/svg" xmlns:xlink="http://www.w3.org/1999/xlink" x="0px" y="0px"
	 viewBox="0 0 852.5 100.6" style="enable-background:new 0 0 852.5 100.6;" xml:space="preserve">
<style type="text/css">
	.st0{fill:#009edb;}
	.st1{fill:none;stroke:#009edb;stroke-width:1.5;stroke-miterlimit:10;}
</style>
<title>Africa</title>
<path d="M164.3,25.8c0-3.2-0.1-9.1-1-10.7c-0.6-0.7-1.6-1.1-2.6-1.1l-1.3-0.1c-0.3-0.4-0.2-0.9,0.1-1.2c2,0.1,3.9,0.1,5.9,0.1
	c2.2,0,3.6,0,5.4-0.1c0.4,0.3,0.4,0.9,0.1,1.2c0,0,0,0,0,0l-1.2,0.1c-1,0-2,0.4-2.6,1.2c-0.7,1.7-0.7,7.6-0.7,10.5v5.8
	c0,4.5-0.7,9.2-3.6,12.3c-2.2,2.4-6,3.8-9.8,3.8c-3.6,0-7.1-0.7-9.6-2.8c-2.7-2.3-4-6-4-12.1V20.6c0-5.4-0.1-6.2-3.1-6.5L135,14
	c-0.3-0.2-0.2-1.1,0.1-1.2c2.6,0.1,4.3,0.1,6.4,0.1s3.8,0,6.3-0.1c0.3,0.1,0.4,1,0.1,1.2l-1.2,0.1c-3,0.3-3.1,1.1-3.1,6.5v11.1
	c0,8.3,2.6,13.8,10.5,13.8c7.5,0,10.3-5.9,10.3-13.7L164.3,25.8z"/>
<path d="M174.8,32.1c0-2,0-2.3-1.4-3.2l-0.5-0.3c-0.2-0.3-0.2-0.7,0-0.9c1.8-0.7,3.5-1.5,5.1-2.5c0.2,0,0.5,0.1,0.6,0.4
	c-0.1,1.2-0.1,2-0.1,2.4c0,0.3,0.2,0.6,0.5,0.6c0,0,0,0,0.1,0c2.2-1.3,4.6-2.6,7.2-2.6c4.3,0,6,2.9,6,6.4v8.9c0,3.7,0.1,4.2,2,4.5
	l1.1,0.2c0.3,0.4,0.3,0.9-0.1,1.3c0,0,0,0,0,0c-1.5-0.1-3-0.2-4.8-0.2s-3.4,0-4.8,0.2c-0.4-0.3-0.4-0.9-0.1-1.3c0,0,0,0,0,0l1-0.2
	c1.9-0.3,2-0.8,2-4.5v-7.7c0-2.9-1.3-5.1-4.8-5.1c-1.7-0.1-3.3,0.6-4.4,1.8c-0.6,0.9-0.9,2-0.8,3.1v7.9c0,3.7,0.1,4.2,2,4.5l0.9,0.2
	c0.3,0.4,0.3,0.9-0.1,1.3c0,0,0,0,0,0c-1.4-0.1-2.9-0.2-4.7-0.2s-3.4,0-4.8,0.2c-0.4-0.3-0.4-0.9-0.1-1.3c0,0,0,0,0,0l1.1-0.2
	c1.9-0.2,2-0.8,2-4.5L174.8,32.1z"/>
<path d="M200.9,32.1c0-2,0-2.3-1.4-3.2l-0.5-0.3c-0.2-0.3-0.2-0.7,0-0.9c1.8-0.7,3.6-1.5,5.3-2.5c0.2,0,0.4,0.1,0.5,0.3
	c-0.1,1.8-0.2,4.3-0.2,6.4v9.3c0,3.7,0.1,4.2,2,4.5l1.1,0.2c0.3,0.4,0.3,0.9-0.1,1.3c0,0,0,0,0,0c-1.5-0.1-3-0.2-4.8-0.2
	s-3.4,0-4.8,0.2c-0.4-0.3-0.4-0.9-0.1-1.3c0,0,0,0,0,0l1.1-0.2c1.9-0.2,2-0.8,2-4.5L200.9,32.1z M205.1,17.4c0,1.5-1.1,2.7-2.6,2.7
	c-1.5,0-2.7-1.1-2.7-2.6c-0.1-1.5,1.1-2.7,2.6-2.8c0.1,0,0.1,0,0.2,0c1.4,0,2.6,1.1,2.6,2.6C205.1,17.3,205.1,17.4,205.1,17.4z"/>
<path d="M216.3,28.8c-0.9,0-0.9,0.1-0.9,1.2v9.6c0,3,0.4,5.7,3.8,5.7c0.5,0,0.9-0.1,1.4-0.3c0.5-0.2,1.1-0.7,1.3-0.7
	c0.4,0,0.6,0.6,0.5,0.9c-1.4,1.5-3.3,2.4-5.4,2.4c-4.4,0-5.4-2.5-5.4-5.6V30.2c0-1.4-0.1-1.5-1.1-1.5h-1.4c-0.3-0.3-0.4-0.7-0.1-1.1
	c1.2-0.3,2.3-0.9,3.3-1.6c0.9-0.9,1.6-1.9,2.2-3c0.3-0.1,0.9-0.1,1.1,0.3v2.3c0,0.9,0,1,0.9,1h5.7c0.5,0.6,0.6,1.5,0,2.2L216.3,28.8
	z"/>
<path d="M227.6,33.7c-1.3,0-1.4,0.1-1.4,1.4c0,5.2,3,9.6,8.5,9.6c1.7,0,3.1-0.5,4.7-2.5c0.4-0.1,0.7,0,0.9,0.4c0,0.1,0,0.1,0,0.2
	c-1.6,3-4.7,4.8-8.1,4.8c-2.9,0.1-5.6-1.2-7.5-3.4c-1.4-1.9-2.2-4.3-2.2-6.7c0-6.3,4.2-11.6,10.4-11.6c4.4,0,7.3,3,7.3,6.1
	c0,0.5,0,0.9-0.2,1.3c-0.2,0.3-0.9,0.4-3,0.4L227.6,33.7z M230.8,32.1c3.8,0,4.9-0.2,5.4-0.5c0.1-0.1,0.3-0.3,0.3-1
	c0-1.5-1-3.2-4-3.2s-5.7,2.8-5.7,4.5c0,0.1,0,0.3,0.4,0.3L230.8,32.1z"/>
<path d="M263.1,39.4c0,4.1,0,6,1.5,6c0.8-0.1,1.5-0.2,2.2-0.5c0.4,0.1,0.4,1.4,0,1.6c-2.3,0.3-4.6,0.9-6.8,1.6
	c-0.3,0-0.6-0.2-0.6-0.4v-0.9c0-0.5,0-1.1-0.1-1.6h-0.2c-2.3,1.5-4,2.4-6.5,2.4c-5.7,0-9.5-4.5-9.5-9.9c0-7.2,5.5-11.9,12.5-11.9
	c1.2,0,2.3,0.1,3.5,0.5c0.3,0,0.3-0.3,0.3-0.7v-7.8c0-3,0-3.4-1.6-4.3l-0.5-0.3c-0.2-0.3-0.2-0.7,0-1c1.9-0.6,3.8-1.3,5.6-2.2
	c0.2,0,0.4,0.1,0.5,0.3c0,1.5-0.2,4.1-0.2,6.4L263.1,39.4z M259.3,31.6c0.1-0.7-0.1-1.4-0.6-2c-1-1.4-2.6-2.2-4.3-2.2
	c-4.7,0-7.1,4.1-7.1,8.5c0,4.7,2.6,9.1,7.7,9.1c1.5,0,2.9-0.5,4-1.4c0.3-0.6,0.4-1.3,0.4-1.9L259.3,31.6z"/>
<path d="M308.6,38.1c0,1.5,0,7.7,0.1,9c-0.2,0.4-0.6,0.6-1,0.6c-0.6-0.9-2.1-2.7-6.6-7.8l-12-13.6c-1.4-1.6-4.9-5.8-6-7h-0.1
	c-0.2,1.1-0.3,2.2-0.3,3.4v11.2c0,2.4,0,9.1,0.9,10.7c0.3,0.6,1.3,0.9,2.6,1l1.6,0.2c0.3,0.4,0.2,0.9-0.1,1.3
	c-2.3-0.1-4.1-0.2-6-0.2c-2.2,0-3.5,0-5.4,0.2c-0.3-0.3-0.4-0.9-0.1-1.3l1.4-0.2c1.2-0.1,2-0.5,2.3-1c0.7-1.9,0.7-8.1,0.7-10.6V19.1
	c0.2-1.3-0.2-2.7-1.1-3.7c-0.9-0.7-2-1.2-3.2-1.2l-0.9-0.1c-0.3-0.3-0.3-1.1,0.1-1.3c2.2,0.1,4.9,0.1,5.8,0.1c0.8,0,1.6,0,2.4-0.1
	c1,2.6,7.1,9.4,8.8,11.3l5,5.6c3.5,4,6.1,6.9,8.5,9.3h0.1c0.2-0.7,0.3-1.4,0.2-2.2v-11c0-2.4-0.1-9.1-1-10.7c-0.3-0.5-1.1-0.8-3.2-1
	l-0.9-0.1c-0.4-0.3-0.3-1.1,0.1-1.3c2.4,0.1,4.1,0.1,6.1,0.1c2.2,0,3.5,0,5.3-0.1c0.4,0.3,0.4,0.9,0.1,1.3c0,0,0,0,0,0l-0.7,0.1
	c-1.6,0.3-2.7,0.7-2.9,1.1c-0.9,1.9-0.8,8.2-0.8,10.6L308.6,38.1z"/>
<path d="M323.3,36.2c0.8-0.3,0.9-0.7,0.9-1.5l0-2.4c0-1.9-0.6-4.5-3.8-4.5c-1.4,0-3.2,0.7-3.3,2.3c0,0.8-0.1,1.4-0.5,1.8
	c-0.9,0.6-1.9,1-2.9,1c-0.4,0-0.7-0.2-0.7-0.6c0,0,0-0.1,0-0.1c0-2.7,5.8-6.3,9.6-6.3s5.5,2.2,5.4,6l-0.3,9
	c-0.1,2.4,0.4,4.5,2.4,4.5c0.4,0,0.9-0.1,1.3-0.3c0.2-0.2,0.4-0.3,0.7-0.4c0.2,0,0.4,0.3,0.4,0.7c-1,1.4-2.6,2.2-4.3,2.3
	c-1.3,0-2.5-0.6-3.4-1.6c-0.2-0.3-0.5-0.7-0.8-0.7c-0.7,0.2-1.4,0.6-2,1c-1.1,0.7-2.4,1.2-3.7,1.3c-1.3,0.1-2.6-0.4-3.6-1.2
	c-1-0.9-1.6-2.2-1.6-3.6c0-2,1-3.2,4.3-4.4L323.3,36.2z M320.1,45.3c1.2-0.1,2.2-0.6,3.1-1.3c0.6-0.6,0.6-1.3,0.7-2.4l0.1-3
	c0-0.6-0.2-0.7-0.5-0.7c-0.7,0.1-1.4,0.3-2.1,0.5c-3,1-4.5,1.8-4.5,3.8C316.9,43.9,318.3,45.3,320.1,45.3
	C320,45.3,320.1,45.3,320.1,45.3z"/>
<path d="M339.1,28.8c-0.9,0-0.9,0.1-0.9,1.2v9.6c0,3,0.4,5.7,3.8,5.7c0.5,0,0.9-0.1,1.4-0.3c0.5-0.2,1.1-0.7,1.3-0.7
	c0.4,0,0.6,0.6,0.5,0.9c-1.4,1.5-3.3,2.4-5.4,2.4c-4.4,0-5.4-2.5-5.4-5.6V30.2c0-1.4,0-1.5-1.1-1.5h-1.4c-0.3-0.3-0.4-0.7-0.2-1.1
	c1.2-0.3,2.3-0.9,3.3-1.6c0.9-0.9,1.6-1.9,2.2-3c0.3-0.1,0.9-0.1,1.1,0.3v2.3c0,0.9,0.1,1,0.9,1h5.7c0.6,0.6,0.6,1.5,0,2.2
	L339.1,28.8z"/>
<path d="M349.7,32.1c0-2,0-2.3-1.4-3.2l-0.5-0.3c-0.2-0.3-0.2-0.7,0-0.9c1.8-0.7,3.6-1.5,5.3-2.5c0.2,0,0.4,0.1,0.5,0.3
	c-0.1,1.8-0.2,4.3-0.2,6.4v9.3c0,3.7,0.1,4.2,2,4.5l1.1,0.2c0.3,0.4,0.3,0.9-0.1,1.3c0,0,0,0,0,0c-1.5-0.1-3-0.2-4.8-0.2
	s-3.4,0-4.8,0.2c-0.4-0.3-0.4-0.9-0.1-1.3c0,0,0,0,0,0l1.1-0.2c1.9-0.2,2-0.8,2-4.5L349.7,32.1z M354,17.4c0,1.5-1.1,2.7-2.6,2.7
	c-1.5,0-2.7-1.1-2.7-2.6l0,0c-0.1-1.5,1.1-2.7,2.6-2.8c0.1,0,0.1,0,0.2,0c1.4,0,2.6,1.1,2.6,2.6C354,17.3,354,17.4,354,17.4
	L354,17.4z"/>
<path d="M380.2,36.5c0,6.4-4.4,11.1-10.9,11.1c-5.6,0.2-10.3-4.2-10.6-9.8c0-0.3,0-0.6,0-0.8c-0.2-6,4.5-11,10.5-11.1
	c0.2,0,0.3,0,0.5,0c5.7-0.1,10.4,4.5,10.4,10.2C380.2,36.2,380.2,36.4,380.2,36.5z M369.1,27.4c-3.4,0-5.9,3.2-5.9,8.9
	c0,4.7,2.1,9.7,6.6,9.7s5.9-4.7,5.9-8.7C375.7,33,374,27.4,369.1,27.4z"/>
<path d="M385,32.1c0-2,0-2.3-1.4-3.2l-0.5-0.3c-0.2-0.3-0.2-0.7,0.1-0.9c1.8-0.7,3.5-1.5,5.1-2.5c0.2,0,0.5,0.1,0.6,0.4
	c-0.1,1.2-0.1,2-0.1,2.4c0,0.3,0.2,0.6,0.5,0.6c0,0,0,0,0,0c2.2-1.3,4.6-2.6,7.2-2.6c4.3,0,6,2.9,6,6.4v8.9c0,3.7,0.1,4.2,2,4.5
	l1.1,0.2c0.3,0.4,0.3,0.9-0.1,1.3c0,0,0,0,0,0c-1.5-0.1-3-0.2-4.8-0.2s-3.4,0-4.8,0.2c-0.4-0.3-0.4-0.9-0.1-1.3c0,0,0,0,0,0l1-0.2
	c1.9-0.3,2-0.8,2-4.5v-7.7c0-2.9-1.3-5.1-4.9-5.1c-1.7-0.1-3.3,0.6-4.4,1.8c-0.6,0.9-0.9,2-0.8,3.1v7.9c0,3.7,0.1,4.2,2,4.5l0.9,0.2
	c0.3,0.4,0.3,1-0.1,1.3c0,0,0,0,0,0c-1.4-0.1-2.9-0.2-4.7-0.2s-3.4,0-4.9,0.2c-0.4-0.3-0.4-0.9-0.1-1.3c0,0,0,0,0,0l1-0.1
	c1.9-0.2,2-0.8,2-4.5L385,32.1z"/>
<path d="M421.1,26.8c0.5,1.3,0.8,2.7,0.8,4.2c-0.3,0.4-0.9,0.4-1.2,0.2c-0.9-2.3-2.4-3.8-4.5-3.8c-1.6-0.2-3.1,1-3.3,2.7
	c0,0.2,0,0.3,0,0.5c0,2.1,2.2,3.2,4,4.3c2.7,1.5,5.2,3.3,5.2,7c0,3.9-3.6,5.9-7.4,5.9c-2,0.1-3.9-0.4-5.5-1.5
	c-0.5-1.7-0.7-3.5-0.6-5.2c0.3-0.3,0.8-0.3,1.2,0c0.9,2.8,2.5,5.3,5.5,5.3c1.7,0.2,3.3-1.1,3.4-2.9c0-0.1,0-0.3,0-0.4
	c0-2.4-2.1-3.7-4-4.7c-3-1.7-5.1-3.5-5.1-6.3c0-3.8,3.1-5.9,7-5.9C418.1,25.8,419.7,26.1,421.1,26.8z"/>
<path class="st0" d="M142.7,61.6c0-5.4-0.1-6.1-3.1-6.5l-0.8-0.1c-0.3-0.2-0.2-1.1,0.1-1.3c2.2,0.1,4,0.1,6.1,0.1h9.7
	c3.3,0,6.3,0,7-0.1c0.4,2.3,0.7,4.6,0.8,6.9c-0.3,0.3-0.9,0.4-1.3,0.1c-0.8-2.4-1.2-4.2-3.9-4.9c-1.7-0.3-3.3-0.4-5-0.3h-3.8
	c-1.5,0-1.5,0.1-1.5,2.1v10.3c0,1.5,0.1,1.5,1.7,1.5h3c1.5,0.1,2.9,0,4.4-0.3c0.6-0.2,1-0.5,1.2-1.8l0.4-2.1c0.3-0.3,1.1-0.3,1.3,0
	c0,1.2-0.2,3.2-0.2,5.2s0.2,3.8,0.2,4.9c-0.2,0.4-1.1,0.4-1.3,0l-0.5-2c-0.1-0.9-0.7-1.7-1.6-2c-1.3-0.2-2.7-0.3-4-0.3h-3
	c-1.6,0-1.7,0-1.7,1.4v7.3c0,2.7,0.1,4.5,1,5.4c0.6,0.6,1.7,1.2,6.2,1.2c4,0,5.5-0.2,6.6-0.8c0.9-0.5,2.3-2.3,3.7-5
	c0.5-0.3,1-0.1,1.3,0.3c0,0,0,0,0,0c-0.6,2.4-1.3,4.8-2.3,7.2c-4.6-0.1-9.2-0.2-13.8-0.2h-4.6c-2.2,0-4,0-7,0.2
	c-0.3-0.3-0.4-0.9-0.1-1.3l1.7-0.2c2.9-0.2,3.2-1,3.2-6.4L142.7,61.6z"/>
<path class="st0" d="M184.8,67.7c0.5,0.6,0.8,1.3,0.8,2.1c0,0.9-0.5,1.9-1.1,1.9c-0.3,0-0.5-0.1-0.7-0.4c-1.2-1.6-3.1-2.6-5.1-2.7
	c-3.6,0-7.1,2.8-7.1,8.3c0,4,2.8,8.8,8.3,8.8c2.3,0.1,4.5-1.1,5.7-3.1c0.4-0.1,0.8,0.2,0.9,0.7c0,0,0,0,0,0.1
	c-1.6,3.3-5,5.3-8.6,5.2c-2.6,0.1-5.1-0.9-7.1-2.6c-2-2-3.1-4.8-3-7.6c0-5.6,3.9-11.5,12.5-11.5C181.8,66.9,183.4,67.2,184.8,67.7z"
	/>
<path class="st0" d="M212.8,77.5c0,6.4-4.4,11.1-10.9,11.1c-5.6,0.2-10.3-4.2-10.6-9.8c0-0.3,0-0.6,0-0.8c-0.2-6,4.5-11,10.5-11.1
	c0.2,0,0.3,0,0.5,0c5.7-0.1,10.4,4.5,10.4,10.2C212.8,77.2,212.8,77.4,212.8,77.5z M201.7,68.4c-3.4,0-5.9,3.2-5.9,8.9
	c0,4.7,2.1,9.7,6.6,9.7s5.9-4.7,5.9-8.7C208.3,74,206.6,68.4,201.7,68.4L201.7,68.4z"/>
<path class="st0" d="M220.6,73.1c0-2,0-2.3-1.4-3.2l-0.5-0.3c-0.2-0.3-0.2-0.7,0-0.9c1.8-0.7,3.5-1.5,5.1-2.5c0.2,0,0.5,0.1,0.6,0.4
	c-0.1,1.2-0.1,2-0.1,2.4c0,0.3,0.2,0.6,0.5,0.6c0,0,0,0,0.1,0c2.2-1.3,4.6-2.6,7.2-2.6c4.3,0,6,2.9,6,6.4v8.9c0,3.7,0.1,4.2,2,4.5
	l1.1,0.2c0.3,0.4,0.3,0.9-0.1,1.3c0,0,0,0,0,0c-1.5-0.1-3-0.2-4.8-0.2s-3.4,0-4.8,0.2c-0.4-0.3-0.4-0.9-0.1-1.3c0,0,0,0,0,0l1-0.2
	c1.9-0.3,2-0.8,2-4.5v-7.7c0-2.9-1.3-5.1-4.8-5.1c-1.7-0.1-3.3,0.6-4.4,1.8c-0.6,0.9-0.9,2-0.8,3.1v7.9c0,3.7,0.1,4.2,2,4.5l0.9,0.2
	c0.3,0.4,0.3,0.9-0.1,1.3c0,0,0,0,0,0c-1.4-0.1-2.9-0.2-4.7-0.2s-3.4,0-4.8,0.2c-0.4-0.3-0.4-0.9-0.1-1.3c0,0,0,0,0,0l1.1-0.2
	c1.9-0.2,2-0.8,2-4.5L220.6,73.1z"/>
<path class="st0" d="M266.8,77.5c0,6.4-4.4,11.1-10.9,11.1c-5.6,0.2-10.3-4.2-10.6-9.8c0-0.3,0-0.6,0-0.8c-0.2-6,4.5-11,10.5-11.1
	c0.2,0,0.3,0,0.5,0c5.7-0.1,10.4,4.5,10.4,10.2C266.8,77.2,266.8,77.4,266.8,77.5z M255.8,68.4c-3.4,0-5.9,3.2-5.9,8.9
	c0,4.7,2.1,9.7,6.6,9.7s5.9-4.7,5.9-8.7C262.4,74,260.6,68.4,255.8,68.4L255.8,68.4z"/>
<path class="st0" d="M303,74.6c0-3.5-1.5-5.3-4.8-5.3c-1.6-0.1-3.2,0.6-4.3,1.8c-0.6,0.8-0.8,1.3-0.8,3.1v7.9c0,3.7,0.1,4.2,2,4.5
	l1.1,0.2c0.3,0.4,0.3,0.9-0.1,1.3c0,0,0,0,0,0c-1.5-0.1-3-0.2-4.8-0.2s-3.2,0-4.7,0.2c-0.4-0.3-0.4-0.9-0.1-1.3c0,0,0,0,0,0l0.9-0.2
	c1.9-0.3,2-0.8,2-4.5v-7.5c0-3.5-1.5-5.3-4.7-5.3c-1.6-0.1-3.2,0.6-4.3,1.9c-0.6,0.8-0.9,1.9-0.8,2.9v8c0,3.7,0.1,4.2,2,4.5l0.9,0.2
	c0.3,0.4,0.3,1-0.1,1.3c0,0,0,0,0,0c-1.4-0.1-2.9-0.2-4.7-0.2s-3.4,0-5,0.2c-0.4-0.3-0.4-0.9-0.1-1.3c0,0,0,0,0,0l1.2-0.2
	c1.9-0.2,2-0.8,2-4.5v-9c0-2,0-2.3-1.4-3.2l-0.5-0.3c-0.2-0.3-0.2-0.7,0-0.9c1.8-0.7,3.5-1.5,5.1-2.5c0.2,0,0.5,0.1,0.6,0.4
	c-0.1,0.8-0.1,1.6-0.1,2.4c0,0.3,0.2,0.6,0.5,0.6c0,0,0,0,0,0c2-1.5,4.4-2.5,6.9-2.6c2.6,0,4,0.9,5.5,3c0.5,0.1,0.9-0.1,1.3-0.4
	c2-1.5,4.5-2.5,7-2.6c4.1,0,6.1,2.8,6.1,6.4v8.9c0,3.7,0.1,4.2,2,4.5l1.2,0.2c0.3,0.4,0.3,0.9-0.1,1.3c0,0,0,0,0,0
	c-1.7-0.1-3.2-0.2-5-0.2s-3.2,0-4.7,0.2c-0.4-0.3-0.4-0.9-0.1-1.3c0,0,0,0,0,0l0.8-0.1c1.9-0.3,2-0.8,2-4.5L303,74.6z"/>
<path class="st0" d="M319.2,73.1c0-2,0-2.3-1.4-3.2l-0.5-0.3c-0.2-0.3-0.2-0.7,0-0.9c1.8-0.7,3.6-1.5,5.3-2.5c0.2,0,0.4,0.1,0.5,0.3
	c-0.1,1.8-0.2,4.3-0.2,6.4v9.3c0,3.7,0.1,4.2,2,4.5l1.1,0.2c0.3,0.4,0.3,0.9-0.1,1.3c0,0,0,0,0,0c-1.5-0.1-3-0.2-4.8-0.2
	s-3.4,0-4.8,0.2c-0.4-0.3-0.4-0.9-0.1-1.3c0,0,0,0,0,0l1.1-0.2c1.9-0.2,2-0.8,2-4.5L319.2,73.1z M323.5,58.4c0,1.5-1.1,2.7-2.6,2.7
	c-1.5,0-2.7-1.1-2.7-2.6c-0.1-1.5,1.1-2.7,2.6-2.8c0.1,0,0.1,0,0.2,0c1.4,0,2.6,1.1,2.6,2.6C323.5,58.3,323.5,58.4,323.5,58.4
	L323.5,58.4z"/>
<path class="st0" d="M347.3,67.7c0.5,0.6,0.8,1.3,0.8,2.1c0,0.9-0.5,1.9-1.1,1.9c-0.3,0-0.5-0.1-0.7-0.4c-1.2-1.6-3.1-2.6-5.2-2.7
	c-3.6,0-7.1,2.8-7.1,8.3c0,4,2.8,8.8,8.3,8.8c2.3,0.1,4.5-1.1,5.7-3.1c0.4-0.1,0.8,0.2,0.9,0.7c0,0,0,0,0,0.1
	c-1.6,3.3-5,5.3-8.6,5.2c-2.6,0.1-5.1-0.9-7.1-2.6c-2-2-3.1-4.8-3-7.6c0-5.6,3.9-11.5,12.5-11.5C344.3,66.9,345.9,67.2,347.3,67.7z"
	/>
<path class="st0" d="M370.1,57.4c4-3,8.9-4.5,13.9-4.4c3.1,0.1,6.1,0.5,9.1,1.2c0.5,0.2,1,0.2,1.4,0.2c0,1.2,0.3,4.4,0.7,7.6
	c-0.4,0.4-1,0.4-1.4,0.1c-0.8-3.5-3.1-7.5-10.6-7.5c-7.9,0-14.6,5-14.6,15.7c0,10.7,6.9,16.8,15.3,16.8c4.8,0.2,9.2-2.8,10.8-7.4
	c0.4-0.2,1-0.2,1.3,0.2c-0.4,2.5-1.2,4.9-2.5,7.1c-0.6,0.1-1.2,0.3-1.8,0.5c-2.6,0.8-5.4,1.2-8.1,1.2c-4.5,0.2-9-1-12.8-3.5
	c-4.7-3.2-7.5-8.5-7.3-14.2C363.5,65.8,365.9,60.7,370.1,57.4z"/>
<path class="st0" d="M422.4,77.5c0,6.4-4.4,11.1-10.9,11.1c-5.6,0.2-10.3-4.2-10.6-9.8c0-0.3,0-0.6,0-0.8c-0.2-6,4.5-11,10.5-11.1
	c0.2,0,0.3,0,0.5,0c5.7-0.1,10.4,4.5,10.4,10.2C422.4,77.2,422.4,77.4,422.4,77.5z M411.3,68.4c-3.4,0-5.9,3.2-5.9,8.9
	c0,4.7,2.1,9.7,6.6,9.7s5.9-4.7,5.9-8.7C418,74,416.2,68.4,411.3,68.4L411.3,68.4z"/>
<path class="st0" d="M458.6,74.6c0-3.5-1.5-5.3-4.8-5.3c-1.6-0.1-3.2,0.6-4.3,1.8c-0.6,0.8-0.8,1.3-0.8,3.1v7.9c0,3.7,0.1,4.2,2,4.5
	l1.1,0.2c0.3,0.4,0.3,0.9-0.1,1.3c0,0,0,0,0,0c-1.5-0.1-3-0.2-4.8-0.2s-3.2,0-4.7,0.2c-0.4-0.3-0.4-0.9-0.1-1.3c0,0,0,0,0,0l0.9-0.2
	c1.9-0.3,2-0.8,2-4.5v-7.5c0-3.5-1.5-5.3-4.7-5.3c-1.6-0.1-3.2,0.6-4.3,1.9c-0.6,0.8-0.9,1.9-0.8,2.9v8c0,3.7,0.1,4.2,2,4.5l0.9,0.2
	c0.3,0.4,0.3,1-0.1,1.3c0,0,0,0,0,0c-1.4-0.1-2.9-0.2-4.7-0.2s-3.4,0-5,0.2c-0.4-0.3-0.4-0.9-0.1-1.3c0,0,0,0,0,0l1.2-0.2
	c1.9-0.2,2-0.8,2-4.5v-9c0-2,0-2.3-1.4-3.2l-0.5-0.3c-0.2-0.3-0.2-0.7,0.1-0.9c1.8-0.7,3.5-1.5,5.2-2.5c0.2,0,0.5,0.1,0.6,0.4
	c-0.1,1.2-0.1,2-0.1,2.4c0,0.3,0.2,0.6,0.5,0.6c0,0,0,0,0,0c2-1.5,4.4-2.5,6.8-2.6c2.2-0.1,4.4,1,5.5,3c0.5,0.1,0.9-0.1,1.3-0.4
	c2-1.5,4.5-2.5,7-2.6c4.1,0,6.1,2.8,6.1,6.4v8.9c0,3.7,0.1,4.2,2,4.5l1.2,0.2c0.3,0.4,0.3,0.9-0.1,1.3c0,0,0,0,0,0
	c-1.7-0.1-3.2-0.2-5-0.2s-3.2,0-4.7,0.2c-0.4-0.3-0.4-0.9-0.1-1.3c0,0,0,0,0,0l0.9-0.2c1.9-0.3,2-0.8,2-4.5L458.6,74.6z"/>
<path class="st0" d="M502.1,74.6c0-3.5-1.5-5.3-4.8-5.3c-1.6-0.1-3.2,0.6-4.3,1.8c-0.6,0.8-0.8,1.3-0.8,3.1v7.9c0,3.7,0.1,4.2,2,4.5
	l1.1,0.2c0.3,0.4,0.3,0.9-0.1,1.3c0,0,0,0,0,0c-1.5-0.1-3-0.2-4.8-0.2s-3.2,0-4.7,0.2c-0.4-0.3-0.4-0.9-0.1-1.3c0,0,0,0,0,0l0.9-0.2
	c1.9-0.3,2-0.8,2-4.5v-7.5c0-3.5-1.5-5.3-4.7-5.3c-1.6-0.1-3.2,0.6-4.3,1.9c-0.6,0.8-0.9,1.9-0.8,2.9v8c0,3.7,0.1,4.2,2,4.5l0.9,0.2
	c0.3,0.4,0.3,0.9-0.1,1.3c0,0,0,0,0,0c-1.4-0.1-2.9-0.2-4.7-0.2s-3.4,0-5,0.2c-0.4-0.3-0.4-0.9-0.1-1.3c0,0,0,0,0,0l1.2-0.2
	c1.9-0.2,2-0.8,2-4.5v-9c0-2,0-2.3-1.4-3.2l-0.5-0.3c-0.2-0.3-0.2-0.7,0-0.9c1.8-0.7,3.5-1.5,5.2-2.5c0.2,0,0.5,0.1,0.6,0.4
	c-0.1,1.2-0.1,2-0.1,2.4c0,0.3,0.2,0.6,0.5,0.6c0,0,0,0,0.1,0c2-1.5,4.4-2.5,6.9-2.6c2.6,0,4,0.9,5.5,3c0.5,0.1,0.9-0.1,1.3-0.4
	c2-1.5,4.5-2.5,7-2.6c4.1,0,6.1,2.8,6.1,6.4v8.9c0,3.7,0.1,4.2,2,4.5l1.2,0.2c0.3,0.4,0.3,0.9-0.1,1.3c0,0,0,0,0,0
	c-1.7-0.1-3.2-0.2-5-0.2s-3.2,0-4.7,0.2c-0.4-0.3-0.4-0.9-0.1-1.3c0,0,0,0,0,0l0.9-0.2c1.9-0.3,2-0.8,2-4.5L502.1,74.6z"/>
<path class="st0" d="M517.3,73.1c0-2,0-2.3-1.4-3.2l-0.5-0.3c-0.2-0.3-0.2-0.7,0-0.9c1.8-0.7,3.6-1.5,5.3-2.5c0.2,0,0.4,0.1,0.5,0.3
	c-0.1,1.8-0.2,4.3-0.2,6.4v9.3c0,3.7,0.1,4.2,2,4.5l1.1,0.2c0.3,0.4,0.3,0.9-0.1,1.3c0,0,0,0,0,0c-1.6-0.1-3-0.2-4.8-0.2
	c-1.8,0-3.4,0-4.8,0.2c-0.4-0.3-0.4-0.9-0.1-1.3c0,0,0,0,0,0l1.1-0.2c1.9-0.2,2-0.8,2-4.5L517.3,73.1z M521.6,58.4
	c0,1.5-1.1,2.7-2.6,2.7c-1.5,0-2.7-1.1-2.7-2.6c-0.1-1.5,1.1-2.7,2.6-2.8c0.1,0,0.1,0,0.2,0c1.4,0,2.6,1.1,2.6,2.6
	C521.6,58.3,521.6,58.4,521.6,58.4L521.6,58.4z"/>
<path class="st0" d="M541.7,67.8c0.5,1.3,0.8,2.7,0.8,4.2c-0.3,0.4-0.8,0.5-1.2,0.2c-0.9-2.3-2.4-3.8-4.5-3.8
	c-1.6-0.2-3.1,1-3.3,2.7c0,0.1,0,0.3,0,0.4c0,2.1,2.2,3.2,4,4.3c2.7,1.5,5.3,3.3,5.3,7c0,3.9-3.6,5.9-7.4,5.9
	c-2,0.1-3.9-0.4-5.5-1.5c-0.5-1.7-0.7-3.5-0.6-5.2c0.3-0.3,0.8-0.3,1.2,0c0.9,2.8,2.5,5.3,5.5,5.3c1.7,0.2,3.3-1.1,3.4-2.9
	c0-0.1,0-0.3,0-0.4c0-2.4-2.1-3.7-4-4.7c-3-1.7-5.1-3.5-5.1-6.3c0-3.8,3.1-5.9,7-5.9C538.7,66.8,540.2,67.1,541.7,67.8z"/>
<path class="st0" d="M560.3,67.8c0.5,1.3,0.8,2.7,0.8,4.2c-0.3,0.4-0.8,0.5-1.2,0.2c-0.9-2.3-2.4-3.8-4.5-3.8
	c-1.6-0.2-3.1,1-3.3,2.7c0,0.1,0,0.3,0,0.4c0,2.1,2.2,3.2,4,4.3c2.7,1.5,5.3,3.3,5.3,7c0,3.9-3.6,5.9-7.4,5.9
	c-2,0.1-3.9-0.4-5.5-1.5c-0.5-1.7-0.7-3.5-0.6-5.2c0.3-0.3,0.8-0.3,1.2,0c0.9,2.8,2.5,5.3,5.5,5.3c1.7,0.2,3.3-1.1,3.5-2.9
	c0-0.1,0-0.3,0-0.4c0-2.4-2.1-3.7-4-4.7c-3-1.7-5.1-3.5-5.1-6.3c0-3.8,3.1-5.9,7-5.9C557.3,66.8,558.9,67.1,560.3,67.8z"/>
<path class="st0" d="M569.9,73.1c0-2,0-2.3-1.4-3.2l-0.5-0.3c-0.2-0.3-0.2-0.7,0-0.9c1.8-0.7,3.6-1.5,5.3-2.5c0.2,0,0.4,0.1,0.5,0.3
	c-0.1,1.8-0.2,4.3-0.2,6.4v9.3c0,3.7,0.1,4.2,2,4.5l1.1,0.2c0.3,0.4,0.3,0.9-0.1,1.3c0,0,0,0,0,0c-1.5-0.1-3-0.2-4.8-0.2
	c-1.8,0-3.4,0-4.8,0.2c-0.4-0.3-0.4-0.9-0.1-1.3c0,0,0,0,0,0l1.1-0.2c1.9-0.2,2-0.8,2-4.5L569.9,73.1z M574.2,58.4
	c0,1.5-1.1,2.7-2.6,2.7c-1.5,0-2.7-1.1-2.7-2.6c-0.1-1.5,1.1-2.7,2.6-2.8c0.1,0,0.1,0,0.2,0c1.4,0,2.6,1.1,2.6,2.6
	C574.2,58.3,574.2,58.4,574.2,58.4L574.2,58.4z"/>
<path class="st0" d="M603.3,77.5c0,6.4-4.4,11.1-10.9,11.1c-5.6,0.2-10.3-4.2-10.6-9.8c0-0.3,0-0.6,0-0.8c-0.2-6,4.5-11,10.5-11.1
	c0.2,0,0.3,0,0.5,0c5.7-0.1,10.4,4.5,10.4,10.2C603.3,77.2,603.3,77.4,603.3,77.5z M592.2,68.4c-3.4,0-5.9,3.2-5.9,8.9
	c0,4.7,2.1,9.7,6.6,9.7s5.9-4.7,5.9-8.7C598.9,74,597.1,68.4,592.2,68.4L592.2,68.4z"/>
<path class="st0" d="M611.2,73.1c0-2,0-2.3-1.4-3.2l-0.5-0.3c-0.2-0.3-0.2-0.7,0-0.9c1.8-0.7,3.5-1.5,5.2-2.5c0.2,0,0.5,0.1,0.6,0.4
	c-0.1,0.8-0.1,1.6-0.1,2.4c0,0.3,0.2,0.6,0.5,0.6c0,0,0,0,0,0c2.2-1.3,4.6-2.6,7.2-2.6c4.3,0,6,2.9,6,6.4v8.9c0,3.7,0.1,4.2,2,4.5
	l1.1,0.2c0.3,0.4,0.3,0.9-0.1,1.3c0,0,0,0,0,0c-1.6-0.1-3-0.2-4.8-0.2s-3.4,0-4.8,0.2c-0.4-0.3-0.4-0.9-0.1-1.3c0,0,0,0,0,0l1-0.2
	c1.9-0.3,2-0.8,2-4.5v-7.7c0-2.9-1.3-5.1-4.8-5.1c-1.7-0.1-3.3,0.6-4.4,1.8c-0.6,0.9-0.9,2-0.8,3.1v7.9c0,3.7,0.1,4.2,2,4.5l0.9,0.2
	c0.3,0.4,0.3,0.9-0.1,1.3c0,0,0,0,0,0c-1.4-0.1-2.9-0.2-4.7-0.2c-1.8,0-3.4,0-4.8,0.2c-0.4-0.3-0.4-0.9-0.1-1.3c0,0,0,0,0,0l1.1-0.2
	c1.9-0.2,2-0.8,2-4.5L611.2,73.1z"/>
<path class="st0" d="M657.3,69.8c-0.9,0-0.9,0.1-0.9,1.5v10.9c0,3.7,0.1,4.3,2,4.5l1.8,0.2c0.3,0.4,0.3,0.9-0.1,1.3c0,0,0,0,0,0
	c-2.3-0.1-3.8-0.2-5.6-0.2c-1.8,0-3.4,0-4.9,0.2c-0.4-0.3-0.4-0.9-0.1-1.3c0,0,0,0,0,0l1.2-0.2c1.9-0.2,2-0.8,2-4.5V71.2
	c0-1.4,0-1.5-1-1.5h-1.8c-0.3-0.2-0.4-0.7-0.2-1l2.2-1.1c0.4-0.2,0.7-0.5,0.8-1c-0.1-3.1,0.4-6.2,1.5-9.1c1.3-2.9,4.2-6.5,9.3-6.5
	c2.7,0,5,1.2,5,3.1c-0.1,1-0.9,1.8-1.9,1.9c-0.5,0-1-0.2-1.2-0.6c-1-1.3-2.5-2.1-4.1-2.3c-1.6,0-2.9,1-3.7,2.8
	c-0.9,2.4-1.1,6.1-1.1,8.7v1.5c0,1.4,0,1.4,0.9,1.4h5.9c0.5,0.7,0.3,1.7-0.4,2.2L657.3,69.8z"/>
<path class="st0" d="M686.9,77.5c0,6.4-4.4,11.1-10.9,11.1c-5.6,0.2-10.3-4.2-10.6-9.8c0-0.3,0-0.6,0-0.8c-0.2-6,4.5-11,10.5-11.1
	c0.2,0,0.3,0,0.5,0c5.7-0.1,10.4,4.5,10.4,10.2C686.9,77.2,686.9,77.4,686.9,77.5z M675.8,68.4c-3.4,0-5.9,3.2-5.9,8.9
	c0,4.7,2.1,9.7,6.6,9.7s5.9-4.7,5.9-8.7C682.4,74,680.7,68.4,675.8,68.4L675.8,68.4z"/>
<path class="st0" d="M693.7,73.1c0-2,0-2.3-1.4-3.2l-0.5-0.3c-0.2-0.3-0.2-0.7,0-0.9c1.8-0.7,3.5-1.6,5.2-2.5c0.3,0,0.4,0.2,0.4,0.4
	v3c0,0.3,0,0.4,0.2,0.5c1.8-1.5,3.8-3.1,5.7-3.1c1.2-0.1,2.2,0.8,2.3,2c0,0,0,0.1,0,0.1c0.1,1.3-0.9,2.3-2.2,2.4c0,0,0,0,0,0
	c-0.4,0-0.8-0.1-1.1-0.4c-0.7-0.5-1.4-0.8-2.3-0.8c-0.7,0-1.4,0.4-1.9,1c-0.6,1.3-0.8,2.6-0.7,4v7c0,3.7,0.1,4.3,2.1,4.5l1.9,0.2
	c0.3,0.4,0.3,1-0.1,1.3c0,0,0,0,0,0c-2.4-0.1-3.9-0.2-5.7-0.2s-3.4,0-4.7,0.2c-0.4-0.3-0.4-0.9-0.1-1.3c0,0,0,0,0,0l1-0.2
	c1.9-0.3,2-0.8,2-4.5L693.7,73.1z"/>
<path class="st0" d="M744.2,75.9c-0.4-1.1-0.6-1.3-2.1-1.3h-7.8c-1.3,0-1.6,0.2-2,1.2l-1.8,5.4c-0.5,1.4-0.9,2.8-1.1,4.3
	c0,0.6,0.3,0.9,1.5,1l1.7,0.2c0.3,0.3,0.4,0.8,0,1.2c0,0-0.1,0.1-0.1,0.1c-1.3-0.1-2.9-0.1-5.4-0.2c-1.7,0-3.5,0.1-4.9,0.2
	c-0.3-0.3-0.4-0.9-0.1-1.3l1.7-0.2c1.5-0.1,2.7-1.1,3.1-2.5c0.9-2.4,2.4-5.7,4.5-11.5l5.2-13.9c0.7-1.9,1-2.8,0.9-3.6
	c1.1-0.4,2-1.1,2.7-2c0.3,0,0.6,0.2,0.8,0.5c0.7,2.3,1.5,4.6,2.3,6.9l7,20.7c1.5,4.4,2.2,5.2,4.4,5.5l1.4,0.2c0.3,0.4,0.3,0.9,0,1.3
	c-2.1-0.1-3.9-0.2-6.2-0.2c-2.3,0-4.4,0.1-5.9,0.2c-0.4-0.3-0.5-0.8-0.2-1.2c0,0,0-0.1,0.1-0.1l1.5-0.2c1.1-0.1,1.8-0.4,1.8-0.9
	c-0.1-0.9-0.3-1.9-0.7-2.7L744.2,75.9z M734,71.4c-0.4,1.2-0.4,1.2,1.1,1.2h6.3c1.5,0,1.6-0.2,1.1-1.6l-2.8-8.4
	c-0.3-1.1-0.7-2.2-1.2-3.2h-0.1c-0.5,1-0.9,2-1.2,3L734,71.4z"/>
<path class="st0" d="M767.9,69.8c-0.9,0-0.9,0.1-0.9,1.5v10.9c0,3.7,0.1,4.3,2,4.5l1.8,0.2c0.3,0.4,0.3,0.9-0.1,1.3c0,0,0,0,0,0
	c-2.3-0.1-3.8-0.2-5.6-0.2c-1.8,0-3.4,0-4.9,0.2c-0.4-0.3-0.4-0.9-0.1-1.3c0,0,0,0,0,0l1.2-0.2c1.9-0.2,2-0.8,2-4.5V71.2
	c0-1.4,0-1.5-1-1.5h-1.8c-0.3-0.2-0.4-0.7-0.2-1l2.2-1.1c0.4-0.2,0.7-0.5,0.8-1c-0.1-3.1,0.5-6.2,1.6-9.1c1.3-2.9,4.2-6.5,9.3-6.5
	c2.7,0,5,1.2,5,3.1c-0.1,1-0.9,1.9-2,1.9c-0.5,0-1-0.2-1.2-0.6c-1-1.3-2.5-2.1-4.1-2.3c-1.6,0-2.9,1-3.7,2.8
	c-0.9,2.4-1.1,6.1-1.1,8.7v1.5c0,1.4,0,1.4,0.9,1.4h5.9c0.5,0.7,0.3,1.7-0.4,2.2L767.9,69.8z"/>
<path class="st0" d="M779.3,73.1c0-2,0-2.3-1.4-3.2l-0.5-0.3c-0.2-0.3-0.2-0.7,0-0.9c1.8-0.7,3.5-1.6,5.2-2.5c0.3,0,0.4,0.2,0.4,0.4
	v3c0,0.3,0.1,0.4,0.2,0.5c1.8-1.5,3.8-3.1,5.7-3.1c1.2-0.1,2.2,0.8,2.3,2c0,0,0,0.1,0,0.1c0.1,1.3-0.9,2.3-2.2,2.4c0,0,0,0,0,0
	c-0.4,0-0.8-0.1-1.1-0.4c-0.7-0.5-1.4-0.8-2.3-0.8c-0.7,0-1.4,0.4-1.9,1c-0.6,1.3-0.8,2.6-0.7,4v7c0,3.7,0.1,4.3,2.1,4.5l1.9,0.2
	c0.3,0.4,0.3,0.9-0.1,1.3c0,0,0,0,0,0c-2.4-0.1-3.9-0.2-5.7-0.2c-1.8,0-3.4,0-4.7,0.2c-0.4-0.3-0.4-0.9-0.1-1.3c0,0,0,0,0,0l1-0.2
	c1.9-0.3,2-0.8,2-4.5L779.3,73.1z"/>
<path class="st0" d="M798.4,73.1c0-2,0-2.3-1.4-3.2l-0.5-0.3c-0.2-0.3-0.2-0.7,0-0.9c1.8-0.7,3.6-1.5,5.3-2.5c0.2,0,0.4,0.1,0.5,0.3
	c-0.1,1.8-0.2,4.3-0.2,6.4v9.3c0,3.7,0.1,4.2,2,4.5l1.1,0.2c0.3,0.4,0.3,1-0.1,1.3c0,0,0,0,0,0c-1.5-0.1-3-0.2-4.8-0.2
	c-1.8,0-3.4,0-4.8,0.2c-0.4-0.3-0.4-0.9-0.1-1.3c0,0,0,0,0,0l1.1-0.2c1.9-0.2,2-0.8,2-4.5L798.4,73.1z M802.7,58.4
	c0,1.5-1.1,2.7-2.6,2.7c-1.5,0-2.7-1.1-2.7-2.6c-0.1-1.5,1.1-2.7,2.6-2.8c0.1,0,0.1,0,0.2,0c1.4,0,2.6,1.1,2.6,2.6
	C802.7,58.3,802.7,58.4,802.7,58.4z"/>
<path class="st0" d="M826.5,67.7c0.5,0.6,0.8,1.3,0.8,2.1c0,0.9-0.5,1.9-1.1,1.9c-0.3,0-0.5-0.1-0.7-0.4c-1.2-1.6-3.1-2.6-5.2-2.7
	c-3.6,0-7.1,2.8-7.1,8.3c0,4,2.8,8.8,8.3,8.8c2.3,0.1,4.5-1.1,5.7-3.1c0.4-0.1,0.9,0.2,0.9,0.7c0,0,0,0,0,0c-1.6,3.3-5,5.3-8.6,5.2
	c-2.6,0.1-5.1-0.9-7.1-2.6c-2-2-3.1-4.8-3-7.6c0-5.6,3.9-11.5,12.5-11.5C823.5,66.9,825.1,67.2,826.5,67.7z"/>
<path class="st0" d="M843.4,77.2c0.8-0.3,0.9-0.7,0.9-1.5v-2.4c0.1-1.9-0.6-4.5-3.8-4.5c-1.4,0-3.2,0.7-3.3,2.3
	c-0.1,0.8-0.1,1.4-0.5,1.7c-0.9,0.6-1.9,1-2.9,1c-0.4,0-0.7-0.2-0.7-0.6c0,0,0-0.1,0-0.1c0-2.7,5.8-6.3,9.6-6.3s5.5,2.2,5.4,6
	l-0.3,9c-0.1,2.4,0.4,4.5,2.4,4.5c0.4,0,0.9-0.1,1.3-0.3c0.3-0.2,0.5-0.4,0.7-0.4c0.2,0,0.4,0.3,0.4,0.7c-1,1.4-2.6,2.2-4.3,2.3
	c-1.3,0-2.5-0.6-3.3-1.6c-0.2-0.3-0.5-0.7-0.8-0.7c-0.7,0.2-1.4,0.6-2,1c-1.1,0.7-2.4,1.2-3.7,1.3c-1.3,0.1-2.6-0.4-3.6-1.2
	c-1-0.9-1.6-2.2-1.6-3.6c0-2,1-3.2,4.3-4.4L843.4,77.2z M840.3,86.3c1.2-0.1,2.2-0.6,3.1-1.3c0.6-0.6,0.6-1.3,0.7-2.4l0.1-3
	c0-0.6-0.2-0.7-0.5-0.7c-0.7,0.1-1.4,0.3-2.1,0.5c-3,1-4.5,1.8-4.5,3.8C837,84.9,838.4,86.3,840.3,86.3
	C840.2,86.3,840.2,86.3,840.3,86.3z"/>
<circle class="st1" cx="59.1" cy="42.1" r="8.5"/>
<circle class="st1" cx="59.1" cy="42.1" r="16.4"/>
<circle class="st1" cx="59.1" cy="42.1" r="24.9"/>
<circle class="st1" cx="59.1" cy="42.1" r="32.7"/>
<circle class="st1" cx="59.1" cy="42.1" r="41.3"/>
<line class="st1" x1="59.1" y1="33.8" x2="59.1" y2="0.6"/>
<line class="st1" x1="59.1" y1="83.4" x2="59.1" y2="50.2"/>
<line class="st1" x1="67.5" y1="42.1" x2="100.7" y2="42.1"/>
<line class="st1" x1="17.5" y1="42.1" x2="50.7" y2="42.1"/>
<line class="st1" x1="64.9" y1="36.3" x2="88.4" y2="12.8"/>
<line class="st1" x1="53.4" y1="36.3" x2="29.9" y2="12.8"/>
<line class="st1" x1="53.4" y1="47.8" x2="29.9" y2="71.3"/>
<line class="st1" x1="64.9" y1="47.8" x2="88.4" y2="71.3"/>
<path id="Laurel" class="st0" d="M27.9,4.3c-4.2,1.6-8.7,3.3-11.4,7.6c-1.6,2.5-1.8,5.5-3.1,8.1c2.3-2.2,5-3.8,7-6.4
	C22.8,10.5,24.9,7,27.9,4.3L27.9,4.3z M90.3,4.3c3.1,2.7,5.1,6.2,7.5,9.3c2,2.6,4.7,4.2,7,6.4c-1.2-2.6-1.5-5.6-3.1-8.1
	C99,7.6,94.5,5.9,90.3,4.3L90.3,4.3z M16.6,10c-2.2,0.7-4.1,2-5.5,3.7C7.7,17.5,8,23,8.5,27.9c0.1,1.4,0.1,2.9-0.1,4.3
	c1.1-2.2,2.7-4.1,4.6-5.6c4.4-3.3,9.1-7.5,9.2-13.1c-1.4,4-5.8,5.7-8.8,8.5c-1.5,1.4-2.7,3.1-3.4,5l-0.1-0.1c0.4-1.6,1-3.1,1.5-4.6
	C12.7,17.9,12.5,12.8,16.6,10L16.6,10z M101.6,10c4.1,2.9,3.9,8,5.2,12.2c0.5,1.6,1.1,3,1.5,4.6l-0.1,0.1c-0.7-1.9-1.9-3.6-3.4-5
	c-2.9-2.8-7.3-4.4-8.8-8.5c0.1,5.6,4.8,9.9,9.2,13.1c1.9,1.5,3.5,3.4,4.6,5.5c-0.2-1.4-0.2-2.9-0.1-4.3c0.4-4.9,0.7-10.4-2.6-14.1
	C105.7,12,103.8,10.7,101.6,10L101.6,10z M7.8,17.7c-0.1,0-0.2,0.1-0.2,0.1c-2.9,3.7-4.8,7.7-4.8,12.7c0,6.1,3.5,10.4,4,16.1
	c0.9-6,5.9-10.3,8.5-15.5c1-2.1,1.7-4.3,1.9-6.6c-0.4,1-1,1.9-1.8,2.6C12,30.3,8,33.4,7.3,38c-0.1,0.7-0.2,1.3-0.3,1.9
	c-0.2,0.1-0.2-0.1-0.2-0.1l0.4-5.6C7.5,28.6,4.6,22.5,7.8,17.7L7.8,17.7z M110.4,17.7c3.2,4.8,0.3,11,0.7,16.5l0.4,5.6
	c-0.1,0-0.1,0.2-0.2,0.1c-0.2-0.6-0.3-1.3-0.4-1.9c-0.8-4.5-4.8-7.7-8.1-10.9c-0.8-0.7-1.4-1.6-1.8-2.6c0.3,2.3,0.9,4.6,1.9,6.6
	c2.6,5.3,7.6,9.5,8.5,15.5c0.4-5.8,4-10,4-16.1c0-5-1.9-9-4.8-12.7C110.6,17.8,110.6,17.7,110.4,17.7L110.4,17.7z M1.6,32.9
	c-0.6,1.5-1,3-1.3,4.6c-0.8,4,0,8.3,1.1,11.9c1.4,4.6,5.9,7.9,8.2,12.1l0.3,0.2c-0.4-2.3-0.4-4.7,0.1-6.9c1-3.5,2.2-6.9,2.9-10.5
	c0.7-2.9,0.9-5.8,0.8-8.7c-0.3,1.5-0.8,2.9-1.5,4.2C9,44.6,5.9,50.1,8,56.2c-0.1,0.1-0.1,0.1-0.2,0.1c-0.9-2-1.1-4.3-1.6-6.4
	C4.7,44.2,0.4,39.5,1.6,32.9L1.6,32.9z M116.6,32.9c1.3,6.5-3.1,11.3-4.6,16.9c-0.6,2.1-0.8,4.4-1.6,6.4c-0.1,0-0.1,0-0.2-0.1
	c2.1-6-1-11.6-4.1-16.4c-0.7-1.3-1.3-2.7-1.6-4.2c-0.2,2.9,0.1,5.9,0.8,8.7c0.6,3.6,1.9,7,2.9,10.5c0.5,2.3,0.6,4.6,0.1,6.9l0.3-0.2
	c2.3-4.2,6.8-7.5,8.1-12.1c1.1-3.7,1.8-7.9,1.1-11.9C117.6,35.9,117.2,34.4,116.6,32.9L116.6,32.9z M12.9,49.2
	c0.6,3.7-0.9,7-1.2,10.6c-0.3,2.8,0.2,5.6,1.4,8.2c0.4,0.7,0.8,1.4,1.1,2.1c-1-1-1.9-2.2-2.6-3.5C8,60.9,0.6,57.2,0.1,50.3
	c-0.3,3.1,0,6.2,1,9.1c1.4,3.8,4.2,6.7,7.3,9.2s7.2,4.6,10.2,6.9c-0.7-1.4-1.4-2.9-1.9-4.4C14.9,64,15.9,55.8,12.9,49.2L12.9,49.2z
	 M105.3,49.2c-3,6.5-2.1,14.8-3.8,21.8c-0.5,1.5-1.2,3-1.9,4.4c3-2.3,6.9-4.3,10.2-6.9s5.9-5.4,7.4-9.2c1-2.9,1.3-6,1-9.1
	c-0.5,6.9-7.9,10.6-11.4,16.4c-0.7,1.3-1.6,2.4-2.6,3.5c0.3-0.7,0.7-1.4,1.1-2.1c1.2-2.6,1.6-5.4,1.4-8.2
	C106.2,56.2,104.7,53,105.3,49.2L105.3,49.2z M16.7,61.1c2.6,5.1,1.5,11.7,4.8,16.5c1.1,1.5,2.4,2.9,3.8,4.2l-0.1,0.1
	c-1.2-0.6-2.4-1.4-3.4-2.3c-5.8-4.8-14.6-5.5-18-13.3C4.8,72,9.4,77.1,14.3,80.4c4.7,3.1,10.8,2.7,16,4.5c-4.8-3.9-5.6-9.8-7.7-14.9
	C21.1,66.7,19.2,63.8,16.7,61.1L16.7,61.1z M101.5,61.1c-2.4,2.6-4.3,5.6-5.9,8.8c-2.2,5.1-2.9,11-7.7,14.9c5.2-1.7,11.3-1.4,16-4.5
	c5-3.2,9.6-8.4,10.5-14.1c-3.5,7.9-12.2,8.5-18,13.3c-1,0.9-2.2,1.7-3.4,2.3l-0.1-0.1c1.4-1.2,2.7-2.6,3.8-4.2
	C100.1,72.8,99,66.2,101.5,61.1L101.5,61.1z M25.1,73.6c3.2,4.2,4.1,10.4,9.8,12.6c1.1,0.2,2.1,0.6,3.1,1c-1.1,0.1-2.1-0.1-3.1-0.4
	c-7.4-1.6-16.5,0.5-22.1-5.9c2.3,4.2,6.1,7.3,10.7,8.8c6.5,2.1,13.2-0.2,19.4-1.8c0.9-0.2,1.9-0.2,2.8-0.4c-3.4-0.7-6.7-1.7-9.3-4.1
	C32.5,80,29.1,76.3,25.1,73.6L25.1,73.6z M93.1,73.6c-4,2.7-7.4,6.4-11.2,9.8c-2.6,2.4-5.9,3.4-9.3,4.1c0.8,0.3,1.9,0.2,2.8,0.4
	c6.1,1.5,12.9,3.9,19.4,1.8c4.5-1.5,8.3-4.6,10.7-8.8c-5.6,6.3-14.7,4.3-22.1,5.9c-1,0.3-2.1,0.5-3.1,0.4c1-0.4,2-0.8,3.1-1
	C89.1,84.1,90,77.9,93.1,73.6L93.1,73.6z M53,87.4c-5.7,0-10.8,2.8-15.8,4.8c-4.5,1.9-10.6,1.5-14.6-1.3c2,2.3,4.5,4.1,7.4,5.1
	c5.1,2,11.1,0.5,15.4-2.3c3.1-2,5.8-4.8,9.5-4.8c0.7,0,1.3,0.1,2,0.2c-5.1,2.2-9.7,5.4-13.7,9.3c0.7,0.8,1.5,1.5,2.4,2.2
	c4.1-4.3,8.8-8.9,13.5-10.8c4.7,1.9,9.4,6.5,13.5,10.8c0.9-0.7,1.7-1.4,2.4-2.2c-3.9-3.9-8.6-7.1-13.7-9.3c0.7-0.1,1.3-0.2,2-0.2
	c3.7,0,6.4,2.8,9.5,4.8c4.3,2.8,10.3,4.3,15.4,2.3c2.9-1,5.4-2.7,7.4-5.1c-4,2.8-10,3.2-14.6,1.3c-5-2.1-10.1-4.8-15.8-4.8
	c-2.1,0-4.1,0.4-6.1,1C57.2,87.8,55.1,87.4,53,87.4L53,87.4z"/>
<path class="st0" d="M67.1,12.2L66.8,12c0,0-0.4,0-0.4-0.2l0,0l0,0c0,0-0.3,0.3-0.4,0.4l0.5,0.2c0.2,0,0.5,0.1,0.6,0.4
	c0,0.1,0.5,0.1,0.5,0.1l0.1-0.3L67.1,12.2z"/>
<path class="st0" d="M81.8,29.4L81.8,29.4L81.8,29.4C81.8,29.4,81.8,29.4,81.8,29.4z"/>
<path class="st0" d="M65.7,12.2c0,0,0.1,0,0.1,0C65.6,12.1,65.5,12.1,65.7,12.2z"/>
<polygon class="st0" points="65.4,13.6 65.4,13.6 65.4,14 65.9,14 65.7,13.7 "/>
<polygon class="st0" points="64.9,12.2 64.9,12.2 64.4,12.1 64.4,12.4 64.8,12.4 65.1,12.8 65.2,12.7 64.9,12.2 "/>
<path class="st0" d="M70.2,17.7c-0.2,0-0.6-0.3-0.5-0.4S68.9,17,68.9,17s-0.7-0.7-0.5-0.6s0.1-0.3,0.1-0.3c-0.2,0-0.4,0.1-0.6,0
	c-0.1,0-0.1-0.4-0.1-0.4c-0.1,0-0.3-0.1-0.4,0l0,0c0,0-0.1,0-0.1,0s0.2,0.1,0.2,0.4s0.1,0.7,0.4,0.8s0.4,0.2,0.5,0.3
	s0.5,0.2,0.5,0.2l0.3,0.2l1,0.9V18C70.4,18,70.4,17.7,70.2,17.7z"/>
<path class="st0" d="M78.5,11.9l0.6,0.2c0,0,0.8,0.9,0.8,0.5c-0.1-1.3-0.7-1.3-0.9-1.6c-0.1-0.1-0.2-0.1-0.3-0.1l0,0
	c-0.3,0-0.8,0.2-0.8,0.5C78,11.6,78.2,11.9,78.5,11.9z"/>
<polygon class="st0" points="81.8,29.4 81.8,29.4 81.8,29.4 "/>
<path class="st0" d="M80.8,26.4c-0.1,0.1,0,0.3,0.1,0.4c0,0,0.1,0,0.1,0c0.2,0,0.3,0.1,0.5,0.2c0.2,0.1,0.3,0.2,0.4,0.4l0.4-0.1
	c0,0,0-0.4-0.1-0.3s-0.3-0.3-0.4-0.3s-0.3-0.2-0.4-0.4S81.2,26,81,25.9c-0.1-0.1-0.2-0.1-0.3-0.1l0,0c0,0-0.1,0-0.1,0.1
	S80.9,26.2,80.8,26.4z"/>
<polygon class="st0" points="65.7,11.5 65.5,11.4 65.5,11.4 65.3,11.8 65.6,11.9 "/>
<path class="st0" d="M82,27.7L82,27.7l-0.5,0c0.1,0.2,0.4,0.3,0.4,0.5s-0.1,0.3,0.2,0.3s0.4,0,0.5,0.2c0.1,0.2,0.1,0.5,0.1,0.7
	c-0.1,0.2,0,0.4,0.3,0.4s0.2,0,0.2,0.2s0.2-0.5,0.2-0.5c-0.2-0.2-0.3-0.3-0.4-0.5c0,0-0.2-0.6-0.2-0.7s-0.3-0.2-0.4-0.2
	C82.2,28,82.1,27.8,82,27.7z"/>
<polygon class="st0" points="79,24.5 79,24.2 79,24.2 78.8,24.2 78.8,24.6 "/>
<polygon class="st0" points="84.4,37.9 84.7,38 84.8,37.8 84.6,37.7 "/>
<path class="st0" d="M83.4,30.9c-0.1,0.1-0.2,0.2-0.3,0.4s0.2,0.3,0.2,0.4s0.1,0.8,0.1,0.8s0.3,0.1,0.3,0.3s0,0.5,0.1,0.6
	s0.4,0.2,0.3,0.4c-0.1,0.2-0.1,0.3-0.1,0.5l0.2,0.4l0.3,0.2c0,0,0.1-1-0.1-1.1s-0.1-0.6-0.1-0.6s0.2-0.8-0.1-0.8s-0.1-0.4-0.3-0.6
	s-0.1-0.7-0.2-0.9s-0.1-0.4-0.3-0.5c0,0,0,0-0.1,0l0,0C83.3,30.4,83.5,30.9,83.4,30.9z"/>
<polygon class="st0" points="84.9,36.6 84.7,36.5 84.7,36.5 84.7,36.9 84.9,36.9 "/>
<path class="st0" d="M77.2,28.8c0,0-0.1,0.8-0.3,1h-0.6c0.1,0.1,0.2,0.2,0.2,0.4c0.1,0.1,0.4,0.4,0.1,0.6s0.1,0.1,0.1,0.1
	s-0.1,0.9-0.4,0.8s-0.5,0.5-0.5,0.6s1.5,0.2,1.3,0s0.2-0.4,0.2-0.4s1,0.1,1.2,0.1s0.4-0.1,0.3-0.3s-0.5-0.2-0.5-0.2
	c-0.3,0.1-0.7,0-1-0.1c-0.5-0.3,0.1-0.3,0.2-0.3s0.5-0.3,0.3-0.5s0-0.6,0-0.4s0.4,0.2,0.6,0.1c0.1-0.2,0-0.5-0.2-0.6
	c-0.2-0.1,0.4-0.2,0.2-0.4c-0.1-0.1-0.2-0.3-0.3-0.5l0,0C77.8,28.8,77.5,28.8,77.2,28.8z"/>
<path class="st0" d="M84.1,59.6L84,59.9c0,0,0.1,0,0.1,0v0.2c0,0,0,0,0,0.1l0.2,0.2c0.1-0.1,0.2-0.3,0.1-0.4
	C84.4,59.8,84.2,59.7,84.1,59.6z"/>
<path class="st0" d="M84.1,59.9"/>
<polygon class="st0" points="84.4,59.1 84.8,59.2 84.8,58.8 84.4,58.8 "/>
<path class="st0" d="M84.4,58.8"/>
<path class="st0" d="M81.8,46.4c0.2,0,0.3,0.1,0.2-0.4c-0.1-0.1-0.2-0.2-0.4-0.2l0,0c-0.4,0-0.8,0.2-0.7,0.4S81.7,46.4,81.8,46.4z"
	/>
<rect x="76.6" y="54.4" class="st0" width="0.3" height="0.8"/>
<path class="st0" d="M54.6,13.8c0,0,0.6,0.1,0.7,0.2s0.5,0.2,0.5,0s0.2-0.4-0.2-0.4s-0.3-0.2-0.4-0.4s-0.3-0.1-0.5-0.1
	s-0.4,0-0.4,0.1C54.4,13.5,54.5,13.7,54.6,13.8z"/>
<polygon class="st0" points="40.9,5.6 40.4,4.7 40.4,4.7 "/>
<polygon class="st0" points="44.3,15.9 44.1,16.1 44.3,16.4 44.5,16.2 "/>
<path class="st0" d="M44.8,13.2l-0.5-0.9l0,0L44.8,13.2z"/>
<polygon class="st0" points="72.8,31.2 72.8,31.5 73.2,31.4 73.2,31.2 "/>
<polygon class="st0" points="81.9,40.7 82.3,40.8 82.4,40.5 81.9,40.4 "/>
<rect x="78.8" y="29.9" class="st0" width="0.2" height="0.3"/>
<polygon class="st0" points="79.6,30.1 79.4,30 79.4,30 79.2,30.3 79.5,30.4 "/>
<polygon class="st0" points="78.1,28.1 78,27.9 77.6,27.9 77.6,28.1 "/>
<polygon class="st0" points="66.3,3.7 66.3,3.6 66.8,3.3 66.7,3.1 66.7,3.1 66.3,3.4 66,3.2 65.9,3.4 66.2,3.6 "/>
<rect x="78.3" y="28.2" class="st0" width="0.2" height="0.2"/>
<path class="st0" d="M73.2,31.2"/>
<polygon class="st0" points="74.1,31.9 73.9,32.2 74.2,32.3 74.3,32 "/>
<path class="st0" d="M74.8,32.5c-0.2,0-0.3,0-0.5,0c-0.2,0-0.2,0.2,0,0.4l0.5-0.1c0,0,0.4-0.2,0.3-0.3S74.9,32.5,74.8,32.5z"/>
<polygon class="st0" points="80.8,40.8 80.7,40.9 80.4,41 80.1,40.9 80,41.1 80.3,41.3 80.4,41.3 80.5,41.3 80.7,41.2 80.7,41.2 
	81,41.2 80.9,41 "/>
<path class="st0" d="M70.9,31.9"/>
<path class="st0" d="M56.7,48L56.7,48l-0.4,0l0.1,0.6l0.2,0.2l0.5,0.1c0,0,0.6-0.2,0.7-0.7l-1,0L56.7,48z"/>
<path class="st0" d="M60.3,45c0.2,0,0-0.6,0-0.6l0,0L59.5,45c0.4,0,0.4,0.4,0.5,0.6C60.1,45.9,60.1,45,60.3,45z"/>
<polygon class="st0" points="62.5,56.7 62.8,56.2 62.6,56.1 62.6,56.1 62.3,56.3 62.4,56.5 "/>
<polygon class="st0" points="67.7,54.8 67.5,54.6 67.2,54.8 67.3,55 "/>
<path class="st0" d="M62.7,45c0.2,0.1,0.6-0.1,0.3-0.3c-0.6-0.4-0.6-1-0.8-1.4c0-0.1-0.1-0.1-0.2-0.2l0,0c-0.1,0-0.2,0-0.2,0.2v0.6
	C62.1,44.3,62.4,44.7,62.7,45z"/>
<path class="st0" d="M66.2,51.7"/>
<polygon class="st0" points="55.9,40.2 55.5,40.2 55.5,40.2 55.4,40.4 55.2,40.4 55.1,40.7 55.4,40.7 55.4,41 55.2,41.2 55.2,41.4 
	54.8,41.5 54.1,42.2 54,42.5 53.8,42.8 53.6,43.5 52.7,43.5 52.5,44.3 52.6,44.9 53.4,45.2 53.5,44.8 53.7,44.7 53.8,44.2 
	53.9,43.9 54.2,43.6 54.3,43.3 54.7,43 55.2,43 55.4,42.7 55.5,42.2 55.5,41.8 55.7,41.5 56.2,41.3 56.2,40.5 56,40.5 "/>
<path class="st0" d="M59,34"/>
<path class="st0" d="M41.6,46.4L41.6,46.4c-0.1,0-0.2,0.1-0.2,0.1c0,0,0,0,0,0l0,0c0,0.1,0.1,0.2,0.2,0.2c0,0,0,0,0,0
	c0.1,0,0.2-0.1,0.2-0.2c0,0,0,0,0,0C41.8,46.4,41.7,46.3,41.6,46.4z"/>
<path class="st0" d="M43.5,44.8"/>
<path class="st0" d="M58,51.4c0,0-0.1,0.2-0.4,0c0,0-0.1-0.1-0.1,0l0,0c-0.2,0-0.4,0.7-0.5,0.8s0.1,0.4,0.3,0.3s0.3-0.1,0.5-0.1
	s0.2-0.3,0.3-0.6C58.1,51.7,58.1,51.5,58,51.4z"/>
<path class="st0" d="M63.1,67.2"/>
<path class="st0" d="M78.1,62.6c-0.2-0.1,0.2,0.2,0.3,0.4c0.1,0.1,0.2,0.2,0.3,0.1c0,0,0.1-0.1,0.1-0.1c0-0.2,0.1-0.3,0.1-0.5
	l-0.2-0.2C78.5,62.6,78.2,62.8,78.1,62.6z"/>
<path class="st0" d="M82,63.2L81.8,63L81.8,62c0.2-0.6-0.8-1.4-0.9-1.2s-0.6,0-0.6,0.2s-0.3,1-0.2,1.3c0,0,0,0,0,0l-0.4,1
	c-0.1,0.2-0.2,0.4-0.2,0.6l0,0l0.4,0.2l0.1,0.7c0.4,0.3,0.9,0.3,1.4,0.2l0.7-0.7C82,63.9,82,63.2,82,63.2z"/>
<path class="st0" d="M58.3,51.1L58.3,51.1c0,0-0.1,0.4,0,0.5s0.1,0.1,0.2,0.2L58.5,52c-0.1-0.2-0.2,0.1-0.1,0.2s-0.2,0-0.2,0.1
	s-0.1,0.2,0,0.3s0,0.1-0.1,0.2s0.5,0.1,0.5,0.1s-0.1-0.3,0-0.3h0.1l0.1-1.6L58.3,51.1z"/>
<path class="st0" d="M69.3,30.4c0-0.2-0.4-0.4-0.4-0.1s-0.3,0.4-0.4,0.3s-0.3,0.2-0.3,0.2s-0.1,0.3,0.2,0.4s0.7-0.2,0.8,0.1
	c0,0.1,0,0.2,0.1,0.2l0.7-0.7C69.7,30.6,69.3,30.5,69.3,30.4z"/>
<path class="st0" d="M72.1,31.6c0-0.2-0.5-0.8-0.8-0.8l0.8,0.9C72.1,31.7,72.1,31.7,72.1,31.6z"/>
<path class="st0" d="M70.9,31.7L70.9,31.7l0.5,0.1L70.6,31l-0.8,0.8h0.2C70.4,31.8,70.6,31.7,70.9,31.7z"/>
<path class="st0" d="M72,32.8"/>
<path class="st0" d="M54.7,59.2l-0.4,0.1l-0.2,0.4l-0.5,0.2l-0.1,0.9l-0.2,0.2v0.4l-0.3,0.1v0.2h-0.4l0.2,0.6l0.3,0.2
	c0.6,0.1,0.3,0.8,0.3,0.8l0.3,0l0.2,0.5l0.3,0.7c0.1,0.5,0.5,0.4,0.7,0.4s0.3,0.5,0.3,0.5H57c0,0-0.1,0.2,0.2,0.3
	c0.5,0.1,0.9,0.1,1.4,0.1l1-0.3c0.2-0.1,0.5-0.2,0.7-0.1c0.2,0,0.5,0.1,0.7,0.2c0.3,0.2,0.7,0.2,1.1,0.1l0.5,0.6l0.5,0.9l0,0
	l0.1,0.2l0.7,0.2l0.5,0.1l0.2,0.7l0.4,0l0.1,0.5c0.5,0.3-0.1,1.1-0.1,1.1v0.9l0.3,0.2v0.4l0.6,0.6l0.6,0l1,1.1l1.1,0.8l0.7,0.2
	l0.2,0.7h0.3l0.2-0.2h1l0.5-0.5l0.6-0.1l4-3.4l0.3-1.4v-0.4c0.8-0.6,0.8-1.5,0.1-1.6c-0.5-0.1-0.3-0.6,0.2-0.7l0.3-0.1V66l1-0.9
	v-0.7l-2.1-1.8c-0.4-0.1-0.5-0.7-0.3-1.2l1.2-2.5c-0.1-0.6-0.2-1.2-0.3-1.8L76.1,57l0.1-1h-0.5L75,57l-0.1,0.3l-0.5,0.9
	c-0.8,0.3-1.6,0.3-2.4,0.1c-0.3-0.2-0.7-0.4-1-0.5c0,0-0.7-0.5-0.8-0.4s-0.7-0.2-0.7-0.1S68.9,57,68.9,57L68,56.7l0.6-0.1l-0.1-0.4
	c0,0,0,0,0.1,0l0,0l1,0.5c0.1,0.2,0.7,0.1,0.7,0.1l0.2,0.2c0.2,0,0.4,0.1,0.6,0.2c0.2,0.3,1.3,0.1,1.3,0.1l0.3,0.2l0.4,0.2h0.8
	l0.6-0.8l0.2-0.2l-0.1-0.5l0.3-0.2v-0.4l0.2-0.1v-0.9l0.2,0v-2l-0.6-0.6c-0.1,0.2-0.7,0.2-0.7,0.2s-0.2,0.3-0.3,0.3s0.2,0.4,0.1,0.6
	s-0.4,0.2-0.4,0.2l-0.6,0.2l-0.2,0.2H72v-0.4c0.1-0.1,0.1-0.2,0.2-0.2l0.5-0.1l0.4-0.2l0.2-0.4c0.1-0.4,0.6-0.4,0.6-0.4s1-0.8,1-1.2
	s0.4-1.5,1-1.5H77c0.4-0.2,0.3-0.7,0.3-0.7l0.6-0.1l0.1,0.3c0,0,0.8,0.1,0.8,0s0.2-0.4,0.4-0.3s0.9-0.3,0.9-0.3
	c0.1-0.3,1.1-0.2,1.1-0.2l0.1-0.4c0,0-0.7-1-0.8-1s-0.8-0.6-0.9-0.4c-0.7-0.2-0.6-1.1-0.6-1.1l-0.2-0.6c0-0.4-0.6-1.1-0.8-1
	c-0.2-0.1-0.3-0.4-0.3-0.6l0,0l0.8-1c0,0,0.1-0.1,0.1-0.1l0.2-0.6l0.7-0.2l0.1-0.6h-0.3c0,0,0.4-0.8,0.6-0.8c0.6,0,1.1,0,1.7-0.1
	c0.2-0.3,0.3-0.6,0.4-0.9c0-0.1,0.3-0.2,0.5-0.2c0.2-0.1,0.4-0.3,0.5-0.6c0.1-0.2-0.2-1.2-0.4-1.1c-0.2,0.1-0.4,0.2-0.6,0.2
	l-0.1,0.5l-0.2,0.2c0,0.1,0,0.3,0,0.4c-0.1,0.3-0.4,0.5-0.4,0.5l-0.2,0.2c-0.4,0-0.8,0-1.1,0c-0.4-0.2-0.1-0.7,0.1-0.6
	S80,37.3,80,37.3l0.3,0c0,0,0.1-0.8,0.2-0.8s0-0.2-0.2-0.4s-0.4-0.5-0.6-0.5c-0.3,0-0.6,0-0.8,0l-0.1,0.2l-0.5,0.1
	c0,0,0.1,0.3,0,0.4c-0.2,0.3-1.2,0.9-0.8-0.1l0.1-0.2v-0.4l-0.8,0c0,0-0.4-0.1-0.4-0.3c0-0.1,0-0.3,0-0.4l-0.9-1l-1.1-0.1l-0.1-0.2
	l-0.6-0.1c-0.1,0-0.2-0.1-0.3-0.1l-1,0.3c-0.1,0.1-0.1,0.3,0,0.4c0.1,0.6,0.3,0.9-0.1,0.9c-0.2,0-0.4-0.1-0.5-0.3c0,0-0.3-0.1-0.3,0
	s-0.1,0.5,0,0.7s-0.2,0.4-0.3,0.3s-0.5-0.5-0.4-0.6s-0.6-0.9,0.1-1.1s0-0.5,0.2-0.6l0.3-0.2h0.3l0.2-0.2l0,0l-0.5-0.1l-0.3,0l-0.6,0
	c-0.4,0.2-0.6,0.5-0.8,0.9c-0.3,0.6-0.9,0-0.9-0.4l-1.5,0c-0.2,0-0.4,0-0.4,0c-0.1,0.4-0.7-0.1-0.6-0.3c0.1-0.1,0.2-0.3,0.2-0.4
	l-0.2,0L66.2,33c-0.6,0-0.8,0.3-0.6,0.6s-0.2,0-0.3,0.2s0.1,0.3,0.3,0.4s-0.1,0.1,0.1,0.3s0.4,0.1,0.4,0.1l-0.3,0.3
	c-0.2,0-0.4,0-0.6,0c0,0.1-0.1,0.1-0.1,0.2c-0.7-0.6-1.4-1-2.2-1.3c0.1-0.1,0.4-0.1,0.4-0.4c0.1-0.4,0.2-0.8,0.3-1.2
	c0,0-0.7,0-0.7,0.2s-0.5,0.3-0.5,0.3s-0.3,0.1-0.2,0.3s-0.3,0.2-0.3,0.2c0,0.1,0,0.2,0,0.2l-2.7,0.6l0,0l0.1,1L58.8,35h-0.3
	l-0.1-0.2h-0.2v0.8l0.2,0.2l0.2,0.2l0.4,0l0.1,0.5l1.1,0l0.1,0.2l0.6,0l1.2,1.2l-0.1,0.4l-0.2,0.1c0.1,0.3-0.6,0.1-0.6,0.1V39l0.3,0
	l0.3,0.2l0.4-0.7c0.4-0.3,0.7,0.1,0.7,0.4s-0.2,0.2-0.2,0.2v0.6l0.3,0.1c0.2,0.2,0.2,0.5,0,0.7c0,0-0.1,0.1-0.2,0.1L62.8,41
	c-0.1,0.4-0.6,0.3-0.6,0.3L62,41.6l-0.5,0.1l1,0.1c0.1-0.4,0.4-0.4,0.5-0.3c0.1,0.2,0.1,0.3,0.1,0.5l0.3,0v0.5l0.2,0.1V44l0.3,0.3
	c0.5-0.2,0.5,0.1,0.3,0.3s-0.1,0.9-0.1,0.9l-0.2,0.2v0.4l-0.2,0.2v0.5c-0.3-0.2-0.7-0.2-1.1,0c-0.4-0.2-1.2-0.2-1.2,0
	c0.2,0.3-0.3,0.4-0.3,0.4l-0.3,0.3c0.2,0.4-0.2,0.5-0.2,0.5v0.8l-0.5,0.5v0.8l1.3,0.8l0.1,0.1h0.4v-0.2l-0.2-1v-0.9l0.4-0.5h0.1l0,0
	c0.4,0,0.3,0.9,0.2,1.1v1.1l0,0c0,0.1,0,0.2,0.1,0.2l0.2,0.1l-0.4,0.3L62,51.6l-0.4-0.1l-0.5,0l-0.2-0.3l-0.3,0l-0.1,0.6l-0.2,0.2
	l-0.5,0.5c0.5,0,0.2,0.3-0.1,0.4l-1,0.3h-0.2v0.3l-0.3,0l0.3,0.3h0.2v0.8c0,0.6-1.4,0.2-1.5,0l-0.1,0.8l-0.2,0.1L57,56l-0.1,0.7
	l0.5-0.1V57l1.1,0l0.2-0.2l1-1.1l0.4-0.5l1-0.2c0.1-0.4,0.5,0.1,0.5,0.1c0.4,0,0.5,0.2,0.5,0.2l0.6,0.1c0.4,0.1,0.2,0.2,0.2,0.4
	s0.2,0.2,0.2,0.2l0.1-0.6l0.2,0.1l-0.2-0.3L62.8,55l-0.5-0.2c-0.3-0.5,0.1-0.4,0.4-0.3h0.3c0.3,0.3,0.5,0.7,0.6,1.1
	c0,0.2,0.3,0.2,0.3,0.2l0.4,0l0.1,0.3h0.4l0.1,0.2h0.8v-0.4l-0.7-0.1L65,55.3l-0.5-0.1c-0.2-0.7,0.1-0.9,0.3-0.6l0.3,0L65,54
	l0.3-0.1l-0.1-0.9L65,53v-0.4l1.1,0c-0.1-0.3,0-0.5,0.1-0.8h0.3l0.1,0.2l1.3,0.1l0,0c0.5,0.3,0.2,0.7,0.1,0.8
	c-0.1,0.1-0.3,0.1-0.4,0.1l-0.1,0.2l-1.1,0.1l-0.1,0.4c-0.3,0-0.6,0.2-0.7,0.5c0,0.1,0,0.2,0,0.3c0.1,0.2,0.1,0.4,0,0.5l0.5,0.2
	l0.6-0.2c0.1-0.4,0.5-0.5,0.8-0.8s0.9,0.5,0.7,0.8c0,0,0,0.1-0.1,0.1c-0.6,0.4-1.3,0.8-2,1.2l0,0c-1.1,0.6-2.3,1-3.5,1.2h-0.1
	L62,57.5v-0.6c-0.1-0.4-0.9-0.4-0.8-0.1s-1.5,0.1-1.5,0.1l-1,0.7l-0.8,0.1l-0.3,0.2l-0.1-0.2h-0.3l-0.2,0.3l-1.6,0.7
	c-0.1,0.1-0.1,0.2-0.1,0.2C55.1,58.9,54.7,59.2,54.7,59.2z M68.1,50.3c0-0.3,0.1-0.6,0.1-0.7s0.2-0.3,0.4-0.3l0,0
	c0.1,0,0.2,0.1,0.2,0.2c-0.1,0.2-0.1,0.4,0,0.6c0.6-0.5,1,0,1,0.2s0.3,0.3,0.5,0.1s0.4,0.4,0.4,0.6s-0.8,0.2-0.9,0s-0.2-0.2-0.2,0
	c-0.2,0.1-0.4,0.2-0.6,0.1l-0.2-0.2c0,0,0.1-0.1,0-0.1s-0.1,0-0.2,0L68.1,50.3z"/>
<path class="st0" d="M89.9,26.9c0,0-0.6-0.4-0.6-0.6s-0.6-0.6-0.6-0.8s-0.6-0.5-0.5-0.7S88,24.1,88,24.1l-0.6-0.6l-0.1-0.4l-0.5,0
	l-1-1.2l0.1-0.4l-0.3,0v-0.5l-0.3-0.2l-0.4,0l-0.9-1l-0.1-0.5h-0.4l0.1-0.7l-0.3-1.1c-0.1,0.1-0.3,0.1-0.4,0
	c-0.3-0.1,0.1-0.4,0.1-0.4v-0.3l-0.2-0.2c0,0-0.7,0.1-0.8,0s-0.2-0.7-0.2-0.7l-0.1-0.7l-0.3-0.1l-0.1-0.3l-0.5,0.1v-0.5L80.5,14
	l-0.3-0.1l-0.1-0.5h-0.9l-0.3-0.4l-0.3-0.5l-1.1-0.1l-0.2-0.2L76.8,12l-0.3-0.1l-0.1,0.2l-0.8,0v0.2c-0.5,0.1-1,0.2-1.5,0.1
	l-0.9,0.7c-0.1,0.1-0.1,0.2-0.2,0.2S72.9,14,72.9,14c0.2,0,0.5,0,0.7,0c0.2,0,0.2,0.5,0.2,0.5c0.6,0,0.9,0.8,0.8,1s0.3,0.2,0.3,0.2
	c0,0.3,0,0.6-0.1,0.9c-0.1,0.2,0.6,0.3,0.7,0.6c0.1,0.4,0,0.8-0.2,1.2c-0.1,0,0.3,0.2,0.3,0.4s0.1,0,0.2,0.4s0.1,1.1,0.1,1.1h0.6
	c0.1-0.6,1.2-0.6,1.3-0.5c0.6,0.3,1.1,0.9,1.3,1.6c0,0.2-0.4,0.3-0.4,0.3v0.3l0.3,1.1c0.6,0.4,1,1.1,1,1.3s0.5,0.1,0.5,0.1
	c0.1-0.8,0.8-0.5,0.8-0.2s0.2,0.8,0.2,0.8l0.2,0.4l0.3,0.3l0.5,0l0.1,0.3l0.6,0.1c0.2,0.2,0.4,0.4,0.5,0.6c0,0.1,0.7,0.1,0.8,0.1
	s0.4,0.2,0.4,0.4c0.1,0.2,0.2,0.4,0.3,0.6c0,0,0.5,0.1,0.6,0.3c0.1,0.2,0.2,0.4,0.2,0.6l0.4,0.4v0.4l0.5,0l0.1,0.5l0.8,0l0.4-0.3
	c0.1-0.1,0.2-0.1,0.4-0.2l0.7-0.9c0.1-0.2,0.2-0.5,0.5-0.4C90.2,27.9,89.9,26.9,89.9,26.9z"/>
<path class="st0" d="M84.2,37.6c-0.1-0.1,0.1-0.7,0.1-0.7c0.1-0.2,0.1-0.5,0-0.7c-0.1-0.3,0-0.6,0.2-0.9l-0.3-0.2l-0.3,0l-0.2,0
	c-0.1-0.3-0.2-0.5-0.2-0.8l0,0l0.2,0v-0.2L83.2,34c0-0.2-0.1-0.4-0.2-0.5L83,32.6l-0.3-0.2l0.1-0.3L82.4,32l0.2-0.6l-0.3-0.6h-0.4
	c-0.2-0.4-0.4-0.8-0.6-1.2c0.1,0,0.1-0.1,0.2-0.1l0.3-0.1l0,0L81.7,29l-0.4-0.3l-0.1-0.5c0,0-0.5,0.1-0.4,0.3c0,0.1,0,0.1-0.1,0.1
	c-0.3-0.5-0.6-0.9-0.9-1.4c0,0,0,0,0-0.1c0.2-0.3,0.1-0.5-0.2-0.6s-0.3-0.1-0.4-0.4c-0.1-0.2-0.2-0.4-0.4-0.4l-0.1-0.5l-0.3,0.2
	l-0.5-0.6l0.2-0.5c-0.1,0-0.3-0.1-0.3-0.2l-0.5-0.9c-0.1-0.1-0.3-0.1-0.4-0.1s-0.1-0.9-0.1-0.9s0.4-0.3,0.6-0.1s-1.4-2.1-1.8-1.9
	s-1.1-0.2-1.1-0.6S72.8,18,72.8,18s-0.5-0.3-0.6-0.1s-0.3,0.4,0,0.6s0.2-0.2,0.5,0.1s0.8,0.7,0.6,0.9c-0.1,0.1-0.3,0.3-0.5,0.3
	l0.3,0.4h0.5l0.1,0.7c0.3,0.1,0.5,0.3,0.6,0.5c0.1,0.1,0.1,0.3,0.1,0.5l-0.4,1c0,0.2,0.2,0.4,0.4,0.4h0.2l0.4,0.3V24
	c0.4,0,0.7,0.2,0.8,0.6l0.7,0.7l0,0c0.2,0.2,0.1,0.2,0.4,0.4c0.1,0.1,0.1,0.1,0.2,0.1c0.1,0.1,0.3,0.3,0.4,0.5l-0.1,0.1
	c0,0.5,0.2,0.4,0.4,0.3c0.1,0.1,0.1,0.2,0.2,0.2c0,0.3,0,0.7,0.5,0.6l0,0c0.5,0.7,1,1.5,1.5,2.3v0l0,0c0.1,0.1,0.1,0.2,0.2,0.4
	c-0.1,0.1-0.1,0.1-0.2,0.2l-0.7,0.1v0.7l-0.3,0.1l0.1,0.4l0.5,0c0,0,0,0.5,0.1,0.3s1.2,0,1.1,0.6c0,0.2,1.1,0.8,0.9,1.5l0.2,0.1
	c0.2,0.6,0.4,1.2,0.5,1.8L82.6,36c0.1,0,0.1,0.1,0.1,0.1c0.1,0.5,0.2,1.1,0.3,1.6c0,0.5-0.1,0.9-0.4,1c-0.5,0.3,0,0.1,0,0.1
	l-0.1,0.9c0.1,0.4,0.3,0.2,0.5,0c0.1-0.1,0.1-0.2,0.2-0.2l0.8-1.6C84.2,37.8,84.3,37.7,84.2,37.6z"/>
<path class="st0" d="M71.6,19.7c-0.1-0.3,0.3-0.4,0.6-0.1h0.4l0.1-0.4l-0.6-0.5h-0.5c0,0-0.1,0.3-0.3,0.2c-0.1-0.1-0.2-0.1-0.4-0.1
	c-0.2-0.1-0.2,0.4-0.1,0.7l0.9,0.5C71.6,19.9,71.6,19.8,71.6,19.7z"/>
<path class="st0" d="M59.9,12.7c0-0.2,0.1-0.2,0.3-0.2s-0.1-0.6-0.3-0.5c-0.2,0-0.3,0-0.5-0.1v1.1C59.7,12.9,59.8,12.8,59.9,12.7z"
	/>
<path class="st0" d="M53.9,48c0.1-0.2,0.3-0.3,0.6-0.4l0.1-0.3l1.1,0c0-0.2,0.2-0.3,0.3-0.3c0.1,0,0.3,0.1,0.3,0.2
	c0,0.2,0.4,0,0.4,0l0.3-0.5h0.5l0.1-0.5l0.2-0.1v-0.8c0.4-0.1,0.6-0.5,0.6-0.9l0.2-0.2l-0.1-0.3c-0.3-0.1-0.2-0.4,0.1-0.4
	s-0.3-0.4-0.3-0.4c-0.2,0.2-0.5-0.2-0.5-0.2h-0.7v-0.6L57,41.9l-0.6-0.3l-0.5,0.4l-0.1,0.6V43l-0.4,0.1l-0.1,1.2L55,44.4l0.1,0.4
	L54.6,45l-0.4,0.1l-0.1,0.6l-0.3,0.2l-0.2,0.5l-0.2,1.2L53.9,48C53.9,48.1,53.9,48.1,53.9,48z"/>
<path class="st0" d="M57.7,36.2c-0.5,0,0-0.4,0-0.4l0.1-0.6h-0.5l-0.1-0.9L56,33.6v-0.5l0.2-0.1l-0.3-0.1l-0.3,0.3l-0.1,0.4
	l-0.5,0.1v0.2h-0.3v0.3c-0.6,0.3-1.2,0.8-1.7,1.2h-1.4h-0.4c-0.2,0.4-0.6,0-0.6,0c-0.1-0.2-0.7,0-0.7,0c0,0.5-0.8-0.2-0.8-0.2
	L47.7,34c-0.8-0.8-2.1,0.2-2.2,0.4s-0.2,0.3-0.5,0.3l-1-0.2c-0.2,0-0.4,0-0.4,0.2c-0.1,0.3-0.7,0.2-0.7,0.2l-0.1,0.2l-0.4,0.1
	l-0.1,0.2l-0.5,0.1l1.3,0c0.3,0-0.1,0.7-0.3,0.7h-0.6L42,36.3h-0.6l-0.2,0.4h-0.8c0,0-0.5,0.4-0.4,0.5s-0.1,0.5-0.2,0.5
	s-0.4,0.4-0.3,0.5s-0.2,0.6-0.2,0.6l-0.1,0.4l-0.2,0.1v1.2l-0.5,0.3v0.5l-0.2,0.2l-0.5,1v0.2L37,43.4l0.1,0.7l-0.4,0.1l-0.1,0.3
	l-0.2,0.9l0.4,0c0.2-0.1,0.2,0.6,0,0.6s-0.6,0.2-0.4,0.4s-0.7,0.1-0.7-0.1s-0.5-0.5-0.6-0.4S35,46,35,45.8l-1.1-0.4
	c-0.3,0-0.6,0.1-0.9,0.2l-0.2,0.7c-0.4,0.1-0.8,0.9-0.8,0.9c-0.4,0.1-0.7,0.6-0.6,0.7s-0.2,0.2-0.2,0.2v0.9L31,49.4v1
	c0.2,0,0.2,0.5,0.2,0.5c-0.4,0-0.3,0.6-0.3,0.6L30,51.8L29.9,52l-1.1,0l-0.3,0.3l0,0L27.3,52h-1.2L26,51.8l-0.4-0.1l-0.1-0.5l-0.6,0
	l-0.1,0.3l-0.7,0c0,0.4-0.7,1.1-0.8,0.9s-0.6-0.6-0.3-0.7c0.2-0.1,0.5-0.1,0.8-0.2v-0.3h-1.6L22,51.5h-0.6v0.7l-0.3,0.1
	c-0.2,0.1,0,0.6,0,0.6c0.3,0.3,0,0.8,0,0.8c-0.2,0.2,0.2,0.7,0.2,0.7c0.3,0.1-0.2,0.3-0.2,0.3c0,0.2,0.1,0.4,0.3,0.5
	c-0.1,0.2-0.1,0.5,0.1,0.6c0,0,0,0,0.1,0v0.7l0.3,0.2v0.5l0.2,0.3h0.7v-1.1c-0.6-0.7,0.5-0.9,0.6-0.6s0.5,0.4,0.5,0.4
	c0.1,0.6,0.8,1,1,0.4s0.4-0.2,0.5,0c0.3,0.4,0.6,0.7,0.9,1h0.6l0.1,0.6c0.7,0,0.9,0,1.2,1c0.1,0.6,0.6,1,1.1,1.2h0.6
	c0-0.5,0.6,0.1,0.6,0.4s1.1,1.2,1.1,1.2l1.1,0.2l0.2,0.2l1.8,0.6h0.2c0.1-0.2,0.2-0.3,0.4-0.3c0.4,0.1,0.7,0.3,0.9,0.6
	c0.1,0.1,0.2,0.2,0.3,0.3l1.1,0.4c0.1,0.1,0.1,0.2,0.1,0.4c0.1,0.6,0.4,0.5,0.4,0.5l2.4,0l0.8-0.7l2.2,0c1.1,0,0.4-1.5,0.2-1.5
	c-0.1-0.1-0.2-0.3-0.1-0.5l-2.1-3.3c-0.3-0.4-0.7-0.7-1-1.1c0.1-0.2,0.1-0.4,0.2-0.5c0.6-0.4-0.1-0.9-0.1-0.9c0-0.4-0.1-0.8-0.3-1.1
	c-0.5-0.4-0.7-0.9-0.6-1.5v-0.7c-0.6-0.6,0.3-0.7,0.3-0.7c0.2-0.3,0.1-0.7-0.2-0.9v-0.5L39,50.8l-0.1-2l-1.5-2.2
	c-0.3-0.1-0.1-0.6-0.1-0.6c0.4-0.2-0.1-0.7-0.1-0.7v-0.9l0.9-0.1l0.2-0.3h0.4l-0.1-1.1c0-0.2,0.2-0.3,0.3-0.3h0.2
	c0.1,0,0.1,0,0.2,0.1l0.6,0v-0.1l0.3-1l0,0l-0.4,0c-0.5-0.3-0.3-1.4-0.3-1.4c0.2-0.4,0.6-0.6,1-0.7c0.2,0,0.5,0.1,0.7,0.2l0.6,0
	c0.1,0.1,0.2,0.2,0.3,0.3c-0.1,0.4-0.1,0.8-0.1,1.2l-0.1,0.2C42,41.3,42,41.4,42,41.6v1l0.2,1.1l-0.6,0.5c-0.4,0.2-0.4,0.9,0,1
	c0.3,0,0.2,0.9-0.3,0.3c-0.7,0,0.2,0.6,0.2,0.5c0.7,0.3,0.5-0.4,0.5-0.4l0.4-0.3l0.9-0.5l0,0c0.3,0.2,0.6,0.5,0.8,0.8
	c0.6,0.1,1.1,0.1,1.7,0c0.3,0.3,0.5,0.6,0.6,1.1c0.5-0.6,1.4,0,0.7,0.3c0.7,0.4,0.7,0.8,0.7,0.8c0.6-0.2,0.6,0.2,0.6,0.4
	c0.1-0.2,0.1-0.4,0.2-0.6c-0.6-0.5,0.8-0.6,0.4,0.2l-0.2,0.4l0.4,0.3v1c0.9-0.1,0.7-1.2,0.7-1.2l0.4-0.1c0-0.4,0.3-0.2,0.3-0.2
	c-0.2-1,0.2-1.5,0.5-1.6l0.7-0.8c0-0.2,0.1-0.4,0.1-0.6c-0.4-0.2-0.2-0.8,0.3-0.2s-0.3-1-0.3-1l-0.3-0.3l-0.4,0l-1,0.1l-0.2,0.1
	l-0.1-0.2l-0.2,0.5h-0.8l-0.1-0.5l0.5-0.1l0.2-0.3l0.1-0.4h0.7l1-1c0.1-0.1,0.2-0.1,0.2,0l0.3,0.2l0.4,0.3l0.1,0.2l-0.3,0.1
	l-0.1,0.4l0.1,0.5h0.3c0.1-0.4,0.5-0.6,0.9-0.5c0.2,0,0.3,0.1,0.4,0.3l0.2-0.6c-0.6-0.3,0-0.8,0.1-0.6s0.6-0.6,0.6-0.6
	s0.3,0.4,0-0.1c-0.2-0.2-0.1-0.6,0.1-0.7c0,0,0,0,0.1,0c-0.1-0.5,0.6-0.4,0.6-0.4v-0.7h-0.6c-0.1,0.6-0.6,0.1-0.4,0
	c0.2-0.1,0.4-0.2,0.5-0.4v-0.4l0.2-0.1v-0.4h0.6l0.6-0.2l0.1-0.2h0.6l0.8-0.8L57.7,36.2z"/>
<path class="st0" d="M76.7,60.4"/>
<polygon class="st0" points="42.5,45.3 43.5,44.8 43.5,44.8 "/>
<polygon class="st0" points="34.6,73.1 34.6,73.1 34.9,73.6 35,74 35.4,74.1 35.5,74.4 35.9,74.2 35.6,73.7 35.1,73.2 "/>
<polygon class="st0" points="56.2,71.6 56.4,71.4 56.5,71.2 56.3,71.2 55.9,70.9 55.8,71.2 56.1,71.3 56,71.4 "/>
<polygon class="st0" points="52.9,67.9 52.7,68.1 52.5,68.2 52.7,68.3 53,68.5 53.1,68.3 53,68.2 53.1,68.1 "/>
<polygon class="st0" points="23.2,59 23.2,59.5 23.5,59.5 23.4,58.9 23.1,58.8 23.1,58.5 22.9,58.5 22.9,59 "/>
<polygon class="st0" points="25.8,62.1 26.2,62.5 26.4,62.2 26.1,61.6 25.8,61.4 25.6,60.8 25,60.5 25,60.5 25.3,61.3 25.4,61.6 "/>
<path class="st0" d="M63.1,67.2"/>
<path class="st0" d="M95.2,55.2H95l0,0c0,0.2,0,0.5,0.2,0.5l0.1-0.2l0,0C95.3,55.4,95.3,55.3,95.2,55.2z"/>
<path class="st0" d="M96.6,54.2c0.1,0,0.1,0,0.2,0l-0.1-0.3c0,0,0.1,0,0.1,0.1v-0.1c0-0.1,0-0.2-0.1-0.3l0,0l-0.2,0.1
	c0,0.1,0,0.1,0.1,0.2C96.5,54,96.5,54.1,96.6,54.2z"/>
<path class="st0" d="M96.6,54.6c-0.1-0.2-0.1-0.3-0.2-0.5l0,0l-0.2,0c0.1,0.3,0.1,0.5,0.1,0.5L96.6,54.6z"/>
<path class="st0" d="M94,49.9c0,0-0.1,0-0.1,0c-0.2,0-0.4,0.1-0.5,0.2l0.2,0.2c0.1-0.1,0.3-0.1,0.4-0.1l0,0h0.3
	C94.2,50.1,94.1,50,94,49.9z"/>
<path class="st0" d="M94.9,55.7L94.9,55.7c-0.1,0-0.2,0.1-0.3,0.1c-0.3,0.1-0.1,0.8,0,0.6s0.4,0,0.4-0.5
	C95,55.7,94.9,55.7,94.9,55.7z"/>
<polygon class="st0" points="61.5,32.7 61.5,32.4 61.5,32.4 61.2,32.4 61.3,32.7 "/>
<polygon class="st0" points="63.9,32 63.8,31.8 63.7,31.8 63.8,32 "/>
<rect x="64.6" y="31.4" transform="matrix(0.9989 -4.640909e-02 4.640909e-02 0.9989 -1.394 3.0545)" class="st0" width="0.9" height="0.2"/>
<polygon class="st0" points="64.2,31.7 64.1,31.3 64.1,31.3 63.9,31.4 64,31.8 "/>
<polygon class="st0" points="60,31.6 59.8,31.5 59.8,31.5 59.7,31.8 60,31.8 "/>
<rect x="60.9" y="32" class="st0" width="0.3" height="0.2"/>
<polygon class="st0" points="60.6,31.7 60.3,31.7 60.3,31.7 60.3,31.9 60.6,32 "/>
<path class="st0" d="M67.3,5c-0.2,0.1-0.4,0.1-0.6,0h-0.8c0-0.1-0.2-0.2-0.4-0.2l0,0c-0.2,0-0.4,0.1-0.4,0.2s-0.3,0.2-0.3,0.2
	l-1,0.1c-0.1,0.2-0.6,0.4-0.6,0.2l0,0c-0.1-0.4-0.6,0.5-0.1,0.6c0.4,0.1,0.7,0.1,1.1,0L64.4,6h2.1c0.1-0.1,0.2-0.3,0.3-0.4
	c0,0,0.5-0.2,0.7-0.1S67.6,4.9,67.3,5z"/>
<path class="st0" d="M63.4,7.7l-0.6-0.6V6.6l-0.2-0.2l-0.2-0.6l-0.6-0.2l-0.6,0.2l-0.6,0.4l-0.6,0.1l-0.3,0.4l1.4,0.1l0.2,0.4l1,0.1
	L63,8C63.6,8.2,63.7,8,63.4,7.7L63.4,7.7z"/>
<polygon class="st0" points="68.6,4.1 68.3,4.4 68.1,4.2 67.9,4.4 68.2,4.7 68.2,4.8 68.3,4.7 68.8,4.3 "/>
<path class="st0" d="M66.5,32c0,0.1,0.3,0.2,0.5,0.2c0.2-0.1,0.4-0.2,0.6-0.3c0,0,0.2-0.6,0.1-0.6s-0.5,0.3-0.6,0s-0.2-0.1-0.3-0.1
	c-0.1,0-0.2,0-0.3,0l-0.7,0.1v0.3l0.5,0C66.3,31.7,66.5,31.8,66.5,32z"/>
<path class="st0" d="M66.8,31.2"/>
<polygon class="st0" points="57.2,31.8 56.9,31.7 56.8,32 57.2,32 "/>
<path class="st0" d="M41.6,46C41.6,46,41.6,46,41.6,46C41.6,46,41.6,46,41.6,46z"/>
<path class="st0" d="M41.5,25.2"/>
<path class="st0" d="M35.9,19.6"/>
<path class="st0" d="M61.9,5.8"/>
<rect x="57.6" y="31.5" class="st0" width="0.3" height="0.2"/>
<path class="st0" d="M51.6,24.6c0.3,0-0.2-0.3-0.2-0.3s-0.5,0-0.5-0.2v0.5L51.6,24.6z"/>
<path class="st0" d="M51,24.1"/>
<polygon class="st0" points="57,32.2 56.6,32 56.5,32.3 56.9,32.4 "/>
<path class="st0" d="M40.4,46.9c0.1,0.5,0.4-0.3,0.4-0.3v-2.9l-0.8-0.1l0,0v0.3h0.2c0.2,0.7,0.2,1.4,0,2.1c0,0-0.5,0-0.6-0.2
	s-0.3,0.6-0.1,0.7S40.4,46.4,40.4,46.9z"/>
<polygon class="st0" points="41,48.4 41.1,48 40.8,47.9 40.8,47.3 41.1,47.2 41.1,46.9 41.1,46.9 40.5,47.4 40.1,47.1 40.1,48.1 
	40.7,49 "/>
<path class="st0" d="M41.6,51.2L41.6,51.2c-0.1,0-0.2,0.1-0.2,0.2l0,0c0,0.1,0.1,0.2,0.2,0.2c0.1,0,0.2-0.1,0.2-0.2
	C41.7,51.3,41.7,51.2,41.6,51.2L41.6,51.2z"/>
<path class="st0" d="M41.5,50.5c0-0.1-0.1-0.2-0.2-0.2c-0.1,0-0.2,0.1-0.2,0.2c0,0.1,0.1,0.2,0.2,0.2h0
	C41.4,50.7,41.5,50.6,41.5,50.5z"/>
<polygon class="st0" points="41.2,49.5 40.9,49.6 40.8,49.9 41.2,50 "/>
<polygon class="st0" points="40.4,52 40.8,52 40.8,51.7 40.4,51.8 "/>
<polygon class="st0" points="52.2,24.1 51.9,23.9 51.8,24.1 52,24.3 "/>
<polygon class="st0" points="56.5,32.7 56.5,32.4 56.2,32.5 56.3,32.7 "/>
</svg>
