<?xml version="1.0" encoding="UTF-8" standalone="no"?>
<svg
   id="logo-element"
   x="0px"
   y="0px"
   viewBox="0 0 533.40002 187.35675"
   xml:space="preserve"
   version="1.1"
   width="533.40002"
   height="187.35675"
   xmlns="http://www.w3.org/2000/svg"
   xmlns:svg="http://www.w3.org/2000/svg"><defs
   id="defs30" />
<style
   type="text/css"
   id="style1">
	.st0{fill:#231F20;}
</style>
<polygon
   class="st0"
   points="40.836,4.037 46.254,4.037 48.605,11.992 50.936,4.037 56.354,4.037 50.876,18.406 46.354,18.406 "
   id="polygon1"
   transform="scale(3.81)" />
<rect
   x="218.69781"
   y="15.380972"
   class="st0"
   width="19.56435"
   height="54.745892"
   id="rect1"
   style="stroke-width:3.81" />
<path
   class="st0"
   d="m 282.24861,36.195 c -3.18897,-2.81559 -6.30174,-4.191 -9.7917,-4.191 -6.22554,0 -11.00709,4.7244 -11.00709,10.8204 0,6.096 4.70535,10.668 10.9347,10.668 3.56616,0 6.52653,-1.13919 9.8679,-3.5052 v 19.33956 c -5.53974,1.36017 -8.88111,1.88976 -12.37488,1.88976 -16.383,0 -28.58643,-11.96721 -28.58643,-27.78252 0,-16.05153 12.58443,-28.8417 28.35783,-28.8417 2.65938,0 5.61975,0.37719 8.65251,0.98298 1.29159,0.23241 2.04978,0.4572 3.94716,0.98679 z"
   id="path1"
   style="stroke-width:3.81" />
<polygon
   class="st0"
   points="78.242,8.547 75.373,8.649 75.373,4.037 86.261,4.037 86.261,8.728 83.352,8.568 83.352,18.406 78.242,18.406 "
   id="polygon2"
   transform="scale(3.81)" />
<path
   class="st0"
   d="m 330.01077,42.85488 c 0,17.02689 11.99388,28.46451 29.72943,28.46451 17.65935,0 29.66085,-11.43762 29.66085,-28.46451 0,-17.02689 -11.99769,-28.4607 -29.66085,-28.4607 -17.73555,0 -29.72943,11.43 -29.72943,28.4607 z m 29.72943,-10.9728 c 5.5245,0 9.61263,4.6482 9.61263,10.89279 0,6.4008 -4.01193,11.05281 -9.61263,11.05281 -5.6769,0 -9.76503,-4.65201 -9.76503,-10.9728 0,-6.32079 4.08813,-10.9728 9.76503,-10.9728 z"
   id="path2"
   style="stroke-width:3.81" />
<path
   class="st0"
   d="m 394.69314,70.12686 h 19.66341 v -12.7254 c 0,-0.1524 -0.0762,-0.83058 -0.15621,-1.74117 -0.22479,-2.04597 -0.36957,-3.26136 -0.75438,-6.00075 1.13538,2.7432 1.74498,3.95478 2.42697,5.47116 l 0.75057,1.58496 6.5913,13.4112 h 22.63902 L 431.64633,48.74133 c 6.61797,-2.20599 9.95934,-7.09041 9.95934,-14.71803 0,-10.77468 -8.88873,-18.63852 -21.12264,-18.63852 h -25.7937 v 54.74208 z m 19.73961,-39.98595 h 2.57175 c 3.25374,0 5.37972,1.90119 5.37972,4.80441 0,3.048 -2.04978,4.8768 -5.37972,4.8768 h -2.57175 z"
   id="path3"
   style="stroke-width:3.81" />
<rect
   x="450.48297"
   y="15.380972"
   class="st0"
   width="19.568161"
   height="54.745892"
   id="rect3"
   style="stroke-width:3.81" />
<path
   class="st0"
   d="m 473.05722,70.12686 h 20.64639 l 2.04978,-6.96468 h 14.95044 l 2.0574,6.96468 H 533.4 L 514.49859,15.38097 h -22.54377 z m 30.1371,-36.25596 4.09575,16.35252 h -8.27532 z"
   id="path4"
   style="stroke-width:3.81" />
<path
   class="st0"
   d="m 199.91832,111.17961 c 0,2.42697 -0.24003,4.61772 -0.78486,6.5532 -2.00025,7.32663 -8.96493,11.50239 -19.20621,11.50239 -5.81406,0 -11.12901,-1.57734 -14.57325,-4.24053 -3.56616,-2.96418 -5.37591,-7.44093 -5.37591,-13.81506 V 84.71154 h 15.52194 v 24.58212 c 0,2.19075 0.12192,3.46329 0.42672,4.07289 0.54864,1.45923 2.17932,2.37363 4.00431,2.37363 1.14681,0 2.06121,-0.3048 2.84988,-0.9144 1.32969,-0.9144 1.63449,-1.88214 1.63449,-5.53212 V 84.71154 h 15.5067 v 26.46807 z"
   id="path5"
   style="stroke-width:3.81" />
<polygon
   class="st0"
   points="61.307,33.693 57.881,28.051 57.881,33.693 53.806,33.693 53.806,22.234 57.897,22.234 61.449,28.051 61.449,22.234 65.491,22.234 65.491,33.693 "
   id="polygon5"
   transform="scale(3.81)" />
<rect
   x="254.62991"
   y="84.71154"
   class="st0"
   width="15.601949"
   height="43.658787"
   id="rect5"
   style="stroke-width:3.81" />
<polygon
   class="st0"
   points="71.43,22.234 75.75,22.234 77.625,28.578 79.483,22.234 83.804,22.234 79.436,33.693 75.83,33.693 "
   id="polygon6"
   transform="scale(3.81)" />
<polygon
   class="st0"
   points="91.549,29.406 88.356,29.406 88.356,30.483 91.962,30.483 91.962,33.693 84.243,33.693 84.243,22.234 91.867,22.234 91.867,25.322 88.356,25.322 88.356,26.413 91.549,26.413 "
   id="polygon7"
   transform="scale(3.81)" />
<path
   class="st0"
   d="m 354.47478,128.37033 h 15.68577 V 118.2243 c 0,-0.12573 -0.061,-0.66675 -0.12192,-1.39446 -0.17907,-1.63449 -0.3048,-2.59842 -0.60198,-4.78536 0.90297,2.18694 1.38303,3.15087 1.93167,4.36245 l 0.60579,1.26492 5.25018,10.69467 h 18.05559 l -11.32713,-17.05356 c 5.27304,-1.76403 7.94004,-5.65023 7.94004,-11.7348 0,-8.59536 -7.09422,-14.87043 -16.84782,-14.87043 h -20.574 v 43.6626 z M 370.2177,96.47682 h 2.0574 c 2.59461,0 4.28244,1.52019 4.28244,3.83286 0,2.43078 -1.63068,3.89001 -4.28244,3.89001 h -2.0574 z"
   id="path7"
   style="stroke-width:3.81" />
<path
   class="st0"
   d="m 400.17954,112.73409 c 3.87858,3.04038 7.26567,4.4958 10.66038,4.4958 2.30505,0 3.9624,-1.03251 3.9624,-2.5527 0,-0.85344 -0.61722,-1.6383 -1.53162,-1.9431 -0.55245,-0.24384 -0.97536,-0.36195 -3.39852,-0.73152 -2.60223,-0.48387 -3.93954,-0.78486 -5.08635,-1.20777 -4.96443,-1.70307 -7.87527,-5.89788 -7.87527,-11.2395 0,-9.07542 7.63524,-15.47622 18.56232,-15.47622 5.08635,0 9.144,1.14681 14.11605,3.9243 l -4.36245,11.06424 c -2.9718,-2.30886 -5.88264,-3.34518 -8.91159,-3.34518 -2.18313,0 -3.6576,0.9144 -3.6576,2.2479 0,1.15824 0.91821,1.76403 3.47472,2.2479 l 2.84988,0.67056 c 3.15468,0.78486 4.54152,1.27635 6.24078,2.18313 3.57759,2.06502 5.6388,5.89407 5.6388,10.56513 0,9.32307 -7.63905,15.59814 -18.92808,15.59814 -4.06146,0 -8.53821,-0.90678 -12.41679,-2.41554 -1.45923,-0.54483 -2.30124,-0.90297 -4.24053,-1.98882 z"
   id="path8"
   style="stroke-width:3.81" />
<rect
   x="433.4675"
   y="84.71154"
   class="st0"
   width="15.59814"
   height="43.658787"
   id="rect8"
   style="stroke-width:3.81" />
<polygon
   class="st0"
   points="121.113,25.832 118.827,25.911 118.827,22.234 127.506,22.234 127.506,25.975 125.187,25.848 125.187,33.693 121.113,33.693 "
   id="polygon8"
   transform="scale(3.81)" />
<polygon
   class="st0"
   points="131.783,33.693 131.783,28.786 127.891,22.234 132.531,22.234 133.851,25.151 135.169,22.234 139.807,22.234 135.917,28.786 135.917,33.693 "
   id="polygon9"
   transform="scale(3.81)" />
<g
   id="diamond"
   transform="scale(3.81)">
	<path
   class="st0"
   d="M 16.676,0.484 C 16.822,0.384 17.01,0.371 17.165,0.446 17.078,0.311 17.043,0.154 17.06,0 16.981,0.015 16.9,0.016 16.822,0.005 l -0.003,0.004 c 0.012,0.166 -0.035,0.337 -0.143,0.475 z"
   id="path9" />
	<g
   id="g12">
		<path
   class="st0"
   d="M 0.499,17.165 C 0.405,17.004 0.41,16.802 0.516,16.645 0.376,16.755 0.205,16.803 0.037,16.791 L 0,16.828 c 0.01,0.066 0.01,0.131 0.001,0.198 l 0.014,0.014 c 0.168,-0.021 0.341,0.021 0.484,0.125 z"
   id="path10" />
		<path
   class="st0"
   d="m 17.255,2.782 c -0.173,0.173 -0.452,0.173 -0.623,0 -0.172,-0.172 -0.172,-0.45 0,-0.623 0.172,-0.172 0.451,-0.172 0.623,0 0.172,0.173 0.172,0.451 0,0.623 z m 0.803,0.804 c -0.172,0.172 -0.451,0.172 -0.624,0 -0.171,-0.172 -0.171,-0.451 0,-0.624 0.173,-0.172 0.452,-0.172 0.624,0 0.172,0.173 0.172,0.452 0,0.624 z m 0.799,0.8 c -0.172,0.173 -0.451,0.173 -0.623,0 -0.172,-0.172 -0.172,-0.451 0,-0.623 0.172,-0.173 0.451,-0.173 0.623,0 0.173,0.171 0.173,0.451 0,0.623 z m 0.798,0.798 c -0.171,0.172 -0.451,0.172 -0.623,0 -0.172,-0.173 -0.172,-0.451 0,-0.624 0.173,-0.172 0.452,-0.172 0.623,0 0.173,0.173 0.173,0.451 0,0.624 z m 0.788,0.786 c -0.172,0.172 -0.451,0.172 -0.623,0 -0.172,-0.172 -0.172,-0.451 0,-0.623 0.172,-0.172 0.451,-0.172 0.623,0 0.172,0.173 0.172,0.452 0,0.623 z m 0.787,0.788 c -0.172,0.172 -0.451,0.172 -0.623,0 -0.172,-0.172 -0.172,-0.451 0,-0.623 0.172,-0.171 0.451,-0.171 0.623,0 0.173,0.173 0.173,0.451 0,0.623 z m 0.802,0.801 c -0.173,0.173 -0.451,0.173 -0.624,0 -0.172,-0.172 -0.172,-0.451 0,-0.623 0.172,-0.172 0.451,-0.172 0.624,0 0.172,0.172 0.172,0.451 0,0.623 z m 0.797,0.798 c -0.172,0.172 -0.451,0.172 -0.624,0 -0.172,-0.172 -0.172,-0.451 0,-0.624 0.173,-0.172 0.452,-0.172 0.624,0 0.172,0.173 0.172,0.452 0,0.624 z m 0.792,0.792 c -0.173,0.173 -0.452,0.173 -0.623,0 -0.173,-0.172 -0.173,-0.451 0,-0.623 0.172,-0.173 0.451,-0.173 0.623,0 0.172,0.172 0.172,0.451 0,0.623 z m 0.797,0.795 c -0.173,0.173 -0.452,0.173 -0.624,0 -0.172,-0.172 -0.172,-0.451 0,-0.623 0.172,-0.172 0.451,-0.172 0.624,0 0.171,0.173 0.171,0.452 0,0.623 z m 0.796,0.799 c -0.173,0.172 -0.452,0.172 -0.623,0 -0.173,-0.173 -0.173,-0.452 0,-0.624 0.171,-0.172 0.45,-0.172 0.623,0 0.172,0.171 0.172,0.45 0,0.624 z m 0.795,0.794 c -0.172,0.173 -0.451,0.173 -0.623,0 -0.172,-0.172 -0.172,-0.451 0,-0.623 0.172,-0.173 0.451,-0.173 0.623,0 0.173,0.172 0.173,0.451 0,0.623 z m 0.792,0.792 c -0.172,0.173 -0.451,0.173 -0.623,0 -0.172,-0.172 -0.172,-0.451 0,-0.623 0.172,-0.173 0.451,-0.173 0.623,0 0.172,0.172 0.172,0.451 0,0.623 z m 0.793,0.793 c -0.172,0.172 -0.451,0.172 -0.624,0 -0.171,-0.172 -0.171,-0.451 0,-0.624 0.173,-0.171 0.452,-0.171 0.624,0 0.172,0.173 0.172,0.452 0,0.624 z m 0.794,0.794 c -0.172,0.173 -0.451,0.173 -0.623,0 -0.172,-0.172 -0.172,-0.451 0,-0.623 0.172,-0.173 0.451,-0.173 0.623,0 0.172,0.172 0.172,0.451 0,0.623 z m 0.796,0.796 c -0.172,0.173 -0.451,0.173 -0.623,0 -0.173,-0.172 -0.173,-0.451 0,-0.623 0.172,-0.173 0.451,-0.173 0.623,0 0.172,0.172 0.172,0.451 0,0.623 z m 0.791,0.791 c -0.172,0.173 -0.451,0.173 -0.623,0 -0.172,-0.172 -0.172,-0.451 0,-0.623 0.172,-0.173 0.451,-0.173 0.623,0 0.173,0.172 0.173,0.452 0,0.623 z m 0.796,0.797 c -0.172,0.171 -0.451,0.171 -0.623,0 -0.172,-0.172 -0.172,-0.452 0,-0.624 0.172,-0.172 0.452,-0.172 0.623,0 0.173,0.172 0.173,0.452 0,0.624 z m 0.792,0.791 c -0.172,0.173 -0.451,0.173 -0.623,0 -0.172,-0.172 -0.172,-0.451 0,-0.624 0.173,-0.172 0.452,-0.172 0.623,0 0.172,0.173 0.172,0.452 0,0.624 z M 16.448,3.589 c -0.172,0.172 -0.451,0.172 -0.624,0 -0.172,-0.172 -0.172,-0.451 0,-0.623 0.172,-0.173 0.452,-0.173 0.624,0 0.172,0.172 0.172,0.451 0,0.623 z m 2.595,2.6 c 0.153,-0.154 0.403,-0.154 0.557,0 0.153,0.154 0.153,0.403 0,0.557 -0.154,0.154 -0.404,0.154 -0.557,0 -0.155,-0.154 -0.155,-0.403 0,-0.557 z M 18.253,5.4 c 0.154,-0.154 0.404,-0.154 0.557,0 0.154,0.154 0.154,0.403 0,0.557 -0.153,0.154 -0.403,0.154 -0.557,0 C 18.1,5.804 18.1,5.554 18.253,5.4 Z M 17.985,4.616 c 0.14,0.14 0.14,0.365 0,0.505 -0.139,0.138 -0.364,0.138 -0.504,0 -0.139,-0.14 -0.139,-0.364 0,-0.505 0.14,-0.139 0.365,-0.139 0.504,0 z M 17.224,4.36 c -0.154,0.153 -0.403,0.153 -0.557,0 -0.153,-0.154 -0.153,-0.404 0,-0.557 0.154,-0.154 0.403,-0.154 0.557,0 0.154,0.153 0.154,0.402 0,0.557 z m 12.16,12.159 c 0.155,-0.154 0.404,-0.154 0.557,0 0.153,0.153 0.153,0.403 0,0.557 -0.153,0.153 -0.403,0.153 -0.557,0 -0.155,-0.154 -0.155,-0.404 0,-0.557 z m -6.342,-6.336 c 0.139,-0.138 0.366,-0.138 0.504,0 0.14,0.14 0.14,0.366 0,0.504 -0.138,0.14 -0.365,0.14 -0.504,0 -0.139,-0.138 -0.139,-0.365 0,-0.504 z m 1.311,1.304 c -0.139,0.138 -0.365,0.138 -0.504,0 -0.139,-0.14 -0.139,-0.366 0,-0.504 0.139,-0.14 0.365,-0.14 0.504,0 0.139,0.139 0.139,0.365 0,0.504 z m 0.796,0.796 c -0.139,0.14 -0.365,0.14 -0.504,0 -0.138,-0.138 -0.138,-0.364 0,-0.503 0.139,-0.14 0.365,-0.14 0.504,0 0.138,0.139 0.138,0.365 0,0.503 z m 0.789,0.789 c -0.139,0.14 -0.364,0.14 -0.504,0 -0.139,-0.138 -0.139,-0.364 0,-0.504 0.14,-0.138 0.365,-0.138 0.504,0 0.14,0.14 0.14,0.366 0,0.504 z m 0.793,0.793 c -0.14,0.14 -0.365,0.14 -0.504,0 -0.139,-0.138 -0.139,-0.364 0,-0.504 0.139,-0.138 0.365,-0.138 0.504,0 0.139,0.14 0.139,0.366 0,0.504 z m 0.795,0.795 c -0.14,0.14 -0.365,0.14 -0.504,0 -0.14,-0.138 -0.14,-0.364 0,-0.504 0.14,-0.138 0.364,-0.138 0.504,0 0.139,0.139 0.139,0.365 0,0.504 z m 1.586,1.083 c 0.139,0.139 0.139,0.366 0,0.504 -0.139,0.14 -0.365,0.14 -0.504,0 -0.139,-0.138 -0.139,-0.365 0,-0.504 0.139,-0.139 0.365,-0.139 0.504,0 z m -0.795,-0.292 c -0.139,0.14 -0.365,0.14 -0.504,0 -0.139,-0.139 -0.139,-0.364 0,-0.504 0.139,-0.14 0.365,-0.14 0.504,0 0.139,0.14 0.139,0.365 0,0.504 z M 22.259,9.394 c 0.139,-0.14 0.364,-0.14 0.504,0 0.139,0.14 0.139,0.364 0,0.504 -0.14,0.14 -0.365,0.14 -0.504,0 -0.139,-0.14 -0.139,-0.365 0,-0.504 z M 21.461,8.596 c 0.139,-0.14 0.365,-0.14 0.504,0 0.139,0.139 0.139,0.364 0,0.504 -0.139,0.138 -0.365,0.138 -0.504,0 -0.139,-0.14 -0.139,-0.365 0,-0.504 z M 19.87,7.508 c -0.14,-0.14 -0.14,-0.365 0,-0.504 0.138,-0.14 0.365,-0.14 0.504,0 0.138,0.139 0.138,0.364 0,0.504 -0.139,0.139 -0.365,0.139 -0.504,0 z m 0.791,0.288 c 0.14,-0.139 0.365,-0.139 0.504,0 0.14,0.139 0.14,0.365 0,0.503 -0.139,0.14 -0.364,0.14 -0.504,0 -0.139,-0.138 -0.139,-0.365 0,-0.503 z m 10.085,10.092 c -0.172,0.172 -0.451,0.172 -0.622,0 -0.173,-0.172 -0.173,-0.451 0,-0.624 0.172,-0.172 0.451,-0.172 0.622,0 0.173,0.173 0.173,0.452 0,0.624 z M 15.647,4.39 c -0.172,0.172 -0.451,0.172 -0.623,0 -0.172,-0.172 -0.172,-0.451 0,-0.623 0.172,-0.172 0.451,-0.172 0.623,0 0.172,0.171 0.172,0.451 0,0.623 z m 12.935,12.931 c 0.154,-0.154 0.403,-0.154 0.557,0 0.153,0.153 0.153,0.403 0,0.556 -0.154,0.154 -0.403,0.154 -0.557,0 -0.153,-0.154 -0.153,-0.403 0,-0.556 z M 16.423,5.161 c -0.153,0.153 -0.403,0.153 -0.556,0 -0.154,-0.154 -0.154,-0.404 0,-0.557 0.154,-0.155 0.403,-0.155 0.556,0 0.153,0.153 0.153,0.403 0,0.557 z m 0.761,0.761 c -0.139,0.139 -0.364,0.139 -0.504,0 -0.139,-0.14 -0.139,-0.365 0,-0.504 0.14,-0.14 0.365,-0.14 0.504,0 0.139,0.139 0.139,0.365 0,0.504 z m 0.809,0.809 c -0.14,0.138 -0.365,0.138 -0.504,0 -0.14,-0.14 -0.14,-0.366 0,-0.504 0.139,-0.14 0.365,-0.14 0.504,0 0.139,0.139 0.139,0.365 0,0.504 z m 0.783,0.784 c -0.14,0.138 -0.364,0.138 -0.504,0 -0.138,-0.14 -0.138,-0.366 0,-0.504 0.14,-0.14 0.364,-0.14 0.504,0 0.139,0.138 0.139,0.364 0,0.504 z m 0.795,0.795 c -0.139,0.139 -0.365,0.139 -0.503,0 -0.139,-0.139 -0.139,-0.365 0,-0.504 0.139,-0.139 0.364,-0.139 0.503,0 0.14,0.139 0.14,0.365 0,0.504 z m 0.792,0.792 c -0.139,0.138 -0.365,0.138 -0.504,0 -0.139,-0.14 -0.139,-0.365 0,-0.504 0.14,-0.14 0.365,-0.14 0.504,0 0.14,0.139 0.14,0.364 0,0.504 z M 21.161,9.9 c -0.139,0.14 -0.365,0.14 -0.503,0 -0.14,-0.14 -0.14,-0.366 0,-0.504 0.139,-0.14 0.364,-0.14 0.503,0 0.14,0.138 0.14,0.364 0,0.504 z m 0.791,0.791 c -0.14,0.138 -0.365,0.138 -0.504,0 -0.14,-0.14 -0.14,-0.366 0,-0.504 0.139,-0.14 0.364,-0.14 0.504,0 0.138,0.138 0.138,0.364 0,0.504 z m 0.799,0.799 c -0.138,0.14 -0.364,0.14 -0.504,0 -0.138,-0.14 -0.138,-0.364 0,-0.504 0.14,-0.14 0.366,-0.14 0.504,0 0.14,0.139 0.14,0.364 0,0.504 z m 0.797,0.795 c -0.14,0.139 -0.366,0.139 -0.504,0 -0.14,-0.138 -0.14,-0.365 0,-0.503 0.138,-0.14 0.364,-0.14 0.504,0 0.138,0.139 0.138,0.365 0,0.503 z m 0.795,0.796 c -0.14,0.14 -0.365,0.14 -0.504,0 -0.139,-0.138 -0.139,-0.364 0,-0.504 0.139,-0.138 0.365,-0.138 0.504,0 0.139,0.139 0.139,0.366 0,0.504 z m 0.789,0.789 c -0.139,0.14 -0.365,0.14 -0.504,0 -0.139,-0.14 -0.139,-0.365 0,-0.504 0.139,-0.14 0.365,-0.14 0.504,0 0.139,0.14 0.139,0.365 0,0.504 z m 0.798,0.798 c -0.139,0.138 -0.366,0.138 -0.504,0 -0.139,-0.14 -0.139,-0.365 0,-0.504 0.138,-0.14 0.365,-0.14 0.504,0 0.138,0.14 0.138,0.365 0,0.504 z m 1.876,1.877 c 0.14,-0.14 0.365,-0.14 0.504,0 0.139,0.14 0.139,0.364 0,0.504 -0.139,0.14 -0.365,0.14 -0.504,0 -0.139,-0.14 -0.139,-0.365 0,-0.504 z m -1.55,-1.122 c -0.117,-0.117 -0.117,-0.308 0,-0.425 0.117,-0.116 0.307,-0.116 0.424,0 0.117,0.117 0.117,0.308 0,0.425 -0.116,0.118 -0.307,0.118 -0.424,0 z m 0.796,0.381 c 0.117,-0.117 0.306,-0.117 0.424,0 0.117,0.116 0.117,0.306 0,0.424 -0.117,0.117 -0.307,0.117 -0.424,0 -0.117,-0.118 -0.117,-0.308 0,-0.424 z m 2.894,2.884 c -0.172,0.173 -0.452,0.173 -0.623,0 -0.172,-0.172 -0.172,-0.451 0,-0.622 0.171,-0.173 0.451,-0.173 0.623,0 0.171,0.171 0.171,0.45 0,0.622 z M 14.85,5.187 c -0.173,0.173 -0.452,0.173 -0.624,0 -0.172,-0.171 -0.172,-0.451 0,-0.623 0.172,-0.172 0.451,-0.172 0.624,0 0.172,0.172 0.172,0.452 0,0.623 z m 12.93,12.934 c 0.154,-0.153 0.403,-0.153 0.557,0 0.155,0.154 0.155,0.404 0,0.557 -0.154,0.154 -0.403,0.154 -0.557,0 -0.154,-0.153 -0.154,-0.403 0,-0.557 z M 15.621,5.962 c -0.154,0.154 -0.403,0.154 -0.557,0 -0.153,-0.154 -0.153,-0.403 0,-0.557 0.154,-0.154 0.403,-0.154 0.557,0 0.154,0.155 0.154,0.404 0,0.557 z m 0.763,0.76 c -0.139,0.14 -0.365,0.14 -0.503,0 -0.14,-0.138 -0.14,-0.365 0,-0.503 0.138,-0.14 0.364,-0.14 0.503,0 0.139,0.138 0.139,0.364 0,0.503 z m 10.623,10.623 c 0.14,-0.139 0.365,-0.139 0.504,0 0.139,0.138 0.139,0.365 0,0.504 -0.14,0.138 -0.365,0.138 -0.504,0 -0.14,-0.139 -0.14,-0.365 0,-0.504 z m -0.757,-0.74 c 0.117,-0.117 0.307,-0.117 0.424,0 0.117,0.117 0.117,0.308 0,0.424 -0.117,0.117 -0.308,0.117 -0.424,0 -0.118,-0.116 -0.118,-0.306 0,-0.424 z m -0.417,-0.742 c 0.088,0.089 0.088,0.231 0,0.319 -0.088,0.088 -0.231,0.088 -0.319,0 -0.088,-0.088 -0.088,-0.23 0,-0.319 0.089,-0.087 0.231,-0.087 0.319,0 z m -1.176,-0.85 c 0.117,-0.117 0.308,-0.117 0.425,0 0.117,0.117 0.117,0.308 0,0.425 -0.117,0.116 -0.308,0.116 -0.425,0 -0.117,-0.117 -0.117,-0.308 0,-0.425 z M 23.863,14.22 c 0.117,-0.119 0.308,-0.119 0.425,0 0.117,0.116 0.117,0.306 0,0.424 -0.117,0.117 -0.307,0.117 -0.425,0 -0.117,-0.118 -0.117,-0.308 0,-0.424 z m -0.8,-0.8 c 0.118,-0.117 0.308,-0.117 0.425,0 0.117,0.117 0.117,0.306 0,0.424 -0.117,0.117 -0.306,0.117 -0.425,0 -0.117,-0.118 -0.117,-0.307 0,-0.424 z m -0.784,-0.785 c 0.117,-0.117 0.306,-0.117 0.424,0 0.117,0.116 0.117,0.306 0,0.424 -0.117,0.117 -0.307,0.117 -0.424,0 -0.118,-0.118 -0.118,-0.308 0,-0.424 z m -0.797,-0.798 c 0.117,-0.116 0.307,-0.116 0.424,0 0.117,0.117 0.117,0.308 0,0.425 -0.117,0.117 -0.307,0.117 -0.424,0 -0.117,-0.117 -0.117,-0.308 0,-0.425 z m -0.803,-0.802 c 0.117,-0.117 0.307,-0.117 0.424,0 0.117,0.116 0.117,0.306 0,0.424 -0.117,0.117 -0.308,0.117 -0.424,0 -0.118,-0.117 -0.118,-0.308 0,-0.424 z m -0.794,-0.794 c 0.117,-0.116 0.308,-0.116 0.425,0 0.117,0.117 0.117,0.308 0,0.425 -0.117,0.117 -0.308,0.117 -0.425,0 -0.117,-0.117 -0.117,-0.308 0,-0.425 z M 19.09,9.445 c 0.117,-0.117 0.308,-0.117 0.425,0 0.117,0.117 0.117,0.307 0,0.425 -0.117,0.117 -0.308,0.117 -0.425,0 -0.117,-0.117 -0.117,-0.307 0,-0.425 z M 18.296,8.651 c 0.117,-0.117 0.307,-0.117 0.424,0 0.117,0.117 0.117,0.308 0,0.425 -0.117,0.117 -0.307,0.117 -0.424,0 -0.117,-0.117 -0.117,-0.308 0,-0.425 z M 16.714,7.494 c -0.117,-0.117 -0.117,-0.307 0,-0.424 0.117,-0.118 0.307,-0.118 0.424,0 0.117,0.117 0.117,0.306 0,0.424 -0.117,0.117 -0.307,0.117 -0.424,0 z m 0.791,0.366 c 0.117,-0.117 0.308,-0.117 0.425,0 0.117,0.117 0.117,0.308 0,0.425 -0.117,0.117 -0.308,0.117 -0.425,0 -0.118,-0.117 -0.118,-0.307 0,-0.425 z m 11.643,11.626 c -0.172,0.172 -0.451,0.172 -0.622,0 -0.172,-0.172 -0.172,-0.451 0,-0.623 0.172,-0.173 0.451,-0.173 0.622,0 0.173,0.172 0.173,0.451 0,0.623 z M 14.047,5.99 c -0.173,0.172 -0.452,0.172 -0.624,0 -0.172,-0.172 -0.172,-0.451 0,-0.623 0.172,-0.172 0.451,-0.172 0.624,0 0.172,0.172 0.172,0.451 0,0.623 z m 12.931,12.934 c 0.154,-0.154 0.403,-0.154 0.557,0 0.154,0.153 0.154,0.403 0,0.556 -0.154,0.155 -0.403,0.155 -0.557,0 -0.153,-0.153 -0.153,-0.403 0,-0.556 z M 14.819,6.765 c -0.154,0.153 -0.403,0.153 -0.557,0 -0.153,-0.154 -0.153,-0.404 0,-0.557 0.154,-0.154 0.403,-0.154 0.557,0 0.154,0.153 0.154,0.402 0,0.557 z m 0.772,0.75 c -0.14,0.14 -0.365,0.14 -0.504,0 -0.14,-0.139 -0.14,-0.364 0,-0.504 0.139,-0.139 0.364,-0.139 0.504,0 0.139,0.139 0.139,0.365 0,0.504 z m 10.623,10.623 c 0.14,-0.14 0.365,-0.14 0.504,0 0.14,0.138 0.14,0.364 0,0.504 -0.14,0.138 -0.364,0.138 -0.504,0 -0.14,-0.139 -0.14,-0.365 0,-0.504 z m -0.749,-0.747 c 0.117,-0.117 0.307,-0.117 0.424,0 0.117,0.116 0.117,0.306 0,0.424 -0.117,0.117 -0.308,0.117 -0.424,0 -0.117,-0.118 -0.117,-0.308 0,-0.424 z M 16.353,8.279 c -0.117,0.117 -0.307,0.117 -0.424,0 -0.117,-0.117 -0.117,-0.308 0,-0.425 0.117,-0.117 0.308,-0.117 0.424,0 0.117,0.118 0.117,0.308 0,0.425 z m 0.73,0.743 c -0.088,0.088 -0.23,0.088 -0.319,0 -0.088,-0.088 -0.088,-0.231 0,-0.319 0.088,-0.088 0.231,-0.088 0.319,0 0.088,0.088 0.088,0.23 0,0.319 z m 0.796,0.795 c -0.088,0.088 -0.231,0.088 -0.319,0 -0.088,-0.089 -0.088,-0.231 0,-0.319 0.088,-0.088 0.23,-0.088 0.319,0 0.088,0.088 0.088,0.23 0,0.319 z m 0.795,0.795 c -0.088,0.088 -0.23,0.088 -0.319,0 -0.088,-0.088 -0.088,-0.23 0,-0.319 0.089,-0.086 0.231,-0.086 0.319,0 0.088,0.089 0.088,0.231 0,0.319 z m 0.795,0.795 c -0.088,0.088 -0.23,0.088 -0.318,0 -0.088,-0.088 -0.088,-0.23 0,-0.319 0.088,-0.088 0.23,-0.088 0.318,0 0.087,0.089 0.087,0.231 0,0.319 z m 0.795,0.796 c -0.088,0.088 -0.231,0.088 -0.319,0 -0.088,-0.088 -0.088,-0.231 0,-0.319 0.088,-0.088 0.231,-0.088 0.319,0 0.088,0.088 0.088,0.231 0,0.319 z m 0.795,0.794 c -0.088,0.089 -0.23,0.089 -0.318,0 -0.088,-0.088 -0.088,-0.23 0,-0.318 0.088,-0.088 0.23,-0.088 0.318,0 0.089,0.088 0.089,0.23 0,0.318 z m 0.795,0.795 c -0.088,0.088 -0.23,0.088 -0.317,0 -0.088,-0.088 -0.088,-0.23 0,-0.317 0.088,-0.089 0.23,-0.089 0.317,0 0.088,0.088 0.088,0.23 0,0.317 z m 0.796,0.796 c -0.088,0.088 -0.23,0.088 -0.318,0 -0.088,-0.088 -0.088,-0.23 0,-0.319 0.088,-0.088 0.23,-0.088 0.318,0 0.087,0.089 0.087,0.231 0,0.319 z m 0.795,0.796 c -0.088,0.088 -0.231,0.088 -0.319,0 -0.088,-0.089 -0.088,-0.231 0,-0.319 0.088,-0.088 0.231,-0.088 0.319,0 0.088,0.088 0.088,0.23 0,0.319 z m 1.593,1.274 c 0.088,0.088 0.088,0.23 0,0.317 -0.088,0.089 -0.23,0.089 -0.318,0 -0.088,-0.088 -0.088,-0.23 0,-0.317 0.088,-0.087 0.23,-0.087 0.318,0 z m -0.797,-0.479 c -0.088,0.087 -0.231,0.087 -0.319,0 -0.088,-0.089 -0.088,-0.231 0,-0.319 0.088,-0.088 0.23,-0.088 0.319,0 0.088,0.088 0.088,0.23 0,0.319 z m 4.104,4.11 c -0.172,0.172 -0.451,0.172 -0.623,0 -0.172,-0.173 -0.172,-0.452 0,-0.623 0.172,-0.173 0.451,-0.173 0.623,0 0.172,0.171 0.172,0.45 0,0.623 z M 13.245,6.792 c -0.171,0.172 -0.451,0.172 -0.623,0 -0.172,-0.172 -0.172,-0.451 0,-0.624 0.172,-0.172 0.452,-0.172 0.623,0 0.173,0.172 0.173,0.452 0,0.624 z m 12.932,12.934 c 0.154,-0.155 0.403,-0.155 0.557,0 0.154,0.153 0.154,0.403 0,0.556 -0.154,0.154 -0.403,0.154 -0.557,0 -0.154,-0.154 -0.154,-0.403 0,-0.556 z M 14.017,7.566 c -0.154,0.154 -0.403,0.154 -0.557,0 -0.153,-0.154 -0.153,-0.403 0,-0.557 0.155,-0.153 0.403,-0.153 0.557,0 0.154,0.153 0.154,0.403 0,0.557 z m 0.765,0.758 c -0.139,0.14 -0.364,0.14 -0.503,0 -0.14,-0.14 -0.14,-0.364 0,-0.504 0.139,-0.139 0.365,-0.139 0.503,0 0.14,0.139 0.14,0.364 0,0.504 z m 10.623,10.622 c 0.139,-0.138 0.365,-0.138 0.504,0 0.14,0.14 0.14,0.366 0,0.504 -0.139,0.14 -0.365,0.138 -0.504,0 -0.139,-0.138 -0.139,-0.364 0,-0.504 z m -0.751,-0.745 c 0.117,-0.117 0.307,-0.117 0.425,0 0.117,0.117 0.117,0.308 0,0.424 -0.118,0.117 -0.308,0.117 -0.425,0 -0.118,-0.116 -0.118,-0.306 0,-0.424 z M 15.542,9.089 c -0.117,0.117 -0.307,0.117 -0.424,0 -0.117,-0.117 -0.117,-0.307 0,-0.425 0.117,-0.116 0.308,-0.116 0.424,0 0.117,0.118 0.117,0.308 0,0.425 z m 8.688,8.379 c 0.088,0.088 0.088,0.23 0,0.318 -0.088,0.088 -0.231,0.088 -0.319,0 -0.088,-0.088 -0.088,-0.23 0,-0.318 0.088,-0.088 0.231,-0.088 0.319,0 z M 16.274,9.831 c -0.088,0.088 -0.23,0.088 -0.318,0 -0.088,-0.089 -0.088,-0.231 0,-0.319 0.087,-0.088 0.23,-0.088 0.318,0 0.088,0.088 0.088,0.23 0,0.319 z m 11.27,11.258 c -0.172,0.173 -0.452,0.173 -0.624,0 -0.172,-0.172 -0.172,-0.451 0,-0.623 0.172,-0.173 0.451,-0.173 0.624,0 0.172,0.173 0.172,0.452 0,0.623 z M 12.448,7.589 c -0.172,0.171 -0.451,0.171 -0.623,0 -0.172,-0.173 -0.172,-0.452 0,-0.623 0.172,-0.172 0.451,-0.172 0.623,0 0.172,0.172 0.172,0.451 0,0.623 z m 12.927,12.937 c 0.154,-0.153 0.403,-0.153 0.557,0 0.153,0.154 0.153,0.404 0,0.557 -0.154,0.154 -0.403,0.154 -0.557,0 -0.154,-0.153 -0.154,-0.402 0,-0.557 z M 13.216,8.367 c -0.153,0.154 -0.403,0.154 -0.557,0 -0.154,-0.153 -0.154,-0.403 0,-0.556 0.154,-0.154 0.403,-0.154 0.557,0 0.154,0.153 0.154,0.403 0,0.556 z m 0.77,0.752 c -0.139,0.14 -0.365,0.14 -0.504,0 -0.139,-0.138 -0.139,-0.364 0,-0.504 0.139,-0.138 0.365,-0.138 0.504,0 0.139,0.14 0.139,0.366 0,0.504 z m 10.623,10.624 c 0.138,-0.14 0.365,-0.14 0.504,0 0.138,0.139 0.138,0.364 0,0.504 -0.139,0.138 -0.366,0.138 -0.504,0 -0.14,-0.139 -0.14,-0.364 0,-0.504 z m -0.755,-0.742 c 0.117,-0.117 0.307,-0.117 0.424,0 0.117,0.117 0.117,0.308 0,0.425 -0.117,0.117 -0.307,0.117 -0.424,0 -0.117,-0.118 -0.117,-0.308 0,-0.425 z M 14.742,9.89 c -0.117,0.116 -0.307,0.116 -0.424,0 -0.117,-0.117 -0.117,-0.308 0,-0.425 0.117,-0.117 0.307,-0.117 0.424,0 0.118,0.118 0.118,0.308 0,0.425 z m 0.738,0.734 c -0.088,0.089 -0.231,0.089 -0.319,0 -0.088,-0.088 -0.088,-0.23 0,-0.318 0.088,-0.088 0.231,-0.088 0.319,0 0.088,0.088 0.088,0.23 0,0.318 z m 7.637,7.638 c 0.088,-0.089 0.23,-0.089 0.319,0 0.088,0.088 0.088,0.231 0,0.319 -0.088,0.086 -0.231,0.086 -0.319,0 -0.088,-0.088 -0.088,-0.231 0,-0.319 z m -0.79,-0.738 c 0.066,-0.066 0.173,-0.066 0.238,0 0.067,0.067 0.067,0.173 0,0.24 -0.066,0.066 -0.172,0.066 -0.238,0 -0.065,-0.067 -0.065,-0.173 0,-0.24 z m -0.785,-0.816 c 0.065,-0.067 0.171,-0.067 0.237,0 0.065,0.064 0.065,0.171 0,0.236 -0.065,0.065 -0.172,0.065 -0.237,0 -0.066,-0.066 -0.066,-0.172 0,-0.236 z m -0.775,-0.775 c 0.066,-0.066 0.172,-0.066 0.237,0 0.066,0.066 0.066,0.172 0,0.237 -0.066,0.066 -0.172,0.066 -0.237,0 -0.065,-0.065 -0.065,-0.171 0,-0.237 z m -0.815,-0.815 c 0.066,-0.066 0.172,-0.066 0.237,0 0.065,0.065 0.065,0.172 0,0.236 -0.066,0.066 -0.172,0.066 -0.237,0 -0.066,-0.064 -0.066,-0.171 0,-0.236 z m -1.589,-1.59 c 0.065,-0.064 0.17,-0.064 0.236,0 0.066,0.067 0.066,0.172 0,0.237 -0.066,0.066 -0.171,0.066 -0.236,0 -0.065,-0.065 -0.065,-0.17 0,-0.237 z M 16.78,12.182 c -0.066,-0.064 -0.066,-0.17 0,-0.236 0.065,-0.066 0.171,-0.066 0.236,0 0.066,0.066 0.066,0.172 0,0.236 -0.065,0.065 -0.171,0.065 -0.236,0 z m 0.795,0.559 c 0.066,-0.065 0.172,-0.065 0.237,0 0.065,0.066 0.065,0.171 0,0.236 -0.066,0.067 -0.172,0.067 -0.237,0 -0.065,-0.065 -0.065,-0.17 0,-0.236 z m 9.171,9.147 c -0.172,0.172 -0.451,0.172 -0.623,0 -0.171,-0.172 -0.171,-0.451 0,-0.623 0.172,-0.172 0.451,-0.172 0.623,0 0.173,0.172 0.173,0.451 0,0.623 z M 11.639,8.397 c -0.172,0.173 -0.451,0.173 -0.623,0 -0.172,-0.172 -0.172,-0.45 0,-0.623 0.172,-0.171 0.451,-0.171 0.623,0 0.173,0.172 0.173,0.451 0,0.623 z m 12.935,12.932 c 0.153,-0.154 0.403,-0.154 0.556,0 0.154,0.153 0.154,0.403 0,0.556 -0.154,0.153 -0.403,0.153 -0.556,0 -0.155,-0.153 -0.155,-0.403 0,-0.556 z M 12.414,9.169 c -0.153,0.154 -0.403,0.154 -0.557,0 -0.153,-0.153 -0.153,-0.403 0,-0.557 0.154,-0.154 0.404,-0.154 0.557,0 0.154,0.154 0.154,0.403 0,0.557 z m 0.764,0.758 c -0.139,0.138 -0.364,0.138 -0.504,0 -0.138,-0.14 -0.138,-0.364 0,-0.504 0.14,-0.14 0.365,-0.14 0.504,0 0.14,0.14 0.14,0.364 0,0.504 z M 23.802,20.55 c 0.139,-0.138 0.365,-0.138 0.504,0 0.139,0.14 0.139,0.366 0,0.504 -0.139,0.138 -0.365,0.138 -0.504,0 -0.139,-0.139 -0.139,-0.365 0,-0.504 z m -0.756,-0.743 c 0.117,-0.116 0.308,-0.116 0.425,0 0.117,0.117 0.117,0.308 0,0.425 -0.117,0.117 -0.308,0.117 -0.425,0 -0.116,-0.117 -0.116,-0.307 0,-0.425 z m -9.11,-9.11 c -0.117,0.116 -0.308,0.116 -0.425,0 -0.117,-0.117 -0.117,-0.308 0,-0.425 0.117,-0.116 0.308,-0.116 0.425,0 0.117,0.117 0.117,0.307 0,0.425 z m 0.737,0.735 c -0.088,0.088 -0.231,0.088 -0.319,0 -0.088,-0.088 -0.088,-0.231 0,-0.319 0.088,-0.088 0.23,-0.088 0.319,0 0.088,0.088 0.088,0.231 0,0.319 z m 7.637,7.637 c 0.088,-0.088 0.23,-0.088 0.318,0 0.088,0.088 0.088,0.23 0,0.319 -0.088,0.088 -0.23,0.088 -0.318,0 -0.088,-0.09 -0.088,-0.232 0,-0.319 z m -0.779,-0.748 c 0.065,-0.066 0.173,-0.066 0.238,0 0.066,0.067 0.066,0.174 0,0.24 -0.066,0.065 -0.173,0.065 -0.238,0 -0.066,-0.066 -0.066,-0.173 0,-0.24 z m -0.79,-0.814 c 0.065,-0.065 0.17,-0.065 0.236,0 0.066,0.067 0.066,0.172 0,0.237 -0.066,0.066 -0.171,0.066 -0.236,0 -0.065,-0.065 -0.065,-0.17 0,-0.237 z m -0.774,-0.773 c 0.065,-0.065 0.171,-0.065 0.236,0 0.066,0.066 0.066,0.172 0,0.237 -0.066,0.065 -0.172,0.065 -0.236,0 -0.065,-0.066 -0.065,-0.172 0,-0.237 z M 19.193,14.33 c 0.066,-0.067 0.172,-0.067 0.237,0 0.065,0.064 0.065,0.171 0,0.236 -0.066,0.066 -0.172,0.066 -0.237,0 -0.065,-0.066 -0.065,-0.172 0,-0.236 z m -0.048,1.582 c 0.066,-0.066 0.171,-0.066 0.237,0 0.065,0.066 0.065,0.17 0,0.236 -0.065,0.066 -0.171,0.066 -0.237,0 -0.065,-0.065 -0.065,-0.17 0,-0.236 z m -0.767,-0.767 c 0.066,-0.066 0.171,-0.066 0.236,0 0.066,0.065 0.066,0.17 0,0.236 -0.064,0.066 -0.17,0.066 -0.236,0 -0.065,-0.065 -0.065,-0.17 0,-0.236 z M 17.563,14.33 c 0.065,-0.067 0.171,-0.067 0.236,0 0.065,0.064 0.065,0.171 0,0.236 -0.066,0.066 -0.171,0.066 -0.236,0 -0.066,-0.066 -0.066,-0.172 0,-0.236 z m -1.584,-1.348 c -0.066,-0.065 -0.066,-0.172 0,-0.236 0.065,-0.065 0.172,-0.065 0.237,0 0.066,0.064 0.066,0.171 0,0.236 -0.065,0.066 -0.172,0.066 -0.237,0 z m 0.796,0.56 c 0.066,-0.066 0.171,-0.066 0.237,0 0.065,0.066 0.065,0.17 0,0.236 -0.066,0.066 -0.172,0.066 -0.237,0 -0.066,-0.066 -0.066,-0.171 0,-0.236 z m 9.163,9.153 c -0.172,0.173 -0.451,0.173 -0.623,0 -0.172,-0.172 -0.172,-0.451 0,-0.624 0.172,-0.17 0.452,-0.17 0.623,0 0.172,0.173 0.172,0.453 0,0.624 z M 10.846,9.191 c -0.172,0.173 -0.452,0.173 -0.624,0 -0.172,-0.172 -0.172,-0.451 0,-0.623 0.172,-0.172 0.451,-0.172 0.624,0 0.172,0.172 0.172,0.451 0,0.623 z m 12.925,12.94 c 0.154,-0.154 0.403,-0.154 0.557,0 0.153,0.153 0.153,0.403 0,0.556 -0.154,0.154 -0.403,0.154 -0.557,0 -0.153,-0.153 -0.153,-0.403 0,-0.556 z M 11.612,9.972 c -0.153,0.153 -0.403,0.153 -0.557,0 -0.153,-0.154 -0.153,-0.404 0,-0.557 0.154,-0.154 0.404,-0.154 0.557,0 0.155,0.153 0.155,0.402 0,0.557 z m 0.772,0.75 c -0.14,0.14 -0.364,0.14 -0.504,0 -0.139,-0.138 -0.139,-0.365 0,-0.504 0.14,-0.14 0.364,-0.14 0.504,0 0.139,0.139 0.139,0.365 0,0.504 z m 10.624,10.623 c 0.139,-0.139 0.364,-0.139 0.503,0 0.138,0.138 0.138,0.365 0,0.503 -0.139,0.14 -0.365,0.14 -0.503,0 -0.14,-0.138 -0.14,-0.364 0,-0.503 z m -0.751,-0.748 c 0.117,-0.116 0.308,-0.116 0.425,0 0.117,0.117 0.117,0.308 0,0.425 -0.117,0.117 -0.308,0.117 -0.425,0 -0.117,-0.118 -0.117,-0.308 0,-0.425 z m -9.11,-9.111 c -0.117,0.116 -0.308,0.116 -0.425,0 -0.117,-0.117 -0.117,-0.308 0,-0.424 0.117,-0.118 0.308,-0.118 0.425,0 0.116,0.117 0.116,0.307 0,0.424 z m 0.729,0.741 c -0.088,0.088 -0.23,0.088 -0.318,0 -0.088,-0.088 -0.088,-0.23 0,-0.317 0.088,-0.088 0.23,-0.088 0.318,0 0.088,0.088 0.088,0.23 0,0.317 z m 7.637,7.638 c 0.088,-0.088 0.231,-0.088 0.319,0 0.088,0.088 0.088,0.23 0,0.318 -0.088,0.089 -0.231,0.089 -0.319,0 -0.087,-0.088 -0.087,-0.23 0,-0.318 z m -0.779,-0.746 c 0.066,-0.067 0.173,-0.067 0.238,0 0.066,0.065 0.066,0.172 0,0.238 -0.065,0.066 -0.173,0.066 -0.238,0 -0.066,-0.066 -0.066,-0.172 0,-0.238 z M 19.94,18.308 c 0.065,-0.064 0.172,-0.064 0.237,0 0.066,0.066 0.066,0.172 0,0.237 -0.065,0.066 -0.171,0.066 -0.237,0 -0.065,-0.066 -0.065,-0.172 0,-0.237 z m -0.774,-0.774 c 0.066,-0.066 0.172,-0.066 0.237,0 0.065,0.065 0.065,0.172 0,0.237 -0.066,0.066 -0.171,0.066 -0.237,0 -0.065,-0.065 -0.065,-0.171 0,-0.237 z m -0.815,-0.815 c 0.066,-0.066 0.172,-0.066 0.237,0 0.066,0.066 0.066,0.172 10e-4,0.236 -0.066,0.066 -0.172,0.066 -0.237,0 -0.067,-0.064 -0.067,-0.17 -0.001,-0.236 z m -0.773,-0.773 c 0.065,-0.066 0.171,-0.066 0.237,0 0.065,0.066 0.065,0.17 0,0.236 -0.066,0.066 -0.172,0.066 -0.237,0 -0.066,-0.066 -0.066,-0.171 0,-0.236 z m -0.816,-0.817 c 0.066,-0.066 0.171,-0.066 0.237,0 0.066,0.066 0.066,0.172 0,0.237 -0.065,0.065 -0.171,0.065 -0.237,0 -0.066,-0.065 -0.066,-0.171 0,-0.237 z m -1.583,-1.346 c -0.066,-0.066 -0.066,-0.172 0,-0.236 0.065,-0.065 0.171,-0.065 0.237,0 0.065,0.064 0.065,0.171 0,0.236 -0.066,0.065 -0.173,0.065 -0.237,0 z m 0.795,0.559 c 0.066,-0.066 0.172,-0.066 0.237,0 0.066,0.066 0.066,0.17 0,0.236 -0.065,0.066 -0.171,0.066 -0.237,0 -0.065,-0.065 -0.065,-0.17 0,-0.236 z m 9.171,9.148 c -0.173,0.172 -0.452,0.172 -0.624,0 -0.173,-0.172 -0.173,-0.451 0,-0.623 0.172,-0.173 0.451,-0.173 0.624,0 0.17,0.172 0.17,0.451 0,0.623 z M 10.029,10.009 c -0.172,0.172 -0.451,0.172 -0.623,0 -0.172,-0.171 -0.172,-0.451 0,-0.624 0.172,-0.172 0.451,-0.172 0.623,0 0.172,0.173 0.172,0.452 0,0.624 z M 22.97,22.932 c 0.154,-0.153 0.403,-0.153 0.557,0 0.154,0.153 0.154,0.403 0,0.558 -0.154,0.153 -0.403,0.153 -0.557,0 -0.154,-0.156 -0.154,-0.406 0,-0.558 z M 10.811,10.773 c -0.153,0.153 -0.403,0.153 -0.557,0 -0.154,-0.155 -0.154,-0.404 0,-0.557 0.154,-0.154 0.403,-0.154 0.557,0 0.154,0.153 0.154,0.403 0,0.557 z m 0.759,0.763 c -0.139,0.138 -0.365,0.138 -0.504,0 -0.139,-0.138 -0.139,-0.364 0,-0.504 0.14,-0.138 0.365,-0.138 0.504,0 0.14,0.139 0.14,0.365 0,0.504 z m 10.623,10.622 c 0.14,-0.138 0.365,-0.138 0.504,0 0.14,0.14 0.14,0.366 0,0.504 -0.139,0.14 -0.364,0.14 -0.504,0 -0.139,-0.138 -0.139,-0.364 0,-0.504 z m -0.748,-0.749 c 0.117,-0.117 0.307,-0.117 0.424,0 0.117,0.117 0.117,0.308 0,0.425 -0.117,0.116 -0.307,0.116 -0.424,0 -0.117,-0.117 -0.117,-0.307 0,-0.425 z m -9.111,-9.111 c -0.117,0.117 -0.306,0.117 -0.424,0 -0.117,-0.117 -0.117,-0.306 0,-0.424 0.117,-0.117 0.306,-0.117 0.424,0 0.117,0.117 0.117,0.306 0,0.424 z m 0.732,0.741 c -0.088,0.088 -0.231,0.088 -0.319,0 -0.088,-0.089 -0.088,-0.231 0,-0.319 0.088,-0.088 0.231,-0.088 0.319,0 0.088,0.088 0.088,0.23 0,0.319 z m 7.637,7.637 c 0.088,-0.088 0.231,-0.088 0.319,0 0.088,0.088 0.088,0.23 0,0.317 -0.088,0.089 -0.231,0.089 -0.319,0 -0.088,-0.088 -0.088,-0.23 0,-0.317 z m -0.767,-0.76 c 0.066,-0.065 0.173,-0.065 0.239,0 0.065,0.066 0.065,0.173 0,0.238 -0.066,0.067 -0.173,0.067 -0.239,0 -0.066,-0.065 -0.066,-0.173 0,-0.238 z M 19.14,19.109 c 0.066,-0.066 0.171,-0.066 0.237,0 0.065,0.064 0.065,0.171 0,0.236 -0.066,0.066 -0.171,0.066 -0.237,0 -0.066,-0.065 -0.066,-0.171 0,-0.236 z m -0.774,-0.774 c 0.066,-0.066 0.171,-0.066 0.237,0 0.066,0.066 0.066,0.172 0,0.237 -0.065,0.066 -0.171,0.066 -0.237,0 -0.065,-0.066 -0.065,-0.172 0,-0.237 z M 17.55,17.519 c 0.065,-0.065 0.172,-0.065 0.237,0 0.066,0.064 0.066,0.172 0,0.237 -0.065,0.064 -0.171,0.064 -0.237,0 -0.065,-0.065 -0.065,-0.172 0,-0.237 z m -0.773,-0.773 c 0.066,-0.066 0.171,-0.066 0.237,0 0.065,0.066 0.065,0.172 0,0.236 -0.066,0.066 -0.171,0.066 -0.237,0 -0.065,-0.064 -0.065,-0.17 0,-0.236 z M 15.961,15.93 c 0.066,-0.066 0.171,-0.066 0.237,0 0.066,0.065 0.066,0.172 0,0.237 -0.066,0.066 -0.171,0.066 -0.237,0 -0.065,-0.066 -0.065,-0.172 0,-0.237 z m -1.583,-1.347 c -0.066,-0.066 -0.066,-0.17 0,-0.236 0.066,-0.066 0.171,-0.066 0.236,0 0.066,0.066 0.066,0.17 0,0.236 -0.065,0.066 -0.17,0.066 -0.236,0 z m 0.796,0.56 c 0.065,-0.066 0.172,-0.066 0.237,0 0.066,0.066 0.066,0.171 0,0.236 -0.065,0.066 -0.171,0.066 -0.237,0 -0.066,-0.066 -0.066,-0.171 0,-0.236 z m 9.153,9.163 c -0.172,0.173 -0.451,0.173 -0.623,0 -0.173,-0.172 -0.173,-0.451 0,-0.624 0.171,-0.17 0.45,-0.17 0.623,0 0.172,0.173 0.172,0.453 0,0.624 z M 9.237,10.8 c -0.173,0.172 -0.452,0.172 -0.623,0 -0.172,-0.172 -0.172,-0.451 0,-0.624 0.172,-0.172 0.451,-0.172 0.623,0 0.171,0.174 0.171,0.453 0,0.624 z m 12.931,12.933 c 0.154,-0.153 0.404,-0.153 0.557,0 0.155,0.154 0.155,0.404 0,0.557 -0.153,0.154 -0.402,0.154 -0.557,0 -0.153,-0.153 -0.153,-0.403 0,-0.557 z M 10.009,11.575 c -0.154,0.153 -0.403,0.153 -0.557,0 -0.154,-0.154 -0.154,-0.404 0,-0.557 0.153,-0.155 0.403,-0.155 0.557,0 0.154,0.153 0.154,0.403 0,0.557 z m 0.764,0.757 c -0.138,0.138 -0.364,0.138 -0.504,0 -0.138,-0.14 -0.138,-0.366 0,-0.504 0.14,-0.14 0.366,-0.14 0.504,0 0.14,0.139 0.14,0.365 0,0.504 z m 10.624,10.623 c 0.139,-0.14 0.365,-0.14 0.504,0 0.139,0.14 0.139,0.364 0,0.504 -0.139,0.14 -0.365,0.14 -0.504,0 -0.139,-0.14 -0.139,-0.364 0,-0.504 z m -0.754,-0.744 c 0.117,-0.116 0.308,-0.116 0.424,0 0.117,0.117 0.117,0.308 0,0.425 -0.116,0.117 -0.306,0.117 -0.424,0 -0.117,-0.117 -0.117,-0.307 0,-0.425 z M 11.532,13.1 c -0.117,0.117 -0.307,0.117 -0.424,0 -0.117,-0.117 -0.117,-0.306 0,-0.424 0.117,-0.117 0.308,-0.117 0.424,0 0.117,0.117 0.117,0.306 0,0.424 z m 0.734,0.738 c -0.088,0.088 -0.23,0.088 -0.318,0 -0.088,-0.088 -0.088,-0.23 0,-0.319 0.088,-0.088 0.23,-0.088 0.318,0 0.088,0.09 0.088,0.232 0,0.319 z m 7.637,7.637 c 0.088,-0.088 0.23,-0.088 0.318,0 0.088,0.089 0.088,0.231 0,0.319 -0.088,0.088 -0.231,0.088 -0.318,0 -0.088,-0.088 -0.088,-0.23 0,-0.319 z m -0.764,-0.762 c 0.067,-0.066 0.173,-0.066 0.24,0 0.066,0.066 0.066,0.173 0,0.239 -0.067,0.067 -0.173,0.067 -0.24,0 -0.066,-0.066 -0.066,-0.174 0,-0.239 z m -0.8,-0.803 c 0.066,-0.065 0.171,-0.065 0.236,0 0.066,0.064 0.066,0.171 0,0.236 -0.065,0.065 -0.17,0.065 -0.236,0 -0.065,-0.066 -0.065,-0.172 0,-0.236 z m -0.773,-0.775 c 0.065,-0.066 0.171,-0.066 0.236,0 0.066,0.066 0.066,0.172 0,0.237 -0.066,0.066 -0.171,0.066 -0.236,0 -0.066,-0.065 -0.066,-0.171 0,-0.237 z M 16.75,18.32 c 0.066,-0.066 0.172,-0.066 0.237,0 0.065,0.065 0.065,0.172 0,0.236 -0.066,0.065 -0.172,0.065 -0.237,10e-4 -0.065,-0.065 -0.065,-0.172 0,-0.237 z m -0.773,-0.773 c 0.066,-0.065 0.172,-0.065 0.236,0 0.065,0.066 0.065,0.172 0,0.236 -0.065,0.065 -0.171,0.065 -0.236,0 -0.066,-0.065 -0.066,-0.171 0,-0.236 z M 15.161,16.73 c 0.065,-0.064 0.171,-0.064 0.237,0 0.066,0.067 0.066,0.172 0,0.237 -0.066,0.066 -0.172,0.066 -0.237,0 -0.066,-0.065 -0.066,-0.17 0,-0.237 z m -1.583,-1.346 c -0.066,-0.066 -0.066,-0.17 0,-0.236 0.066,-0.066 0.171,-0.066 0.237,0 0.065,0.066 0.065,0.17 0,0.236 -0.066,0.065 -0.172,0.065 -0.237,0 z m 0.795,0.559 c 0.066,-0.066 0.171,-0.066 0.237,0 0.065,0.065 0.065,0.17 0,0.236 -0.065,0.067 -0.171,0.067 -0.237,0 -0.066,-0.065 -0.066,-0.17 0,-0.236 z m 9.161,9.157 c -0.172,0.171 -0.45,0.171 -0.623,0 -0.172,-0.172 -0.172,-0.451 0,-0.624 0.172,-0.172 0.451,-0.172 0.623,0 0.173,0.171 0.173,0.452 0,0.624 z M 8.437,11.6 c -0.172,0.172 -0.451,0.172 -0.623,0 -0.173,-0.172 -0.173,-0.451 0,-0.623 0.172,-0.173 0.451,-0.173 0.623,0 0.172,0.172 0.172,0.451 0,0.623 z m 14.299,14.299 c -0.172,0.172 -0.451,0.172 -0.623,0 -0.172,-0.173 -0.172,-0.451 0,-0.624 0.172,-0.172 0.451,-0.172 0.623,0 0.172,0.173 0.172,0.451 0,0.624 z M 9.211,12.373 c -0.153,0.153 -0.403,0.153 -0.557,0 -0.154,-0.154 -0.154,-0.404 0,-0.557 0.154,-0.154 0.403,-0.154 0.557,0 0.154,0.153 0.154,0.403 0,0.557 z M 21.37,24.531 c 0.154,-0.153 0.403,-0.153 0.557,0 0.154,0.154 0.154,0.404 0,0.557 -0.154,0.154 -0.403,0.154 -0.557,0 -0.153,-0.153 -0.153,-0.402 0,-0.557 z M 20.592,23.76 c 0.139,-0.14 0.364,-0.14 0.503,0 0.139,0.138 0.139,0.364 0,0.503 -0.139,0.14 -0.365,0.14 -0.503,0 -0.14,-0.138 -0.14,-0.364 0,-0.503 z m -0.746,-0.751 c 0.117,-0.117 0.307,-0.117 0.424,0 0.117,0.117 0.117,0.308 0,0.424 -0.117,0.117 -0.306,0.117 -0.424,0 -0.118,-0.116 -0.118,-0.306 0,-0.424 z m -0.427,-0.732 c 0.088,0.089 0.088,0.231 0,0.319 -0.088,0.088 -0.23,0.088 -0.318,0 -0.088,-0.088 -0.088,-0.23 0,-0.319 0.089,-0.088 0.231,-0.088 0.318,0 z m -3.47,-3.156 c 0.066,-0.066 0.171,-0.066 0.237,0 0.065,0.066 0.065,0.17 0,0.236 -0.066,0.067 -0.172,0.067 -0.237,0 -0.065,-0.066 -0.065,-0.171 0,-0.236 z m -2.936,-2.937 c -0.065,0.066 -0.171,0.066 -0.236,0 -0.065,-0.065 -0.065,-0.17 0,-0.236 0.066,-0.066 0.171,-0.066 0.236,0 0.066,0.066 0.066,0.171 0,0.236 z m 0.796,0.797 c -0.065,0.064 -0.171,0.064 -0.237,0 -0.066,-0.066 -0.066,-0.172 0,-0.237 0.066,-0.066 0.172,-0.066 0.237,0 0.066,0.065 0.066,0.171 0,0.237 z m 1.604,1.366 c 0.065,0.064 0.065,0.17 0,0.237 -0.065,0.064 -0.171,0.064 -0.237,0 -0.066,-0.067 -0.066,-0.173 0,-0.237 0.066,-0.065 0.172,-0.065 0.237,0 z m -0.816,-0.579 c -0.065,0.066 -0.171,0.066 -0.237,0 -0.065,-0.065 -0.065,-0.172 0,-0.236 0.066,-0.066 0.172,-0.066 0.237,0 0.065,0.064 0.065,0.17 0,0.236 z m -3.45,-3.446 c 0.088,-0.089 0.23,-0.089 0.318,0 0.088,0.088 0.088,0.23 0,0.317 -0.088,0.088 -0.23,0.088 -0.318,0 -0.089,-0.087 -0.089,-0.229 0,-0.317 z M 9.465,13.136 c -0.14,-0.138 -0.14,-0.364 0,-0.503 0.138,-0.139 0.364,-0.139 0.503,0 0.139,0.138 0.139,0.365 0,0.503 -0.138,0.14 -0.364,0.14 -0.503,0 z m 0.845,0.338 c 0.117,-0.117 0.306,-0.117 0.424,0 0.117,0.117 0.117,0.306 0,0.425 -0.117,0.116 -0.307,0.116 -0.424,0 -0.117,-0.119 -0.117,-0.308 0,-0.425 z m 7.358,8.966 c -0.445,0.446 -1.166,0.446 -1.611,0 -0.445,-0.445 -0.445,-1.165 0,-1.611 0.445,-0.445 1.166,-0.445 1.611,0 0.445,0.446 0.445,1.166 0,1.611 z m 2.902,2.892 c 0.154,-0.154 0.403,-0.154 0.556,0 0.155,0.155 0.155,0.404 0,0.557 -0.153,0.153 -0.403,0.153 -0.556,0 -0.154,-0.154 -0.154,-0.403 0,-0.557 z m -0.775,-0.769 c 0.14,-0.138 0.365,-0.138 0.504,0 0.14,0.14 0.14,0.366 0,0.504 -0.139,0.14 -0.364,0.14 -0.504,0 -0.139,-0.138 -0.139,-0.364 0,-0.504 z m -1.486,-1.174 c -0.088,-0.088 -0.088,-0.231 0,-0.319 0.088,-0.088 0.23,-0.088 0.317,0 0.088,0.088 0.088,0.231 0,0.319 -0.087,0.087 -0.229,0.087 -0.317,0 z m 0.742,0.416 c 0.117,-0.117 0.307,-0.117 0.424,0 0.117,0.116 0.117,0.306 0,0.424 -0.117,0.117 -0.308,0.117 -0.424,0 -0.117,-0.118 -0.117,-0.308 0,-0.424 z m 2.885,2.893 c -0.172,0.172 -0.451,0.172 -0.623,0 -0.172,-0.172 -0.172,-0.452 0,-0.624 0.172,-0.172 0.451,-0.172 0.623,0 0.173,0.172 0.173,0.453 0,0.624 z m -0.809,0.809 c -0.172,0.173 -0.451,0.173 -0.624,0 -0.172,-0.171 -0.172,-0.451 0,-0.623 0.173,-0.173 0.452,-0.173 0.624,0 0.171,0.173 0.171,0.453 0,0.623 z M 7.597,13.986 c -0.154,0.154 -0.404,0.154 -0.557,0 -0.154,-0.153 -0.154,-0.403 0,-0.557 0.153,-0.153 0.403,-0.153 0.557,0 0.154,0.155 0.154,0.404 0,0.557 z m 0.772,0.752 c -0.139,0.138 -0.365,0.138 -0.504,0 -0.139,-0.14 -0.139,-0.366 0,-0.504 0.139,-0.14 0.365,-0.14 0.504,0 0.139,0.138 0.139,0.364 0,0.504 z m 0.751,0.774 c -0.117,0.117 -0.307,0.117 -0.424,0 -0.117,-0.117 -0.117,-0.308 0,-0.425 0.117,-0.117 0.308,-0.117 0.424,0 0.117,0.117 0.117,0.308 0,0.425 z m 0.743,0.739 c -0.088,0.088 -0.23,0.088 -0.319,0 -0.088,-0.089 -0.088,-0.231 0,-0.319 0.088,-0.088 0.231,-0.088 0.319,0 0.088,0.088 0.088,0.23 0,0.319 z m 1.542,1.544 c -0.066,0.066 -0.172,0.066 -0.238,0 -0.066,-0.065 -0.066,-0.173 0,-0.238 0.066,-0.066 0.172,-0.066 0.238,0 0.066,0.065 0.066,0.173 0,0.238 z m 0.793,0.793 c -0.066,0.065 -0.172,0.065 -0.238,0 -0.066,-0.067 -0.066,-0.173 0,-0.24 0.066,-0.066 0.172,-0.066 0.238,0 0.066,0.067 0.066,0.173 0,0.24 z m 0.793,0.793 c -0.065,0.065 -0.172,0.065 -0.238,0 -0.066,-0.067 -0.066,-0.173 0,-0.24 0.066,-0.066 0.173,-0.066 0.238,0 0.066,0.067 0.066,0.173 0,0.24 z m 0.793,0.792 c -0.065,0.065 -0.173,0.065 -0.238,0 -0.066,-0.066 -0.066,-0.172 0,-0.239 0.066,-0.066 0.173,-0.066 0.238,0 0.066,0.067 0.066,0.174 0,0.239 z m 0.793,0.793 c -0.066,0.067 -0.173,0.067 -0.238,0 -0.066,-0.066 -0.066,-0.172 0,-0.238 0.066,-0.065 0.173,-0.065 0.238,0 0.065,0.066 0.065,0.173 0,0.238 z m 3.242,3.24 c -0.088,0.088 -0.23,0.088 -0.319,0 -0.088,-0.088 -0.088,-0.231 0,-0.319 0.088,-0.088 0.23,-0.088 0.319,0 0.087,0.088 0.087,0.231 0,0.319 z m 0.837,0.842 c -0.117,0.117 -0.308,0.117 -0.425,0 -0.116,-0.117 -0.116,-0.308 0,-0.424 0.117,-0.117 0.308,-0.117 0.425,0 0.117,0.116 0.117,0.306 0,0.424 z m 1.657,1.098 c 0.154,0.154 0.154,0.404 0,0.557 -0.153,0.153 -0.403,0.153 -0.556,0 -0.154,-0.153 -0.154,-0.403 0,-0.557 0.153,-0.155 0.402,-0.155 0.556,0 z m -0.817,-0.282 c -0.139,0.138 -0.366,0.138 -0.504,0 -0.139,-0.138 -0.139,-0.366 0,-0.505 0.138,-0.137 0.365,-0.137 0.504,0 0.138,0.139 0.138,0.367 0,0.505 z M 6.205,12.585 c 0.172,-0.172 0.451,-0.172 0.623,0 0.173,0.173 0.173,0.452 0,0.624 -0.172,0.172 -0.451,0.172 -0.623,0 -0.173,-0.171 -0.173,-0.45 0,-0.624 z m 2.206,0.587 c -0.155,0.153 -0.403,0.153 -0.557,0 -0.154,-0.153 -0.154,-0.403 0,-0.557 0.154,-0.153 0.403,-0.153 0.557,0 0.154,0.155 0.154,0.404 0,0.557 z m 0.761,0.769 c -0.14,0.14 -0.365,0.14 -0.504,0 -0.139,-0.14 -0.139,-0.364 0,-0.504 0.139,-0.14 0.365,-0.14 0.504,0 0.139,0.139 0.139,0.364 0,0.504 z m 0.768,0.752 c -0.117,0.116 -0.308,0.116 -0.425,0 -0.117,-0.117 -0.117,-0.308 0,-0.425 0.117,-0.117 0.308,-0.117 0.425,0 0.117,0.117 0.117,0.308 0,0.425 z m 0.731,0.74 c -0.088,0.088 -0.23,0.088 -0.318,0 -0.088,-0.088 -0.088,-0.231 0,-0.319 0.088,-0.088 0.23,-0.088 0.318,0 0.088,0.088 0.088,0.231 0,0.319 z m 1.542,1.552 c -0.066,0.065 -0.171,0.065 -0.237,0 -0.065,-0.066 -0.065,-0.171 0,-0.236 0.066,-0.066 0.171,-0.066 0.237,0 0.066,0.065 0.066,0.17 0,0.236 z m 0.796,0.796 c -0.066,0.064 -0.171,0.064 -0.237,0 -0.066,-0.065 -0.066,-0.172 0,-0.237 0.066,-0.066 0.171,-0.066 0.237,0 0.065,0.066 0.065,0.172 0,0.237 z m 0.787,0.787 c -0.065,0.065 -0.172,0.065 -0.237,0 -0.066,-0.066 -0.066,-0.172 0,-0.236 0.065,-0.067 0.171,-0.067 0.237,0 0.066,0.065 0.066,0.171 0,0.236 z m 1.59,1.353 c 0.065,0.066 0.065,0.171 0,0.237 -0.066,0.064 -0.172,0.064 -0.237,0 -0.066,-0.067 -0.066,-0.172 0,-0.237 0.065,-0.066 0.172,-0.066 0.237,0 z m -0.774,-0.537 c -0.065,0.066 -0.171,0.066 -0.237,0 -0.066,-0.066 -0.066,-0.172 0,-0.236 0.065,-0.066 0.172,-0.066 0.237,0 0.065,0.064 0.065,0.17 0,0.236 z M 7.014,11.776 c 0.173,-0.173 0.452,-0.173 0.624,0 0.171,0.172 0.171,0.451 0,0.623 -0.172,0.173 -0.451,0.173 -0.624,0 -0.172,-0.172 -0.172,-0.451 0,-0.623 z m -0.978,2.226 c -0.172,0.171 -0.451,0.171 -0.624,0 -0.171,-0.173 -0.171,-0.452 0,-0.624 0.173,-0.172 0.452,-0.172 0.624,0 0.172,0.172 0.172,0.452 0,0.624 z m 12.936,12.929 c 0.154,-0.154 0.403,-0.154 0.557,0 0.153,0.153 0.153,0.403 0,0.556 -0.155,0.154 -0.403,0.154 -0.557,0 -0.153,-0.154 -0.153,-0.403 0,-0.556 z M 6.813,14.771 c -0.154,0.153 -0.403,0.153 -0.557,0 -0.153,-0.154 -0.153,-0.404 0,-0.557 0.154,-0.154 0.403,-0.154 0.557,0 0.154,0.153 0.154,0.402 0,0.557 z m 0.761,0.761 c -0.139,0.138 -0.364,0.138 -0.504,0 -0.138,-0.14 -0.138,-0.364 0,-0.504 0.14,-0.138 0.365,-0.138 0.504,0 0.14,0.139 0.14,0.364 0,0.504 z m 10.623,10.622 c 0.139,-0.138 0.365,-0.138 0.503,0 0.14,0.14 0.14,0.365 0,0.504 -0.138,0.14 -0.364,0.14 -0.503,0 -0.139,-0.139 -0.139,-0.364 0,-0.504 z m -0.752,-0.746 c 0.117,-0.116 0.308,-0.116 0.425,0 0.117,0.117 0.117,0.307 0,0.425 -0.117,0.117 -0.308,0.117 -0.425,0 -0.116,-0.117 -0.116,-0.307 0,-0.425 z m -9.111,-9.11 c -0.117,0.117 -0.307,0.117 -0.424,0 -0.117,-0.117 -0.117,-0.308 0,-0.425 0.117,-0.116 0.307,-0.116 0.424,0 0.117,0.117 0.117,0.307 0,0.425 z m 0.735,0.738 c -0.088,0.088 -0.231,0.088 -0.319,0 -0.088,-0.088 -0.088,-0.231 0,-0.317 0.088,-0.089 0.23,-0.089 0.319,0 0.087,0.087 0.087,0.23 0,0.317 z m 0.792,0.794 c -0.088,0.088 -0.23,0.088 -0.318,0 -0.088,-0.088 -0.088,-0.231 0,-0.319 0.088,-0.088 0.23,-0.088 0.318,0 0.088,0.087 0.088,0.231 0,0.319 z m 0.793,0.793 c -0.088,0.088 -0.23,0.088 -0.318,0 -0.088,-0.088 -0.088,-0.231 0,-0.319 0.088,-0.088 0.23,-0.088 0.318,0 0.088,0.088 0.088,0.231 0,0.319 z m 0.796,0.795 c -0.088,0.088 -0.231,0.088 -0.318,0 -0.088,-0.088 -0.088,-0.231 0,-0.319 0.088,-0.088 0.23,-0.088 0.318,0 0.088,0.088 0.088,0.231 0,0.319 z m 0.793,0.793 c -0.088,0.088 -0.23,0.088 -0.318,0 -0.088,-0.089 -0.088,-0.231 0,-0.319 0.088,-0.088 0.23,-0.088 0.318,0 0.087,0.088 0.087,0.23 0,0.319 z m 0.8,0.799 c -0.088,0.088 -0.23,0.088 -0.319,0 -0.088,-0.088 -0.088,-0.23 0,-0.317 0.088,-0.089 0.231,-0.089 0.319,0 0.087,0.088 0.087,0.23 0,0.317 z m 0.797,0.797 c -0.088,0.088 -0.231,0.088 -0.319,0 -0.088,-0.089 -0.088,-0.231 0,-0.319 0.088,-0.088 0.231,-0.088 0.319,0 0.087,0.088 0.087,0.23 0,0.319 z m 0.795,0.796 c -0.088,0.089 -0.231,0.089 -0.319,0 -0.088,-0.088 -0.088,-0.231 0,-0.319 0.088,-0.087 0.231,-0.087 0.319,0 0.088,0.088 0.088,0.231 0,0.319 z m 0.788,0.787 c -0.089,0.089 -0.231,0.089 -0.318,0 -0.088,-0.088 -0.088,-0.23 0,-0.317 0.088,-0.088 0.23,-0.088 0.318,0 0.087,0.087 0.087,0.229 0,0.317 z m 1.6,1.283 c 0.088,0.089 0.088,0.231 0,0.319 -0.088,0.088 -0.23,0.088 -0.318,0 -0.088,-0.088 -0.088,-0.23 0,-0.319 0.088,-0.088 0.23,-0.088 0.318,0 z M 16.22,24.188 c -0.088,0.087 -0.231,0.087 -0.319,0 -0.088,-0.089 -0.088,-0.23 0,-0.319 0.088,-0.087 0.231,-0.087 0.319,0 0.088,0.089 0.088,0.23 0,0.319 z m 4.114,4.112 c -0.172,0.172 -0.452,0.172 -0.623,0 -0.172,-0.173 -0.172,-0.451 0,-0.624 0.172,-0.172 0.451,-0.172 0.623,0 0.172,0.174 0.172,0.451 0,0.624 z M 5.229,14.808 c -0.172,0.172 -0.451,0.172 -0.623,0 -0.172,-0.171 -0.172,-0.451 0,-0.624 0.172,-0.172 0.452,-0.172 0.623,0 0.173,0.173 0.173,0.452 0,0.624 z m 12.933,12.933 c 0.153,-0.154 0.403,-0.154 0.557,0 0.153,0.153 0.153,0.403 0,0.557 -0.154,0.153 -0.404,0.153 -0.557,0 -0.154,-0.154 -0.154,-0.404 0,-0.557 z M 6.003,15.581 c -0.154,0.153 -0.403,0.153 -0.557,0 -0.153,-0.154 -0.153,-0.404 0,-0.557 0.154,-0.153 0.403,-0.153 0.557,0 0.154,0.153 0.154,0.403 0,0.557 z m 0.754,0.767 c -0.139,0.14 -0.365,0.14 -0.504,0 -0.139,-0.138 -0.139,-0.364 0,-0.503 0.139,-0.14 0.365,-0.14 0.504,0 0.139,0.139 0.139,0.365 0,0.503 z m 10.622,10.625 c 0.139,-0.14 0.365,-0.14 0.504,0 0.139,0.14 0.139,0.364 0,0.504 -0.139,0.14 -0.365,0.14 -0.504,0 -0.139,-0.14 -0.139,-0.365 0,-0.504 z m -1.548,-1.55 c 0.117,-0.116 0.308,-0.116 0.425,0 0.117,0.119 0.117,0.308 0,0.425 -0.117,0.117 -0.308,0.117 -0.425,0 -0.117,-0.117 -0.117,-0.306 0,-0.425 z m -0.789,-0.788 c 0.117,-0.117 0.308,-0.117 0.425,0 0.117,0.116 0.117,0.306 0,0.424 -0.117,0.117 -0.308,0.117 -0.425,0 -0.118,-0.118 -0.118,-0.308 0,-0.424 z m -0.797,-0.797 c 0.117,-0.117 0.308,-0.117 0.425,0 0.117,0.116 0.117,0.306 0,0.424 -0.117,0.117 -0.307,0.117 -0.425,0 -0.118,-0.118 -0.118,-0.308 0,-0.424 z m -0.794,-0.795 c 0.117,-0.116 0.307,-0.116 0.424,0 0.117,0.119 0.117,0.308 0,0.425 -0.117,0.117 -0.308,0.117 -0.424,0 -0.117,-0.118 -0.117,-0.307 0,-0.425 z m -0.797,-0.797 c 0.117,-0.117 0.306,-0.117 0.424,0 0.117,0.117 0.117,0.308 0,0.425 -0.117,0.116 -0.307,0.116 -0.424,0 -0.118,-0.118 -0.118,-0.308 0,-0.425 z m -0.791,-0.789 c 0.117,-0.117 0.308,-0.117 0.425,0 0.117,0.117 0.117,0.306 0,0.424 -0.117,0.117 -0.308,0.117 -0.425,0 -0.117,-0.118 -0.117,-0.307 0,-0.424 z m -0.797,-0.799 c 0.117,-0.117 0.307,-0.117 0.424,0 0.117,0.117 0.117,0.308 0,0.425 -0.117,0.117 -0.307,0.117 -0.424,0 -0.117,-0.117 -0.117,-0.307 0,-0.425 z M 9.471,19.064 c 0.117,-0.117 0.307,-0.117 0.424,0 0.117,0.116 0.117,0.306 0,0.424 -0.117,0.117 -0.308,0.117 -0.424,0 -0.118,-0.118 -0.118,-0.308 0,-0.424 z M 8.68,18.273 c 0.117,-0.119 0.307,-0.119 0.424,0 0.117,0.117 0.117,0.306 0,0.424 -0.117,0.117 -0.307,0.117 -0.424,0 -0.117,-0.118 -0.117,-0.307 0,-0.424 z m 2.019,1.592 c 0.117,0.117 0.117,0.308 0,0.424 -0.117,0.117 -0.307,0.117 -0.424,0 -0.117,-0.116 -0.117,-0.306 0,-0.424 0.117,-0.117 0.307,-0.117 0.424,0 z m -2.81,-2.383 c 0.117,-0.117 0.307,-0.117 0.425,0 0.117,0.116 0.117,0.308 0,0.424 -0.117,0.117 -0.308,0.117 -0.425,0 -0.117,-0.116 -0.117,-0.308 0,-0.424 z m 9.172,8.733 c 0.117,0.118 0.117,0.307 0,0.424 -0.117,0.117 -0.308,0.117 -0.425,0 -0.117,-0.117 -0.117,-0.306 0,-0.424 0.118,-0.117 0.308,-0.117 0.425,0 z M 7.525,17.104 c -0.117,0.116 -0.307,0.116 -0.424,0 -0.117,-0.118 -0.117,-0.307 0,-0.425 0.117,-0.117 0.307,-0.117 0.424,0 0.117,0.118 0.117,0.307 0,0.425 z m 12.003,12.002 c -0.173,0.172 -0.451,0.172 -0.624,0 -0.172,-0.17 -0.172,-0.451 0,-0.623 0.172,-0.172 0.451,-0.172 0.624,0 0.172,0.172 0.172,0.453 0,0.623 z M 4.41,15.627 c -0.172,0.172 -0.451,0.172 -0.623,0 -0.172,-0.172 -0.172,-0.452 0,-0.624 0.172,-0.172 0.451,-0.172 0.623,0 0.173,0.172 0.173,0.452 0,0.624 z m 12.938,12.927 c 0.154,-0.153 0.403,-0.153 0.557,0 0.153,0.154 0.153,0.404 0,0.558 -0.155,0.153 -0.403,0.153 -0.557,0 -0.154,-0.154 -0.154,-0.404 0,-0.558 z M 5.189,16.395 c -0.154,0.153 -0.403,0.153 -0.557,0 -0.153,-0.154 -0.153,-0.404 0,-0.557 0.154,-0.153 0.403,-0.153 0.557,0 0.154,0.153 0.154,0.403 0,0.557 z m 0.75,0.772 c -0.139,0.138 -0.365,0.138 -0.503,0 -0.14,-0.14 -0.14,-0.364 0,-0.504 0.139,-0.14 0.364,-0.14 0.503,0 0.139,0.14 0.139,0.365 0,0.504 z m 0.799,0.797 c -0.14,0.139 -0.365,0.139 -0.504,0 -0.14,-0.138 -0.14,-0.365 0,-0.503 0.139,-0.14 0.364,-0.14 0.504,0 0.138,0.139 0.138,0.365 0,0.503 z m 0.794,0.796 c -0.139,0.14 -0.364,0.14 -0.504,0 -0.139,-0.14 -0.139,-0.364 0,-0.504 0.14,-0.14 0.365,-0.14 0.504,0 0.139,0.139 0.139,0.364 0,0.504 z m 0.79,0.79 c -0.138,0.14 -0.364,0.14 -0.503,0 -0.139,-0.138 -0.139,-0.364 0,-0.504 0.139,-0.138 0.365,-0.138 0.503,0 0.14,0.14 0.14,0.366 0,0.504 z m 0.792,0.791 c -0.14,0.14 -0.365,0.14 -0.504,0 -0.14,-0.138 -0.14,-0.365 0,-0.504 0.139,-0.138 0.364,-0.138 0.504,0 0.139,0.139 0.139,0.366 0,0.504 z m 0.809,0.809 c -0.139,0.14 -0.365,0.14 -0.504,0 -0.139,-0.14 -0.139,-0.364 0,-0.504 0.139,-0.138 0.365,-0.138 0.504,0 0.139,0.14 0.139,0.364 0,0.504 z m 0.786,0.786 c -0.139,0.14 -0.364,0.14 -0.503,0 -0.139,-0.138 -0.139,-0.364 0,-0.504 0.139,-0.138 0.365,-0.138 0.503,0 0.138,0.139 0.138,0.366 0,0.504 z m 0.805,0.806 c -0.139,0.137 -0.365,0.137 -0.504,0 -0.139,-0.14 -0.139,-0.366 0,-0.504 0.139,-0.14 0.365,-0.14 0.504,0 0.139,0.139 0.139,0.365 0,0.504 z m 0.791,0.791 c -0.14,0.138 -0.365,0.138 -0.504,0 -0.14,-0.14 -0.14,-0.366 0,-0.504 0.139,-0.138 0.364,-0.138 0.504,0 0.139,0.138 0.139,0.364 0,0.504 z m 0.793,0.793 c -0.14,0.138 -0.365,0.138 -0.504,0 -0.14,-0.139 -0.14,-0.366 0,-0.504 0.139,-0.14 0.365,-0.14 0.504,0 0.139,0.138 0.139,0.365 0,0.504 z m 0.795,0.794 c -0.139,0.14 -0.365,0.14 -0.504,0 -0.139,-0.14 -0.139,-0.365 0,-0.504 0.14,-0.138 0.365,-0.138 0.504,0 0.139,0.14 0.139,0.365 0,0.504 z m 0.793,0.792 c -0.14,0.14 -0.364,0.14 -0.504,0 -0.139,-0.138 -0.14,-0.365 0,-0.504 0.14,-0.137 0.364,-0.137 0.504,0 0.139,0.14 0.139,0.366 0,0.504 z m 0.798,0.798 c -0.14,0.14 -0.365,0.14 -0.504,0 -0.14,-0.137 -0.14,-0.364 0,-0.504 0.139,-0.137 0.364,-0.137 0.504,0 0.139,0.14 0.139,0.368 0,0.504 z m 1.582,1.08 c 0.138,0.138 0.138,0.364 0,0.504 -0.14,0.138 -0.364,0.138 -0.504,0 -0.139,-0.14 -0.139,-0.366 0,-0.504 0.14,-0.139 0.365,-0.139 0.504,0 z m -0.789,-0.285 c -0.14,0.138 -0.365,0.138 -0.504,0 -0.14,-0.14 -0.14,-0.366 0,-0.505 0.139,-0.138 0.364,-0.138 0.504,0 0.139,0.139 0.139,0.365 0,0.505 z m 2.432,2.421 c -0.172,0.172 -0.451,0.172 -0.624,0 -0.172,-0.173 -0.172,-0.452 0,-0.625 0.173,-0.172 0.452,-0.172 0.624,0 0.172,0.173 0.172,0.452 0,0.625 z M 3.627,16.41 c -0.172,0.172 -0.451,0.172 -0.623,0 -0.172,-0.171 -0.172,-0.451 0,-0.624 0.172,-0.172 0.451,-0.172 0.623,0 0.172,0.173 0.172,0.453 0,0.624 z M 16.55,29.353 c 0.153,-0.154 0.403,-0.154 0.557,0 0.153,0.155 0.153,0.403 0,0.557 -0.154,0.154 -0.404,0.154 -0.557,0 -0.155,-0.154 -0.155,-0.402 0,-0.557 z M 15.756,28.56 c 0.154,-0.154 0.403,-0.154 0.557,0 0.154,0.153 0.154,0.403 0,0.557 -0.153,0.153 -0.403,0.153 -0.557,0 -0.154,-0.154 -0.154,-0.404 0,-0.557 z M 7.545,20.336 c -0.139,0.14 -0.364,0.14 -0.503,0 -0.139,-0.138 -0.139,-0.364 0,-0.504 0.139,-0.138 0.364,-0.138 0.503,0 0.14,0.14 0.14,0.366 0,0.504 z m 0.792,0.792 c -0.14,0.138 -0.365,0.138 -0.504,0 -0.14,-0.14 -0.14,-0.364 0,-0.504 0.139,-0.138 0.364,-0.138 0.504,0 0.139,0.139 0.139,0.364 0,0.504 z m 0.8,0.8 c -0.138,0.137 -0.364,0.137 -0.503,0 -0.139,-0.14 -0.139,-0.364 0,-0.504 0.139,-0.14 0.365,-0.14 0.503,0 0.139,0.14 0.139,0.365 0,0.504 z m 0.798,0.797 c -0.139,0.14 -0.365,0.14 -0.504,0 -0.139,-0.138 -0.139,-0.364 0,-0.504 0.139,-0.138 0.365,-0.138 0.504,0 0.139,0.14 0.139,0.366 0,0.504 z m 1.59,1.59 c -0.14,0.14 -0.364,0.14 -0.504,0 -0.138,-0.14 -0.138,-0.365 0,-0.504 0.14,-0.14 0.364,-0.14 0.504,0 0.138,0.14 0.138,0.364 0,0.504 z m 0.796,0.797 c -0.139,0.138 -0.365,0.138 -0.503,0 -0.14,-0.139 -0.14,-0.366 0,-0.504 0.139,-0.139 0.364,-0.139 0.503,0 0.139,0.138 0.139,0.364 0,0.504 z m 0.79,0.789 c -0.14,0.14 -0.365,0.14 -0.504,0 -0.14,-0.14 -0.14,-0.364 0,-0.504 0.139,-0.14 0.364,-0.14 0.504,0 0.138,0.14 0.138,0.365 0,0.504 z m 0.791,0.794 c -0.138,0.138 -0.364,0.138 -0.503,0 -0.14,-0.14 -0.14,-0.366 0,-0.505 0.138,-0.14 0.365,-0.14 0.503,0 0.14,0.139 0.14,0.365 0,0.505 z m -3.688,-3.179 c -0.139,-0.14 -0.139,-0.365 0,-0.504 0.14,-0.14 0.365,-0.14 0.504,0 0.14,0.14 0.14,0.364 0,0.504 -0.139,0.139 -0.365,0.139 -0.504,0 z m 5.274,4.259 c 0.14,0.14 0.14,0.365 0,0.504 -0.139,0.14 -0.364,0.14 -0.504,0 -0.139,-0.14 -0.139,-0.364 0,-0.504 0.14,-0.139 0.366,-0.139 0.504,0 z m -0.79,-0.286 c -0.14,0.14 -0.365,0.14 -0.504,0 -0.14,-0.14 -0.14,-0.364 0,-0.504 0.139,-0.14 0.364,-0.14 0.504,0 0.139,0.14 0.139,0.364 0,0.504 z M 6.214,19.017 c 0.154,-0.153 0.403,-0.153 0.557,0 0.154,0.154 0.154,0.404 0,0.558 -0.153,0.153 -0.403,0.153 -0.557,0 -0.153,-0.154 -0.153,-0.404 0,-0.558 z M 5.426,18.229 c 0.154,-0.155 0.403,-0.155 0.557,0 0.154,0.153 0.154,0.403 0,0.557 -0.154,0.153 -0.403,0.153 -0.557,0 -0.154,-0.155 -0.154,-0.404 0,-0.557 z M 3.833,17.193 c -0.154,-0.154 -0.154,-0.403 0,-0.557 0.154,-0.153 0.403,-0.153 0.557,0 0.154,0.154 0.154,0.403 0,0.557 -0.153,0.155 -0.402,0.155 -0.557,0 z m 0.796,0.239 c 0.155,-0.153 0.404,-0.153 0.557,0 0.154,0.154 0.154,0.404 0,0.557 -0.153,0.154 -0.403,0.154 -0.557,0 -0.153,-0.153 -0.153,-0.403 0,-0.557 z m 13.297,13.276 c -0.173,0.173 -0.452,0.173 -0.624,0 -0.172,-0.172 -0.172,-0.451 0,-0.623 0.172,-0.172 0.451,-0.172 0.624,0 0.172,0.172 0.172,0.451 0,0.623 z M 2.815,17.222 c -0.172,0.172 -0.451,0.172 -0.622,0 -0.173,-0.172 -0.173,-0.451 0,-0.624 0.171,-0.172 0.451,-0.172 0.622,0 0.172,0.173 0.172,0.452 0,0.624 z m 0.804,0.803 c -0.172,0.173 -0.452,0.173 -0.623,0 -0.172,-0.172 -0.172,-0.451 0,-0.623 0.172,-0.172 0.451,-0.172 0.623,0 0.172,0.172 0.172,0.451 0,0.623 z m 0.8,0.8 c -0.172,0.171 -0.451,0.171 -0.623,0 -0.173,-0.173 -0.173,-0.451 0,-0.624 0.172,-0.172 0.451,-0.172 0.623,0 0.172,0.173 0.172,0.451 0,0.624 z m 0.797,0.797 c -0.172,0.173 -0.451,0.173 -0.623,0 -0.172,-0.172 -0.172,-0.451 0,-0.623 0.172,-0.172 0.451,-0.172 0.623,0 0.173,0.172 0.173,0.451 0,0.623 z m 0.788,0.788 c -0.172,0.172 -0.451,0.172 -0.622,0 -0.173,-0.172 -0.173,-0.451 0,-0.623 0.172,-0.173 0.451,-0.173 0.622,0 0.172,0.172 0.172,0.451 0,0.623 z m 0.788,0.787 c -0.173,0.173 -0.452,0.173 -0.624,0 -0.172,-0.17 -0.172,-0.45 10e-4,-0.623 0.172,-0.172 0.45,-0.172 0.623,0 0.172,0.173 0.172,0.453 0,0.623 z M 7.592,22 c -0.172,0.172 -0.451,0.172 -0.623,0 -0.172,-0.173 -0.172,-0.452 0,-0.625 0.172,-0.172 0.451,-0.172 0.623,0 0.172,0.173 0.172,0.452 0,0.625 z m 0.798,0.797 c -0.172,0.172 -0.452,0.172 -0.623,0 -0.172,-0.173 -0.172,-0.452 0,-0.624 0.171,-0.173 0.45,-0.173 0.623,0 0.172,0.172 0.172,0.451 0,0.624 z m 0.792,0.791 c -0.172,0.172 -0.451,0.172 -0.624,0 -0.172,-0.172 -0.172,-0.452 0,-0.624 0.173,-0.172 0.452,-0.172 0.624,0 0.172,0.172 0.172,0.453 0,0.624 z m 0.796,0.796 c -0.172,0.172 -0.451,0.172 -0.623,0 -0.172,-0.172 -0.172,-0.452 0,-0.623 0.172,-0.173 0.451,-0.173 0.623,0 0.171,0.171 0.171,0.451 0,0.623 z m 0.797,0.797 c -0.172,0.173 -0.451,0.173 -0.623,0 -0.173,-0.172 -0.173,-0.452 0,-0.624 0.172,-0.171 0.451,-0.171 0.623,0 0.172,0.172 0.172,0.452 0,0.624 z m 0.795,0.795 c -0.172,0.172 -0.451,0.172 -0.624,0 -0.172,-0.173 -0.172,-0.451 0,-0.622 0.173,-0.173 0.452,-0.173 0.624,0 0.172,0.172 0.172,0.449 0,0.622 z m 0.792,0.793 c -0.173,0.172 -0.452,0.172 -0.624,0 -0.172,-0.173 -0.172,-0.452 0,-0.624 0.172,-0.172 0.451,-0.172 0.624,0 0.172,0.172 0.172,0.451 0,0.624 z m 0.793,0.793 c -0.173,0.172 -0.452,0.172 -0.624,0 -0.172,-0.173 -0.172,-0.451 0,-0.624 0.172,-0.173 0.451,-0.173 0.624,0 0.172,0.173 0.172,0.451 0,0.624 z m 0.794,0.794 c -0.172,0.172 -0.451,0.172 -0.624,0 -0.172,-0.173 -0.172,-0.451 0,-0.624 0.173,-0.172 0.452,-0.172 0.624,0 0.172,0.173 0.172,0.451 0,0.624 z m 0.796,0.794 c -0.173,0.173 -0.452,0.173 -0.624,0 -0.172,-0.17 -0.172,-0.451 0,-0.623 0.172,-0.172 0.451,-0.172 0.624,0 0.172,0.172 0.172,0.453 0,0.623 z m 0.791,0.794 c -0.172,0.17 -0.451,0.17 -0.623,0 -0.172,-0.173 -0.172,-0.452 0,-0.624 0.172,-0.173 0.451,-0.173 0.623,0 0.172,0.171 0.172,0.451 0,0.624 z m 0.796,0.796 c -0.172,0.171 -0.451,0.171 -0.623,0 -0.173,-0.173 -0.173,-0.452 0,-0.625 0.172,-0.172 0.451,-0.172 0.623,0 0.173,0.173 0.173,0.452 0,0.625 z m 0.792,0.79 c -0.173,0.174 -0.451,0.174 -0.624,0 -0.172,-0.172 -0.172,-0.451 0,-0.623 0.172,-0.172 0.451,-0.172 0.624,0 0.172,0.172 0.172,0.451 0,0.623 z M 2.854,18.852 c -0.19,0.191 -0.499,0.191 -0.689,0 -0.19,-0.19 -0.19,-0.498 0,-0.689 0.19,-0.19 0.499,-0.19 0.689,0 0.191,0.192 0.191,0.499 0,0.689 z m 0.795,0.796 c -0.191,0.19 -0.499,0.19 -0.69,0 -0.19,-0.19 -0.19,-0.499 0,-0.69 0.191,-0.19 0.499,-0.19 0.69,0 0.19,0.191 0.19,0.5 0,0.69 z m 0.795,0.794 c -0.191,0.19 -0.499,0.19 -0.69,0 -0.191,-0.19 -0.191,-0.499 0,-0.689 0.191,-0.19 0.499,-0.19 0.69,0 0.19,0.19 0.19,0.499 0,0.689 z m 0.794,0.795 c -0.19,0.191 -0.499,0.191 -0.689,0 -0.19,-0.19 -0.19,-0.499 0,-0.689 0.19,-0.19 0.499,-0.19 0.689,0 0.19,0.19 0.19,0.498 0,0.689 z m 0.794,0.795 c -0.19,0.189 -0.499,0.189 -0.689,0 -0.19,-0.192 -0.19,-0.5 0,-0.691 0.19,-0.19 0.499,-0.19 0.689,0 0.19,0.191 0.19,0.5 0,0.691 z m 0.795,0.794 c -0.191,0.19 -0.5,0.19 -0.69,0 -0.19,-0.19 -0.19,-0.5 0,-0.689 0.19,-0.191 0.499,-0.191 0.69,0 0.19,0.189 0.19,0.499 0,0.689 z m 0.795,0.795 c -0.191,0.19 -0.499,0.19 -0.689,0 -0.192,-0.19 -0.192,-0.499 0,-0.689 0.19,-0.19 0.498,-0.19 0.689,0 0.19,0.19 0.19,0.498 0,0.689 z m 0.794,0.794 c -0.19,0.191 -0.499,0.191 -0.689,0 -0.19,-0.19 -0.19,-0.499 0,-0.689 0.19,-0.19 0.499,-0.19 0.689,0 0.191,0.19 0.191,0.499 0,0.689 z m 0.795,0.796 c -0.19,0.19 -0.499,0.19 -0.689,0 -0.19,-0.191 -0.19,-0.499 0,-0.691 0.19,-0.189 0.499,-0.189 0.689,0 0.191,0.192 0.191,0.499 0,0.691 z m 0.795,0.794 c -0.191,0.191 -0.5,0.191 -0.69,0 -0.191,-0.191 -0.191,-0.499 0,-0.689 0.19,-0.19 0.499,-0.19 0.69,0 0.19,0.19 0.19,0.498 0,0.689 z m 0.795,0.794 c -0.19,0.19 -0.499,0.19 -0.689,0 -0.191,-0.19 -0.191,-0.498 0,-0.69 0.19,-0.19 0.499,-0.19 0.689,0 0.19,0.193 0.19,0.5 0,0.69 z m 0.794,0.795 c -0.19,0.19 -0.499,0.19 -0.689,0 -0.19,-0.19 -0.19,-0.499 0,-0.689 0.19,-0.19 0.499,-0.19 0.689,0 0.19,0.19 0.19,0.499 0,0.689 z m 0.794,0.795 c -0.19,0.19 -0.499,0.19 -0.689,0 -0.19,-0.191 -0.19,-0.5 0,-0.689 0.19,-0.191 0.499,-0.191 0.689,0 0.191,0.189 0.191,0.498 0,0.689 z m 0.795,0.793 c -0.19,0.193 -0.499,0.193 -0.69,0 -0.19,-0.189 -0.19,-0.498 0,-0.689 0.191,-0.189 0.5,-0.189 0.69,0 0.191,0.192 0.191,0.5 0,0.689 z m 0.795,0.796 c -0.19,0.191 -0.499,0.191 -0.689,0 -0.19,-0.19 -0.19,-0.499 0,-0.691 0.19,-0.189 0.499,-0.189 0.689,0 0.19,0.192 0.19,0.501 0,0.691 z m 0.794,0.796 c -0.19,0.189 -0.499,0.189 -0.689,0 -0.19,-0.191 -0.19,-0.5 0,-0.691 0.19,-0.189 0.499,-0.189 0.689,0 0.191,0.19 0.191,0.499 0,0.691 z m 0.795,0.794 c -0.19,0.19 -0.499,0.19 -0.69,0 -0.19,-0.192 -0.19,-0.499 0,-0.689 0.191,-0.19 0.5,-0.19 0.69,0 0.191,0.19 0.191,0.497 0,0.689 z m 0.795,0.794 c -0.19,0.19 -0.499,0.19 -0.69,0 -0.19,-0.19 -0.19,-0.499 0,-0.689 0.191,-0.191 0.499,-0.191 0.69,0 0.19,0.19 0.19,0.499 0,0.689 z M 33.065,17.211 c -0.182,0.089 -0.406,0.058 -0.558,-0.092 -0.19,-0.19 -0.19,-0.499 0,-0.689 0.155,-0.154 0.385,-0.184 0.568,-0.089 C 32.99,16.207 32.954,16.05 32.97,15.897 l -0.034,-0.035 c -0.153,0.015 -0.31,-0.02 -0.445,-0.106 0.094,0.183 0.066,0.414 -0.089,0.568 -0.19,0.19 -0.499,0.19 -0.689,0 -0.19,-0.191 -0.19,-0.499 0,-0.691 0.154,-0.153 0.386,-0.183 0.568,-0.088 C 32.196,15.41 32.16,15.254 32.175,15.1 l -0.038,-0.037 c -0.153,0.015 -0.309,-0.02 -0.442,-0.105 0.096,0.183 0.067,0.415 -0.088,0.57 -0.19,0.19 -0.499,0.19 -0.69,0 -0.19,-0.19 -0.19,-0.499 0,-0.689 0.153,-0.153 0.383,-0.183 0.567,-0.089 -0.088,-0.135 -0.124,-0.293 -0.109,-0.446 l -0.032,-0.033 c -0.153,0.016 -0.31,-0.02 -0.444,-0.106 0.095,0.184 0.066,0.416 -0.088,0.57 -0.191,0.19 -0.5,0.19 -0.689,0 -0.192,-0.19 -0.192,-0.499 0,-0.689 0.153,-0.154 0.383,-0.184 0.567,-0.089 -0.087,-0.135 -0.122,-0.293 -0.107,-0.445 l -0.033,-0.033 c -0.153,0.015 -0.311,-0.02 -0.444,-0.106 0.094,0.183 0.065,0.414 -0.088,0.568 -0.191,0.19 -0.5,0.19 -0.69,0 -0.191,-0.19 -0.191,-0.499 0,-0.691 0.153,-0.153 0.385,-0.183 0.569,-0.088 -0.087,-0.135 -0.122,-0.292 -0.106,-0.443 l -0.037,-0.037 c -0.152,0.016 -0.309,-0.02 -0.443,-0.105 0.094,0.183 0.065,0.415 -0.088,0.568 -0.19,0.19 -0.499,0.19 -0.689,0 -0.19,-0.19 -0.19,-0.499 0,-0.689 0.153,-0.153 0.384,-0.183 0.568,-0.088 -0.086,-0.135 -0.122,-0.293 -0.107,-0.446 l -0.036,-0.037 c -0.152,0.016 -0.309,-0.019 -0.442,-0.104 0.095,0.184 0.067,0.415 -0.088,0.57 -0.19,0.19 -0.499,0.19 -0.69,0 -0.19,-0.19 -0.19,-0.499 0,-0.689 0.154,-0.153 0.384,-0.183 0.567,-0.089 -0.087,-0.135 -0.122,-0.293 -0.107,-0.447 l -0.032,-0.032 c -0.154,0.015 -0.31,-0.02 -0.444,-0.106 0.095,0.184 0.066,0.415 -0.088,0.57 -0.19,0.19 -0.498,0.19 -0.69,0 -0.19,-0.19 -0.19,-0.499 0,-0.691 0.155,-0.153 0.385,-0.182 0.568,-0.088 -0.086,-0.135 -0.122,-0.293 -0.106,-0.446 l -0.033,-0.032 c -0.153,0.016 -0.31,-0.02 -0.445,-0.106 0.095,0.183 0.065,0.414 -0.089,0.568 -0.19,0.19 -0.499,0.19 -0.689,0 -0.19,-0.192 -0.19,-0.499 0,-0.691 C 26.304,9.919 26.535,9.889 26.718,9.984 26.633,9.849 26.597,9.693 26.613,9.539 L 26.586,9.512 C 26.43,9.528 26.271,9.491 26.135,9.403 c 0.093,0.183 0.063,0.411 -0.09,0.563 -0.19,0.192 -0.499,0.192 -0.689,0 -0.19,-0.19 -0.19,-0.499 0,-0.689 C 25.511,9.122 25.745,9.093 25.929,9.19 25.845,9.058 25.81,8.902 25.825,8.751 L 25.78,8.707 c -0.151,0.015 -0.308,-0.02 -0.442,-0.106 0.095,0.184 0.066,0.416 -0.088,0.57 -0.19,0.19 -0.5,0.19 -0.689,0 -0.191,-0.19 -0.191,-0.499 0,-0.689 C 24.714,8.328 24.944,8.299 25.127,8.393 25.04,8.258 25.004,8.1 25.019,7.946 L 24.985,7.911 c -0.151,0.015 -0.308,-0.02 -0.442,-0.105 0.096,0.184 0.067,0.416 -0.087,0.57 -0.191,0.191 -0.499,0.191 -0.69,0 -0.191,-0.19 -0.191,-0.498 0,-0.689 0.153,-0.154 0.383,-0.183 0.566,-0.09 C 24.245,7.462 24.209,7.304 24.225,7.15 L 24.19,7.116 c -0.153,0.015 -0.309,-0.02 -0.442,-0.105 0.096,0.184 0.067,0.416 -0.088,0.57 -0.19,0.19 -0.498,0.19 -0.689,0 -0.19,-0.19 -0.19,-0.499 0,-0.689 C 23.125,6.739 23.354,6.709 23.538,6.803 23.451,6.668 23.415,6.51 23.43,6.356 L 23.4,6.326 c -0.153,0.015 -0.311,-0.021 -0.445,-0.107 0.094,0.183 0.064,0.414 -0.089,0.568 -0.19,0.19 -0.499,0.19 -0.689,0 -0.19,-0.19 -0.19,-0.498 0,-0.689 C 22.331,5.945 22.562,5.914 22.745,6.01 22.66,5.876 22.624,5.719 22.639,5.566 L 22.606,5.533 c -0.154,0.015 -0.311,-0.02 -0.446,-0.107 0.094,0.183 0.064,0.413 -0.089,0.567 -0.191,0.19 -0.499,0.19 -0.691,0 -0.19,-0.19 -0.19,-0.499 0,-0.689 C 21.535,5.15 21.767,5.12 21.951,5.216 21.866,5.082 21.83,4.926 21.846,4.773 l -0.04,-0.04 c -0.153,0.016 -0.308,-0.02 -0.442,-0.105 0.096,0.184 0.066,0.415 -0.088,0.57 -0.191,0.191 -0.5,0.191 -0.69,0 -0.19,-0.191 -0.19,-0.499 0,-0.689 C 20.739,4.355 20.97,4.325 21.153,4.419 21.066,4.285 21.03,4.127 21.045,3.973 l -0.02,-0.021 c -0.157,0.016 -0.318,-0.021 -0.453,-0.111 0.091,0.183 0.061,0.41 -0.092,0.563 -0.19,0.191 -0.499,0.191 -0.689,0 -0.19,-0.191 -0.19,-0.5 0,-0.69 C 19.947,3.558 20.181,3.53 20.366,3.629 20.283,3.497 20.249,3.342 20.264,3.193 L 20.22,3.148 c -0.153,0.016 -0.312,-0.02 -0.445,-0.107 0.094,0.184 0.064,0.415 -0.089,0.568 -0.19,0.19 -0.499,0.19 -0.689,0 -0.191,-0.19 -0.191,-0.499 0,-0.689 C 19.15,2.766 19.382,2.736 19.565,2.832 19.48,2.697 19.445,2.54 19.46,2.387 L 19.423,2.349 c -0.152,0.016 -0.308,-0.02 -0.442,-0.105 0.095,0.184 0.066,0.416 -0.088,0.57 -0.19,0.191 -0.499,0.191 -0.689,0 -0.191,-0.19 -0.191,-0.498 0,-0.689 C 18.357,1.971 18.587,1.941 18.77,2.036 18.683,1.901 18.648,1.743 18.662,1.589 L 18.635,1.561 c -0.151,0.018 -0.308,-0.014 -0.442,-0.095 0.086,0.181 0.054,0.403 -0.095,0.554 -0.19,0.19 -0.499,0.19 -0.69,0 -0.19,-0.191 -0.19,-0.5 0,-0.691 C 17.558,1.18 17.78,1.148 17.96,1.234 17.878,1.099 17.846,0.943 17.863,0.79 L 17.834,0.761 C 17.681,0.78 17.523,0.747 17.388,0.664 c 0.093,0.183 0.063,0.412 -0.09,0.565 -0.19,0.19 -0.499,0.19 -0.69,0 -0.169,-0.169 -0.187,-0.431 -0.056,-0.62 -0.14,0.108 -0.31,0.156 -0.478,0.143 l -0.062,0.062 c 0.013,0.166 -0.034,0.335 -0.14,0.474 0.19,-0.134 0.454,-0.115 0.624,0.054 0.19,0.19 0.19,0.5 0,0.69 -0.19,0.19 -0.499,0.19 -0.69,0 -0.168,-0.168 -0.187,-0.429 -0.059,-0.618 -0.14,0.109 -0.311,0.158 -0.479,0.145 l -0.057,0.056 c 0.012,0.167 -0.034,0.336 -0.141,0.474 0.19,-0.133 0.454,-0.115 0.624,0.054 0.19,0.191 0.19,0.499 0,0.691 -0.19,0.19 -0.499,0.19 -0.689,0 -0.169,-0.169 -0.188,-0.43 -0.058,-0.62 -0.14,0.11 -0.311,0.158 -0.479,0.145 L 14.406,2.42 c 0.013,0.166 -0.033,0.334 -0.139,0.472 0.19,-0.135 0.455,-0.117 0.626,0.054 0.19,0.19 0.19,0.498 0,0.689 -0.19,0.191 -0.499,0.191 -0.689,0 -0.168,-0.167 -0.188,-0.427 -0.06,-0.617 -0.14,0.11 -0.312,0.16 -0.481,0.146 l -0.057,0.057 c 0.012,0.165 -0.035,0.334 -0.14,0.472 0.19,-0.135 0.455,-0.117 0.625,0.053 0.19,0.19 0.19,0.5 0,0.69 -0.19,0.19 -0.499,0.19 -0.689,0 -0.168,-0.167 -0.188,-0.428 -0.059,-0.618 -0.14,0.11 -0.313,0.159 -0.481,0.146 l -0.043,0.042 c 0.014,0.169 -0.036,0.341 -0.146,0.481 0.19,-0.128 0.448,-0.107 0.617,0.06 0.19,0.19 0.19,0.499 0,0.69 -0.19,0.19 -0.499,0.19 -0.689,0 C 12.431,5.066 12.413,4.801 12.548,4.61 12.41,4.716 12.242,4.762 12.076,4.75 l -0.069,0.07 c 0.012,0.166 -0.035,0.335 -0.141,0.474 0.19,-0.133 0.454,-0.115 0.623,0.054 0.19,0.19 0.19,0.499 0,0.689 -0.19,0.191 -0.499,0.191 -0.689,0 -0.169,-0.168 -0.188,-0.43 -0.058,-0.619 -0.14,0.109 -0.311,0.157 -0.479,0.144 L 11.215,5.61 c 0.012,0.169 -0.036,0.34 -0.146,0.48 0.19,-0.128 0.45,-0.108 0.618,0.059 0.19,0.19 0.19,0.499 0,0.689 -0.19,0.19 -0.499,0.19 -0.689,0 C 10.828,6.667 10.81,6.403 10.945,6.214 10.806,6.319 10.638,6.366 10.471,6.354 L 10.405,6.42 c 0.013,0.167 -0.034,0.337 -0.142,0.476 0.19,-0.132 0.453,-0.114 0.623,0.056 0.19,0.19 0.19,0.499 0,0.69 -0.19,0.19 -0.499,0.19 -0.689,0 C 10.028,7.473 10.009,7.212 10.14,7.021 10,7.13 9.83,7.177 9.662,7.164 L 9.609,7.218 c 0.013,0.169 -0.035,0.34 -0.145,0.48 0.19,-0.13 0.45,-0.11 0.618,0.058 0.19,0.19 0.19,0.499 0,0.689 -0.19,0.19 -0.499,0.19 -0.689,0 C 9.224,8.275 9.205,8.012 9.339,7.821 9.201,7.927 9.032,7.974 8.865,7.962 L 8.803,8.024 C 8.816,8.192 8.768,8.361 8.66,8.5 8.85,8.369 9.112,8.387 9.281,8.557 c 0.191,0.19 0.191,0.499 0,0.689 -0.19,0.191 -0.499,0.191 -0.689,0 C 8.423,9.077 8.404,8.815 8.536,8.625 8.397,8.733 8.226,8.781 8.06,8.767 L 7.999,8.828 C 8.013,8.994 7.964,9.165 7.857,9.303 8.047,9.171 8.31,9.19 8.479,9.359 c 0.191,0.19 0.191,0.499 0,0.689 -0.19,0.19 -0.499,0.19 -0.689,0 C 7.621,9.88 7.602,9.618 7.733,9.428 7.593,9.537 7.423,9.585 7.255,9.571 L 7.201,9.626 c 0.012,0.168 -0.036,0.339 -0.143,0.478 0.19,-0.131 0.452,-0.112 0.62,0.057 0.191,0.19 0.191,0.499 0,0.689 -0.19,0.19 -0.499,0.19 -0.689,0 C 6.82,10.681 6.801,10.418 6.933,10.229 6.793,10.336 6.624,10.383 6.457,10.371 l -0.052,0.052 c 0.012,0.169 -0.036,0.341 -0.147,0.481 0.19,-0.128 0.45,-0.109 0.617,0.059 0.19,0.19 0.19,0.499 0,0.689 -0.19,0.19 -0.499,0.19 -0.689,0 -0.171,-0.17 -0.188,-0.435 -0.053,-0.625 -0.138,0.105 -0.308,0.152 -0.473,0.14 l -0.066,0.066 c 0.012,0.168 -0.035,0.337 -0.142,0.477 0.19,-0.132 0.453,-0.114 0.621,0.055 0.191,0.19 0.191,0.499 0,0.69 -0.19,0.19 -0.498,0.19 -0.689,0 -0.169,-0.169 -0.188,-0.431 -0.057,-0.62 -0.14,0.108 -0.31,0.156 -0.477,0.142 l -0.052,0.052 c 0.012,0.169 -0.036,0.341 -0.145,0.481 0.19,-0.13 0.45,-0.11 0.619,0.058 0.19,0.19 0.19,0.499 0,0.689 -0.191,0.19 -0.499,0.19 -0.69,0 C 4.412,13.087 4.394,12.823 4.528,12.633 4.39,12.739 4.22,12.786 4.054,12.774 L 3.996,12.83 c 0.012,0.169 -0.036,0.34 -0.144,0.479 0.19,-0.13 0.451,-0.11 0.619,0.058 0.19,0.19 0.19,0.499 0,0.689 -0.19,0.19 -0.499,0.19 -0.69,0 C 3.612,13.887 3.594,13.623 3.727,13.432 3.589,13.539 3.418,13.586 3.252,13.574 L 3.18,13.648 c 0.012,0.164 -0.034,0.331 -0.138,0.469 0.19,-0.136 0.457,-0.12 0.628,0.052 0.191,0.19 0.191,0.499 0,0.689 -0.191,0.19 -0.5,0.19 -0.69,0 C 2.813,14.691 2.793,14.433 2.919,14.244 2.778,14.355 2.605,14.404 2.435,14.391 L 2.39,14.436 c 0.012,0.168 -0.035,0.338 -0.143,0.478 0.19,-0.131 0.452,-0.112 0.621,0.057 0.191,0.19 0.191,0.499 0,0.689 -0.191,0.19 -0.499,0.19 -0.69,0 C 2.009,15.491 1.991,15.228 2.122,15.039 1.983,15.145 1.813,15.193 1.646,15.181 l -0.059,0.058 c 0.013,0.168 -0.035,0.337 -0.142,0.477 0.189,-0.131 0.452,-0.113 0.621,0.057 0.191,0.19 0.191,0.499 0,0.689 -0.19,0.19 -0.499,0.19 -0.689,0 -0.169,-0.169 -0.188,-0.431 -0.056,-0.621 -0.14,0.107 -0.31,0.156 -0.477,0.143 l -0.063,0.063 c 0.012,0.164 -0.035,0.335 -0.141,0.473 0.19,-0.133 0.455,-0.116 0.624,0.055 0.191,0.19 0.191,0.499 0,0.689 -0.162,0.162 -0.411,0.185 -0.598,0.07 0.098,0.141 0.136,0.31 0.117,0.472 l 0.032,0.033 c 0.165,-0.02 0.335,0.02 0.478,0.119 -0.108,-0.188 -0.083,-0.43 0.077,-0.589 0.19,-0.19 0.499,-0.19 0.689,0 0.19,0.19 0.19,0.499 0,0.689 -0.161,0.16 -0.403,0.185 -0.59,0.076 0.098,0.142 0.136,0.311 0.117,0.476 l 0.04,0.04 c 0.192,-0.012 0.388,0.054 0.535,0.201 0.147,0.145 0.213,0.342 0.201,0.533 l 0.062,0.063 c 0.193,-0.011 0.388,0.054 0.535,0.201 0.147,0.146 0.213,0.342 0.201,0.535 l 0.069,0.069 c 0.192,-0.012 0.388,0.054 0.535,0.201 0.147,0.147 0.212,0.342 0.201,0.534 l 0.045,0.046 c 0.192,-0.012 0.388,0.054 0.535,0.201 0.146,0.146 0.213,0.342 0.201,0.534 l 0.065,0.066 c 0.191,-0.012 0.387,0.054 0.534,0.2 0.147,0.147 0.214,0.342 0.201,0.535 l 0.058,0.057 c 0.192,-0.012 0.387,0.056 0.534,0.201 0.147,0.147 0.214,0.342 0.201,0.534 l 0.056,0.055 c 0.191,-0.011 0.388,0.054 0.535,0.201 0.146,0.148 0.212,0.342 0.2,0.535 l 0.059,0.059 c 0.192,-0.012 0.388,0.055 0.535,0.201 0.146,0.146 0.212,0.342 0.201,0.534 l 0.059,0.059 c 0.192,-0.012 0.388,0.054 0.534,0.201 0.147,0.146 0.214,0.342 0.201,0.534 l 0.069,0.07 c 0.192,-0.012 0.388,0.055 0.535,0.201 0.147,0.146 0.213,0.343 0.201,0.534 l 0.052,0.053 c 0.191,-0.012 0.387,0.054 0.534,0.2 0.146,0.146 0.213,0.343 0.201,0.535 l 0.058,0.057 c 0.191,-0.011 0.387,0.054 0.534,0.201 0.146,0.147 0.213,0.344 0.201,0.534 l 0.058,0.058 c 0.191,-0.012 0.387,0.055 0.534,0.201 0.147,0.147 0.214,0.344 0.201,0.534 l 0.061,0.062 c 0.191,-0.013 0.387,0.054 0.534,0.2 0.146,0.148 0.213,0.343 0.201,0.535 l 0.061,0.062 c 0.192,-0.013 0.388,0.053 0.534,0.201 0.146,0.146 0.213,0.342 0.201,0.535 l 0.057,0.057 c 0.192,-0.012 0.388,0.054 0.534,0.201 0.147,0.146 0.214,0.342 0.201,0.534 l 0.057,0.057 c 0.192,-0.011 0.388,0.054 0.534,0.203 0.147,0.145 0.214,0.341 0.201,0.534 l 0.063,0.063 c 0.192,-0.012 0.387,0.055 0.534,0.2 0.146,0.146 0.213,0.344 0.201,0.535 l 0.059,0.059 c 0.191,-0.012 0.388,0.055 0.534,0.2 0.147,0.147 0.213,0.344 0.201,0.535 l 0.019,0.017 c 0.078,-0.011 0.157,-0.008 0.235,0.007 l 0.004,-0.002 c -0.022,-0.159 0.012,-0.324 0.101,-0.466 -0.182,0.09 -0.408,0.059 -0.559,-0.091 -0.19,-0.191 -0.19,-0.5 0,-0.691 0.19,-0.19 0.499,-0.19 0.69,0 0.153,0.152 0.183,0.383 0.09,0.564 0.138,-0.085 0.301,-0.117 0.457,-0.096 l 0.027,-0.027 c -0.021,-0.159 0.012,-0.325 0.101,-0.465 -0.183,0.093 -0.412,0.063 -0.565,-0.09 -0.191,-0.191 -0.191,-0.499 0,-0.688 0.19,-0.191 0.498,-0.191 0.689,0 0.153,0.152 0.183,0.381 0.09,0.563 0.14,-0.088 0.304,-0.122 0.463,-0.1 l 0.023,-0.023 c -0.021,-0.158 0.012,-0.324 0.101,-0.463 -0.184,0.094 -0.413,0.063 -0.566,-0.092 -0.19,-0.189 -0.19,-0.496 0,-0.688 0.191,-0.19 0.499,-0.19 0.69,0 0.152,0.153 0.183,0.381 0.09,0.564 0.14,-0.09 0.305,-0.124 0.464,-0.101 l 0.009,-0.01 c -0.022,-0.162 0.013,-0.331 0.106,-0.472 -0.182,0.089 -0.407,0.057 -0.558,-0.093 -0.19,-0.191 -0.19,-0.5 0,-0.691 0.191,-0.19 0.5,-0.19 0.69,0 0.154,0.154 0.184,0.388 0.087,0.572 0.138,-0.085 0.3,-0.117 0.456,-0.096 l 0.037,-0.037 c -0.021,-0.159 0.012,-0.322 0.099,-0.462 -0.183,0.094 -0.412,0.065 -0.566,-0.089 -0.19,-0.191 -0.19,-0.498 0,-0.689 0.191,-0.191 0.5,-0.191 0.69,0 0.152,0.153 0.182,0.38 0.091,0.563 0.14,-0.09 0.306,-0.124 0.467,-0.103 l 0.023,-0.023 c -0.021,-0.157 0.011,-0.321 0.099,-0.461 -0.184,0.095 -0.414,0.064 -0.568,-0.089 -0.191,-0.189 -0.191,-0.499 0,-0.689 0.191,-0.189 0.499,-0.189 0.69,0 0.152,0.152 0.182,0.379 0.091,0.562 0.14,-0.09 0.306,-0.123 0.467,-0.102 l 0.016,-0.016 c -0.021,-0.159 0.012,-0.325 0.101,-0.465 -0.183,0.092 -0.411,0.063 -0.564,-0.091 -0.191,-0.191 -0.191,-0.499 0,-0.689 0.19,-0.19 0.499,-0.19 0.689,0 0.154,0.153 0.184,0.382 0.09,0.567 0.14,-0.09 0.305,-0.123 0.463,-0.102 l 0.031,-0.029 c -0.022,-0.157 0.011,-0.319 0.098,-0.459 -0.184,0.095 -0.415,0.065 -0.569,-0.088 -0.19,-0.191 -0.19,-0.5 0,-0.691 0.191,-0.19 0.5,-0.19 0.69,0 0.151,0.152 0.182,0.379 0.091,0.561 0.142,-0.09 0.308,-0.125 0.468,-0.104 l 0.017,-0.016 c -0.022,-0.158 0.013,-0.323 0.101,-0.463 -0.183,0.094 -0.413,0.063 -0.565,-0.089 -0.191,-0.192 -0.191,-0.501 0,-0.691 0.19,-0.19 0.498,-0.19 0.69,0 0.152,0.153 0.182,0.382 0.09,0.565 0.14,-0.09 0.305,-0.122 0.464,-0.101 l 0.019,-0.02 c -0.021,-0.159 0.012,-0.324 0.102,-0.465 -0.183,0.093 -0.411,0.062 -0.563,-0.09 -0.191,-0.192 -0.191,-0.499 0,-0.691 0.189,-0.189 0.498,-0.189 0.689,0 0.153,0.153 0.183,0.383 0.089,0.566 0.14,-0.088 0.304,-0.121 0.462,-0.1 l 0.025,-0.025 c -0.021,-0.158 0.012,-0.322 0.101,-0.463 -0.183,0.093 -0.413,0.063 -0.566,-0.09 -0.19,-0.189 -0.19,-0.498 0,-0.689 0.19,-0.19 0.5,-0.19 0.691,0 0.153,0.155 0.182,0.382 0.09,0.565 0.14,-0.089 0.305,-0.122 0.463,-0.101 l 0.026,-0.026 c -0.021,-0.157 0.012,-0.321 0.1,-0.461 -0.183,0.095 -0.414,0.066 -0.568,-0.088 -0.19,-0.19 -0.19,-0.499 0,-0.691 0.191,-0.19 0.499,-0.19 0.69,0 0.152,0.153 0.182,0.379 0.092,0.562 0.14,-0.089 0.306,-0.124 0.466,-0.103 l 0.016,-0.015 c -0.021,-0.159 0.012,-0.325 0.102,-0.466 -0.183,0.091 -0.412,0.062 -0.565,-0.09 -0.19,-0.19 -0.19,-0.5 0,-0.691 0.192,-0.19 0.499,-0.19 0.69,10e-4 0.153,0.152 0.182,0.383 0.09,0.565 0.14,-0.088 0.304,-0.121 0.463,-0.099 l 0.03,-0.031 c -0.021,-0.158 0.011,-0.32 0.098,-0.46 -0.184,0.095 -0.415,0.066 -0.569,-0.088 -0.19,-0.191 -0.19,-0.5 0,-0.689 0.191,-0.191 0.499,-0.191 0.691,0 0.151,0.151 0.182,0.378 0.091,0.561 0.141,-0.091 0.308,-0.126 0.469,-0.104 l 0.012,-0.012 c -0.022,-0.161 0.012,-0.326 0.103,-0.467 -0.183,0.093 -0.411,0.062 -0.563,-0.09 -0.19,-0.192 -0.19,-0.499 0,-0.691 0.191,-0.189 0.499,-0.189 0.69,0 0.153,0.154 0.183,0.384 0.09,0.567 0.139,-0.087 0.303,-0.12 0.461,-0.099 L 28.96,21.67 c -0.021,-0.157 0.011,-0.317 0.097,-0.457 -0.183,0.097 -0.415,0.067 -0.569,-0.088 -0.19,-0.191 -0.19,-0.499 0,-0.689 0.19,-0.192 0.5,-0.192 0.689,0 0.152,0.152 0.182,0.378 0.093,0.559 0.142,-0.092 0.309,-0.126 0.469,-0.105 l 0.007,-0.006 c -0.022,-0.161 0.012,-0.329 0.104,-0.469 -0.183,0.09 -0.409,0.061 -0.561,-0.091 -0.19,-0.19 -0.19,-0.499 0,-0.689 0.19,-0.191 0.499,-0.19 0.689,0 0.154,0.153 0.184,0.384 0.089,0.568 0.138,-0.086 0.301,-0.119 0.458,-0.098 l 0.021,-0.022 c -0.021,-0.161 0.014,-0.327 0.105,-0.468 -0.182,0.089 -0.409,0.059 -0.561,-0.093 -0.19,-0.19 -0.19,-0.499 0,-0.689 0.19,-0.19 0.499,-0.19 0.689,0 0.154,0.153 0.184,0.385 0.088,0.568 0.14,-0.085 0.301,-0.118 0.459,-0.096 l 0.025,-0.026 c -0.021,-0.161 0.013,-0.326 0.103,-0.467 -0.182,0.091 -0.409,0.06 -0.562,-0.093 -0.19,-0.189 -0.19,-0.498 0,-0.688 0.19,-0.191 0.499,-0.191 0.69,0 0.154,0.153 0.183,0.383 0.088,0.567 0.14,-0.088 0.303,-0.121 0.461,-0.099 l 0.021,-0.022 c -0.021,-0.161 0.013,-0.326 0.103,-0.467 -0.182,0.09 -0.409,0.061 -0.562,-0.091 -0.19,-0.19 -0.19,-0.499 0,-0.689 0.19,-0.192 0.499,-0.192 0.69,0 0.154,0.153 0.182,0.384 0.088,0.567 0.14,-0.087 0.303,-0.118 0.46,-0.097 l 0.027,-0.027 c -0.017,-0.156 0.017,-0.322 0.107,-0.462 z"
   id="path11" />
		<path
   class="st0"
   d="m 33.285,16.55 c 0.071,0.138 0.072,0.305 0.001,0.443 0.138,-0.084 0.299,-0.116 0.455,-0.096 -0.016,-0.078 -0.018,-0.158 -0.007,-0.237 L 33.73,16.657 c -0.154,0.015 -0.311,-0.021 -0.445,-0.107 z"
   id="path12" />
	</g>
</g>
<path
   class="st0"
   d="m 6.3627,157.45205 9.86028,22.77618 9.89457,-22.77618 5.50545,28.67788 h -3.09372 l -3.48996,-18.34897 h -0.07239 l -8.74395,19.4653 -8.70966,-19.4653 H 7.44474 L 3.95478,186.12993 H 0.85725 Z"
   id="path13"
   style="stroke-width:3.81" />
<path
   class="st0"
   d="m 42.63009,158.99891 h 14.07033 v 2.80798 H 45.65523 v 8.06196 h 10.72134 v 2.80797 H 45.65523 v 10.64895 h 11.04519 v 2.80797 H 42.63009 Z"
   id="path14"
   style="stroke-width:3.81" />
<path
   class="st0"
   d="m 72.42048,183.32195 h 7.48284 v 2.80798 H 69.39534 v -27.13102 h 3.02133 v 24.32304 z"
   id="path15"
   style="stroke-width:3.81" />
<path
   class="st0"
   d="m 90.44559,158.99891 h 4.46151 c 4.93014,0 9.0678,1.79832 9.0678,7.34187 0,2.19456 -0.82677,4.06527 -2.66319,5.28829 3.2385,0.79248 5.1435,3.70713 5.1435,6.94563 0,5.39495 -4.35483,7.55523 -9.7155,7.55523 h -6.29793 v -27.13102 z m 3.02133,11.94435 h 1.15062 c 3.41757,0 6.33222,-0.39624 6.33222,-4.60629 0,-4.10337 -2.5908,-4.5339 -6.29793,-4.5339 h -1.18872 v 9.1402 z m 0,12.37869 h 3.02133 c 3.38328,0 6.94563,-0.82677 6.94563,-4.96443 0,-4.21003 -4.03098,-4.81963 -7.34187,-4.81963 h -2.62509 z"
   id="path16"
   style="stroke-width:3.81" />
<path
   class="st0"
   d="m 145.3515,172.60061 c 0,7.80669 -6.40461,13.99794 -14.14272,13.99794 -7.73811,0 -14.14272,-6.18744 -14.14272,-13.99794 0,-7.7724 6.40461,-14.07033 14.14272,-14.07033 7.73811,0 14.14272,6.29793 14.14272,14.07033 z m -25.2603,-0.0381 c 0,6.11505 4.96443,11.22807 11.11758,11.22807 6.15315,0 11.11758,-5.10922 11.11758,-11.22807 0,-6.15316 -4.89204,-11.22807 -11.11758,-11.22807 -6.22554,0.003 -11.11758,5.07491 -11.11758,11.22807 z"
   id="path17"
   style="stroke-width:3.81" />
<path
   class="st0"
   d="m 159.95523,175.15332 c 0,2.01549 -0.0724,4.32054 1.18872,6.04647 1.18872,1.65353 3.48996,2.5908 5.47116,2.5908 1.9431,0 4.06527,-0.89916 5.32638,-2.41172 1.44018,-1.72976 1.32969,-4.10339 1.32969,-6.22555 v -16.15439 h 3.02133 v 16.98497 c 0,2.94893 -0.21717,5.28829 -2.37363,7.52094 -1.87071,2.01549 -4.56819,3.09372 -7.30377,3.09372 -2.55651,0 -5.1816,-0.97155 -7.01802,-2.76987 -2.37363,-2.26695 -2.66319,-4.75107 -2.66319,-7.84479 v -16.98499 h 3.02133 z"
   id="path18"
   style="stroke-width:3.81" />
<path
   class="st0"
   d="m 192.22593,186.12993 h -3.02133 v -27.13102 h 3.92049 c 5.14731,0 9.93267,1.3678 9.93267,7.48285 0,4.17194 -2.62509,7.12469 -6.80085,7.48284 l 8.63727,12.16152 h -3.70713 l -8.20293,-11.91006 h -0.75438 v 11.91387 z m 0,-14.57326 h 0.93726 c 3.41757,0 6.87324,-0.6477 6.87324,-4.85775 0,-4.46151 -3.27279,-4.89204 -6.90753,-4.89204 h -0.89916 v 9.74979 z"
   id="path19"
   style="stroke-width:3.81" />
<path
   class="st0"
   d="m 216.44229,157.84829 21.15693,22.16659 v -21.01216 h 3.02133 v 28.35404 l -21.15693,-22.12849 v 20.90548 h -3.02133 z"
   id="path20"
   style="stroke-width:3.81" />
<path
   class="st0"
   d="m 253.8222,158.99891 h 14.07033 v 2.80798 h -11.04519 v 8.06196 h 10.72134 v 2.80797 h -10.72134 v 10.64895 h 11.04519 v 2.80797 H 253.8222 Z"
   id="path21"
   style="stroke-width:3.81" />
<path
   class="st0"
   d="m 302.57115,178.42991 -3.2766,7.70002 h -3.31089 l 12.52347,-28.42642 12.19962,28.42642 h -3.34518 l -3.20421,-7.70002 z m 5.8674,-13.67408 -4.64058,10.86611 h 9.17448 z"
   id="path22"
   style="stroke-width:3.81" />
<path
   class="st0"
   d="m 333.43977,175.15332 c 0,2.01549 -0.0724,4.32054 1.18872,6.04647 1.18491,1.65353 3.48996,2.5908 5.46735,2.5908 1.9431,0 4.06527,-0.89916 5.32638,-2.41172 1.44018,-1.72976 1.3335,-4.10339 1.3335,-6.22555 v -16.15439 h 3.02133 v 16.98497 c 0,2.94893 -0.21717,5.28829 -2.37363,7.52094 -1.87071,2.01549 -4.56819,3.09372 -7.30377,3.09372 -2.5527,0 -5.1816,-0.97155 -7.01802,-2.76987 -2.37363,-2.26696 -2.66319,-4.75108 -2.66319,-7.84479 v -16.98499 h 3.02133 z"
   id="path23"
   style="stroke-width:3.81" />
<path
   class="st0"
   d="m 374.99544,164.28719 c -1.07823,-1.8707 -2.37363,-2.95274 -4.67868,-2.95274 -2.41173,0 -4.49961,1.72973 -4.49961,4.21004 0,2.33934 2.41173,3.41757 4.24434,4.24815 l 1.79832,0.79248 c 3.52425,1.54687 6.51129,3.3109 6.51129,7.62763 0,4.75106 -3.81381,8.38581 -8.52678,8.38581 -4.35483,0 -7.59333,-2.80797 -8.4582,-7.01803 l 2.95275,-0.82677 c 0.39624,2.76988 2.51841,5.03683 5.43306,5.03683 2.91465,0 5.57784,-2.23267 5.57784,-5.28828 0,-3.16611 -2.48412,-4.24815 -5.00253,-5.39877 l -1.65735,-0.7201 c -3.16611,-1.44018 -5.90169,-3.05942 -5.90169,-6.94563 0,-4.21004 3.56235,-6.90752 7.59333,-6.90752 3.02133,0 5.57784,1.54686 7.01802,4.21005 z"
   id="path24"
   style="stroke-width:3.81" />
<path
   class="st0"
   d="m 397.55445,186.12993 h -3.02133 v -24.32304 h -6.54939 v -2.80798 h 16.1925 v 2.80798 h -6.62178 z"
   id="path25"
   style="stroke-width:3.81" />
<path
   class="st0"
   d="m 417.84651,186.12993 h -3.02133 v -27.13102 h 3.92049 c 5.14731,0 9.93267,1.3678 9.93267,7.48285 0,4.17194 -2.6289,7.12469 -6.80085,7.48284 l 8.63727,12.16152 h -3.70713 l -8.20293,-11.91006 h -0.75438 v 11.91387 z m 0,-14.57326 h 0.93726 c 3.41757,0 6.87324,-0.6477 6.87324,-4.85775 0,-4.46151 -3.27279,-4.89204 -6.90753,-4.89204 h -0.89916 v 9.74979 z"
   id="path26"
   style="stroke-width:3.81" />
<path
   class="st0"
   d="m 445.94526,178.42991 -3.2766,7.70002 h -3.31089 l 12.52347,-28.42642 12.19962,28.42642 h -3.34518 l -3.20421,-7.70002 z m 5.86359,-13.67408 -4.64058,10.86611 h 9.17448 z"
   id="path27"
   style="stroke-width:3.81" />
<path
   class="st0"
   d="m 477.60255,183.32195 h 7.48284 v 2.80798 h -10.50798 v -27.13102 h 3.02133 v 24.32304 z"
   id="path28"
   style="stroke-width:3.81" />
<path
   class="st0"
   d="m 498.72138,186.12993 h -3.02133 v -27.13102 h 3.02133 z"
   id="path29"
   style="stroke-width:3.81" />
<path
   class="st0"
   d="m 514.41096,178.42991 -3.2766,7.70002 h -3.31089 l 12.52347,-28.42642 12.19962,28.42642 h -3.34518 l -3.20421,-7.70002 z m 5.86359,-13.67408 -4.64058,10.86611 h 9.17448 z"
   id="path30"
   style="stroke-width:3.81" />
<rect
   y="143.27504"
   class="st0"
   width="533.40002"
   height="0.76581001"
   id="rect30"
   x="3.0517579e-06"
   style="stroke-width:3.81" />
</svg>
